<svg width="46" height="46" viewBox="0 0 46 46" fill="none" xmlns="http://www.w3.org/2000/svg">
    <path d="M22.8448 45.6896C35.4617 45.6896 45.6896 35.4617 45.6896 22.8448C45.6896 10.228 35.4617 0 22.8448 0C10.228 0 0 10.228 0 22.8448C0 35.4617 10.228 45.6896 22.8448 45.6896Z" fill="#F3BA2F"/>
    <path d="M18.5442 21.1273L22.7065 16.9649L26.8709 21.1291L29.2928 18.7072L22.7065 12.1211L16.1224 18.7052L18.5442 21.1271L18.5442 21.1273ZM11.9902 22.8374L14.4122 20.4151L16.834 22.8369L14.412 25.2589L11.9902 22.8374ZM18.5442 24.5479L22.7065 28.71L26.8708 24.5459L29.294 26.9665L29.2928 26.9678L22.7065 33.5538L16.1224 26.9697L16.119 26.9662L18.5444 24.5476L18.5442 24.5479ZM28.5791 22.8385L31.001 20.4165L33.4228 22.8383L31.001 25.2603L28.5791 22.8385Z" fill="white"/>
    <path d="M25.1632 22.8355H25.1643L22.7069 20.3779L20.8905 22.1938L20.6818 22.4025L20.2515 22.833L20.248 22.8363L20.2515 22.8399L22.7069 25.2956L25.1644 22.8381L25.1656 22.8367L25.1634 22.8355" fill="white"/>
</svg>
