<svg xmlns="http://www.w3.org/2000/svg" fill="none" viewBox="0 0 64 64">
  <g clip-path="url(#clip0)">
    <mask id="a" fill="#fff">
      <path fill-rule="evenodd" d="M28.975 19l-.535 2.739c-.585.183-1.147.418-1.682.698l-2.312-1.562-3.571 3.571 1.562 2.312c-.28.535-.515 1.097-.698 1.682L19 28.975v5.05l2.734.534c.183.587.418 1.152.7 1.689l-1.56 2.306 3.572 3.571 2.3-1.555c.54.284 1.107.52 1.697.706L28.975 44h5.05l.53-2.72a10.167 10.167 0 001.704-.706l2.295 1.551 3.571-3.571-1.55-2.295c.283-.54.52-1.11.705-1.703l2.72-.531v-5.05l-2.724-.532a10.168 10.168 0 00-.706-1.696l1.555-2.3-3.571-3.572-2.306 1.558a10.169 10.169 0 00-1.69-.699L34.026 19h-5.05z" clip-rule="evenodd"/>
    </mask>
    <path fill="#006DFF" d="M28.44 21.739l.599 1.908 1.136-.356.228-1.169-1.963-.383zM28.975 19v-2h-1.647l-.316 1.617 1.963.383zm-2.217 3.437l-1.12 1.657.99.67 1.06-.556-.93-1.77zm-2.312-1.562l1.12-1.657-1.367-.924-1.167 1.166 1.414 1.415zm-3.571 3.571l-1.415-1.414-1.166 1.167.924 1.367 1.657-1.12zm1.562 2.312l1.771.93.556-1.06-.67-.99-1.657 1.12zm-.698 1.682l.383 1.963 1.169-.228.356-1.136-1.908-.599zM19 28.975l-.383-1.963-1.617.316v1.647h2zm0 5.05h-2v1.647l1.617.316.383-1.963zm2.734.534l1.91-.596-.356-1.139-1.17-.228-.384 1.963zm.7 1.689l1.656 1.12.67-.99-.555-1.058-1.772.928zm-1.56 2.306l-1.656-1.12-.924 1.367 1.166 1.167 1.415-1.414zm3.572 3.571l-1.414 1.414 1.167 1.167 1.367-.924-1.12-1.657zm2.3-1.555l.932-1.77-1.06-.557-.991.67 1.12 1.657zm1.697.706l1.963-.384-.228-1.169-1.137-.356-.598 1.909zM28.975 44l-1.963.383.316 1.617h1.647v-2zm5.05 0v2h1.647l.316-1.617L34.024 44zm.53-2.72l-.594-1.91-1.14.356-.228 1.171 1.963.383zm1.704-.706l1.12-1.657-.99-.67-1.06.557.93 1.77zm2.295 1.551l-1.12 1.657 1.367.924 1.167-1.167-1.414-1.414zm3.571-3.571l1.414 1.414 1.167-1.167-.924-1.367-1.657 1.12zm-1.55-2.295l-1.771-.93-.556 1.06.67.99 1.656-1.12zm.705-1.703l-.383-1.963-1.171.228-.355 1.14 1.91.595zm2.72-.531l.383 1.962L46 35.672v-1.647h-2zm0-5.05h2v-1.647l-1.617-.316L44 28.975zm-2.724-.532l-1.909.598.356 1.137 1.17.228.383-1.963zm-.706-1.696l-1.657-1.12-.67.992.557 1.06 1.77-.932zm1.555-2.3l1.657 1.12.924-1.368-1.167-1.167-1.414 1.414zm-3.571-3.572l1.414-1.415-1.167-1.166-1.367.924 1.12 1.657zm-2.306 1.558l-.928 1.772 1.058.554.99-.669-1.12-1.657zm-1.69-.699l-1.962.383.228 1.171 1.139.355.596-1.909zM34.026 19l1.962-.383L35.672 17h-1.647v2zm-3.622 3.122l.535-2.739-3.926-.766-.535 2.738 3.926.767zm-2.716 2.086c.43-.225.882-.414 1.352-.561l-1.197-3.817c-.7.22-1.374.5-2.013.836l1.858 3.542zm-4.36-1.676l2.311 1.562 2.24-3.314-2.312-1.562-2.24 3.314zm-1.038 3.328l3.571-3.571-2.828-2.829-3.572 3.572 2.829 2.828zm1.805-.222l-1.562-2.312-3.314 2.24 1.562 2.312 3.314-2.24zm-.447 3.4c.147-.469.336-.92.561-1.35l-3.542-1.86c-.335.64-.616 1.314-.836 2.014l3.817 1.197zm-4.264 1.9l2.739-.535-.767-3.925-2.738.534.766 3.926zM21 34.025v-5.05h-4v5.05h4zm1.117-1.43l-2.734-.533-.766 3.925 2.734.535.767-3.926zm2.088 2.725a8.172 8.172 0 01-.562-1.357l-3.818 1.191c.22.704.5 1.38.837 2.022l3.543-1.856zm-1.673 4.354l1.558-2.306-3.314-2.24-1.558 2.306 3.314 2.24zm3.328 1.037L22.29 37.14l-2.829 2.828 3.572 3.571 2.828-2.828zm-.233-1.798l-2.3 1.555 2.24 3.314 2.3-1.555-2.24-3.314zm3.414.454a8.176 8.176 0 01-1.363-.567l-1.863 3.54c.645.34 1.324.623 2.03.844l1.196-3.817zm1.897 4.25l-.532-2.725-3.926.767.532 2.724 3.926-.767zM34.025 42h-5.05v4h5.05v-4zm-1.432-1.103l-.531 2.72 3.925.766.532-2.72-3.926-.766zm2.736-2.093a8.169 8.169 0 01-1.368.567l1.19 3.819c.71-.221 1.391-.505 2.038-.845l-1.86-3.541zm4.345 1.664l-2.295-1.55-2.24 3.313 2.295 1.551 2.24-3.314zm1.037-3.328L37.14 40.71l2.828 2.828 3.571-3.57-2.828-2.83zm-1.794.24l1.551 2.294 3.314-2.24-1.55-2.295-3.315 2.24zm.454-3.42a8.169 8.169 0 01-.567 1.37l3.54 1.86c.34-.648.625-1.33.846-2.04l-3.82-1.19zm4.245-1.898l-2.719.53.767 3.927 2.72-.532-.768-3.925zM42 28.975v5.05h4v-5.05h-4zm-1.108 1.431l2.724.532.767-3.926-2.724-.532-.767 3.926zM38.8 27.678c.228.433.419.89.567 1.363l3.817-1.196a12.176 12.176 0 00-.844-2.03l-3.54 1.863zm1.668-4.352l-1.555 2.3 3.314 2.24 1.555-2.3-3.314-2.24zM37.14 22.29l3.571 3.571 2.828-2.828-3.57-3.572-2.83 2.829zm.228 1.801l2.306-1.558-2.24-3.314-2.306 1.558 2.24 3.314zm-3.405-.447c.472.148.926.336 1.357.562l1.856-3.543a12.178 12.178 0 00-2.022-.837l-1.191 3.818zm-1.901-4.26l.534 2.735 3.926-.767-.535-2.734-3.925.766zM28.975 21h5.05v-4h-5.05v4z" mask="url(#a)"/>
    <path stroke="url(#paint0_linear)" stroke-width="3" d="M8.86 36.5a23.146 23.146 0 01-.36-4.17c0-10.4 6.644-19.282 16-22.83" opacity=".4"/>
    <path stroke="url(#paint1_linear)" stroke-width="3" d="M39.5 9.5a23.151 23.151 0 013.806 1.742c9.05 5.123 13.506 15.281 11.984 25.17" opacity=".4"/>
    <path stroke="url(#paint2_linear)" stroke-width="3" d="M45.682 51.51A23.139 23.139 0 0142 53.5c-9.54 4.14-20.333 1.582-27.312-5.588" opacity=".4"/>
    <path fill="#006DFF" d="M31.5 7.5l-8.78-2.092 2.58 8.631 6.2-6.54zM59.78 36.05L51 33.96l2.579 8.63 6.2-6.538zM18.78 45.05L10 42.96l2.579 8.63 6.2-6.538z"/>
    <circle cx="31.5" cy="31.5" r="3.5" fill="#006DFF"/>
  </g>
  <defs>
    <linearGradient id="paint0_linear" x1="16.5" x2="16.5" y1="9.5" y2="36.5" gradientUnits="userSpaceOnUse">
      <stop stop-color="#006DFF"/>
      <stop offset="1" stop-color="#006DFF" stop-opacity="0"/>
    </linearGradient>
    <linearGradient id="paint1_linear" x1="59.231" x2="35.736" y1="29.451" y2="16.148" gradientUnits="userSpaceOnUse">
      <stop stop-color="#006DFF"/>
      <stop offset="1" stop-color="#006DFF" stop-opacity="0"/>
    </linearGradient>
    <linearGradient id="paint2_linear" x1="12.5" x2="46" y1="45.5" y2="55.5" gradientUnits="userSpaceOnUse">
      <stop stop-color="#006DFF"/>
      <stop offset="1" stop-color="#006DFF" stop-opacity="0"/>
    </linearGradient>
    <clipPath id="clip0">
      <path fill="#fff" d="M0 0h64v64H0z"/>
    </clipPath>
  </defs>
</svg>