<svg xmlns="http://www.w3.org/2000/svg" fill="none" viewBox="0 0 64 64">
  <path fill="#006DFF" stroke="#000" stroke-width=".5" d="M10.754 32.242a21.162 21.162 0 006.049 14.602l-4.593 4.592a27.606 27.606 0 01-7.959-19.194h6.503z" opacity=".1"/>
  <path fill="#006DFF" stroke="#000" stroke-width=".5" d="M31.742 53.246v6.503c-7.478-.066-14.233-3.086-19.194-7.944l4.593-4.592c3.792 3.674 8.926 5.968 14.6 6.033z" opacity=".2"/>
  <path fill="#006DFF" stroke="#000" stroke-width=".5" d="M51.436 51.79a27.66 27.66 0 01-19.194 7.943V53.23a21.193 21.193 0 0014.601-6.049l4.593 4.608z" opacity=".8"/>
  <path fill="#006DFF" stroke="#000" stroke-width=".5" d="M59.749 32.242c-.066 7.478-3.086 14.233-7.944 19.194l-4.592-4.592a21.162 21.162 0 006.05-14.602h6.486z" opacity=".1"/>
  <path fill="#006DFF" stroke="#000" stroke-width=".5" d="M53.247 31.742a21.193 21.193 0 00-6.05-14.602l4.592-4.592c4.874 4.96 7.894 11.731 7.96 19.194h-6.502z" opacity=".3"/>
  <path fill="#006DFF" stroke="#000" stroke-width=".5" d="M31.742 10.754a21.193 21.193 0 00-14.602 6.048l-4.592-4.607c4.96-4.858 11.731-7.878 19.194-7.944v6.503z" opacity=".1"/>
  <path fill="#006DFF" stroke="#000" stroke-width=".5" d="M31.742 46.244v6.502a20.693 20.693 0 01-14.248-5.902l4.593-4.593a14.249 14.249 0 009.655 3.993z" opacity=".4"/>
  <path fill="#006DFF" stroke="#000" stroke-width=".5" d="M46.244 32.258h6.502a20.693 20.693 0 01-5.902 14.232l-4.593-4.592a14.215 14.215 0 003.993-9.64z" opacity=".2"/>
  <path fill="#006DFF" stroke="#000" stroke-width=".5" d="M31.742 17.756a14.183 14.183 0 00-9.64 3.993l-4.593-4.593a20.626 20.626 0 0114.233-5.902v6.502z" opacity=".1"/>
  <path fill="#006DFF" stroke="#000" stroke-width=".5" d="M32.258 11.254c5.536.065 10.545 2.302 14.232 5.903l-4.593 4.592a14.214 14.214 0 00-9.639-3.993v-6.502z" opacity=".3"/>
  <path fill="#006DFF" stroke="#000" stroke-width=".5" d="M31.742 39.337v6.406a13.683 13.683 0 01-9.286-3.846l4.529-4.529a7.355 7.355 0 004.757 1.97z" opacity=".7"/>
  <path fill="#006DFF" stroke="#000" stroke-width=".5" d="M45.743 32.242a13.683 13.683 0 01-3.846 9.286L37.37 37a7.284 7.284 0 001.968-4.758h6.406z" opacity=".32"/>
  <path fill="#006DFF" stroke="#000" stroke-width=".5" d="M32.258 18.256a13.714 13.714 0 019.286 3.846l-4.528 4.529a7.284 7.284 0 00-4.758-1.969v-6.406z"/>
  <path fill="#006DFF" stroke="#000" stroke-width=".5" d="M31.742 24.663a7.33 7.33 0 00-4.758 1.968l-4.528-4.529a13.683 13.683 0 019.286-3.846v6.407z" opacity=".2"/>
  <path fill="#006DFF" stroke="#000" stroke-width=".5" d="M17.156 17.494l4.593 4.608a14.214 14.214 0 00-3.993 9.64h-6.502a20.693 20.693 0 015.902-14.248z" opacity=".5"/>
  <path fill="#006DFF" stroke="#000" stroke-width=".5" d="M22.102 22.456l4.529 4.528a7.284 7.284 0 00-1.969 4.758h-6.406a13.683 13.683 0 013.846-9.286z" opacity=".8"/>
  <path fill="#006DFF" stroke="#000" stroke-width=".5" d="M46.244 31.742a14.183 14.183 0 00-3.993-9.64l4.593-4.593a20.627 20.627 0 015.902 14.233h-6.502z" opacity=".5"/>
  <path fill="#006DFF" stroke="#000" stroke-width=".5" d="M39.337 31.742a7.33 7.33 0 00-1.968-4.758l4.528-4.528a13.683 13.683 0 013.846 9.286h-6.406z" opacity=".3"/>
  <path fill="#006DFF" stroke="#000" stroke-width=".5" d="M17.756 32.242a14.223 14.223 0 003.993 9.656l-4.592 4.592a20.661 20.661 0 01-5.903-14.248h6.502z" opacity=".4"/>
  <path fill="#006DFF" stroke="#000" stroke-width=".5" d="M26.63 37.016l-4.527 4.528a13.714 13.714 0 01-3.847-9.286h6.407a7.317 7.317 0 001.968 4.758z"/>
  <path fill="#006DFF" stroke="#000" stroke-width=".5" d="M41.882 42.25l4.608 4.594a20.663 20.663 0 01-14.248 5.902v-6.502a14.183 14.183 0 009.64-3.993z" opacity=".7"/>
  <path fill="#006DFF" stroke="#000" stroke-width=".5" d="M37.016 37.37l4.528 4.527a13.714 13.714 0 01-9.286 3.846v-6.406a7.33 7.33 0 004.758-1.968z" opacity=".8"/>
</svg>