<svg width="64" height="64" viewBox="0 0 64 64" fill="none" xmlns="http://www.w3.org/2000/svg">
    <rect width="64" height="64" fill="#0F0F0F"/>
    <path opacity="0.1" d="M4.2511 31.758C4.31701 24.2799 7.33709 17.5248 12.1949 12.564L16.8025 17.1565C13.1122 20.9339 10.8188 26.0681 10.7535 31.758H4.2511Z" fill="black" stroke="black" stroke-width="0.5"/>
    <path opacity="0.1" d="M10.7535 32.2419C10.8188 37.932 13.1124 43.0664 16.8028 46.8437L12.2104 51.4362C7.33747 46.491 4.31701 39.7207 4.2511 32.2419H10.7535Z" fill="#006DFF" stroke="black" stroke-width="0.5"/>
    <path opacity="0.2" d="M31.7417 53.2464V59.7488C24.2637 59.6829 17.5087 56.6629 12.548 51.8053L17.1406 47.2126C20.9328 50.8872 26.0668 53.1809 31.7417 53.2464Z" fill="#006DFF" stroke="black" stroke-width="0.5"/>
    <path opacity="0.8" d="M51.4364 51.7891C46.4911 56.6465 39.7208 59.6667 32.2422 59.7326V53.2302C37.9168 53.1647 43.0659 50.8714 46.8437 47.1812L51.4364 51.7891Z" fill="#006DFF" stroke="black" stroke-width="0.5"/>
    <path opacity="0.1" d="M59.7488 32.2419C59.6829 39.7199 56.6629 46.4749 51.8053 51.4356L47.2134 46.8437C50.9038 43.0664 53.1974 37.932 53.2627 32.2419H59.7488Z" fill="#006DFF" stroke="black" stroke-width="0.5"/>
    <path opacity="0.3" d="M53.2466 31.7419C53.1811 26.0672 50.8876 20.9179 47.1972 17.1401L51.7894 12.5479C56.6626 17.5089 59.6829 24.2791 59.749 31.7419H53.2466Z" fill="#006DFF" stroke="black" stroke-width="0.5"/>
    <path opacity="0.1" d="M31.7417 10.7535C26.0671 10.819 20.9179 13.1123 17.1402 16.8025L12.5477 12.1949C17.5087 7.33726 24.279 4.31715 31.7417 4.25111V10.7535Z" fill="#006DFF" stroke="black" stroke-width="0.5"/>
    <path opacity="0.2" d="M32.2422 4.2511C39.7207 4.31701 46.4909 7.33711 51.4361 12.1943L46.844 16.7865C43.0666 13.096 37.9322 10.8025 32.2422 10.7372V4.2511Z" fill="black" stroke="black" stroke-width="0.5"/>
    <path opacity="0.4" d="M31.7415 46.2438V52.7465C26.2047 52.681 21.181 50.444 17.4933 46.8436L22.0862 42.2506C24.6048 44.6688 27.9929 46.1794 31.7415 46.2438Z" fill="#006DFF" stroke="black" stroke-width="0.5"/>
    <path opacity="0.2" d="M46.244 32.2583H52.7465C52.6769 37.7886 50.4407 42.8061 46.8438 46.4901L42.2514 41.8977C44.6694 39.3933 46.1793 35.9914 46.244 32.2583Z" fill="#006DFF" stroke="black" stroke-width="0.5"/>
    <path opacity="0.1" d="M31.7418 17.7564C27.9938 17.8208 24.6062 19.3309 22.1023 21.749L17.5095 17.1562C21.1817 13.5562 26.2049 11.3191 31.7418 11.2537V17.7564Z" fill="#006DFF" stroke="black" stroke-width="0.5"/>
    <path opacity="0.3" d="M32.2578 11.2537C37.794 11.3191 42.8023 13.556 46.4897 17.1566L41.8973 21.749C39.3928 19.331 35.9909 17.8211 32.2578 17.7564V11.2537Z" fill="#006DFF" stroke="black" stroke-width="0.5"/>
    <path opacity="0.7" d="M31.7416 39.3375V45.7435C28.1317 45.6793 24.8696 44.2256 22.4557 41.8974L26.9848 37.3684C28.2433 38.5322 29.9023 39.2755 31.7416 39.3375Z" fill="#006DFF" stroke="black" stroke-width="0.5"/>
    <path opacity="0.32" d="M45.7433 32.2419C45.679 35.8518 44.2254 39.1139 41.8972 41.5278L37.3691 36.9998C38.5469 35.74 39.2765 34.0802 39.3373 32.2419H45.7433Z" fill="#006DFF" stroke="black" stroke-width="0.5"/>
    <path d="M32.2578 18.2564C35.8532 18.3209 39.1294 19.7746 41.5437 22.1025L37.0156 26.6306C35.7559 25.4527 34.0961 24.7232 32.2578 24.6624V18.2564Z" fill="#006DFF" stroke="black" stroke-width="0.5"/>
    <path opacity="0.2" d="M31.7416 24.6625C29.9028 24.7244 28.2308 25.4665 26.9838 26.6306L22.4557 22.1025C24.8696 19.7743 28.1317 18.3207 31.7416 18.2564V24.6625Z" fill="#006DFF" stroke="black" stroke-width="0.5"/>
    <path d="M27.3366 26.9994C28.5052 25.8981 30.0399 25.223 31.7417 25.1626V31.4046L27.3366 26.9994Z" fill="black" stroke="black" stroke-width="0.5"/>
    <path d="M36.9999 27.3376C38.0895 28.5073 38.7761 30.0419 38.8377 31.7417H32.5957L36.9999 27.3376Z" fill="black" stroke="black" stroke-width="0.5"/>
    <path d="M38.837 32.2419C38.7755 33.9427 38.0898 35.4892 37.0154 36.6459L32.6114 32.2419H38.837Z" fill="black" stroke="black" stroke-width="0.5"/>
    <path opacity="0.5" d="M17.156 17.4938L21.749 22.102C19.3309 24.6065 17.8208 28.0085 17.7562 31.7417H11.2534C11.3189 26.2051 13.5558 21.1815 17.156 17.4938Z" fill="#006DFF" stroke="black" stroke-width="0.5"/>
    <path opacity="0.8" d="M22.1023 22.456L26.6303 26.984C25.4525 28.2438 24.723 29.9035 24.6622 31.7418H18.2561C18.3204 28.132 19.774 24.8698 22.1023 22.456Z" fill="#006DFF" stroke="black" stroke-width="0.5"/>
    <path d="M25.1626 32.2419H31.3883L26.9843 36.646C25.8968 35.4772 25.2229 33.9429 25.1626 32.2419Z" fill="black" stroke="black" stroke-width="0.5"/>
    <path d="M26.968 27.3375L31.3866 31.7417H25.1461C25.2076 30.0408 25.8934 28.4942 26.968 27.3375Z" fill="black" stroke="black" stroke-width="0.5"/>
    <path d="M32.2578 25.1484C33.9465 25.2227 35.4928 25.8977 36.6618 26.9843L32.2578 31.3883V25.1484Z" fill="black" stroke="black" stroke-width="0.5"/>
    <path opacity="0.5" d="M46.244 31.7418C46.1796 27.9938 44.6695 24.6062 42.2514 22.1023L46.8442 17.5095C50.4442 21.1817 52.6813 26.2049 52.7467 31.7418H46.244Z" fill="#006DFF" stroke="black" stroke-width="0.5"/>
    <path opacity="0.3" d="M39.3372 31.7418C39.2753 29.903 38.5332 28.231 37.3691 26.9841L41.8972 22.456C44.2254 24.8698 45.679 28.132 45.7433 31.7418H39.3372Z" fill="#006DFF" stroke="black" stroke-width="0.5"/>
    <path opacity="0.4" d="M17.7561 32.2419C17.8206 35.9903 19.3305 39.3929 21.7488 41.8977L17.1563 46.4901C13.5557 42.8027 11.3187 37.7939 11.2534 32.2419H17.7561Z" fill="#006DFF" stroke="black" stroke-width="0.5"/>
    <path d="M24.6622 32.2581C24.7235 34.0829 25.4527 35.7551 26.6304 37.0158L22.1023 41.5439C19.7743 39.1297 18.3207 35.8534 18.2561 32.2581H24.6622Z" fill="#006DFF" stroke="black" stroke-width="0.5"/>
    <path d="M27.3375 37.0155L31.7417 32.5969V38.8374C30.0408 38.7759 28.4942 38.0901 27.3375 37.0155Z" fill="black" stroke="black" stroke-width="0.5"/>
    <path opacity="0.7" d="M41.8819 42.2509L46.4901 46.8439C42.8027 50.4443 37.794 52.6812 32.2422 52.7465V46.2438C35.9903 46.1794 39.378 44.6692 41.8819 42.2509Z" fill="#006DFF" stroke="black" stroke-width="0.5"/>
    <path opacity="0.8" d="M37.0156 37.3693L41.5437 41.8974C39.1294 44.2253 35.8532 45.679 32.2578 45.7435V39.3375C34.0966 39.2755 35.7686 38.5334 37.0156 37.3693Z" fill="#006DFF" stroke="black" stroke-width="0.5"/>
</svg>
