<svg xmlns="http://www.w3.org/2000/svg" fill="none" viewBox="0 0 64 64">
  <path fill="url(#paint0_linear)" d="M9.885 29.607c2.852 4.134 2.829 5.999 2.81 7.808-.136 13.156 8.879 17.22 14.233 17.547.409.023.803.037 1.199.037 2.476.03 4.93-.472 7.2-1.472 2.27-1 4.304-2.476 5.969-4.33l2.974-3.316.05-.06 1.476-1.649a4.173 4.173 0 001.077-1.915 4.207 4.207 0 00-.041-2.203 4.168 4.168 0 00-1.147-1.873 4.098 4.098 0 00-1.932-1.018 3.781 3.781 0 00-.505-3.09 3.714 3.714 0 00-1.15-1.104 3.669 3.669 0 00-1.501-.514 3.89 3.89 0 00.227-1.287 4.164 4.164 0 00-.924-2.628 4.079 4.079 0 00-2.364-1.437l4.927-5.002c.387-.39.693-.853.9-1.364a4.2 4.2 0 00-.942-4.566 4.068 4.068 0 00-4.542-.806 4.11 4.11 0 00-1.32.953c-5.399 5.83-12.11 12.462-14.758 13.55-1.544.644-1.917.143-3.11-1.837a14.494 14.494 0 00-3.252-4.088c-1.572-1.29-3.42-1.327-4.95-.101-1.73 1.383-1.98 3.762-.604 5.765zm32.991 9.306a2.25 2.25 0 011.622.68 2.34 2.34 0 01.666 1.664 2.362 2.362 0 01-.698 1.652l-1.44 1.603a2.068 2.068 0 01-2.352-.4l-.082-.087a2.143 2.143 0 01-.173-2.843l2.271-2.297.186.028zm-1.362-4.107a1.915 1.915 0 01.109 2.581.918.918 0 00-.104.116l-2.607 2.636a2.076 2.076 0 01-2.17-.46l-.11-.11a2.161 2.161 0 01-.127-2.83 95.908 95.908 0 002.693-2.204 1.876 1.876 0 012.307.271h.009zm-3.179-5.287a2.3 2.3 0 01.672 1.64 2.92 2.92 0 01-.953 1.939c-.554.486-1.749 1.456-2.63 2.154a2.156 2.156 0 01-2.148-.57l-.059-.06a2.245 2.245 0 01-.645-1.577c0-.592.232-1.16.645-1.578l2.135-2.159a2.253 2.253 0 012.979.207l.004.004zM11.62 25.261c.871-.698 1.748-.67 2.674.088a12.787 12.787 0 012.843 3.61c.421.797.95 1.532 1.571 2.182.017.025.035.05.055.073.077.083 1.816 2.008.045 4.805a.927.927 0 00.294 1.24.9.9 0 001.236-.252 6.038 6.038 0 00.836-5.053 5.12 5.12 0 001.308-.363c3.574-1.484 11.952-10.28 15.395-13.996a2.271 2.271 0 011.634-.735 2.28 2.28 0 011.662.68 2.321 2.321 0 01.674 1.642 2.344 2.344 0 01-.674 1.642l-9.245 9.334a4.073 4.073 0 00-.878 1.323 4.11 4.11 0 00.878 4.446l.05.05a3.97 3.97 0 002.32 1.154 4.04 4.04 0 00.035 2.012 4.007 4.007 0 001 1.74l.037.032.036.037a3.896 3.896 0 002.77 1.149 3.99 3.99 0 00.202 1.737c.195.556.51 1.061.924 1.478l.069.078c.525.53 1.188.9 1.911 1.066l-1.362 1.52-.036.041a15.923 15.923 0 01-5.849 4.032 15.766 15.766 0 01-6.998 1.072 14.096 14.096 0 01-6.558-2.297H21.297c2.27-.147 4.346-1.539 6.198-4.134a.927.927 0 00-.22-1.265.9.9 0 00-1.255.195c-1.513 2.131-3.134 3.27-4.823 3.385-2.357.156-4.169-1.75-4.196-1.778a.91.91 0 00-.132-.114c-1.421-2.27-2.398-5.384-2.352-9.688.027-2.43-.191-4.625-3.138-8.888-.686-.974-.872-2.38.24-3.28z"/>
  <path fill="#006DFF" fill-rule="evenodd" d="M39.71 11.649a.5.5 0 01-.683-.183l-2.932-5.078a.5.5 0 01.183-.683l.866-.5a.5.5 0 01.683.183l2.932 5.078a.5.5 0 01-.183.683l-.866.5zM55 19.5a.5.5 0 01-.5.5h-7a.5.5 0 01-.5-.5v-1a.5.5 0 01.5-.5h7a.5.5 0 01.5.5v1zM52.207 6.354a.5.5 0 010 .707l-5.146 5.146a.5.5 0 01-.707 0l-.708-.707a.5.5 0 010-.707l5.147-5.147a.5.5 0 01.707 0l.707.708z" clip-rule="evenodd"/>
  <defs>
    <linearGradient id="paint0_linear" x1="47" x2="16" y1="15" y2="60.5" gradientUnits="userSpaceOnUse">
      <stop stop-color="#006DFF"/>
      <stop offset="1" stop-color="#006DFF" stop-opacity=".26"/>
    </linearGradient>
  </defs>
</svg>