<svg width="271" height="109" viewBox="0 0 271 109" fill="none" xmlns="http://www.w3.org/2000/svg">
    <path d="M152.615 77.7412L169.481 68.0342" stroke="#FFE819" stroke-width="0.7" stroke-miterlimit="10" stroke-linecap="round" stroke-linejoin="round"/>
    <path d="M1 78.8115L1.03891 88.5379L34.6923 108.01V98.2838L1 78.8115Z" fill="#222222" stroke="#FFE819" stroke-width="0.7" stroke-miterlimit="10" stroke-linecap="round" stroke-linejoin="round"/>
    <path d="M34.6728 59.3584L68.3846 78.8112L34.6923 98.2835L1 78.8112L34.6728 59.3584Z" fill="#222222" stroke="#FFE819" stroke-width="0.7" stroke-miterlimit="10" stroke-linecap="round" stroke-linejoin="round"/>
    <path d="M68.3845 88.5574L34.6922 108.01V98.2838L68.3845 78.8115V88.5574Z" fill="#222222" stroke="#FFE819" stroke-width="0.7" stroke-miterlimit="10" stroke-linecap="round" stroke-linejoin="round"/>
    <path d="M102.096 78.8115L102.135 88.5379L135.808 108.01V98.2838L102.096 78.8115Z" fill="#222222" stroke="#FFE819" stroke-width="0.7" stroke-miterlimit="10" stroke-linecap="round" stroke-linejoin="round"/>
    <path d="M135.789 59.3584L169.5 78.8112L135.808 98.2835L102.096 78.8112L135.789 59.3584Z" fill="#222222" stroke="#FFE819" stroke-width="0.7" stroke-miterlimit="10" stroke-linecap="round" stroke-linejoin="round"/>
    <path d="M169.5 88.5574L135.808 108.01V98.2838L169.5 78.8115V88.5574Z" fill="#222222" stroke="#FFE819" stroke-width="0.7" stroke-miterlimit="10" stroke-linecap="round" stroke-linejoin="round"/>
    <path d="M152.635 49.6509L152.674 59.3773L186.346 78.8496V69.1232L152.635 49.6509Z" fill="#222222" stroke="#FFE819" stroke-width="0.7" stroke-miterlimit="10" stroke-linecap="round" stroke-linejoin="round"/>
    <path d="M186.327 30.1982L220.039 49.6511L186.346 69.1234L152.635 49.6511L186.327 30.1982Z" fill="#222222" stroke="#FFE819" stroke-width="0.7" stroke-miterlimit="10" stroke-linecap="round" stroke-linejoin="round"/>
    <path d="M220.039 59.3967L186.346 78.8496V69.1232L220.039 49.6509V59.3967Z" fill="#222222" stroke="#FFE819" stroke-width="0.7" stroke-miterlimit="10" stroke-linecap="round" stroke-linejoin="round"/>
    <path d="M203.154 20.4526L203.193 30.1791L236.866 49.6513V39.9249L203.154 20.4526Z" fill="#222222" stroke="#FFE819" stroke-width="0.7" stroke-miterlimit="10" stroke-linecap="round" stroke-linejoin="round"/>
    <path d="M236.846 1L270.558 20.4528L236.866 39.9251L203.154 20.4528L236.846 1Z" fill="#222222" stroke="#FFE819" stroke-width="0.7" stroke-miterlimit="10" stroke-linecap="round" stroke-linejoin="round"/>
    <path d="M270.558 30.1985L236.866 49.6513V39.9249L270.558 20.4526V30.1985Z" fill="#222222" stroke="#FFE819" stroke-width="0.7" stroke-miterlimit="10" stroke-linecap="round" stroke-linejoin="round"/>
    <path d="M51.5189 49.6504L51.5384 59.3573L85.2112 78.8491V69.1032L51.5189 49.6504Z" fill="#222222" stroke="#FFE819" stroke-width="0.7" stroke-miterlimit="10" stroke-linecap="round" stroke-linejoin="round"/>
    <path d="M85.1918 30.1792L118.904 49.6515L85.2112 69.1043L51.5189 49.6515L85.1918 30.1792Z" fill="#222222" stroke="#FFE819" stroke-width="0.7" stroke-miterlimit="10" stroke-linecap="round" stroke-linejoin="round"/>
    <path d="M118.903 59.3768L85.2111 78.8491V69.1032L118.903 49.6504V59.3768Z" fill="#222222" stroke="#FFE819" stroke-width="0.7" stroke-miterlimit="10" stroke-linecap="round" stroke-linejoin="round"/>
    <path d="M102.096 59.3779L102.135 69.1043L135.808 88.5766V78.8308L102.096 59.3779Z" fill="#FFE819" stroke="#222222" stroke-width="0.7" stroke-miterlimit="10" stroke-linecap="round" stroke-linejoin="round"/>
    <path d="M135.789 39.9058L169.5 59.378L135.808 78.8309L102.096 59.378L135.789 39.9058Z" fill="#FFE819" stroke="#222222" stroke-width="0.7" stroke-miterlimit="10" stroke-linecap="round" stroke-linejoin="round"/>
    <path d="M169.5 69.1043L135.808 88.5766V78.8308L169.5 59.3779V69.1043Z" fill="#FFE819" stroke="#222222" stroke-width="0.7" stroke-miterlimit="10" stroke-linecap="round" stroke-linejoin="round"/>
    <path d="M102.096 39.9248L102.135 49.6512L135.808 69.1235V59.3971L102.096 39.9248Z" fill="#FFE819" stroke="#222222" stroke-width="0.7" stroke-miterlimit="10" stroke-linecap="round" stroke-linejoin="round"/>
    <path d="M135.789 20.4717L169.5 39.9245L135.808 59.3968L102.096 39.9245L135.789 20.4717Z" fill="#FFE819" stroke="#222222" stroke-width="0.7" stroke-miterlimit="10" stroke-linecap="round" stroke-linejoin="round"/>
    <path d="M169.5 49.6707L135.808 69.1235V59.3971L169.5 39.9248V49.6707Z" fill="#FFE819" stroke="#222222" stroke-width="0.7" stroke-miterlimit="10" stroke-linecap="round" stroke-linejoin="round"/>
    <path d="M122.891 18.1192V11.1746L135.75 3.72412L148.705 11.2135V18.1581L135.75 10.6688L122.891 18.1192Z" fill="#FFE819"/>
    <path d="M139.854 25.317H131.762V10.5913L135.808 7.18701L139.854 10.5913V25.317Z" fill="#FFE819"/>
    <path d="M59.9421 73.9668L68.3847 69.123" stroke="#FFE819" stroke-width="0.7" stroke-miterlimit="10" stroke-linecap="round" stroke-linejoin="round"/>
    <path d="M211.596 44.7876L220.039 39.9438" stroke="#FFE819" stroke-width="0.7" stroke-miterlimit="10" stroke-linecap="round" stroke-linejoin="round"/>
</svg>
