<svg xmlns="http://www.w3.org/2000/svg" fill="none" viewBox="0 0 103 34">
  <path fill="#436CFF" fill-rule="evenodd" d="M101.442 26.13c.093 0 .138-.067.138-.146v-.127c0-.086-.049-.138-.138-.138h-.356v.411h.356zm-.355.194v.467h-.243v-1.27h.584c.258 0 .404.146.404.403 0 .225-.124.348-.277.389l.28.478h-.269l-.262-.467h-.217zm.136.91a1.078 1.078 0 001.176-1.174 1.097 1.097 0 00-.985-.983 1.078 1.078 0 00-1.176 1.175c.042.51.473.94.985.983zm-.165-2.379a1.33 1.33 0 011.564 1.561 1.33 1.33 0 01-2.606-.519 1.33 1.33 0 011.042-1.042zM50.89 19.442l-.198.06a8.094 8.094 0 01-4.676-.013l-.198-.061 2.364-7.722c.058-.188.325-.188.381 0l2.328 7.736zM45.48 8.296l-6.544 19.186h4.416l1.429-4.665.2.061c2.17.666 4.56.671 6.73.016l.2-.06 1.4 4.648h4.408L51.209 8.3a2.986 2.986 0 00-2.829-2.026h-.074a2.986 2.986 0 00-2.826 2.022zM90.905 11.572H86.22l-4.574 6.147V6.274h-3.953v21.208h3.953V19.85l5.349 7.632h4.407l-5.847-8.242a.795.795 0 01.025-.954l5.325-6.714zM70.176 11.572H63.826a3.543 3.543 0 00-3.546 3.54v12.37h3.954v-11.46a.91.91 0 01.91-.91h4.122a.91.91 0 01.91.91v11.46h3.953v-12.37a3.543 3.543 0 00-3.545-3.54h-.408zM102.647 11.572h-5.378a3.543 3.543 0 00-3.546 3.54v12.37h3.953v-11.46a.91.91 0 01.91-.91h4.061v-3.54zM18.13.53l11.104 5.69a4.798 4.798 0 012.622 4.286v2.595H27.76v-2.595a.726.726 0 00-.397-.648l-11.103-5.69a.732.732 0 00-.666.001L4.491 9.859a.726.726 0 00-.396.647v2.595H0v-2.595A4.798 4.798 0 012.621 6.22L13.726.53a4.836 4.836 0 014.404 0zm1.301 16.244c0-1.93-1.572-3.5-3.504-3.5a3.506 3.506 0 00-3.505 3.5c0 1.93 1.572 3.5 3.505 3.5a3.507 3.507 0 003.504-3.5zm7.934 7.262a.725.725 0 00.396-.647v-2.595h4.095v2.595a4.798 4.798 0 01-2.62 4.285l-11.106 5.69a4.854 4.854 0 01-2.202.53 4.855 4.855 0 01-2.202-.53L2.62 27.674a4.797 4.797 0 01-2.62-4.285v-2.595h4.094v2.595c0 .274.152.522.396.648l9.39 4.81v-4.766c-3.199-.895-5.553-3.83-5.553-7.307 0-4.184 3.41-7.589 7.6-7.589 4.19 0 7.6 3.405 7.6 7.59 0 3.475-2.354 6.411-5.553 7.306v4.767l9.39-4.811z" clip-rule="evenodd"/>
</svg>
