<svg width="32" height="34" viewBox="0 0 32 34" fill="none" xmlns="http://www.w3.org/2000/svg">
    <path fill-rule="evenodd" clip-rule="evenodd" d="M18.1301 0.530457L29.2343 6.22047C30.8512 7.04934 31.8557 8.69152 31.8557 10.5062V13.1006H27.7612V10.5062C27.7612 10.2323 27.609 9.98377 27.3644 9.85829L16.2609 4.16863C16.0528 4.06224 15.804 4.06189 15.5951 4.16898L4.49094 9.85829C4.24671 9.98377 4.09487 10.2323 4.09487 10.5062V13.1006H0V10.5062C0 8.69152 1.00452 7.04934 2.62101 6.22047L13.7259 0.530457C15.1045 -0.176819 16.7504 -0.176819 18.1301 0.530457ZM19.4314 16.7744C19.4314 14.8441 17.8591 13.2744 15.9266 13.2744C13.994 13.2744 12.4217 14.8441 12.4217 16.7744C12.4217 18.7039 13.994 20.2744 15.9266 20.2744C17.8591 20.2744 19.4314 18.7039 19.4314 16.7744ZM27.3652 24.0365C27.6091 23.9114 27.7613 23.6632 27.7613 23.389V20.7942H31.8558V23.389C31.8558 25.2036 30.8512 26.8458 29.2351 27.6743L18.1302 33.3643C17.4538 33.7107 16.6921 33.8945 15.9279 33.8945C15.1641 33.8945 14.402 33.7107 13.7256 33.3643L2.62147 27.6743C1.00461 26.8458 9.89691e-05 25.2036 9.89691e-05 23.389V20.7942H4.09461V23.389C4.09461 23.6632 4.24681 23.9114 4.49139 24.0365L13.8807 28.8478V24.081C10.682 23.1861 8.32823 20.2502 8.32823 16.7743C8.32823 12.5897 11.7375 9.18512 15.9279 9.18512C20.1184 9.18512 23.5276 12.5897 23.5276 16.7743C23.5276 20.2502 21.1739 23.1861 17.9752 24.081V28.8482L27.3652 24.0365Z" fill="white"/>
</svg>
