<svg width="103" height="34" viewBox="0 0 103 34" fill="none" xmlns="http://www.w3.org/2000/svg">
    <path fill-rule="evenodd" clip-rule="evenodd" d="M101.442 26.1304C101.535 26.1304 101.58 26.0633 101.58 25.9848V25.8579C101.58 25.7717 101.531 25.7197 101.442 25.7197H101.086V26.1304H101.442ZM101.087 26.3244V26.7913H100.844V25.5217H101.428C101.686 25.5217 101.832 25.6673 101.832 25.925C101.832 26.1491 101.708 26.2721 101.554 26.3135L101.835 26.7913H101.566L101.304 26.3244H101.087ZM101.223 27.2352C101.905 27.291 102.455 26.7421 102.398 26.061C102.357 25.5495 101.926 25.1197 101.414 25.0773C100.731 25.0214 100.182 25.5707 100.238 26.2522C100.28 26.7633 100.711 27.1931 101.223 27.2352ZM101.058 24.8559C101.994 24.6781 102.799 25.4825 102.621 26.4167C102.523 26.9349 102.098 27.3594 101.579 27.4573C100.644 27.6344 99.8393 26.8307 100.016 25.8975C100.115 25.379 100.539 24.9545 101.058 24.8559Z" fill="white"/>
    <path fill-rule="evenodd" clip-rule="evenodd" d="M50.8909 19.4423L50.6919 19.502C49.182 19.958 47.5166 19.9534 46.0159 19.4893L45.8177 19.4278L48.1821 11.7057C48.2398 11.5177 48.5066 11.5184 48.5633 11.7064L50.8909 19.4423ZM45.4795 8.2955L38.936 27.4817H43.3516L44.7805 22.8171L44.9801 22.8782C47.1516 23.5438 49.5419 23.5491 51.7109 22.8941L51.9109 22.8341L53.3104 27.4817H57.7189L51.2086 8.29975C50.798 7.08914 49.6604 6.27441 48.3805 6.27441H48.3062C47.0281 6.27441 45.8915 7.08702 45.4795 8.2955Z" fill="white"/>
    <path fill-rule="evenodd" clip-rule="evenodd" d="M90.9047 11.5721H86.2202L81.6464 17.7188V6.27441H77.6931V27.4821H81.6464V19.8498L86.995 27.4821H91.4024L85.5547 19.2401C85.3502 18.952 85.3604 18.5635 85.5799 18.2864L90.9047 11.5721Z" fill="white"/>
    <path fill-rule="evenodd" clip-rule="evenodd" d="M70.1764 11.5713H64.2336H63.8262C61.8677 11.5713 60.2803 13.1566 60.2803 15.1123V27.4813H64.2336V16.0214C64.2336 15.5191 64.641 15.1123 65.1439 15.1123H69.2661C69.769 15.1123 70.1764 15.5191 70.1764 16.0214V27.4813H74.1294V15.1123C74.1294 13.1566 72.5422 11.5713 70.5838 11.5713H70.1764Z" fill="white"/>
    <path fill-rule="evenodd" clip-rule="evenodd" d="M102.647 11.5713H97.6762H97.2688C95.3104 11.5713 93.7229 13.1566 93.7229 15.1123V27.4813H97.6762V16.0214C97.6762 15.5191 98.0836 15.1123 98.5865 15.1123H102.647V11.5713Z" fill="white"/>
    <path fill-rule="evenodd" clip-rule="evenodd" d="M18.1301 0.530457L29.2343 6.22047C30.8512 7.04934 31.8557 8.69152 31.8557 10.5062V13.1006H27.7612V10.5062C27.7612 10.2323 27.609 9.98377 27.3644 9.85829L16.2609 4.16863C16.0528 4.06224 15.804 4.06189 15.5951 4.16898L4.49094 9.85829C4.24671 9.98377 4.09487 10.2323 4.09487 10.5062V13.1006H0V10.5062C0 8.69152 1.00452 7.04934 2.62101 6.22047L13.7259 0.530457C15.1045 -0.176819 16.7504 -0.176819 18.1301 0.530457ZM19.4314 16.7744C19.4314 14.8441 17.8591 13.2744 15.9266 13.2744C13.994 13.2744 12.4217 14.8441 12.4217 16.7744C12.4217 18.7039 13.994 20.2744 15.9266 20.2744C17.8591 20.2744 19.4314 18.7039 19.4314 16.7744ZM27.3652 24.0365C27.6091 23.9114 27.7613 23.6632 27.7613 23.389V20.7942H31.8558V23.389C31.8558 25.2036 30.8512 26.8458 29.2351 27.6743L18.1302 33.3643C17.4538 33.7107 16.6921 33.8945 15.9279 33.8945C15.1641 33.8945 14.402 33.7107 13.7256 33.3643L2.62147 27.6743C1.00461 26.8458 9.89691e-05 25.2036 9.89691e-05 23.389V20.7942H4.09461V23.389C4.09461 23.6632 4.24681 23.9114 4.49139 24.0365L13.8807 28.8478V24.081C10.682 23.1861 8.32823 20.2502 8.32823 16.7743C8.32823 12.5897 11.7375 9.18512 15.9279 9.18512C20.1184 9.18512 23.5276 12.5897 23.5276 16.7743C23.5276 20.2502 21.1739 23.1861 17.9752 24.081V28.8482L27.3652 24.0365Z" fill="white"/>
</svg>
