<svg width="105" height="105" viewBox="0 0 105 105" fill="none" xmlns="http://www.w3.org/2000/svg">
<path d="M52.5 105C81.4949 105 105 81.4949 105 52.5C105 23.505 81.4949 0 52.5 0C23.505 0 0 23.505 0 52.5C0 81.4949 23.505 105 52.5 105Z" fill="white"/>
<path d="M54.1351 21.4912V44.4106L73.5067 53.0667L54.1351 21.4912Z" fill="black" fill-opacity="0.602"/>
<path d="M54.1354 21.4912L34.7612 53.0667L54.1354 44.4106V21.4912Z" fill="black"/>
<path d="M54.1351 67.9191V83.4923L73.5196 56.6739L54.1351 67.9191Z" fill="black" fill-opacity="0.602"/>
<path d="M54.1354 83.4923V67.9165L34.7612 56.6739L54.1354 83.4923Z" fill="black"/>
<path d="M54.1351 64.3155L73.5067 53.0677L54.1351 44.4167V64.3155Z" fill="black" fill-opacity="0.2"/>
<path d="M34.7612 53.0677L54.1354 64.3155V44.4167L34.7612 53.0677Z" fill="black" fill-opacity="0.602"/>
</svg>
