<svg width="20" height="30" viewBox="0 0 20 30" fill="none" xmlns="http://www.w3.org/2000/svg">
    <path fill-rule="evenodd" clip-rule="evenodd" d="M1.87551 0C0.839976 0 0.000509645 0.839466 0.000509645 1.875C0.000509645 2.91053 0.839976 3.75 1.87551 3.75H8.12551C9.16104 3.75 10.0005 2.91053 10.0005 1.875C10.0005 0.839466 9.16104 0 8.12551 0H1.87551ZM18.7737 6.13439C19.7454 5.7764 20.2429 4.69849 19.8849 3.7268C19.5269 2.75512 18.449 2.25762 17.4773 2.61561L1.22731 8.60245C0.255626 8.96044 -0.241873 10.0384 0.116116 11.01C0.474106 11.9817 1.55202 12.4792 2.52371 12.1212L18.7737 6.13439ZM18.7737 21.3976C19.7454 21.0396 20.2429 19.9616 19.8849 18.99C19.5269 18.0183 18.449 17.5208 17.4773 17.8788L1.22731 23.8656C0.255626 24.2236 -0.241873 25.3015 0.116116 26.2732C0.474106 27.2449 1.55202 27.7424 2.52371 27.3844L18.7737 21.3976ZM11.8755 26.25C10.84 26.25 10.0005 27.0895 10.0005 28.125C10.0005 29.1605 10.84 30 11.8755 30H18.1255C19.161 30 20.0005 29.1605 20.0005 28.125C20.0005 27.0895 19.161 26.25 18.1255 26.25H11.8755ZM18.7986 13.6252C19.7651 13.2535 20.2473 12.1686 19.8755 11.2021C19.5038 10.2356 18.4189 9.75342 17.4524 10.1252L1.20242 16.3752C0.23591 16.7469 -0.246251 17.8317 0.125484 18.7983C0.497219 19.7648 1.58208 20.2469 2.54859 19.8752L18.7986 13.6252Z" fill="white"/>
</svg>
