<svg width="32" height="32" viewBox="0 0 32 32" fill="none" xmlns="http://www.w3.org/2000/svg">
    <circle cx="16" cy="16" r="12" fill="#0F0F0F"/>
    <circle cx="16" cy="16" r="11.5" stroke="white" stroke-opacity="0.1"/>
    <path d="M16.0466 9.14307C14.6719 9.14822 13.3549 9.69792 12.3828 10.6723C11.4107 11.6467 10.8623 12.9668 10.8572 14.3448C10.8571 14.9193 10.9495 15.4901 11.1306 16.0352C11.1957 16.2136 11.3264 16.3603 11.4958 16.4452C11.6653 16.5302 11.8608 16.5469 12.0422 16.4921C12.2183 16.425 12.3622 16.2931 12.4444 16.1233C12.5267 15.9534 12.5412 15.7585 12.485 15.5783C12.3308 15.1545 12.2622 14.7041 12.2831 14.2534C12.3047 13.5259 12.5368 12.8204 12.9512 12.2227C13.3657 11.6251 13.9446 11.1612 14.6174 10.8874C15.2902 10.6137 16.0279 10.542 16.7406 10.681C17.4534 10.82 18.1104 11.1638 18.6317 11.6705C19.153 12.1772 19.516 12.8249 19.6766 13.5347C19.8372 14.2445 19.7885 14.9858 19.5362 15.6683C19.284 16.3508 18.8392 16.9451 18.2561 17.3787C17.6729 17.8124 16.9765 18.0667 16.2517 18.1107C16.2517 18.1107 15.5257 18.1564 15.1611 18.2021C15.0274 18.221 14.8948 18.2471 14.7639 18.2804C14.7545 18.2874 14.7429 18.2909 14.7311 18.29C14.7194 18.2892 14.7084 18.2842 14.7001 18.2758C14.6918 18.2675 14.6867 18.2564 14.6859 18.2447C14.6851 18.2329 14.6885 18.2213 14.6955 18.2119L14.8095 17.5951L15.4931 14.4917C15.5324 14.3069 15.4969 14.114 15.3943 13.9555C15.2917 13.797 15.1306 13.6858 14.9462 13.6465C14.7619 13.6071 14.5695 13.6427 14.4113 13.7455C14.2532 13.8483 14.1423 14.0099 14.103 14.1947C14.103 14.1947 12.4752 21.7721 12.4752 21.8407C12.4528 21.9321 12.4492 22.0271 12.4647 22.12C12.4802 22.2129 12.5145 22.3016 12.5654 22.3807C12.6163 22.4598 12.6828 22.5277 12.7607 22.5802C12.8387 22.6326 12.9266 22.6686 13.0189 22.6859C13.1103 22.7078 13.2052 22.7109 13.2979 22.695C13.3905 22.679 13.479 22.6443 13.5578 22.5931C13.6367 22.5418 13.7043 22.475 13.7566 22.3967C13.8089 22.3184 13.8448 22.2303 13.8621 22.1376C13.8849 22.0463 14.09 21.0412 14.09 21.0412C14.1655 20.6712 14.3524 20.3333 14.6254 20.0731C14.8984 19.8129 15.2444 19.6428 15.6169 19.5857C15.7731 19.5629 16.434 19.5172 16.434 19.5172C17.7547 19.3948 18.9785 18.7699 19.8536 17.7709C20.7288 16.772 21.1889 15.4749 21.1393 14.1463C21.0896 12.8178 20.5341 11.5588 19.5869 10.6282C18.6397 9.69756 17.3727 9.16611 16.0466 9.14307Z" fill="white"/>
    <path d="M17.3449 21.1219C17.2326 21.0991 17.117 21.0987 17.0046 21.1208C16.8922 21.143 16.7852 21.1872 16.6899 21.2509C16.5946 21.3146 16.5128 21.3965 16.4492 21.492C16.3855 21.5875 16.3414 21.6946 16.3192 21.8073C16.2951 21.9199 16.2937 22.0363 16.3152 22.1494C16.3367 22.2626 16.3807 22.3703 16.4444 22.4662C16.5082 22.562 16.5905 22.6441 16.6864 22.7075C16.7823 22.7709 16.89 22.8144 17.003 22.8354C17.1153 22.861 17.2316 22.8634 17.3448 22.8424C17.458 22.8214 17.5657 22.7775 17.6614 22.7134C17.7571 22.6492 17.8388 22.5662 17.9014 22.4693C17.964 22.3724 18.0062 22.2638 18.0255 22.15C18.0638 21.924 18.0148 21.6918 17.8884 21.5008C17.7619 21.3098 17.5676 21.1743 17.3449 21.1219Z" fill="#E6007A"/>
</svg>
