<svg width="80" height="80" viewBox="0 0 80 80" fill="none" xmlns="http://www.w3.org/2000/svg">
    <path d="M0 40C0 62.0914 17.9086 80 40 80C62.0914 80 80 62.0914 80 40C80 17.9086 62.0914 0 40 0C17.9086 0 0 17.9086 0 40Z" fill="black"/>
    <path d="M58.1071 26.4948C57.456 25.9844 56.6797 25.2874 55.2648 25.1132C53.9376 24.9389 52.5853 25.8226 51.6713 26.4076C50.7573 26.9926 49.0294 28.7103 48.3157 29.2331C47.602 29.7558 45.7739 30.2413 42.8315 31.9963C39.889 33.7513 28.3446 41.1198 28.3446 41.1198L31.3497 41.1571L17.9521 48.0153H19.2919L17.3636 49.4716C17.3636 49.4716 19.0665 49.9197 20.4939 49.0235V49.4343C20.4939 49.4343 36.4457 43.186 39.5259 44.8041L37.6477 45.3517C37.8105 45.3517 40.8406 45.5509 40.8406 45.5509C40.8406 45.5509 40.9408 47.4303 42.7688 48.6377C44.5969 49.8326 44.6345 50.4923 44.6345 50.4923C44.6345 50.4923 43.6829 50.8781 43.6829 51.3635C43.6829 51.3635 45.0852 50.9404 46.3874 50.9777C47.6896 51.015 48.829 51.3635 48.829 51.3635C48.829 51.3635 48.7289 50.8408 47.4642 50.4923C46.1871 50.1313 44.9475 48.7746 44.334 48.0278C43.7204 47.281 43.2947 45.9492 43.8206 44.6174C44.2589 43.4847 45.7864 42.8624 48.9417 41.2443C52.6605 39.3275 53.5119 37.9085 54.0378 36.8007C54.5637 35.693 55.34 33.4899 55.7782 32.4568C56.3291 31.125 57.0053 30.4155 57.5687 29.9923C58.1196 29.5691 60.6364 28.6356 60.6364 28.6356C60.6364 28.6356 58.7207 26.9802 58.1071 26.4948Z" fill="white"/>
</svg>
