<svg width="36" height="36" viewBox="0 0 36 36" fill="none" xmlns="http://www.w3.org/2000/svg">
    <circle cx="18" cy="18" r="18" fill="#4729FF"/>
    <path d="M30.6943 16.0587C30.5795 15.3677 30.3958 14.6999 30.1663 14.055C29.9367 13.4102 29.6613 12.7653 29.3399 12.1435C28.9955 11.5217 28.6283 10.9229 28.1921 10.3472C27.8478 9.88656 27.4575 9.44898 27.0443 9.03444C27.0214 9.01141 26.9984 8.98838 26.9525 8.94232C26.8836 8.87323 26.7918 8.78111 26.7229 8.71202C26.677 8.66596 26.6541 8.64292 26.6311 8.61989C26.0802 8.11323 25.4833 7.65263 24.8635 7.23808C24.2437 6.84657 23.6009 6.50111 22.9352 6.20172C22.2695 5.90233 21.5808 5.69506 20.8922 5.51081C20.2035 5.32657 19.4919 5.21142 18.8032 5.16536C17.6325 5.1193 14.7171 4.98112 11.5492 6.80051C11.1819 7.00778 10.8146 7.26111 10.4473 7.51444C0.369727 15.7823 5.87911 29.6465 16.7142 30.775C24.4733 31.6501 30.9927 25.432 30.855 17.878C30.832 17.2793 30.7861 16.6805 30.6943 16.0587ZM24.4733 19.7665C23.555 23.7277 19.5607 26.0077 15.6812 24.8332C12.3297 23.7968 10.0341 20.3653 10.7457 16.8417C10.8146 16.4962 10.9064 16.1508 11.0212 15.8284C12.2378 12.5581 15.8649 10.7156 19.2853 11.4987C23.073 12.3508 25.3685 15.9665 24.4733 19.7665ZM19.3771 27.3204C24.1519 26.3301 26.9295 22.2768 26.8836 18.0623C27.2739 19.6744 27.5034 22.3229 25.6211 24.9714C20.7315 31.8574 10.08 29.4853 8.61084 21.1944C8.54197 20.7799 8.49606 20.3653 8.47311 19.9738C8.81744 21.4017 9.50612 22.8065 10.5621 24.0271C12.9724 26.8598 16.7372 27.7119 19.3771 27.3204ZM28.9955 21.4017C29.5235 17.9932 28.4676 14.2393 25.3915 11.2914C25.139 11.0381 24.8635 10.7847 24.588 10.5314C21.8563 8.22838 18.1145 7.42232 14.6023 8.45868C10.4243 9.65625 7.62374 13.1568 6.82029 17.095C7.16463 10.992 12.0772 5.83324 18.5966 6.15566C19.2394 6.20172 19.8821 6.31687 20.5249 6.47808C21.1676 6.6393 21.7874 6.84657 22.3843 7.0999C22.9811 7.35323 23.578 7.67566 24.1519 8.04414C24.7258 8.41262 25.2538 8.82717 25.7817 9.3108C25.7817 9.3108 25.8047 9.33383 25.8506 9.37989C26.0572 9.56413 26.2409 9.77141 26.4245 9.95565C26.7 10.232 26.9525 10.5314 27.182 10.8538C27.5723 11.3605 27.9396 11.9132 28.238 12.4659C28.5364 13.0417 28.7889 13.6175 28.9955 14.2162C29.2021 14.815 29.3628 15.4138 29.4776 16.0356C29.6842 18.0162 29.5006 19.8126 28.9955 21.4017Z" fill="white"/>
</svg>
