<svg width="80" height="80" viewBox="0 0 80 80" fill="none" xmlns="http://www.w3.org/2000/svg">
    <path d="M0 40C0 62.0914 17.9086 80 40 80C62.0914 80 80 62.0914 80 40C80 17.9086 62.0914 0 40 0C17.9086 0 0 17.9086 0 40Z" fill="black"/>
    <path d="M40.1164 22.8574C36.6795 22.8703 33.3871 24.2446 30.9569 26.6806C28.5267 29.1166 27.1557 32.4168 27.1428 35.8618C27.1427 37.2981 27.3735 38.7251 27.8265 40.0878C27.9891 40.5338 28.3158 40.9005 28.7395 41.1129C29.1632 41.3252 29.6519 41.3671 30.1054 41.2299C30.5456 41.0623 30.9053 40.7325 31.111 40.3079C31.3167 39.8833 31.353 39.3961 31.2123 38.9456C30.827 37.8859 30.6555 36.76 30.7077 35.6333C30.7615 33.8145 31.3418 32.0507 32.378 30.5566C33.4141 29.0625 34.8613 27.9026 36.5433 27.2183C38.2253 26.534 40.0695 26.3547 41.8514 26.7023C43.6333 27.0499 45.2758 27.9093 46.5791 29.176C47.8823 30.4427 48.7899 32.0619 49.1915 33.8364C49.593 35.611 49.471 37.4642 48.8404 39.1705C48.2099 40.8768 47.0979 42.3625 45.64 43.4466C44.1821 44.5307 42.4411 45.1665 40.6291 45.2765C40.6291 45.2765 38.8141 45.3907 37.9026 45.5049C37.5683 45.5522 37.2368 45.6176 36.9096 45.7007C36.8861 45.7184 36.857 45.727 36.8277 45.7249C36.7984 45.7228 36.7708 45.7102 36.75 45.6893C36.7293 45.6685 36.7167 45.6409 36.7146 45.6115C36.7125 45.5821 36.7211 45.5529 36.7387 45.5294L37.0236 43.9875L38.7327 36.2289C38.831 35.7669 38.7421 35.2848 38.4857 34.8885C38.2292 34.4923 37.8263 34.2143 37.3654 34.1159C36.9045 34.0174 36.4235 34.1065 36.0282 34.3636C35.6329 34.6206 35.3556 35.0245 35.2574 35.4865C35.2574 35.4865 31.1879 54.4301 31.1879 54.6014C31.1319 54.83 31.123 55.0676 31.1617 55.2997C31.2005 55.5319 31.2861 55.7536 31.4134 55.9515C31.5406 56.1493 31.7068 56.319 31.9017 56.4501C32.0967 56.5813 32.3163 56.6713 32.5471 56.7144C32.7757 56.7693 33.0129 56.7771 33.2446 56.7372C33.4762 56.6973 33.6973 56.6106 33.8944 56.4824C34.0916 56.3542 34.2607 56.1872 34.3915 55.9915C34.5222 55.7957 34.6119 55.5754 34.6551 55.3438C34.7121 55.1154 35.2248 52.6026 35.2248 52.6026C35.4137 51.6777 35.8809 50.8331 36.5634 50.1825C37.2459 49.5319 38.111 49.1066 39.042 48.964C39.4327 48.9069 41.0849 48.7927 41.0849 48.7927C44.3867 48.4868 47.446 46.9245 49.6339 44.4271C51.8219 41.9297 52.9721 38.6869 52.848 35.3655C52.724 32.0442 51.3352 28.8966 48.9671 26.5702C46.599 24.2437 43.4317 22.915 40.1164 22.8574Z" fill="white"/>
    <path d="M43.3622 52.8061C43.0815 52.7491 42.7923 52.7482 42.5113 52.8036C42.2303 52.8589 41.9629 52.9694 41.7247 53.1286C41.4864 53.2878 41.2818 53.4927 41.1228 53.7314C40.9637 53.9702 40.8533 54.2381 40.7979 54.5197C40.7376 54.8013 40.7342 55.0922 40.788 55.3751C40.8417 55.658 40.9516 55.9272 41.1109 56.1669C41.2703 56.4065 41.476 56.6117 41.7159 56.7703C41.9557 56.9288 42.2249 57.0376 42.5074 57.0901C42.7881 57.1541 43.0788 57.16 43.3618 57.1075C43.6448 57.055 43.9142 56.9452 44.1535 56.7849C44.3927 56.6245 44.5968 56.4168 44.7533 56.1747C44.9098 55.9325 45.0153 55.6609 45.0635 55.3765C45.1594 54.8115 45.0369 54.2311 44.7208 53.7535C44.4046 53.2759 43.9188 52.9371 43.3622 52.8061Z" fill="#E6007A"/>
</svg>
