<svg width="24" height="24" viewBox="0 0 24 24" fill="none" xmlns="http://www.w3.org/2000/svg">
<path d="M21 13V10C21 8.89543 20.1046 8 19 8H5C3.89543 8 3 8.89543 3 10V13" stroke="#878787"/>
<path d="M21 10V7C21 5.89543 20.1046 5 19 5H5C3.89543 5 3 5.89543 3 7V10" stroke="#878787"/>
<path d="M8.76507 12.3344C8.48285 11.5347 7.72705 11 6.87909 11H3V17C3 18.1046 3.89543 19 5 19H19C20.1046 19 21 18.1046 21 17V11H17.1209C16.2729 11 15.5172 11.5347 15.2349 12.3344L14.8825 13.3328C14.7414 13.7326 14.3635 14 13.9395 14H10.0605C9.63647 14 9.25858 13.7326 9.11747 13.3328L8.76507 12.3344Z" stroke="#878787"/>
</svg>
