<svg width="60" height="55" viewBox="0 0 60 55" fill="none" xmlns="http://www.w3.org/2000/svg">
    <path d="M56.133 1L33.47 17.5681L37.6795 7.79315L56.133 1Z" fill="#E2761B" stroke="#E2761B" stroke-linecap="round" stroke-linejoin="round"/>
    <path d="M3.86694 1L26.3252 17.725L22.3205 7.79315L3.86694 1Z" fill="#E4761B" stroke="#E4761B" stroke-linecap="round" stroke-linejoin="round"/>
    <path d="M47.9871 39.4048L41.9573 48.5072L54.8588 52.0046L58.545 39.6066L47.9871 39.4048Z" fill="#E4761B" stroke="#E4761B" stroke-linecap="round" stroke-linejoin="round"/>
    <path d="M1.47778 39.6066L5.14118 52.0046L18.0427 48.5072L12.0356 39.4048L1.47778 39.6066Z" fill="#E4761B" stroke="#E4761B" stroke-linecap="round" stroke-linejoin="round"/>
    <path d="M17.3373 24.025L13.7422 29.3833L26.5299 29.9438L26.0976 16.3799L17.3373 24.025Z" fill="#E4761B" stroke="#E4761B" stroke-linecap="round" stroke-linejoin="round"/>
    <path d="M42.6626 24.0252L33.7658 16.2231L33.47 29.944L46.2577 29.3835L42.6626 24.0252Z" fill="#E4761B" stroke="#E4761B" stroke-linecap="round" stroke-linejoin="round"/>
    <path d="M18.0427 48.5072L25.7563 44.808L19.1122 39.6963L18.0427 48.5072Z" fill="#E4761B" stroke="#E4761B" stroke-linecap="round" stroke-linejoin="round"/>
    <path d="M34.2437 44.808L41.9573 48.5072L40.8878 39.6963L34.2437 44.808Z" fill="#E4761B" stroke="#E4761B" stroke-linecap="round" stroke-linejoin="round"/>
    <path d="M41.9573 48.5073L34.2437 44.8081L34.858 49.7628L34.7898 51.8479L41.9573 48.5073Z" fill="#D7C1B3" stroke="#D7C1B3" stroke-linecap="round" stroke-linejoin="round"/>
    <path d="M18.0427 48.5073L25.2102 51.8479L25.1647 49.7628L25.7563 44.8081L18.0427 48.5073Z" fill="#D7C1B3" stroke="#D7C1B3" stroke-linecap="round" stroke-linejoin="round"/>
    <path d="M25.3468 36.423L18.9302 34.5622L23.4582 32.522L25.3468 36.423Z" fill="#233447" stroke="#233447" stroke-linecap="round" stroke-linejoin="round"/>
    <path d="M34.6531 36.423L36.5417 32.522L41.0925 34.5622L34.6531 36.423Z" fill="#233447" stroke="#233447" stroke-linecap="round" stroke-linejoin="round"/>
    <path d="M18.0427 48.5072L19.1577 39.4048L12.0356 39.6066L18.0427 48.5072Z" fill="#CD6116" stroke="#CD6116" stroke-linecap="round" stroke-linejoin="round"/>
    <path d="M40.8423 39.4048L41.9572 48.5072L47.987 39.6066L40.8423 39.4048Z" fill="#CD6116" stroke="#CD6116" stroke-linecap="round" stroke-linejoin="round"/>
    <path d="M46.2577 29.3833L33.47 29.9438L34.6532 36.4231L36.5418 32.5221L41.0926 34.5622L46.2577 29.3833Z" fill="#CD6116" stroke="#CD6116" stroke-linecap="round" stroke-linejoin="round"/>
    <path d="M18.9301 34.5622L23.4582 32.5221L25.3467 36.4231L26.5299 29.9438L13.7422 29.3833L18.9301 34.5622Z" fill="#CD6116" stroke="#CD6116" stroke-linecap="round" stroke-linejoin="round"/>
    <path d="M13.7422 29.3833L19.1121 39.6963L18.9301 34.5622L13.7422 29.3833Z" fill="#E4751F" stroke="#E4751F" stroke-linecap="round" stroke-linejoin="round"/>
    <path d="M41.0925 34.5622L40.8877 39.6963L46.2576 29.3833L41.0925 34.5622Z" fill="#E4751F" stroke="#E4751F" stroke-linecap="round" stroke-linejoin="round"/>
    <path d="M26.5299 29.9438L25.3467 36.4231L26.8484 44.0682L27.167 34.0018L26.5299 29.9438Z" fill="#E4751F" stroke="#E4751F" stroke-linecap="round" stroke-linejoin="round"/>
    <path d="M33.4698 29.9438L32.8555 33.9794L33.1513 44.0682L34.653 36.4231L33.4698 29.9438Z" fill="#E4751F" stroke="#E4751F" stroke-linecap="round" stroke-linejoin="round"/>
    <path d="M34.6531 36.4228L33.1514 44.0679L34.2436 44.8078L40.8877 39.6961L41.0925 34.562L34.6531 36.4228Z" fill="#F6851B" stroke="#F6851B" stroke-linecap="round" stroke-linejoin="round"/>
    <path d="M18.9302 34.562L19.1122 39.6961L25.7564 44.8078L26.8486 44.0679L25.3468 36.4228L18.9302 34.562Z" fill="#F6851B" stroke="#F6851B" stroke-linecap="round" stroke-linejoin="round"/>
    <path d="M34.7897 51.8478L34.858 49.7628L34.2891 49.2696H25.7108L25.1647 49.7628L25.2102 51.8478L18.0427 48.5073L20.5457 50.5251L25.6426 54.0001H34.3574L39.4543 50.5251L41.9572 48.5073L34.7897 51.8478Z" fill="#C0AD9E" stroke="#C0AD9E" stroke-linecap="round" stroke-linejoin="round"/>
    <path d="M34.2437 44.8082L33.1515 44.0684H26.8486L25.7564 44.8082L25.1648 49.7629L25.7109 49.2697H34.2892L34.858 49.7629L34.2437 44.8082Z" fill="#161616" stroke="#161616" stroke-linecap="round" stroke-linejoin="round"/>
    <path d="M57.0887 18.6443L59 9.49704L56.133 1L34.2437 17.0076L42.6626 24.025L54.563 27.4552L57.1797 24.4285L56.042 23.6214L57.8623 21.9848L56.4743 20.9086L58.2947 19.541L57.0887 18.6443Z" fill="#763D16" stroke="#763D16" stroke-linecap="round" stroke-linejoin="round"/>
    <path d="M1 9.49704L2.93409 18.6443L1.70538 19.541L3.5257 20.9086L2.1377 21.9848L3.95802 23.6214L2.82032 24.4285L5.43703 27.4552L17.3374 24.025L25.7564 17.0076L3.86701 1L1 9.49704Z" fill="#763D16" stroke="#763D16" stroke-linecap="round" stroke-linejoin="round"/>
    <path d="M54.5629 27.4551L42.6625 24.0249L46.2576 29.3832L40.8877 39.6962L47.9869 39.6066H58.5448L54.5629 27.4551Z" fill="#F6851B" stroke="#F6851B" stroke-linecap="round" stroke-linejoin="round"/>
    <path d="M17.3373 24.0249L5.43698 27.4551L1.47778 39.6066H12.0357L19.1122 39.6962L13.7422 29.3832L17.3373 24.0249Z" fill="#F6851B" stroke="#F6851B" stroke-linecap="round" stroke-linejoin="round"/>
    <path d="M33.47 29.9436L34.2437 17.0074L37.6795 7.79297H22.3206L25.7564 17.0074L26.5301 29.9436L26.8259 34.0239L26.8486 44.0679H33.1515L33.1742 34.0239L33.47 29.9436Z" fill="#F6851B" stroke="#F6851B" stroke-linecap="round" stroke-linejoin="round"/>
</svg>
