<svg width="58" height="36" viewBox="0 0 58 36" fill="none" xmlns="http://www.w3.org/2000/svg">
    <path d="M11.8781 7.055C21.3343 -2.26378 36.6658 -2.26378 46.122 7.055L47.26 8.17653C47.7328 8.64247 47.7328 9.39791 47.26 9.86385L43.3669 13.7004C43.1305 13.9333 42.7472 13.9333 42.5108 13.7004L40.9447 12.157C34.3479 5.656 23.6522 5.656 17.0554 12.157L15.3782 13.8098C15.1418 14.0428 14.7585 14.0428 14.5221 13.8098L10.629 9.9733C10.1562 9.50736 10.1562 8.75192 10.629 8.28598L11.8781 7.055ZM54.1733 14.9894L57.6381 18.4039C58.1109 18.8698 58.1109 19.6253 57.6381 20.0912L42.0148 35.4877C41.542 35.9537 40.7754 35.9537 40.3026 35.4878C40.3026 35.4878 40.3026 35.4877 40.3026 35.4877L29.2141 24.5604C29.0959 24.4439 28.9043 24.4439 28.7861 24.5604C28.7861 24.5604 28.7861 24.5604 28.7861 24.5604L17.6979 35.4877C17.2251 35.9537 16.4585 35.9537 15.9857 35.4878C15.9857 35.4878 15.9857 35.4878 15.9857 35.4877L0.36193 20.091C-0.110878 19.6251 -0.110878 18.8696 0.36193 18.4037L3.8268 14.9892C4.29961 14.5232 5.06618 14.5232 5.53899 14.9892L16.6276 25.9167C16.7458 26.0332 16.9375 26.0332 17.0557 25.9167C17.0557 25.9167 17.0557 25.9167 17.0557 25.9167L28.1437 14.9892C28.6165 14.5232 29.3831 14.5232 29.8559 14.9891C29.8559 14.9891 29.856 14.9891 29.856 14.9891L40.9446 25.9167C41.0628 26.0332 41.2544 26.0332 41.3726 25.9167L52.4611 14.9894C52.9339 14.5234 53.7004 14.5234 54.1733 14.9894Z" fill="#3B99FC"/>
</svg>
