<svg width="24" height="24" viewBox="0 0 24 24" fill="none" xmlns="http://www.w3.org/2000/svg">
    <path d="M12 24C18.6274 24 24 18.6274 24 12C24 5.37258 18.6274 0 12 0C5.37258 0 0 5.37258 0 12C0 18.6274 5.37258 24 12 24Z" fill="white"/>
    <path d="M12 24C18.6274 24 24 18.6274 24 12C24 5.37258 18.6274 0 12 0C5.37258 0 0 5.37258 0 12C0 18.6274 5.37258 24 12 24Z" fill="#2075E8"/>
    <path fill-rule="evenodd" clip-rule="evenodd" d="M12 8.56442C13.776 8.56442 15.2207 10.0713 15.2207 11.9231C15.2207 13.4616 14.2234 14.7608 12.8676 15.1569V17.2667L16.847 15.137C16.95 15.0817 17.0149 14.972 17.0149 14.8506V13.7022H18.75V14.8506C18.75 15.6535 18.3244 16.3806 17.6393 16.7473L12.9333 19.2651C12.6444 19.4192 12.3245 19.4997 12 19.5C11.6755 19.4997 11.3556 19.4192 11.0667 19.2651L6.36097 16.747C5.6776 16.3835 5.24814 15.6503 5.25001 14.8503V13.7022H6.9851V14.8506C6.9851 14.972 7.04967 15.0817 7.15334 15.137L11.1325 17.2664V15.1569C9.77689 14.7608 8.7793 13.4616 8.7793 11.9231C8.7793 10.0713 10.2243 8.56442 12 8.56442ZM12 10.3742C11.18 10.375 10.5155 11.068 10.5147 11.9231C10.5147 12.7772 11.181 13.4721 12 13.4721C12.8191 13.4721 13.4853 12.7772 13.4853 11.9231C13.4853 11.069 12.8191 10.3742 12 10.3742ZM11.067 4.73472C11.6529 4.42176 12.3474 4.42176 12.9333 4.73472L17.6387 7.25224C18.3221 7.61578 18.7515 8.34894 18.7497 9.14891V10.297H17.0146V9.14891C17.0146 9.02784 16.95 8.91783 16.8464 8.8622L12.1413 6.34468C12.0527 6.2974 11.9477 6.2974 11.8591 6.34468L7.15303 8.86251C7.04993 8.91764 6.98517 9.0284 6.9854 9.14923V10.2973H5.25001V9.14923C5.25001 8.3463 5.6756 7.61924 6.36066 7.25255L11.067 4.73472Z" fill="white"/>
</svg>
