<svg width="29" height="29" viewBox="0 0 29 29" fill="none" xmlns="http://www.w3.org/2000/svg">
    <path d="M14.5 29C22.5081 29 29 22.5081 29 14.5C29 6.49187 22.5081 0 14.5 0C6.49187 0 0 6.49187 0 14.5C0 22.5081 6.49187 29 14.5 29Z" fill="#232323"/>
    <path d="M14.9521 3.625V11.6634L21.7463 14.6994L14.9521 3.625Z" fill="white" fill-opacity="0.602"/>
    <path d="M14.9513 3.625L8.15625 14.6994L14.9513 11.6634V3.625Z" fill="white"/>
    <path d="M14.9521 19.9082V25.3702L21.7508 15.9642L14.9521 19.9082Z" fill="white" fill-opacity="0.602"/>
    <path d="M14.9513 25.3702V19.9073L8.15625 15.9642L14.9513 25.3702Z" fill="white"/>
    <path d="M14.9521 18.6448L21.7463 14.6999L14.9521 11.6658V18.6448Z" fill="white" fill-opacity="0.2"/>
    <path d="M8.15625 14.6999L14.9513 18.6448V11.6658L8.15625 14.6999Z" fill="white" fill-opacity="0.602"/>
</svg>
