<svg width="64" height="64" viewBox="0 0 64 64" fill="none" xmlns="http://www.w3.org/2000/svg">
    <path opacity="0.2" d="M58.6915 40.1588L32.5408 23.3476C32.2113 23.1359 31.7887 23.1359 31.4592 23.3476L5.3085 40.1588C4.69618 40.5525 4.69618 41.4475 5.3085 41.8412L31.4592 58.6524C31.7887 58.8641 32.2113 58.8641 32.5408 58.6524L58.6915 41.8412C59.3038 41.4475 59.3038 40.5525 58.6915 40.1588Z" fill="#FFE819"/>
    <path opacity="0.5" d="M60 32L32 14L4 32L32 50L60 32Z" fill="#FFE819"/>
    <mask id="path-3-inside-1" fill="white">
        <path d="M60 23L32 5L4 23L32 41L60 23Z"/>
    </mask>
    <path d="M60 23L32 5L4 23L32 41L60 23Z" fill="#FFE819" fill-opacity="0.64"/>
    <path d="M32 5L33.6223 2.47646L32 1.43357L30.3777 2.47646L32 5ZM60 23L61.6223 25.5235L65.5478 23L61.6223 20.4765L60 23ZM32 41L30.3777 43.5235L32 44.5664L33.6223 43.5235L32 41ZM4 23L2.37773 20.4765L-1.54777 23L2.37773 25.5235L4 23ZM30.3777 7.52354L58.3777 25.5235L61.6223 20.4765L33.6223 2.47646L30.3777 7.52354ZM58.3777 20.4765L30.3777 38.4765L33.6223 43.5235L61.6223 25.5235L58.3777 20.4765ZM33.6223 38.4765L5.62227 20.4765L2.37773 25.5235L30.3777 43.5235L33.6223 38.4765ZM5.62227 25.5235L33.6223 7.52354L30.3777 2.47646L2.37773 20.4765L5.62227 25.5235Z" fill="#FFE819" mask="url(#path-3-inside-1)"/>
</svg>
