<svg width="48" height="48" viewBox="0 0 48 48" fill="none" xmlns="http://www.w3.org/2000/svg">
    <circle cx="24" cy="24" r="24" fill="#E3453D"/>
    <path d="M32.1018 25.4315C31.5159 24.39 30.5785 24.39 29.9926 25.4315L26.2932 31.9701C25.7073 32.9944 26.1927 33.848 27.3478 33.848H34.6797C35.8515 33.848 36.3369 32.9944 35.7511 31.9701L32.1018 25.4315Z" fill="white"/>
    <path d="M27.8167 17.732L25.8916 14.2663L25.0714 12.7811C24.4855 11.7396 23.5481 11.7396 22.9622 12.7811L12.2488 31.9532C11.6629 32.9945 12.1484 33.8311 13.3202 33.8311H16.2998H18.342H18.6936C19.6645 33.8311 20.8697 33.1311 21.3552 32.2605L27.8167 20.8562C28.2854 20.0197 28.2854 18.6027 27.8167 17.732Z" fill="white"/>
</svg>