<svg width="48" height="48" viewBox="0 0 48 48" fill="none" xmlns="http://www.w3.org/2000/svg">
    <circle cx="24" cy="24" r="24" fill="#F3BA2F"/>
    <path d="M18.0639 21.5563L23.9935 15.6268L29.9258 21.5589L33.3759 18.1088L23.9935 8.72656L14.6141 18.106L18.0641 21.5561L18.0639 21.5563ZM8.72754 23.9926L12.1778 20.5418L15.6277 23.9918L12.1775 27.4421L8.72754 23.9926ZM18.0639 26.4291L23.9935 32.3583L29.9257 26.4263L33.3776 29.8746L33.3759 29.8764L23.9935 39.2585L14.6141 29.8791L14.6092 29.8742L18.0643 26.4288L18.0639 26.4291ZM32.3592 23.994L35.8094 20.5438L39.2594 23.9938L35.8093 27.444L32.3592 23.994Z" fill="white"/>
    <path d="M27.4922 23.9911H27.4936L23.993 20.4902L21.4055 23.077L21.1082 23.3744L20.4951 23.9876L20.4902 23.9924L20.4951 23.9974L23.993 27.4957L27.4939 23.9948L27.4956 23.9929L27.4924 23.9911" fill="white"/>
</svg>
