<svg width="48" height="48" viewBox="0 0 48 48" fill="none" xmlns="http://www.w3.org/2000/svg">
    <path d="M24 48C37.2548 48 48 37.2548 48 24C48 10.7452 37.2548 0 24 0C10.7452 0 0 10.7452 0 24C0 37.2548 10.7452 48 24 48Z" fill="white"/>
    <path d="M23.999 8.72656V20.0153L33.8129 24.2787L23.999 8.72656Z" fill="black" fill-opacity="0.602"/>
    <path d="M23.9978 8.72656L14.1826 24.2787L23.9978 20.0153V8.72656Z" fill="black"/>
    <path d="M23.999 31.5934V39.2639L33.8194 26.0547L23.999 31.5934Z" fill="black" fill-opacity="0.602"/>
    <path d="M23.9978 39.2658V31.5941L14.1826 26.0566L23.9978 39.2658Z" fill="black"/>
    <path d="M23.999 29.8185L33.8129 24.2785L23.999 20.0176V29.8185Z" fill="black" fill-opacity="0.2"/>
    <path d="M14.1826 24.2785L23.9978 29.8185V20.0176L14.1826 24.2785Z" fill="black" fill-opacity="0.602"/>
</svg>
