<svg
  width="40"
  height="40"
  viewBox="0 0 40 40"
  fill="none"
  xmlns="http://www.w3.org/2000/svg"
>
<circle cx="20" cy="20" r="20" fill="#0F0F0F" />
<circle cx="20" cy="20" r="19.5" stroke="white" stroke-opacity="0.1" />
<path
    d="M13.0301 20.0009L13.0366 23.8712L16.5209 25.8054V28.0639L11 25.0087V18.872L13.0301 20.0015V20.0009ZM13.0301 16.1288V18.3873L11 17.2572V14.9992L13.0301 13.8721L15.0609 14.9992L13.0301 16.1288ZM17.9666 14.9992L19.9987 13.8721L22.0276 14.9992L19.9968 16.1288L17.9666 14.9992ZM14.4901 23.0641V20.8062L16.5209 21.9351V24.1937L14.4901 23.0641ZM17.9666 26.6125L19.9968 27.7421L22.0276 26.6125V28.8704L19.9968 30L17.9666 28.8704V26.6125ZM24.9371 14.9992L26.9673 13.8721L28.9981 14.9992V17.2584L26.9673 18.3873V16.1282L24.9371 14.9998V14.9992ZM26.9673 23.8718L26.9699 20.0009L29 18.8713V25.0087L23.483 28.0639V25.8054L26.9673 23.8712V23.8718ZM25.5157 23.0641L23.4856 24.1937V21.9345L25.5157 20.8062V23.0647V23.0641ZM25.5157 16.9359L25.5196 19.1944L22.0353 21.128V25.0087L20.0051 26.1376L17.9744 25.008V21.128L14.4907 19.1944V16.9353L16.5215 15.8063L19.9994 17.7424L23.4862 15.8063L25.5164 16.9359H25.5157ZM14.4907 13.0656L19.9981 10L25.5151 13.0656L23.4849 14.1946L19.9981 12.2585L16.5202 14.1946L14.4894 13.065L14.4907 13.0656Z"
    fill="#F0B90B"
  />
</svg>
