<svg
  width="40"
  height="40"
  viewBox="0 0 40 40"
  fill="none"
  xmlns="http://www.w3.org/2000/svg"
>
<path
    d="M20 40C31.0457 40 40 31.0457 40 20C40 8.9543 31.0457 0 20 0C8.9543 0 0 8.9543 0 20C0 31.0457 8.9543 40 20 40Z"
    fill="white"
  />
<path
    d="M20.623 5V16.0875L29.9943 20.275L20.623 5Z"
    fill="black"
    fill-opacity="0.602"
  />
<path d="M20.6225 5L11.25 20.275L20.6225 16.0875V5Z" fill="black" />
<path
    d="M20.623 27.4595V34.9933L30.0006 22.0195L20.623 27.4595Z"
    fill="black"
    fill-opacity="0.602"
  />
<path
    d="M20.6225 34.9933V27.4583L11.25 22.0195L20.6225 34.9933Z"
    fill="black"
  />
<path
    d="M20.623 25.7161L29.9943 20.2748L20.623 16.0898V25.7161Z"
    fill="black"
    fill-opacity="0.2"
  />
<path
    d="M11.25 20.2748L20.6225 25.7161V16.0898L11.25 20.2748Z"
    fill="black"
    fill-opacity="0.602"
  />
</svg>
