<svg width="70" height="70" viewBox="0 0 70 70" fill="none" xmlns="http://www.w3.org/2000/svg">
  <circle cx="35" cy="35" r="35" fill="#F3BA2F"/>
  <path d="M26.3426 31.4367L34.9899 22.7894L43.6412 31.4404L48.6726 26.409L34.9899 12.7266L21.3116 26.4049L26.3428 31.4363L26.3426 31.4367ZM12.7271 34.9895L17.7586 29.9572L22.7898 34.9884L17.7583 40.02L12.7271 34.9895ZM26.3426 38.5428L34.9899 47.1895L43.641 38.5387L48.6751 43.5675L48.6726 43.5701L34.9899 57.2524L21.3116 43.574L21.3045 43.5669L26.3432 38.5423L26.3426 38.5428ZM47.1899 34.9916L52.2215 29.96L57.2527 34.9912L52.2213 40.0228L47.1899 34.9916Z" fill="white"/>
  <path d="M40.0915 34.9864H40.0936L34.9885 29.8809L31.2151 33.6533L30.7816 34.0869L29.8875 34.9812L29.8804 34.9881L29.8875 34.9954L34.9885 40.0972L40.094 34.9917L40.0965 34.9889L40.0919 34.9864" fill="white"/>
</svg>
