<svg width="70" height="70" viewBox="0 0 70 70" fill="none" xmlns="http://www.w3.org/2000/svg">
  <circle cx="35" cy="35" r="35" fill="#0F0F0F"/>
  <circle cx="35" cy="35" r="34.5" stroke="white" stroke-opacity="0.1"/>
  <path d="M54.6689 22.1269C53.9986 21.6016 53.1995 20.884 51.743 20.7046C50.3767 20.5253 48.9847 21.435 48.0438 22.0372C47.1028 22.6394 45.3241 24.4076 44.5894 24.9457C43.8547 25.4839 41.9729 25.9836 38.9439 27.7902C35.9149 29.5968 24.031 37.1821 24.031 37.1821L27.1244 37.2205L13.3328 44.2804H14.712L12.7271 45.7795C12.7271 45.7795 14.48 46.2408 15.9494 45.3183V45.7411C15.9494 45.7411 32.3704 39.309 35.5411 40.9747L33.6077 41.5385C33.7753 41.5385 36.8945 41.7435 36.8945 41.7435C36.8945 41.7435 36.9976 43.6782 38.8795 44.9211C40.7613 46.1511 40.8 46.8302 40.8 46.8302C40.8 46.8302 39.8204 47.2274 39.8204 47.7271C39.8204 47.7271 41.264 47.2915 42.6045 47.3299C43.945 47.3683 45.1179 47.7271 45.1179 47.7271C45.1179 47.7271 45.0148 47.1889 43.713 46.8302C42.3982 46.4586 41.1222 45.062 40.4906 44.2932C39.8591 43.5245 39.4208 42.1535 39.9622 40.7825C40.4133 39.6165 41.9858 38.9759 45.2339 37.3102C49.062 35.337 49.9385 33.8763 50.4798 32.736C51.0212 31.5956 51.8203 29.3277 52.2715 28.2643C52.8386 26.8933 53.5346 26.163 54.1146 25.7273C54.6818 25.2917 57.2725 24.3307 57.2725 24.3307C57.2725 24.3307 55.3004 22.6266 54.6689 22.1269Z" fill="white"/>
</svg>
