<svg width="70" height="70" viewBox="0 0 70 70" fill="none" xmlns="http://www.w3.org/2000/svg">
  <circle cx="35" cy="35" r="35" fill="#0F0F0F"/>
  <circle cx="35" cy="35" r="34.5" stroke="white" stroke-opacity="0.1"/>
  <path d="M35.1019 20C32.0946 20.0113 29.2138 21.2137 27.0873 23.3452C24.9609 25.4767 23.7613 28.3644 23.75 31.3788C23.7499 32.6356 23.9519 33.8842 24.3482 35.0766C24.4905 35.4668 24.7763 35.7877 25.1471 35.9735C25.5178 36.1593 25.9454 36.196 26.3423 36.076C26.7274 35.9293 27.0421 35.6407 27.2222 35.2692C27.4022 34.8977 27.4339 34.4713 27.3108 34.0772C26.9736 33.1499 26.8236 32.1648 26.8693 31.1789C26.9164 29.5875 27.4241 28.0441 28.3307 26.7368C29.2373 25.4294 30.5036 24.4146 31.9754 23.8158C33.4472 23.217 35.0609 23.0601 36.62 23.3642C38.1791 23.6684 39.6164 24.4204 40.7567 25.5288C41.897 26.6371 42.6912 28.0539 43.0426 29.6066C43.3939 31.1593 43.2872 32.781 42.7354 34.274C42.1837 35.767 41.2107 37.067 39.935 38.0156C38.6594 38.9641 37.136 39.5204 35.5505 39.6167C35.5505 39.6167 33.9624 39.7166 33.1648 39.8165C32.8723 39.8579 32.5823 39.9151 32.2959 39.9879C32.2754 40.0033 32.2499 40.0108 32.2243 40.009C32.1986 40.0072 32.1745 39.9962 32.1563 39.9779C32.1381 39.9597 32.1271 39.9355 32.1253 39.9098C32.1235 39.8841 32.131 39.8586 32.1464 39.838L32.3956 38.4888L33.8912 31.7C33.9771 31.2958 33.8994 30.874 33.675 30.5272C33.4506 30.1805 33.098 29.9373 32.6948 29.8512C32.2915 29.765 31.8706 29.843 31.5247 30.0679C31.1788 30.2928 30.9362 30.6462 30.8503 31.0504C30.8503 31.0504 27.2894 47.6261 27.2894 47.776C27.2404 47.976 27.2326 48.1839 27.2665 48.387C27.3005 48.5902 27.3754 48.7842 27.4867 48.9573C27.5981 49.1304 27.7435 49.2788 27.914 49.3936C28.0846 49.5084 28.2768 49.5871 28.4788 49.6249C28.6787 49.6729 28.8864 49.6797 29.089 49.6448C29.2917 49.6099 29.4851 49.534 29.6577 49.4219C29.8302 49.3097 29.9781 49.1635 30.0926 48.9923C30.207 48.821 30.2855 48.6282 30.3233 48.4256C30.3731 48.2257 30.8218 46.0271 30.8218 46.0271C30.987 45.2178 31.3958 44.4787 31.993 43.9094C32.5902 43.3402 33.3471 42.9681 34.1618 42.8433C34.5036 42.7933 35.9493 42.6934 35.9493 42.6934C38.8384 42.4257 41.5153 41.0587 43.4297 38.8735C45.3442 36.6882 46.3506 33.8508 46.2421 30.9446C46.1335 28.0384 44.9183 25.2843 42.8462 23.2486C40.7742 21.213 38.0028 20.0504 35.1019 20Z" fill="white"/>
  <path d="M37.9419 46.206C37.6963 46.1561 37.4433 46.1553 37.1974 46.2037C36.9515 46.2522 36.7176 46.3488 36.5091 46.4881C36.3006 46.6275 36.1216 46.8067 35.9824 47.0156C35.8433 47.2245 35.7467 47.4589 35.6982 47.7054C35.6454 47.9517 35.6424 48.2062 35.6895 48.4538C35.7365 48.7014 35.8326 48.9369 35.9721 49.1466C36.1115 49.3563 36.2915 49.5358 36.5014 49.6746C36.7113 49.8133 36.9468 49.9085 37.194 49.9544C37.4395 50.0104 37.6939 50.0156 37.9416 49.9697C38.1892 49.9238 38.425 49.8277 38.6343 49.6874C38.8436 49.547 39.0222 49.3654 39.1591 49.1535C39.2961 48.9416 39.3884 48.7039 39.4306 48.455C39.5145 47.9607 39.4073 47.4528 39.1307 47.0349C38.8541 46.6171 38.4289 46.3206 37.9419 46.206Z" fill="#E6007A"/>
</svg>
