<svg width="148" height="148" viewBox="0 0 148 148" fill="none" xmlns="http://www.w3.org/2000/svg">
    <path opacity="0.4" d="M21 25C21 22.7909 22.7909 21 25 21H126V45H25C22.7909 45 21 43.2091 21 41V25Z" fill="url(#paint0_linear)"/>
    <rect x="21" y="21" width="24" height="24" rx="4" fill="#006DFF"/>
    <path opacity="0.4" d="M21 102H122C124.209 102 126 103.791 126 106V122C126 124.209 124.209 126 122 126H21V102Z" fill="url(#paint1_linear)"/>
    <path opacity="0.4" d="M21 61H75C81.6274 61 87 66.3726 87 73C87 79.6274 81.6274 85 75 85H21V61Z" fill="url(#paint2_linear)"/>
    <path opacity="0.4" d="M102 80L102 33C102 26.3726 107.373 21 114 21C120.627 21 126 26.3726 126 33L126 80L102 80Z" fill="url(#paint3_linear)"/>
    <rect x="63" y="61" width="24" height="24" rx="12" fill="#006DFF"/>
    <rect x="102" y="21" width="24" height="24" rx="12" fill="#006DFF"/>
    <rect x="102" y="102" width="24" height="24" rx="4" fill="#006DFF"/>
    <defs>
        <linearGradient id="paint0_linear" x1="34.5" y1="31" x2="115" y2="31" gradientUnits="userSpaceOnUse">
            <stop stop-color="#006DFF"/>
            <stop offset="1" stop-color="#006DFF" stop-opacity="0"/>
        </linearGradient>
        <linearGradient id="paint1_linear" x1="126" y1="120.5" x2="21" y2="120.5" gradientUnits="userSpaceOnUse">
            <stop stop-color="#006DFF"/>
            <stop offset="1" stop-color="#006DFF" stop-opacity="0"/>
        </linearGradient>
        <linearGradient id="paint2_linear" x1="87" y1="79.5" x2="21" y2="79.5" gradientUnits="userSpaceOnUse">
            <stop stop-color="#006DFF"/>
            <stop offset="1" stop-color="#006DFF" stop-opacity="0"/>
        </linearGradient>
        <linearGradient id="paint3_linear" x1="120.5" y1="21" x2="120.5" y2="80" gradientUnits="userSpaceOnUse">
            <stop stop-color="#006DFF"/>
            <stop offset="1" stop-color="#006DFF" stop-opacity="0"/>
        </linearGradient>
    </defs>
</svg>
