<svg width="148" height="148" viewBox="0 0 148 148" fill="none" xmlns="http://www.w3.org/2000/svg">
    <path opacity="0.4" d="M11.8996 86.6205C11.2768 83.2356 11 79.7153 11 76.1949C11 50.1987 27.6079 27.9935 50.9973 19.125" stroke="url(#paint0_linear)" stroke-width="5"/>
    <path opacity="0.4" d="M88.4939 19.1248C91.7464 20.2506 94.9461 21.7441 98.0095 23.4786C120.632 36.2868 131.772 61.6794 127.965 86.4024" stroke="url(#paint1_linear)" stroke-width="5"/>
    <path opacity="0.4" d="M103.95 124.142C101.093 126.061 97.9738 127.716 94.7445 129.118C70.8974 139.468 43.9159 133.073 26.4685 115.148" stroke="url(#paint2_linear)" stroke-width="5"/>
    <path d="M68.4957 14.1261L46.5488 8.89648L52.9951 30.4734L68.4957 14.1261Z" fill="#C9C9C9"/>
    <path d="M36.6968 107.995L14.75 102.766L21.1963 124.343L36.6968 107.995Z" fill="#C9C9C9"/>
    <path d="M117.242 80.2666L139.189 85.4962L123.688 101.844L117.242 80.2666Z" fill="#C9C9C9"/>
    <path d="M71.8448 105.69C88.3276 105.69 101.69 92.3276 101.69 75.8448C101.69 59.362 88.3276 46 71.8448 46C55.362 46 42 59.362 42 75.8448C42 92.3276 55.362 105.69 71.8448 105.69Z" fill="black" fill-opacity="0.1"/>
    <path d="M101.19 75.8448C101.19 92.0515 88.0515 105.19 71.8448 105.19C55.6381 105.19 42.5 92.0515 42.5 75.8448C42.5 59.6381 55.6381 46.5 71.8448 46.5C88.0515 46.5 101.19 59.6381 101.19 75.8448Z" stroke="white" stroke-opacity="0.23"/>
    <circle cx="72" cy="76" r="29.5" fill="white" stroke="#ECEFF2"/>
    <path d="M71.9995 58.001L71.7637 58.8211V82.6198L71.9995 82.8607L82.7947 76.3308L71.9995 58.001Z" fill="#343434"/>
    <path d="M72.0022 58.001L61.207 76.3308L72.0022 82.8607V71.3096V58.001Z" fill="#8C8C8C"/>
    <path d="M71.9981 84.9524L71.8652 85.1181V93.5957L71.9981 93.9928L82.7998 78.4258L71.9981 84.9524Z" fill="#3C3C3B"/>
    <path d="M71.9964 93.992V84.9514L61.2012 78.4248L71.9964 93.992Z" fill="#8C8C8C"/>
    <path d="M72 82.8596L82.795 76.3298L72 71.3086V82.8596Z" fill="#141414"/>
    <path d="M61.2012 76.3298L71.9962 82.8597V71.3086L61.2012 76.3298Z" fill="#393939"/>
    <defs>
        <linearGradient id="paint0_linear" x1="30.9987" y1="19.125" x2="30.9987" y2="86.6205" gradientUnits="userSpaceOnUse">
            <stop stop-color="white"/>
            <stop offset="1" stop-color="white" stop-opacity="0"/>
        </linearGradient>
        <linearGradient id="paint1_linear" x1="137.819" y1="68.9996" x2="79.0839" y2="35.7448" gradientUnits="userSpaceOnUse">
            <stop stop-color="white"/>
            <stop offset="1" stop-color="white" stop-opacity="0"/>
        </linearGradient>
        <linearGradient id="paint2_linear" x1="34.4306" y1="133.493" x2="96.3462" y2="106.622" gradientUnits="userSpaceOnUse">
            <stop stop-color="white"/>
            <stop offset="1" stop-color="white" stop-opacity="0"/>
        </linearGradient>
    </defs>
</svg>
