<svg width="148" height="100" viewBox="0 0 44 44" fill="none" xmlns="http://www.w3.org/2000/svg">
<circle cx="22" cy="22" r="22" fill="#E3453D"/>
<path d="M29.4271 23.3122C28.89 22.3575 28.0307 22.3575 27.4936 23.3122L24.1025 29.3059C23.5654 30.2449 24.0104 31.0274 25.0692 31.0274H31.7901C32.8643 31.0274 33.3093 30.2449 32.7722 29.3059L29.4271 23.3122Z" fill="white"/>
<path d="M25.4987 16.2543L23.734 13.0775L22.9821 11.716C22.4451 10.7613 21.5857 10.7613 21.0486 11.716L11.2281 29.2904C10.691 30.245 11.136 31.0118 12.2101 31.0118H14.9415H16.8135H17.1358C18.0258 31.0118 19.1306 30.3702 19.5756 29.5721L25.4987 19.1182C25.9283 18.3514 25.9283 17.0525 25.4987 16.2543Z" fill="white"/>
</svg>
