<svg width="264" height="258" viewBox="0 0 264 258" fill="none" xmlns="http://www.w3.org/2000/svg">
    <path opacity="0.4" d="M54.9199 166.762H99.4604L131.207 141L163.122 166.762H207.494" stroke="#FFE819" stroke-width="7"/>
    <path opacity="0.4" d="M131 143L176.5 188.5V212" stroke="url(#paint0_linear)" stroke-width="10"/>
    <path opacity="0.4" d="M247 137.5L133 137.5" stroke="url(#paint1_linear)" stroke-width="10"/>
    <path opacity="0.4" d="M54.9199 101.069H99.4604L131.207 126L163.122 101.069H207.494" stroke="#FFE819" stroke-width="7"/>
    <path d="M98.4482 116.627V150.122L131.188 166.906V133.338L98.4482 116.627Z" fill="#FFE819" stroke="black" stroke-miterlimit="10" stroke-linejoin="round"/>
    <path d="M163.999 116.627V150.122L131.188 166.906V133.338L163.999 116.627Z" fill="#6A6109" stroke="black" stroke-miterlimit="10" stroke-linejoin="round"/>
    <path d="M131.188 99.8438L98.4482 116.628L131.188 133.339L164 116.628L131.188 99.8438Z" fill="#B9A705" stroke="black" stroke-miterlimit="10" stroke-linejoin="round"/>
    <path opacity="0.4" d="M122 137.5H16" stroke="url(#paint2_linear)" stroke-width="10"/>
    <path d="M213.444 110.038C218.387 110.038 222.394 106.022 222.394 101.069C222.394 96.1153 218.387 92.0996 213.444 92.0996C208.501 92.0996 204.494 96.1153 204.494 101.069C204.494 106.022 208.501 110.038 213.444 110.038Z" fill="#FFE819"/>
    <path d="M254.984 143.792C259.927 143.792 263.934 139.776 263.934 134.823C263.934 129.869 259.927 125.854 254.984 125.854C250.041 125.854 246.034 129.869 246.034 134.823C246.034 139.776 250.041 143.792 254.984 143.792Z" fill="#FFE819"/>
    <path d="M8.94978 143.792C13.8926 143.792 17.8996 139.776 17.8996 134.823C17.8996 129.869 13.8926 125.854 8.94978 125.854C4.00695 125.854 0 129.869 0 134.823C0 139.776 4.00695 143.792 8.94978 143.792Z" fill="#FFE819"/>
    <path d="M48.9703 110.038C53.9131 110.038 57.9201 106.022 57.9201 101.069C57.9201 96.1153 53.9131 92.0996 48.9703 92.0996C44.0275 92.0996 40.0205 96.1153 40.0205 101.069C40.0205 106.022 44.0275 110.038 48.9703 110.038Z" fill="#FFE819"/>
    <path d="M213.444 175.73C218.387 175.73 222.394 171.715 222.394 166.761C222.394 161.808 218.387 157.792 213.444 157.792C208.501 157.792 204.494 161.808 204.494 166.761C204.494 171.715 208.501 175.73 213.444 175.73Z" fill="#FFE819"/>
    <path d="M176.95 220.938C181.893 220.938 185.9 216.923 185.9 211.969C185.9 207.016 181.893 203 176.95 203C172.007 203 168 207.016 168 211.969C168 216.923 172.007 220.938 176.95 220.938Z" fill="#FFE819"/>
    <path opacity="0.4" d="M130.899 143L85.3994 188.5V212" stroke="url(#paint3_linear)" stroke-width="10"/>
    <path d="M84.9496 220.938C80.0068 220.938 75.9999 216.923 75.9999 211.969C75.9999 207.016 80.0068 203 84.9496 203C89.8925 203 93.8994 207.016 93.8994 211.969C93.8994 216.923 89.8925 220.938 84.9496 220.938Z" fill="#FFE819"/>
    <path opacity="0.4" d="M131 123.938L176.5 78.4385V54.9385" stroke="url(#paint4_linear)" stroke-width="10"/>
    <path d="M176.95 46C181.893 46 185.9 50.0157 185.9 54.9693C185.9 59.9228 181.893 63.9385 176.95 63.9385C172.007 63.9385 168 59.9228 168 54.9693C168 50.0157 172.007 46 176.95 46Z" fill="#FFE819"/>
    <path opacity="0.4" d="M130.899 123.938L85.3994 78.4385V54.9385" stroke="url(#paint5_linear)" stroke-width="10"/>
    <path d="M84.9496 46C80.0068 46 75.9999 50.0157 75.9999 54.9693C75.9999 59.9228 80.0068 63.9385 84.9496 63.9385C89.8925 63.9385 93.8994 59.9228 93.8994 54.9693C93.8994 50.0157 89.8925 46 84.9496 46Z" fill="#FFE819"/>
    <path d="M48.9703 175.73C53.9131 175.73 57.9201 171.715 57.9201 166.761C57.9201 161.808 53.9131 157.792 48.9703 157.792C44.0275 157.792 40.0205 161.808 40.0205 166.761C40.0205 171.715 44.0275 175.73 48.9703 175.73Z" fill="#FFE819"/>
    <path opacity="0.4" d="M131 12V70V111" stroke="url(#paint6_linear)" stroke-width="10"/>
    <path opacity="0.4" d="M131 246L131 188L131 147" stroke="url(#paint7_linear)" stroke-width="10"/>
    <rect width="24" height="24" rx="12" transform="matrix(1 -8.74228e-08 -8.74228e-08 -1 119 24)" fill="#FFE819"/>
    <rect width="24" height="24" rx="12" transform="matrix(-1 0 0 1 143 234)" fill="#FFE819"/>
    <defs>
        <linearGradient id="paint0_linear" x1="192.5" y1="218" x2="158" y2="128" gradientUnits="userSpaceOnUse">
            <stop stop-color="#FFE819"/>
            <stop offset="1" stop-color="#FFE819" stop-opacity="0"/>
        </linearGradient>
        <linearGradient id="paint1_linear" x1="177.175" y1="137.776" x2="177.175" y2="138.299" gradientUnits="userSpaceOnUse">
            <stop stop-color="#FFE819"/>
            <stop offset="1" stop-color="#FFE819" stop-opacity="0"/>
        </linearGradient>
        <linearGradient id="paint2_linear" x1="57.075" y1="137.776" x2="57.075" y2="138.299" gradientUnits="userSpaceOnUse">
            <stop stop-color="#FFE819"/>
            <stop offset="1" stop-color="#FFE819" stop-opacity="0"/>
        </linearGradient>
        <linearGradient id="paint3_linear" x1="69.3993" y1="218" x2="103.899" y2="128" gradientUnits="userSpaceOnUse">
            <stop stop-color="#FFE819"/>
            <stop offset="1" stop-color="#FFE819" stop-opacity="0"/>
        </linearGradient>
        <linearGradient id="paint4_linear" x1="192.5" y1="48.9384" x2="158" y2="138.938" gradientUnits="userSpaceOnUse">
            <stop stop-color="#FFE819"/>
            <stop offset="1" stop-color="#FFE819" stop-opacity="0"/>
        </linearGradient>
        <linearGradient id="paint5_linear" x1="69.3993" y1="48.9384" x2="103.899" y2="138.938" gradientUnits="userSpaceOnUse">
            <stop stop-color="#FFE819"/>
            <stop offset="1" stop-color="#FFE819" stop-opacity="0"/>
        </linearGradient>
        <linearGradient id="paint6_linear" x1="123.25" y1="39.5" x2="123.25" y2="91.5" gradientUnits="userSpaceOnUse">
            <stop stop-color="#FFE819"/>
            <stop offset="1" stop-color="#FFE819" stop-opacity="0"/>
        </linearGradient>
        <linearGradient id="paint7_linear" x1="138.75" y1="218.5" x2="138.75" y2="166.5" gradientUnits="userSpaceOnUse">
            <stop stop-color="#FFE819"/>
            <stop offset="1" stop-color="#FFE819" stop-opacity="0"/>
        </linearGradient>
    </defs>
</svg>
