<?xml version="1.0" standalone="no"?>
<!DOCTYPE svg PUBLIC "-//W3C//DTD SVG 20010904//EN"
 "http://www.w3.org/TR/2001/REC-SVG-20010904/DTD/svg10.dtd">
<svg version="1.0" xmlns="http://www.w3.org/2000/svg"
 width="700.000000pt" height="700.000000pt" viewBox="0 0 700.000000 700.000000"
 preserveAspectRatio="xMidYMid meet">
<metadata>
Created by potrace 1.11, written by Peter Selinger 2001-2013
</metadata>
<g transform="translate(0.000000,700.000000) scale(0.100000,-0.100000)"
fill="#000000" stroke="none">
<path d="M3336 6449 c-49 -10 -103 -23 -120 -30 -37 -14 -301 -145 -481 -239
-71 -37 -242 -125 -380 -195 -137 -70 -326 -167 -420 -215 -93 -48 -296 -152
-450 -230 -366 -187 -356 -182 -428 -233 -155 -111 -279 -297 -323 -483 -12
-52 -17 -139 -21 -360 l-5 -292 359 2 358 1 2 240 c2 151 6 249 14 267 13 32
60 63 229 148 69 34 193 98 275 140 83 43 256 132 385 198 129 66 298 152 375
192 573 295 766 390 795 390 30 0 189 -78 825 -405 199 -102 469 -241 820
-420 380 -195 388 -199 409 -235 16 -28 18 -55 19 -275 l0 -243 359 0 359 0
-1 273 c-1 151 -5 288 -9 307 -5 18 -14 58 -21 88 -40 173 -165 358 -315 465
-75 54 -90 62 -430 235 -154 78 -347 177 -430 220 -82 43 -251 129 -375 193
-124 63 -324 165 -445 227 -459 235 -507 257 -627 276 -83 13 -213 10 -302 -7z"/>
<path d="M3388 4855 c-2 -1 -29 -5 -61 -9 -90 -9 -250 -53 -345 -94 -357 -155
-621 -441 -744 -805 -76 -227 -86 -459 -33 -729 11 -54 68 -205 107 -283 159
-315 421 -542 769 -668 l62 -22 -1 -409 c-1 -225 -3 -411 -6 -413 -3 -3 -38
13 -78 35 -40 22 -212 110 -383 197 -170 87 -368 188 -440 225 -71 37 -260
134 -420 215 -159 81 -305 157 -323 167 -60 36 -63 53 -63 318 0 177 -3 239
-12 242 -7 2 -167 4 -357 4 l-345 -1 0 -280 c0 -326 5 -366 64 -505 60 -140
178 -284 300 -364 36 -24 192 -108 346 -186 154 -78 343 -175 420 -215 77 -40
253 -130 390 -200 138 -70 327 -167 420 -215 422 -218 553 -280 630 -301 103
-27 274 -33 370 -13 138 28 123 21 1110 529 88 45 261 134 385 197 124 64 333
171 465 238 132 68 269 142 305 166 163 108 280 272 342 479 19 62 21 103 25
370 l5 300 -359 0 -358 0 -1 -236 c0 -168 -4 -245 -13 -267 -14 -33 -70 -82
-93 -82 -8 0 -18 -4 -23 -9 -6 -5 -113 -61 -240 -126 -126 -65 -302 -155 -390
-200 -88 -45 -281 -144 -430 -220 -148 -76 -325 -166 -392 -201 -67 -35 -125
-64 -128 -64 -3 0 -5 186 -5 414 l0 415 23 7 c12 5 25 8 29 9 3 0 10 3 14 7 4
5 14 8 21 8 8 0 51 17 96 37 316 143 563 400 692 723 71 178 95 317 91 520 -2
80 -7 161 -11 180 -62 325 -200 572 -443 792 -100 92 -329 223 -447 257 -73
22 -140 39 -175 45 -19 3 -46 9 -60 12 -26 6 -296 14 -302 9z m242 -729 c222
-47 407 -226 465 -451 20 -76 20 -212 0 -290 -60 -233 -259 -419 -490 -457
-44 -8 -93 -13 -110 -12 -178 8 -304 63 -425 184 -237 236 -245 597 -19 845
145 158 363 226 579 181z"/>
</g>
</svg>
