<svg width="36" height="36" viewBox="0 0 36 36" fill="none" xmlns="http://www.w3.org/2000/svg">
    <path d="M26.0003 16C26.1958 15.1325 25.9543 14.11 24.7503 13C22.7933 14.7715 23.3528 16.6135 24.0003 17.5C24.0003 17.5 23.9173 18 22.0003 18C20.0833 18 7.00028 18 7.00028 18C7.00028 18 6.08378 26 15.0003 26C22.7968 26 24.9868 19.9985 25.4143 18.462C25.5913 18.486 25.7898 18.5015 26.0003 18.5C27.0738 18.4915 28.4653 17.9145 29.0003 15.758C27.5813 15.2665 26.6698 15.489 26.0003 16Z" fill="#AEAEAE"/>
    <path d="M7.08301 20C7.45051 22.3695 8.99201 26 15.0005 26C21.093 26 23.762 22.335 24.8415 20H7.08301Z" fill="#999999"/>
    <path d="M15.9064 25.969C15.4464 25.808 13.3704 25.424 13.0004 22.5C10.8959 23.4315 9.03144 23.1875 8.21094 23.004C9.29194 24.6185 11.2959 26 15.0004 26C15.3119 26 15.6124 25.988 15.9064 25.969Z" fill="#F8F8F8"/>
    <path d="M15 21C14.7348 21 14.4804 21.1054 14.2929 21.2929C14.1054 21.4804 14 21.7348 14 22C14 22.2652 14.1054 22.5196 14.2929 22.7071C14.4804 22.8946 14.7348 23 15 23C15.2652 23 15.5196 22.8946 15.7071 22.7071C15.8946 22.5196 16 22.2652 16 22C16 21.7348 15.8946 21.4804 15.7071 21.2929C15.5196 21.1054 15.2652 21 15 21Z" fill="white"/>
    <path d="M13.457 22.7985C13.569 23.051 13.467 23.3795 13.202 23.4575C11.5515 23.944 10.129 24.0085 9.0535 24.0085C8.7315 23.699 8.4565 23.369 8.2255 23.027C9.518 23.027 11.5805 22.967 12.7975 22.544C13.0585 22.453 13.345 22.545 13.457 22.7985ZM7 19.5C7 19.5 7.9375 19.5625 8.5 19C9.4375 19.844 11.47 19.544 12 19C12.5315 19.844 15.469 19.6875 16 19C16.625 19.719 19.3125 19.875 20 19C20.2395 19.7305 23.4095 19.937 24 19C24.5305 19.544 26.5315 19.969 27.6555 19C27.9375 19.594 29 19.5 29 19.5V20H7V19.5ZM14.5 22C14.5 22.276 14.724 22.5 15 22.5C15.276 22.5 15.5 22.276 15.5 22C15.5 21.724 15.276 21.5 15 21.5C14.724 21.5 14.5 21.724 14.5 22Z" fill="#505050"/>
    <path d="M11.5 18H9V15.5H11.5V18ZM16.5 15.5H14V18H16.5V15.5ZM21.5 15.5H19V18H21.5V15.5ZM14 13H11.5V15.5H14V13ZM19 13H16.5V15.5H19V13Z" fill="#838383"/>
    <path d="M14 18H11.5V15.5H14V18ZM19 15.5H16.5V18H19V15.5ZM19 10.5H16.5V13H19V10.5ZM16.5 13H14V15.5H16.5V13Z" fill="#999999"/>
    <rect x="0.5" y="0.5" width="35" height="35" rx="1.5" stroke="white" stroke-opacity="0.2"/>
</svg>
