<svg
        width="36"
        height="36"
        viewBox="0 0 36 36"
        fill="none"
        xmlns="http://www.w3.org/2000/svg"
>
    <path
            d="M22.2752 18.8089C22.2536 16.7078 23.9882 15.7023 24.0651 15.6519C23.0909 14.2284 21.5748 14.0325 21.0331 14.0109C19.7441 13.8788 18.5152 14.7701 17.8592 14.7701C17.2057 14.7701 16.1942 14.0289 15.1239 14.0482C13.716 14.0698 12.4198 14.8674 11.6942 16.1264C10.2322 18.6635 11.3194 22.4212 12.7441 24.4814C13.4409 25.4881 14.2722 26.6185 15.3618 26.5789C16.4117 26.5368 16.8081 25.8989 18.0779 25.8989C19.3476 25.8989 19.7044 26.5789 20.8144 26.5584C21.9448 26.5368 22.6596 25.5313 23.3504 24.5223C24.1504 23.3534 24.4796 22.2206 24.5 22.1641C24.4736 22.1497 22.298 21.3172 22.2752 18.8089Z"
            fill="#999999"
    />
    <path
            d="M20.1875 12.6477C20.7653 11.9473 21.1569 10.9718 21.05 10C20.2151 10.0336 19.2072 10.5538 18.6078 11.2554C18.0708 11.8764 17.6035 12.8675 17.7284 13.8201C18.6582 13.8934 19.6097 13.3468 20.1875 12.6477Z"
            fill="#999999"
    />
    <rect
            x="0.5"
            y="0.5"
            width="35"
            height="35"
            rx="1.5"
            stroke="white"
            strokeOpacity="0.2"
    />
</svg>