<svg xmlns="http://www.w3.org/2000/svg" fill="none" viewBox="0 0 118 39">
  <path fill="#fff" fill-rule="evenodd" d="M48.352 22.888h-3.206v-4.51h3.123c1.581 0 2.664.873 2.664 2.307 0 1.392-.978 2.203-2.581 2.203zM45.146 12.31h2.935c1.54 0 2.477.769 2.477 2.078 0 1.33-.937 2.057-2.477 2.057h-2.935V12.31zm5.37 5.09c1.395-.498 2.457-1.558 2.457-3.303 0-2.037-1.623-3.72-4.684-3.72h-5.42a.096.096 0 00-.096.096v14.25c0 .053.044.096.097.096h5.69c2.956 0 4.746-1.683 4.746-3.886 0-1.724-1.249-3.262-2.79-3.533z" clip-rule="evenodd"/>
  <mask id="a" width="118" height="39" x="0" y="0" maskUnits="userSpaceOnUse">
    <path fill="#fff" d="M0 38.121h118V0H0v38.121z"/>
  </mask>
  <g fill="#fff" fill-rule="evenodd" clip-rule="evenodd" mask="url(#a)">
    <path d="M55.886 24.82h2.372V13.37h-2.372v11.45zM57.093 8.82a1.5 1.5 0 00-1.52 1.516 1.5 1.5 0 001.52 1.518c.832 0 1.498-.665 1.498-1.518 0-.852-.666-1.516-1.498-1.516zM64.052 10.524h-2.2a.096.096 0 00-.097.096v2.654a.096.096 0 01-.096.097h-1.16a.096.096 0 00-.097.096v1.74c0 .053.043.096.096.096h1.16c.054 0 .097.043.097.096v6.242c0 2.327 1.27 3.18 3.31 3.18h1.777a.096.096 0 00.096-.097v-1.782a.096.096 0 00-.096-.096H65.48c-1 0-1.333-.353-1.333-1.205v-6.242c0-.053.044-.096.097-.096h2.597a.096.096 0 00.096-.096v-1.74a.096.096 0 00-.096-.096h-2.597a.096.096 0 01-.097-.097V10.62a.096.096 0 00-.096-.096zM79.881 10.378h-2.72a.096.096 0 00-.074.034l-5.591 6.553v-6.49a.096.096 0 00-.097-.097h-2.18a.096.096 0 00-.096.096v14.25c0 .053.043.096.096.096h2.18a.096.096 0 00.097-.096v-6.366l5.57 6.428a.097.097 0 00.073.034h2.843a.097.097 0 00.073-.16l-6.249-7.05 6.148-7.072a.096.096 0 00-.073-.16z"/>
    <path d="M82.242 18.066c.25-1.807 1.54-2.888 3.143-2.888 1.77 0 3.164 1.122 3.206 2.888h-6.35zm3.247-4.882c-3.393 0-5.724 2.306-5.724 5.9 0 3.596 2.436 5.923 5.724 5.923 2.75 0 4.542-1.532 5.223-3.466a.098.098 0 00-.093-.13h-2.365a.094.094 0 00-.085.054c-.443.868-1.251 1.547-2.68 1.547-1.748 0-3.101-1.143-3.268-3.033H90.9c.048 0 .09-.037.097-.084a7.44 7.44 0 00.07-1.08c0-3.367-2.31-5.631-5.578-5.631zM95.084 18.066c.25-1.807 1.54-2.888 3.143-2.888 1.769 0 3.164 1.122 3.205 2.888h-6.348zm3.247-4.882c-3.393 0-5.724 2.306-5.724 5.9 0 3.596 2.435 5.923 5.724 5.923 2.749 0 4.542-1.532 5.223-3.466a.098.098 0 00-.093-.13h-2.365a.094.094 0 00-.085.054c-.444.868-1.251 1.547-2.68 1.547-1.749 0-3.101-1.143-3.268-3.033h8.679a.1.1 0 00.097-.084 7.53 7.53 0 00.07-1.08c0-3.367-2.31-5.631-5.578-5.631zM112.088 22.95c-1.769 0-3.476-1.393-3.476-3.866 0-2.451 1.707-3.843 3.476-3.843 1.791 0 3.497 1.33 3.497 3.802 0 2.473-1.706 3.907-3.497 3.907zm.521-9.766c-1.874 0-3.268.914-3.997 1.87v-1.587a.096.096 0 00-.096-.097h-2.18a.096.096 0 00-.096.097v16.701c0 .053.042.096.096.096h2.18a.096.096 0 00.096-.096v-7.01a5.19 5.19 0 003.997 1.849c3.018 0 5.391-2.431 5.391-5.964 0-3.532-2.373-5.86-5.391-5.86zM16.679 23.427a.47.47 0 00.47 0l3.433-1.979a.47.47 0 00.235-.406v-3.958a.47.47 0 00-.235-.406l-3.433-1.979a.47.47 0 00-.47 0l-3.433 1.979a.47.47 0 00-.236.406v3.958c0 .167.09.322.236.406l3.433 1.979z"/>
    <path d="M30.575 26.393a.938.938 0 01-.47.813l-6.334 3.652a.704.704 0 01-.705 0l-2.9-1.671 6.451-3.718c.437-.252.706-.717.706-1.22V13.877c0-.503-.27-.968-.706-1.22L17.565 7.44a1.304 1.304 0 00-1.3-.001V3.689l.179-.103a.941.941 0 01.94 0l12.721 7.332c.291.168.47.477.47.813v14.662zm-13.19 8.147a.943.943 0 01-.941 0l-12.72-7.333a.938.938 0 01-.471-.813V11.731c0-.336.18-.645.47-.813l2.782-1.604V24.25c0 .503.27.968.706 1.22l12.955 7.467-2.782 1.604zM32.416 8.5L18.326.377a2.827 2.827 0 00-2.822 0L13.01 1.815v11.249l3.669-2.115a.47.47 0 01.47 0l6.686 3.854a.47.47 0 01.235.406v7.707c0 .168-.09.323-.235.407l-6.686 3.853a.47.47 0 01-.47 0l-6.686-3.853a.47.47 0 01-.235-.407V3.69L1.41 8.5A2.815 2.815 0 000 10.941v16.244c0 1.006.538 1.936 1.411 2.44l14.094 8.119a2.826 2.826 0 002.82 0l14.092-8.12a2.816 2.816 0 001.41-2.439V10.94a2.815 2.815 0 00-1.41-2.439zM42.779 27.313h.502l.681 2.483.736-2.483h.503l.719 2.488.67-2.488h.486l-.924 2.957h-.508l-.714-2.347-.713 2.348h-.508l-.93-2.958zM51.462 27.691c-.54 0-1 .395-1 1.09 0 .697.46 1.107 1 1.107s1.005-.405 1.005-1.102c0-.685-.464-1.095-1.005-1.095zm-.097-.426c.551 0 .93.28 1.102.588v-.54h.498v2.958h-.498v-.55c-.178.318-.562.598-1.108.598-.789 0-1.4-.62-1.4-1.537 0-.923.611-1.517 1.406-1.517zM56.377 30.27h.492v-3.993h-.492v3.994zM60.286 30.27h.492v-3.993h-.492v3.994zM64.52 28.576h1.87c.005-.577-.427-.896-.935-.896-.481 0-.882.319-.935.896zm.957 1.744c-.844 0-1.465-.594-1.465-1.533 0-.934.6-1.522 1.465-1.522.859 0 1.421.604 1.421 1.414 0 .108-.005.194-.016.296h-2.368c.038.6.46.929.963.929.443 0 .724-.227.832-.545h.53c-.151.539-.627.96-1.362.96zM70.235 27.718h-.384v-.405h.384v-.744h.492v.744h.772v.405h-.772v1.744c0 .291.108.393.41.393h.362v.416h-.443c-.524 0-.821-.216-.821-.81v-1.743z"/>
  </g>
</svg>
