<svg xmlns="http://www.w3.org/2000/svg" fill="none" viewBox="0 0 160 31">
  <path fill="#fff" d="M141.447 15.656c-.826-.546-1.737-.935-2.599-1.42-.559-.316-1.154-.595-1.639-.996-.826-.68-.656-2.016.206-2.599 1.239-.826 3.291-.364 3.509 1.324 0 .036.037.06.073.06h1.87c.049 0 .085-.036.073-.085-.097-1.165-.546-2.137-1.372-2.756-.789-.595-1.688-.91-2.647-.91-4.942 0-5.392 5.233-2.732 6.884.303.195 2.914 1.506 3.837 2.077.923.57 1.214 1.615.813 2.44-.364.753-1.311 1.276-2.258 1.215-1.032-.06-1.834-.62-2.113-1.494a2.628 2.628 0 01-.073-.595.078.078 0 00-.073-.072h-2.028c-.036 0-.073.036-.073.072 0 1.47.365 2.283 1.36 3.024.935.704 1.955.996 3.012.996 2.769 0 4.201-1.567 4.493-3.194.255-1.59-.219-3.023-1.639-3.97zM53.397 8.54H51.515a.082.082 0 00-.073.05l-1.663 5.488a.076.076 0 01-.146 0l-1.664-5.489c-.012-.036-.036-.048-.073-.048H44.8a.078.078 0 00-.073.072v14.014c0 .036.037.072.073.072h2.028c.036 0 .073-.036.073-.073V11.978c0-.085.121-.097.145-.024l1.676 5.525.122.388c.012.037.036.049.072.049h1.555c.036 0 .06-.024.073-.049l.121-.388 1.676-5.525c.024-.085.145-.061.145.024v10.65c0 .036.037.072.073.072h2.028a.078.078 0 00.073-.073V8.614a.078.078 0 00-.073-.072h-1.19zM110.397 8.54a.081.081 0 00-.073.05l-1.664 5.488a.075.075 0 01-.145 0l-1.664-5.489c-.012-.036-.036-.048-.073-.048h-3.084a.078.078 0 00-.073.072v14.014c0 .036.036.072.073.072h2.028c.036 0 .073-.036.073-.073V11.978c0-.085.121-.097.145-.024l1.676 5.525.121.388c.013.037.037.049.073.049h1.555c.036 0 .06-.024.073-.049l.121-.388 1.676-5.525c.024-.085.145-.061.145.024v10.65c0 .036.037.072.073.072h2.028a.078.078 0 00.073-.073V8.614a.078.078 0 00-.073-.072h-3.084zM84.24 8.54h-9.58a.078.078 0 00-.073.073v1.749c0 .036.036.073.073.073h3.703v12.191c0 .037.037.073.073.073h2.028a.078.078 0 00.073-.073V10.435h3.703a.078.078 0 00.073-.073V8.613c0-.036-.024-.072-.073-.072zM96.201 22.7h1.846c.049 0 .085-.05.073-.098L94.307 8.54c-.012-.036-.036-.048-.073-.048H91.587a.082.082 0 00-.073.048l-3.813 14.062c-.012.049.025.097.073.097h1.846c.036 0 .06-.024.073-.048l1.105-4.093c.012-.036.036-.048.073-.048h4.08c.036 0 .06.024.073.048l1.105 4.093c.012.024.048.048.072.048zm-4.845-6.194l1.482-5.476a.076.076 0 01.146 0l1.481 5.476c.012.049-.024.097-.073.097H91.43c-.048 0-.085-.048-.073-.097zM127.676 22.7h1.846c.049 0 .085-.05.073-.098L125.782 8.54c-.012-.036-.036-.048-.073-.048H123.062a.083.083 0 00-.073.048l-3.813 14.062c-.012.049.024.097.073.097h1.846a.083.083 0 00.073-.048l1.105-4.093c.012-.036.036-.048.073-.048h4.08c.036 0 .06.024.072.048l1.105 4.093c.013.024.037.048.073.048zm-4.845-6.194l1.482-5.476a.075.075 0 01.145 0l1.482 5.476c.012.049-.024.097-.073.097h-2.963c-.048 0-.085-.048-.073-.097zM62.893 20.623v-4.347c0-.037.036-.073.073-.073h5.404c.036 0 .072-.037.072-.073V14.38a.078.078 0 00-.072-.073h-5.404a.078.078 0 01-.073-.072V10.52c0-.037.036-.073.073-.073h6.144a.078.078 0 00.073-.073V8.625a.078.078 0 00-.073-.072h-8.317a.078.078 0 00-.074.072v14.001c0 .037.037.073.073.073h8.573a.078.078 0 00.073-.073v-1.845a.078.078 0 00-.073-.073h-6.411c-.037-.012-.06-.037-.06-.085zM159.977 22.578l-7.019-7.25c-.024-.024-.024-.072 0-.097l6.315-6.557a.07.07 0 00-.049-.121h-2.586c-.025 0-.037.012-.049.024l-5.355 5.561a.07.07 0 01-.122-.048V8.625c0-.036-.036-.072-.072-.072h-2.028a.078.078 0 00-.073.072V22.64c0 .036.036.072.073.072h2.028c.036 0 .072-.036.072-.072v-6.17c0-.06.085-.096.122-.048l6.071 6.266a.096.096 0 00.049.024h2.586c.049-.012.085-.097.037-.133z"/>
  <path fill="#E17726" stroke="#E17726" stroke-linecap="round" stroke-linejoin="round" d="M30.872 1l-12.277 9.107 2.283-5.367L30.872 1z"/>
  <path fill="#E27625" stroke="#E27625" stroke-linecap="round" stroke-linejoin="round" d="M2.554 1l12.167 9.192-2.173-5.452L2.554 1zM26.452 22.117l-3.267 5.003 6.995 1.93 2.003-6.824-5.731-.11zM1.255 22.226l1.991 6.824 6.982-1.93-3.254-5.003-5.72.109z"/>
  <path fill="#E27625" stroke="#E27625" stroke-linecap="round" stroke-linejoin="round" d="M9.852 13.665L7.91 16.604l6.922.315-.231-7.468-4.748 4.214zM23.574 13.665l-4.821-4.299-.158 7.553 6.922-.315-1.943-2.939zM10.229 27.12l4.189-2.028-3.607-2.817-.582 4.845zM19.008 25.092l4.177 2.028-.57-4.846-3.607 2.818z"/>
  <path fill="#D5BFB2" stroke="#D5BFB2" stroke-linecap="round" stroke-linejoin="round" d="M23.185 27.12l-4.177-2.028.34 2.72-.036 1.153 3.873-1.845zM10.229 27.12l3.885 1.845-.024-1.153.328-2.72-4.19 2.028z"/>
  <path fill="#233447" stroke="#233447" stroke-linecap="round" stroke-linejoin="round" d="M14.187 20.477l-3.473-1.02 2.453-1.129 1.02 2.15zM19.239 20.477l1.02-2.149 2.465 1.13-3.485 1.02z"/>
  <path fill="#CC6228" stroke="#CC6228" stroke-linecap="round" stroke-linejoin="round" d="M10.229 27.12l.607-5.004-3.862.11 3.255 4.893zM22.59 22.116l.595 5.003 3.267-4.893-3.862-.11zM25.517 16.604l-6.922.315.644 3.558 1.02-2.15 2.465 1.13 2.793-2.854zM10.714 19.457l2.453-1.13 1.02 2.15.644-3.558-6.922-.316 2.805 2.854z"/>
  <path fill="#E27525" stroke="#E27525" stroke-linecap="round" stroke-linejoin="round" d="M7.91 16.604l2.902 5.67-.098-2.817-2.805-2.853zM22.724 19.457l-.11 2.817 2.903-5.67-2.793 2.853zM14.83 16.92l-.643 3.557.814 4.202.182-5.538-.352-2.222zM18.595 16.92l-.34 2.21.17 5.549.814-4.202-.644-3.558z"/>
  <path fill="#F5841F" stroke="#F5841F" stroke-linecap="round" stroke-linejoin="round" d="M19.239 20.477l-.814 4.202.583.413 3.607-2.817.109-2.818-3.485 1.02zM10.714 19.457l.098 2.818 3.606 2.817.583-.413-.814-4.202-3.473-1.02z"/>
  <path fill="#C0AC9D" stroke="#C0AC9D" stroke-linecap="round" stroke-linejoin="round" d="M19.312 28.965l.036-1.153-.316-.267h-4.638l-.304.267.024 1.153-3.885-1.845 1.36 1.117 2.756 1.906h4.724l2.768-1.906 1.348-1.117-3.873 1.845z"/>
  <path fill="#161616" stroke="#161616" stroke-linecap="round" stroke-linejoin="round" d="M19.008 25.092l-.583-.413h-3.424l-.583.413-.328 2.72.304-.267h4.638l.316.267-.34-2.72z"/>
  <path fill="#763E1A" stroke="#763E1A" stroke-linecap="round" stroke-linejoin="round" d="M31.394 10.702l1.032-5.027L30.872 1 19.008 9.804l4.566 3.861 6.448 1.882 1.42-1.663-.619-.45.984-.898-.753-.583.984-.753-.644-.498zM1 5.675l1.044 5.027-.668.498.996.753-.753.583.984.898-.62.45 1.421 1.663 6.448-1.882 4.566-3.861L2.554 1 1 5.675z"/>
  <path fill="#F5841F" stroke="#F5841F" stroke-linecap="round" stroke-linejoin="round" d="M30.022 15.547l-6.448-1.882 1.943 2.939-2.902 5.67 3.837-.048h5.731l-2.161-6.679zM9.852 13.665l-6.448 1.882-2.15 6.679h5.72l3.838.049-2.903-5.671 1.943-2.939zM18.595 16.92l.413-7.116 1.87-5.064h-8.33l1.87 5.064.413 7.115.158 2.235.012 5.525h3.424l.012-5.525.158-2.235z"/>
</svg>
