<svg xmlns="http://www.w3.org/2000/svg" fill="none" viewBox="0 0 104 35">
  <path fill="#fff" d="M49.738 23.579c-2.853 0-4.937-2.198-4.937-5.591v-.174c0-3.35 1.821-5.591 4.893-5.591 3.071 0 4.87 2.37 4.87 5.569v.174c0 3.372-1.865 5.613-4.826 5.613zm-.044 2.328c4.76 0 7.898-3.416 7.898-7.963v-.174c0-4.569-3.225-7.854-7.898-7.854-4.652 0-7.942 3.373-7.942 7.92v.173c0 4.482 3.137 7.898 7.942 7.898zM60.41 25.689h2.655V13.767l7.064 11.922h3.028V10.134h-2.655v11.247L63.9 10.134H60.41V25.69zM79.895 25.689h2.94v-13.27H87.2v-2.285H75.529v2.284h4.366v13.27zM96.08 23.579c-2.852 0-4.936-2.198-4.936-5.591v-.174c0-3.35 1.821-5.591 4.893-5.591 3.071 0 4.87 2.37 4.87 5.569v.174c0 3.372-1.865 5.613-4.826 5.613zm-.043 2.328c4.76 0 7.898-3.416 7.898-7.963v-.174c0-4.569-3.225-7.854-7.898-7.854-4.652 0-7.943 3.373-7.943 7.92v.173c0 4.482 3.138 7.898 7.943 7.898z"/>
  <path fill="#fff" fill-rule="evenodd" d="M0 0l26.513 26.503-1.282 1.28c-5.772 5.77-15.13 5.77-20.902 0A14.731 14.731 0 010 17.337V0zm3.622 8.744v8.592a11.11 11.11 0 003.268 7.886c3.921 3.92 10.035 4.312 14.396 1.177L3.622 8.744z" clip-rule="evenodd"/>
  <path fill="#fff" fill-rule="evenodd" d="M4.084 6.38c5.772-5.77 15.13-5.77 20.902 0a14.73 14.73 0 014.329 10.448v17.335l-6.89-6.887L2.802 7.662 4.084 6.38zm3.945 1.385l16.957 16.95.707.706v-8.593c0-2.857-1.089-5.708-3.268-7.885C18.504 5.023 12.39 4.63 8.03 7.765z" clip-rule="evenodd"/>
</svg>
