<svg xmlns="http://www.w3.org/2000/svg" fill="none" viewBox="0 0 163 48">
  <path fill="#fff" d="M64.4 31.18c-1.027 0-2-.133-2.92-.4-.907-.28-1.647-.653-2.22-1.12-.307-.227-.46-.547-.46-.96 0-.28.08-.52.24-.72.173-.213.373-.32.6-.32.24 0 .513.093.82.28a6.001 6.001 0 001.8.9c.627.187 1.32.28 2.08.28.973 0 1.72-.167 2.24-.5.52-.346.78-.847.78-1.5 0-.507-.247-.893-.74-1.16-.48-.28-1.287-.547-2.42-.8-1.173-.253-2.127-.547-2.86-.88-.733-.333-1.287-.76-1.66-1.28s-.56-1.18-.56-1.98c0-.826.233-1.567.7-2.22.467-.653 1.113-1.16 1.94-1.52.84-.373 1.78-.56 2.82-.56 1.907 0 3.46.507 4.66 1.52.173.147.293.294.36.44a1 1 0 01.12.52c0 .28-.087.527-.26.74-.16.2-.353.3-.58.3-.133 0-.26-.02-.38-.06a3.308 3.308 0 01-.44-.22c-.547-.4-1.08-.693-1.6-.88-.507-.2-1.133-.3-1.88-.3-.907 0-1.627.187-2.16.56-.52.36-.78.867-.78 1.52 0 .547.233.967.7 1.26.467.293 1.26.567 2.38.82 1.187.267 2.147.567 2.88.9.747.32 1.313.733 1.7 1.24.4.507.6 1.14.6 1.9 0 .827-.233 1.56-.7 2.2-.453.627-1.1 1.12-1.94 1.48-.827.347-1.78.52-2.86.52zM76.997 29.26c.667.04 1 .34 1 .9 0 .32-.133.567-.4.74-.253.16-.62.227-1.1.2l-.54-.04c-2.24-.16-3.36-1.36-3.36-3.6V23.1h-1c-.36 0-.64-.08-.84-.24-.186-.16-.28-.393-.28-.7 0-.306.094-.54.28-.7.2-.16.48-.24.84-.24h1v-1.84c0-.36.114-.646.34-.86.227-.213.534-.32.92-.32.374 0 .674.107.9.32.227.213.34.5.34.86v1.84h1.7c.36 0 .634.08.82.24.2.16.3.393.3.7 0 .307-.1.54-.3.7-.186.16-.46.24-.82.24h-1.7v4.54c0 .987.454 1.514 1.36 1.58l.54.04zM83.54 20.98c1.36 0 2.367.34 3.02 1.02.667.667 1 1.687 1 3.06v4.88c0 .36-.107.647-.32.86-.213.2-.507.3-.88.3-.347 0-.633-.107-.86-.32-.213-.213-.32-.493-.32-.84v-.44c-.227.52-.587.927-1.08 1.22-.48.294-1.04.44-1.68.44a3.924 3.924 0 01-1.78-.4 3.166 3.166 0 01-1.26-1.1 2.78 2.78 0 01-.46-1.56c0-.72.18-1.287.54-1.7.373-.413.973-.713 1.8-.9.827-.186 1.967-.28 3.42-.28h.5v-.46c0-.653-.14-1.127-.42-1.42-.28-.306-.733-.46-1.36-.46-.387 0-.78.06-1.18.18-.4.107-.873.267-1.42.48-.347.174-.6.26-.76.26a.783.783 0 01-.6-.26c-.147-.173-.22-.4-.22-.68 0-.226.053-.42.16-.58.12-.173.313-.333.58-.48a6.535 6.535 0 011.66-.6 8.747 8.747 0 011.92-.22zm-.62 8.38c.667 0 1.207-.22 1.62-.66.427-.453.64-1.033.64-1.74v-.42h-.36c-.893 0-1.587.04-2.08.12-.493.08-.847.22-1.06.42-.213.2-.32.474-.32.82 0 .427.147.78.44 1.06.307.267.68.4 1.12.4zM95.78 20.98c1.174 0 2.047.334 2.62 1 .574.667.86 1.674.86 3.02v4.92c0 .373-.113.667-.34.88-.213.213-.513.32-.9.32-.386 0-.692-.107-.92-.32-.226-.213-.34-.506-.34-.88v-4.78c0-.76-.146-1.313-.44-1.66-.28-.346-.726-.52-1.34-.52-.72 0-1.3.227-1.74.68-.426.453-.64 1.06-.64 1.82v4.46c0 .373-.112.667-.34.88-.226.213-.532.32-.92.32-.386 0-.693-.107-.92-.32-.213-.213-.32-.506-.32-.88v-7.74c0-.346.114-.627.34-.84.228-.213.534-.32.92-.32.347 0 .627.107.84.32.227.2.34.467.34.8v.54c.334-.546.78-.966 1.34-1.26.56-.293 1.194-.44 1.9-.44zM109.96 16.8c.373 0 .68.107.92.32.24.213.36.493.36.84v11.96c0 .36-.113.647-.34.86-.227.213-.527.32-.9.32s-.673-.107-.9-.32c-.227-.213-.34-.5-.34-.86v-.5c-.293.547-.72.973-1.28 1.28-.547.307-1.173.46-1.88.46-.84 0-1.593-.213-2.26-.64-.653-.427-1.167-1.026-1.54-1.8-.36-.787-.54-1.686-.54-2.7 0-1.013.18-1.9.54-2.66.373-.76.887-1.346 1.54-1.76.653-.413 1.407-.62 2.26-.62.707 0 1.333.147 1.88.44.547.293.967.707 1.26 1.24v-4.74c0-.333.107-.6.32-.8.227-.213.527-.32.9-.32zm-3.7 12.42c.8 0 1.413-.273 1.84-.82.44-.546.66-1.326.66-2.34 0-1.013-.22-1.787-.66-2.32-.427-.546-1.033-.82-1.82-.82-.8 0-1.42.267-1.86.8-.44.534-.66 1.3-.66 2.3 0 1.014.22 1.8.66 2.36.44.56 1.053.84 1.84.84zM125.761 31.18c-1.36 0-2.553-.293-3.58-.88-1.013-.587-1.793-1.427-2.34-2.52-.546-1.093-.82-2.373-.82-3.84 0-1.466.274-2.74.82-3.82.547-1.093 1.327-1.933 2.34-2.52 1.027-.587 2.22-.88 3.58-.88.88 0 1.707.134 2.48.4.774.253 1.46.627 2.06 1.12.174.134.294.274.36.42.067.147.1.327.1.54 0 .294-.08.54-.24.74-.16.2-.353.3-.58.3-.266 0-.54-.093-.82-.28-.573-.427-1.106-.72-1.6-.88a4.92 4.92 0 00-1.64-.26c-1.386 0-2.44.433-3.16 1.3-.706.867-1.06 2.14-1.06 3.82 0 1.694.354 2.973 1.06 3.84.72.867 1.774 1.3 3.16 1.3.574 0 1.1-.086 1.58-.26.494-.173 1.047-.466 1.66-.88.134-.08.267-.146.4-.2.134-.053.274-.08.42-.08.227 0 .42.1.58.3.16.2.24.447.24.74 0 .2-.033.38-.1.54a1.134 1.134 0 01-.36.42c-.6.494-1.286.873-2.06 1.14-.773.253-1.6.38-2.48.38zM136.841 20.98c1.36 0 2.366.34 3.02 1.02.666.667 1 1.687 1 3.06v4.88c0 .36-.107.647-.32.86-.214.2-.507.3-.88.3-.347 0-.634-.107-.86-.32-.214-.213-.32-.493-.32-.84v-.44c-.227.52-.587.927-1.08 1.22-.48.294-1.04.44-1.68.44a3.92 3.92 0 01-1.78-.4 3.158 3.158 0 01-1.26-1.1 2.777 2.777 0 01-.46-1.56c0-.72.18-1.287.54-1.7.373-.413.973-.713 1.8-.9.826-.186 1.966-.28 3.42-.28h.5v-.46c0-.653-.14-1.127-.42-1.42-.28-.306-.734-.46-1.36-.46-.387 0-.78.06-1.18.18-.4.107-.874.267-1.42.48-.347.174-.6.26-.76.26a.783.783 0 01-.6-.26c-.147-.173-.22-.4-.22-.68 0-.226.053-.42.16-.58.12-.173.313-.333.58-.48.466-.253 1.02-.453 1.66-.6a8.743 8.743 0 011.92-.22zm-.62 8.38c.666 0 1.206-.22 1.62-.66.426-.453.64-1.033.64-1.74v-.42h-.36c-.894 0-1.587.04-2.08.12-.494.08-.847.22-1.06.42-.214.2-.32.474-.32.82 0 .427.146.78.44 1.06.306.267.68.4 1.12.4zM146.942 31.16c-1.454 0-2.627-.287-3.52-.86-.427-.253-.64-.613-.64-1.08 0-.267.073-.48.22-.64a.68.68 0 01.54-.26c.226 0 .54.107.94.32.426.2.813.354 1.16.46.36.107.813.16 1.36.16.56 0 .993-.093 1.3-.28.32-.186.48-.447.48-.78 0-.226-.067-.406-.2-.54-.12-.133-.347-.253-.68-.36-.32-.12-.814-.253-1.48-.4-1.187-.24-2.04-.58-2.56-1.02-.507-.44-.76-1.046-.76-1.82 0-.586.173-1.113.52-1.58.346-.48.82-.846 1.42-1.1.613-.267 1.306-.4 2.08-.4.56 0 1.1.073 1.62.22.52.134.986.334 1.4.6.426.267.64.62.64 1.06 0 .267-.074.494-.22.68a.682.682 0 01-.54.26c-.147 0-.294-.027-.44-.08-.134-.066-.307-.16-.52-.28-.387-.2-.72-.347-1-.44-.28-.107-.627-.16-1.04-.16-.494 0-.887.1-1.18.3-.28.2-.42.473-.42.82 0 .334.146.587.44.76.293.174.86.347 1.7.52.893.187 1.593.4 2.1.64.506.24.866.54 1.08.9.226.36.34.82.34 1.38 0 .907-.38 1.634-1.14 2.18-.747.547-1.747.82-3 .82zM158.829 20.98c2.293 0 3.44 1.34 3.44 4.02v4.92c0 .373-.114.667-.34.88-.214.213-.514.32-.9.32-.387 0-.694-.107-.92-.32-.227-.213-.34-.506-.34-.88V25c0-.706-.147-1.22-.44-1.54-.28-.333-.727-.5-1.34-.5-.72 0-1.3.227-1.74.68-.427.453-.64 1.06-.64 1.82v4.46c0 .373-.114.667-.34.88-.227.213-.534.32-.92.32-.387 0-.694-.107-.92-.32-.214-.213-.32-.506-.32-.88V17.96c0-.347.113-.627.34-.84.24-.213.546-.32.92-.32.373 0 .673.1.9.3.226.2.34.473.34.82v4.66c.333-.52.773-.913 1.32-1.18.56-.28 1.193-.42 1.9-.42z"/>
  <path fill="#1576BF" d="M23.99 28.3a4.317 4.317 0 01-4.308-4.309 4.317 4.317 0 014.309-4.309 4.317 4.317 0 014.309 4.309 4.317 4.317 0 01-4.31 4.309zm0-6.774a2.486 2.486 0 00-2.482 2.483 2.486 2.486 0 002.483 2.483 2.486 2.486 0 002.483-2.483 2.486 2.486 0 00-2.483-2.483z"/>
  <path fill="#21ACE3" d="M23.99 0v17.93s-3.706-1.57-3.706-6.939C20.284 5.623 23.991 0 23.991 0z"/>
  <path fill="#1576BF" d="M23.99 0v17.93s3.707-1.57 3.707-6.939C27.697 5.623 23.991 0 23.991 0z"/>
  <path fill="#21ACE3" d="M23.99 48V30.07s3.707 1.571 3.707 6.939S23.991 48 23.991 48z"/>
  <path fill="#1576BF" d="M23.99 48V30.07s-3.706 1.571-3.706 6.939S23.991 48 23.991 48z"/>
  <path fill="#21ACE3" d="M0 23.991h17.93s-1.57 3.707-6.939 3.707C5.623 27.698 0 23.99 0 23.99z"/>
  <path fill="#1576BF" d="M0 23.991h17.93s-1.57-3.706-6.939-3.706C5.623 20.285 0 23.99 0 23.99z"/>
  <path fill="#21ACE3" d="M48 23.991H30.07s1.571-3.706 6.939-3.706S48 23.99 48 23.99z"/>
  <path fill="#1576BF" d="M48 23.991H30.07s1.571 3.707 6.939 3.707S48 23.99 48 23.99z"/>
  <path fill="#21ACE3" d="M7.03 7.03l12.688 12.688s-3.724 1.516-7.522-2.282C8.4 13.64 7.03 7.03 7.03 7.03z"/>
  <path fill="#1576BF" d="M7.03 7.03l12.688 12.688s1.516-3.724-2.282-7.522C13.64 8.4 7.03 7.03 7.03 7.03z"/>
  <path fill="#21ACE3" d="M40.97 40.97L28.283 28.282s3.724-1.515 7.522 2.283C39.6 34.36 40.97 40.97 40.97 40.97z"/>
  <path fill="#1576BF" d="M40.97 40.97L28.282 28.282s-1.515 3.725 2.283 7.523C34.36 39.6 40.97 40.97 40.97 40.97z"/>
  <path fill="#21ACE3" d="M40.97 7.03L28.282 19.717s-1.515-3.724 2.283-7.522C34.36 8.4 40.97 7.03 40.97 7.03z"/>
  <path fill="#1576BF" d="M40.97 7.03L28.283 19.717s3.724 1.516 7.522-2.282C39.6 13.64 40.97 7.03 40.97 7.03z"/>
  <path fill="#21ACE3" d="M7.03 40.97l12.688-12.689s1.516 3.725-2.282 7.523C13.64 39.6 7.03 40.97 7.03 40.97z"/>
  <path fill="#1576BF" d="M7.03 40.97l12.688-12.689s-3.724-1.515-7.522 2.283C8.4 34.36 7.03 40.97 7.03 40.97z"/>
</svg>
