<svg xmlns="http://www.w3.org/2000/svg" fill="none" viewBox="0 0 158 35">
  <path fill="#FF007A" fill-rule="evenodd" d="M.612.766c3.942 4.78 8.27 10.787 8.97 11.759.038.051.065.089.08.111.374.516.682.899.916 1.19.52.646.674.837.364 1.013a1.51 1.51 0 01-.765.19c-.292 0-.62-.14-.858-.367-.169-.16-1.324-1.836-2.896-4.274-1.204-1.866-2.21-3.413-2.238-3.44-.064-.06-.062-.057 2.115 3.836 1.367 2.444 2.302 4.25 2.302 4.366 0 .235-.064.359-.354.682-.484.54-.7 1.146-.856 2.4-.175 1.406-.667 2.399-2.031 4.098-.799.995-.93 1.178-1.13 1.579-.255.505-.324.788-.353 1.425-.03.675.029 1.11.235 1.755.18.564.369.937.85 1.682.416.643.655 1.121.655 1.308 0 .149.029.149.673.004 1.54-.348 2.792-.96 3.496-1.71.436-.463.538-.72.541-1.355.002-.416-.012-.503-.125-.742-.183-.39-.516-.713-1.25-1.215-.964-.658-1.375-1.187-1.488-1.915-.094-.598.014-1.02.547-2.135.551-1.154.688-1.646.78-2.81.06-.752.143-1.048.359-1.286.225-.248.428-.332.986-.409.91-.124 1.49-.359 1.965-.797.413-.38.586-.747.613-1.299l.02-.418-.231-.269C11.668 12.749.052 0 0 0c-.01 0 .264.345.612.766zm5.475 25.331a.74.74 0 00-.227-.974c-.299-.199-.763-.105-.763.153 0 .08.044.137.142.187.166.085.178.181.048.377-.132.198-.122.373.03.491.244.191.59.086.77-.234zM11.776 7.86c-.373-.058-.389-.064-.213-.091.336-.052 1.13.018 1.677.148 1.278.304 2.44 1.081 3.681 2.462l.33.367.471-.076c1.987-.32 4.008-.066 5.699.715.465.214 1.198.642 1.29.751.029.035.083.26.119.501.125.832.063 1.47-.192 1.946-.138.259-.146.34-.053.562a.544.544 0 00.487.308c.42 0 .872-.68 1.082-1.623l.083-.375.165.186c.904 1.024 1.614 2.42 1.736 3.414l.032.26-.152-.236c-.262-.406-.524-.682-.861-.904-.607-.401-1.248-.538-2.947-.627-1.535-.081-2.403-.212-3.264-.493-1.466-.477-2.204-1.113-3.945-3.394-.773-1.014-1.25-1.575-1.726-2.026-1.08-1.026-2.14-1.564-3.5-1.775zm13.28 2.263c.04-.68.132-1.127.317-1.536.073-.162.142-.295.153-.295.01 0-.022.12-.071.266-.135.397-.157.94-.064 1.572.118.801.185.917 1.032 1.783.398.406.86.918 1.028 1.138l.305.4-.305-.286c-.373-.35-1.23-1.03-1.42-1.128-.127-.066-.145-.064-.224.014-.072.071-.087.18-.097.69-.016.794-.124 1.304-.386 1.815-.141.275-.164.217-.036-.095.096-.232.106-.335.105-1.104-.001-1.546-.185-1.918-1.262-2.555a11.788 11.788 0 00-1-.517c-.276-.123-.496-.23-.488-.238.03-.03 1.081.276 1.504.439.629.241.733.273.81.244.05-.02.075-.169.1-.607zm-13.68-1.187c-.101 1.194.367 2.79 1.124 3.832.587.807 1.497 1.435 2.168 1.495.44.04.572-.098.373-.388-.276-.403-.615-1.024-.705-1.29a14.015 14.015 0 01-.27-1.083c-.316-1.47-.626-2.044-1.343-2.479a4.327 4.327 0 00-1.143-.425l-.172-.031-.032.369zM24.14 20.518c-3.538-1.423-4.784-2.659-4.784-4.744 0-.306.01-.557.023-.557s.15.1.304.225c.718.575 1.521.82 3.745 1.144 1.309.191 2.045.345 2.725.57 2.16.716 3.495 2.168 3.814 4.146.092.575.038 1.653-.112 2.221-.119.449-.48 1.257-.576 1.288-.027.01-.053-.093-.06-.231-.036-.743-.412-1.466-1.042-2.008-.718-.616-1.681-1.106-4.037-2.054zm-2.655-.157c.05.148.127.485.17.748.284 1.686-.601 3.047-2.323 3.575-.183.056-.9.196-1.596.312-1.408.234-2.036.4-2.667.704-.448.215-.99.538-.957.57.01.01.112-.014.227-.054.796-.28 1.681-.424 3.027-.494a26.617 26.617 0 001.35-.098c1.2-.151 2.03-.515 2.676-1.172.36-.366.574-.707.747-1.187.11-.305.124-.418.125-.958.001-.55-.012-.651-.13-.99-.156-.443-.34-.776-.572-1.036l-.167-.188.09.268zm1.793 3.627c-.47-1.01-.578-1.985-.32-2.894.027-.097.071-.177.098-.177.026 0 .137.06.246.133.217.146.651.391 1.809 1.022 1.444.787 2.268 1.396 2.828 2.092.49.61.793 1.304.94 2.15.082.48.034 1.634-.09 2.117-.388 1.523-1.29 2.719-2.578 3.417a3.315 3.315 0 01-.376.187c-.018 0 .05-.175.153-.388.433-.905.482-1.785.155-2.764-.2-.6-.61-1.331-1.435-2.568-.96-1.438-1.194-1.82-1.43-2.327zm-8.855 3.311c-1.488.242-3.121 1.029-4.434 2.137l-.391.33.343.053c1.793.28 2.276.528 3.52 1.808.715.736.956.9 1.55 1.051.872.223 1.73-.186 2.026-.963.131-.347.114-.922-.037-1.21-.36-.688-1.407-.91-1.913-.407-.422.42-.299 1.051.226 1.16.12.025.116.02-.03-.047-.23-.104-.33-.247-.332-.476-.002-.537.612-.838 1.184-.58.418.188.584.435.584.867 0 .666-.567 1.168-1.226 1.086a1.805 1.805 0 01-1.016-.53c-.582-.659-.355-1.696.458-2.094.618-.303 1.44-.229 2.078.189.733.48 1.044.917 1.675 2.355.206.468.47.995.587 1.172.598.893 1.314 1.332 2.177 1.332.476 0 .834-.087 1.284-.311.335-.167.809-.485.775-.519-.01-.01-.149.034-.309.096-.942.367-1.9.342-2.455-.065-.35-.256-.633-.766-.778-1.404-.025-.11-.108-.598-.184-1.083-.194-1.231-.38-1.784-.812-2.42-.443-.649-1.294-1.194-2.246-1.438-.594-.152-1.662-.193-2.304-.089zm-2.084-9.516c.129-.474.544-.926.97-1.057.273-.084.834-.03 1.098.104.511.26.883.851.802 1.279-.098.52-.944.937-1.916.944-.497.003-.68-.063-.87-.316-.118-.157-.162-.664-.084-.954zm1.937-.768c.255.156.32.386.17.599-.103.147-.422.286-.656.286-.351 0-.734-.25-.734-.477 0-.459.734-.704 1.22-.408zm76.232 1.313c-.794-2.61.515-4.776 3.307-5.472.8-.2 4.426-.11 5.047.126.228.086.328.416.33 1.096.001.535.06 1.185.13 1.444.107.393.045.47-.374.464-.38-.006-.608-.226-.928-.89-.512-1.062-1.13-1.4-2.573-1.404-1.841-.005-3.188 1.221-2.97 2.703.144.964 1.118 1.913 3.303 3.217 2.08 1.241 3.294 2.261 3.777 3.176 1.293 2.444.189 5.059-2.692 6.377-1.48.676-3.958.746-5.7.16l-1.116-.374v-1.764c0-1.598.038-1.765.406-1.765.308 0 .441.202.55.832.268 1.569 1.473 2.52 3.189 2.52 1.68 0 2.855-.908 3.306-2.555.191-.702.158-.96-.222-1.735-.456-.928-1.24-1.544-3.906-3.065-1.478-.844-2.524-1.972-2.864-3.09zm-52.243-4.43c-.363 0-.505-.117-.505-.419 0-.399.142-.419 2.991-.419 2.645 0 2.983.04 2.923.34-.038.187-.404.446-.813.576l-.744.236-.063 5.344c-.043 3.565.017 5.622.18 6.18.482 1.664 1.954 2.62 4.03 2.62 1.446 0 2.29-.335 3.352-1.328 1.14-1.067 1.323-2.081 1.32-7.353-.004-5.2-.096-5.63-1.225-5.738-.514-.049-.686-.167-.686-.471 0-.379.17-.406 2.55-.406 2.41 0 2.552.023 2.552.42 0 .257-.143.42-.372.421-.985.009-1.003.102-1.136 5.804-.137 5.921-.265 6.622-1.478 8.073-.35.418-1.185 1.026-1.854 1.35-1.092.529-1.439.59-3.344.586-1.756-.004-2.31-.088-3.188-.483-1.282-.577-2.115-1.324-2.73-2.447-.429-.783-.465-1.207-.565-6.516-.114-6.077-.169-6.37-1.195-6.37zm19.89 0c-.486 0-.628-.095-.628-.419 0-.393.136-.418 2.18-.402l2.178.018 1.042 1.187c.573.653 2.442 2.696 4.151 4.54a407.12 407.12 0 014.363 4.767c.69.778 1.338 1.414 1.442 1.414.107 0 .16-2.197.122-5.047l-.067-5.047-.597-.505c-.328-.278-.83-.506-1.115-.506-.38 0-.52-.114-.52-.425 0-.409.109-.423 2.923-.366 2.392.047 2.922.113 2.922.364 0 .178-.296.365-.71.449-.39.078-.821.252-.957.385-.174.172-.263 2.396-.306 7.67l-.061 7.428h-.617c-.53 0-1.161-.59-4.536-4.242-2.157-2.334-4.674-5.108-5.594-6.164-.92-1.056-1.744-1.928-1.832-1.938-.247-.027-.187 9.41.065 10.305.197.698.332.819 1.168 1.04.673.177.946.357.946.624 0 .343-.257.375-2.976.375-2.768 0-2.976-.027-2.976-.392 0-.268.2-.433.628-.517 1.298-.256 1.384-.662 1.457-6.87.04-3.476-.019-5.91-.158-6.418-.245-.896-.854-1.308-1.937-1.308zm22.288 0c-.455 0-.597-.1-.597-.419 0-.4.142-.419 3.188-.419 3.047 0 3.189.019 3.189.42 0 .307-.142.418-.532.418-.292 0-.726.193-.965.428-.42.415-.432.621-.372 7.036.059 6.262.084 6.625.474 6.906.228.164.634.297.904.297.349 0 .49.121.49.42 0 .4-.141.418-3.188.418-2.974 0-3.188-.026-3.188-.392 0-.295.209-.425.842-.525 1.258-.198 1.322-.604 1.244-7.848-.063-5.8-.09-6.162-.48-6.443-.226-.163-.68-.297-1.009-.297zm22.241 0c-.291 0-.512-.16-.581-.419-.108-.405-.007-.419 3.057-.419 3.027 0 3.168.019 3.168.42 0 .321-.141.418-.611.418-1.338 0-1.308.24.717 5.72 1.031 2.789 2.032 5.439 2.224 5.888l.35.816 1.623-4.274c1.911-5.03 2.16-5.96 1.835-6.878-.226-.64-1.106-1.272-1.769-1.272-.188 0-.33-.18-.33-.419 0-.4.142-.419 3.295-.419s3.294.018 3.294.42c0 .297-.141.418-.49.418-.894 0-1.288.47-1.16 1.383.132.94 3.788 11.037 3.942 10.886.249-.246 4.298-11.116 4.298-11.54 0-.508-.361-.729-1.187-.729-.372 0-.514-.115-.514-.419 0-.396.142-.419 2.551-.419 2.163 0 2.551.05 2.551.325 0 .18-.265.417-.589.528-.729.25-.912.536-1.826 2.851l-2.792 7.07-2.17 5.5c-.06.154-.411.28-.781.28h-.673l-1.527-3.93c-.84-2.16-1.832-4.72-2.204-5.688-.639-1.659-.693-1.73-.933-1.258-.141.277-1.149 2.842-2.242 5.7l-1.987 5.196-.742-.063-.741-.063-2.829-7.317c-1.58-4.088-3.033-7.533-3.293-7.805-.256-.268-.676-.488-.934-.488zm42.501.09c-.036-.08-.036-.367-.036-.367s-.008-.103.036-.158c.044-.055.059-.056.215-.07h.002a60.845 60.845 0 012.686-.187l.292-.013h.004c1.058-.048 2.95-.111 4.251-.047 2.496.123 4.271 1.317 4.876 3.289.605 1.972.285 3.823-.54 5.001-.824 1.178-2.211 2.193-4.515 2.127-1.903-.055-2.412-.407-2.819-.689-.086-.06-.167-.116-.256-.165v2.515c.02 1.715.035 2.538.169 2.843.181.41.59.664 1.386.858 0 0 .361.083.454.172.093.09.093.287.093.287s.019.186-.056.28c-.075.094-.219.075-.219.075l-3.528-.028-2.127-.005s-.223.042-.307-.047c-.084-.089-.076-.274-.076-.274s.018-.2.116-.289c.098-.09.461-.19.461-.19.82-.227 1.176-.468 1.362-.922.15-.366.151-1.045.149-6.585-.001-5.254-.009-6.234-.131-6.515-.18-.418-.631-.528-1.274-.686-.127-.03-.262-.064-.404-.101 0 0-.229-.03-.264-.11zm10.272 4.286c0 .861-.015 2.21-.942 3.072-.927.862-2.752 1.098-3.992.858-.39-.075-.613-.192-.786-.282l-.017-.009-.317-.165-.018-3.027c-.012-1.896.008-3.132.053-3.309.042-1 1.533-1.124 2.261-1.087 3.117 0 3.667 2.598 3.758 3.949zm-20.06-5.097l-.383.145-.832.425-.6 1.48c-.329.814-.932 2.308-1.339 3.32-.742 1.845-1.232 3.056-1.747 4.32-.152.373-.61 1.505-1.018 2.518-.408 1.012-.816 1.975-.906 2.14l-.048.089c-.228.424-.624 1.16-1.324 1.272 0 0-.385.038-.527.177-.143.14-.129.253-.129.253v.176s.013.085.094.127c.08.042.19.045.19.045l2.56-.029h2.646s.187.022.259-.038c.072-.059.092-.147.092-.147v-.184s-.037-.2-.142-.279c-.104-.078-.497-.131-.497-.131-1.059-.138-1.242-.93-1.111-1.643.064-.35.49-1.646.969-2.95l.166-.45 2.772-.021c1.525-.012 2.842-.004 2.926.017.12.03.289.368.783 1.574.75 1.826.81 2.049.644 2.39l-.033.069c-.155.33-.458.973-1.22 1.038 0 0-.404.014-.504.133-.101.12-.079.258-.079.258v.182s.027.108.079.15c.052.042.14.032.14.032l2.516-.018h3.537s.139.014.177-.038a.273.273 0 00.045-.115v-.243s-.015-.13-.083-.2c-.068-.072-.527-.147-.527-.147-.586-.093-.878-.572-1.095-.928a3.345 3.345 0 00-.155-.24c-.101-.136-.461-.88-.742-1.596l-1.413-3.593-1.535-3.907c-.35-.888-1.013-2.579-1.475-3.756l-.205-.523c-.31-.791-.435-1.11-.47-1.153-.111-.14-.456 0-.456 0zm-.165 4.813c-.111-.269-.308-.75-.436-1.07-.234-.583-.322-.717-.395-.596a16.87 16.87 0 00-.326.884 568.82 568.82 0 01-1.584 4.484 1.9 1.9 0 00-.106.357c0 .046.834.073 2.264.073 1.245 0 2.264-.015 2.264-.034a9.16 9.16 0 00-.247-.62c-.136-.322-.468-1.127-.739-1.788-.27-.66-.583-1.421-.695-1.69z" clip-rule="evenodd"/>
</svg>
