<svg width="100" height="100" viewBox="0 0 100 100" fill="none" xmlns="http://www.w3.org/2000/svg">
<circle cx="50" cy="50" r="50" fill="white"/>
<path d="M57.9434 36.2305C57.9434 26.3272 53.0532 17.7982 49.3288 15.03C49.3288 15.03 49.0423 14.874 49.0719 15.2737C48.7657 34.4078 38.8569 39.5934 33.4135 46.5725C20.8473 62.6946 32.5244 80.3666 44.4386 83.632C51.0774 85.4645 42.8975 80.3959 41.8404 69.703C40.5463 56.7975 57.9434 46.9331 57.9434 36.2305V36.2305Z" fill="#1B2143"/>
<path d="M63.2994 43.0362C63.2223 42.9878 63.1163 42.9491 63.0488 43.0749C62.8464 45.4645 60.4174 50.5726 57.333 55.2745C46.875 71.1987 52.8317 78.8803 56.186 83.0113C58.1331 85.4009 56.186 83.0113 61.044 80.5637C67.0489 76.9067 70.943 70.5796 71.5213 63.5558C72.4755 52.2367 65.7091 45.1065 63.2994 43.0362V43.0362Z" fill="#2CA6E0"/>
</svg>
