<svg width="24" height="24" viewBox="0 0 24 24" fill="none" xmlns="http://www.w3.org/2000/svg">
<circle cx="12" cy="12" r="12" fill="#E3453D"/>
<path d="M16.0504 12.7148C15.7575 12.194 15.2888 12.194 14.9958 12.7148L13.1461 15.9841C12.8531 16.4962 13.0959 16.923 13.6734 16.923H17.3394C17.9253 16.923 18.168 16.4962 17.8751 15.9841L16.0504 12.7148Z" fill="white"/>
<path d="M13.9084 8.866L12.9458 7.13317L12.5357 6.39053C12.2428 5.86982 11.774 5.86982 11.4811 6.39053L6.12441 15.9766C5.83147 16.4973 6.07419 16.9155 6.66008 16.9155H8.1499H9.17102H9.34679C9.83225 16.9155 10.4349 16.5656 10.6776 16.1302L13.9084 10.4281C14.1427 10.0098 14.1427 9.30134 13.9084 8.866Z" fill="white"/>
</svg>
