<svg width="20" height="20" viewBox="0 0 20 20" fill="none" xmlns="http://www.w3.org/2000/svg">
    <path class="background" d="M10 20C15.5228 20 20 15.5228 20 10C20 4.47715 15.5228 0 10 0C4.47715 0 0 4.47715 0 10C0 15.5228 4.47715 20 10 20Z" fill="url(#paint0_linear)"/>
    <path d="M10.311 2.5V8.04375L14.9967 10.1375L10.311 2.5Z" fill="black" fill-opacity="0.602"/>
    <path d="M10.3112 2.5L5.625 10.1375L10.3112 8.04375V2.5Z" fill="black"/>
    <path d="M10.311 13.7298V17.4966L14.9998 11.0098L10.311 13.7298Z" fill="black" fill-opacity="0.602"/>
    <path d="M10.3112 17.4966V13.7291L5.625 11.0098L10.3112 17.4966Z" fill="black"/>
    <path d="M10.311 12.8581L14.9967 10.1374L10.311 8.04492V12.8581Z" fill="black" fill-opacity="0.2"/>
    <path d="M5.625 10.1374L10.3112 12.8581V8.04492L5.625 10.1374Z" fill="black" fill-opacity="0.602"/>
    <defs>
        <linearGradient id="paint0_linear" x1="14.1667" y1="1.36594e-07" x2="6.25" y2="20" gradientUnits="userSpaceOnUse">
            <stop stop-color="#66A6ED"/>
            <stop offset="1" stop-color="#A364ED"/>
        </linearGradient>
    </defs>
</svg>
