<svg xmlns="http://www.w3.org/2000/svg" fill="none" viewBox="0 0 202 298">
  <g clip-path="url(#asdvxc)">
    <g filter="url(#dfsxcvqw)">
      <path fill="url(#dfbrhtert)" d="M175.874 70.457l-59.586-58.494c-5.769-5.693-12.197-9.158-18.626-10.23-.412-.083-.906-.165-1.319-.165-.741-.083-1.483-.165-2.225-.165h-3.05c-.246 0-.411 0-.658.082h-.412c-.248 0-.495.083-.742.083-3.627.495-7.088 1.732-10.385 3.795l-59.75 37.456C7.5 50.079.33 66.002.33 84.565L0 180.516c-.082 18.563 7.005 37.044 18.543 48.347l59.587 58.494c5.769 5.693 12.197 9.158 18.708 10.313 3.05.578 6.099.578 9.066 0h.165c.329-.083.741-.165 1.071-.248.33-.082.659-.165.907-.247h.164c.083 0 .165 0 .248-.083.329-.082.741-.165 1.071-.33.412-.165.742-.247 1.154-.412 0 0 .082 0 .082-.083.247-.082.577-.247.824-.33.165-.082.33-.165.412-.165l.989-.495s.083 0 .083-.082c.247-.165.577-.33.906-.495l.495-.248c.33-.165.577-.33.824-.495l59.834-37.456c11.62-7.26 18.79-23.183 18.79-41.746l.33-95.951c.247-18.563-6.841-36.961-18.379-48.347z"/>
    </g>
    <path fill="url(#fbdertbdf)" d="M202 117.484l-.247 95.951c-.083 18.563-7.253 34.486-18.791 41.746l-59.833 37.457c-3.05 1.897-6.264 3.135-9.643 3.712l-7.417 1.238c.329-.083.741-.165 1.071-.248.33-.082.659-.165.907-.247h.164c.083 0 .165 0 .248-.083.329-.082.741-.165 1.071-.33.412-.165.742-.247 1.154-.412 0 0 .082 0 .082-.083.247-.082.577-.247.824-.33.165-.082.33-.165.412-.165l.989-.495s.083 0 .083-.082c.247-.165.577-.33.906-.495l.495-.248c.33-.165.577-.33.824-.495l59.834-37.456c11.62-7.26 18.79-23.183 18.79-41.747l.33-95.95c.082-18.563-7.005-36.962-18.544-48.347l-59.586-58.494c-5.769-5.693-12.197-9.158-18.626-10.23-.412-.083-.906-.166-1.318-.166-.742-.082-1.484-.165-2.225-.165h-3.05c-.247 0-.412 0-.66.083h-.411c-.248 0-.495.082-.742.082s-.494.083-.742.083l7.582-1.32a25.762 25.762 0 019.066.082c6.429 1.155 12.857 4.62 18.626 10.23l59.586 58.495c11.786 11.468 18.873 29.866 18.791 48.429z"/>
    <g filter="url(#bfdweewfvcx)">
      <path fill="url(#fbdwervfd)" d="M148.76 161.54L101.536 46.367c-.165-.33-.248-.578-.412-.908-.083-.165-.165-.247-.248-.412-.082-.165-.164-.248-.247-.413-.165-.247-.33-.412-.494-.66-.083-.082-.083-.165-.165-.165-.083-.082-.247-.165-.33-.33l-.082-.082c-.083-.083-.248-.166-.33-.248-.165-.083-.247-.165-.412-.248-.165-.082-.247-.165-.412-.165-.165-.082-.247-.082-.412-.164-.083 0-.083 0-.165-.083h-.165c-.165 0-.412-.082-.577-.082h-.494-.083-.082c-.082 0-.165 0-.247.082h-.083c-.082 0-.165.083-.33.083h-.082c-.082 0-.165.082-.33.164h-.082-.082-.083-.082c-.083 0-.083.083-.165.166l-.247.247c0 .082-.083.082-.083.082-.082.083-.082.166-.164.166l-.165.165c-.083.082-.165.247-.247.33-.083.164-.248.412-.33.577L45.74 143.307c-.99 2.063-.907 4.868.082 7.178l47.224 102.964c.165.33.33.577.494.907.083.083.083.165.165.248.248.412.577.742.907 1.072l.247.248c.082.082.247.165.33.247.082.083.247.165.33.248.164.082.329.165.412.247.082 0 .164.083.164.083.083 0 .083.082.165.082.083 0 .247.083.33.083h1.483c.083 0 .165 0 .248-.083h.329c.083 0 .083-.082.165-.082 0 0 .082 0 .082-.083l.083-.082c.165-.083.247-.165.412-.33l.082-.083.083-.082.165-.165.082-.083s0-.082.082-.082l.083-.083c.082-.082.165-.165.247-.33.082-.082.082-.165.165-.247.082-.083.082-.165.165-.248l.741-1.32 47.142-84.895c1.236-1.898 1.236-4.703.33-7.096zm-12.363 1.486l-33.707 18.975-1.731.99-2.473 1.403c-.082.082-.165.082-.247.082-.082 0-.165.083-.247.083-.247.082-.577.082-.907 0-.494-.083-.906-.33-1.4-.743l-37.747-34.733c-1.154-1.073-1.566-3.301-.907-4.703l38.9-79.945c.083-.083.083-.165.165-.248 0 0 0-.082.083-.082l.082-.083s0-.082.083-.082c0 0 .082-.083.164-.083l.083-.082c.082 0 .082-.083.165-.083.082 0 .082-.082.164-.082h.577c.083 0 .165 0 .248.082.082 0 .164.083.247.083.082 0 .082.082.165.082.082.083.165.165.33.248.164.165.329.412.494.66.082.082.082.165.165.33l1.73 4.125 36.675 89.433c.495 1.65.083 3.713-1.154 4.373zm-34.944 68.064l-2.39 4.373-.66 1.073c0 .082-.082.165-.164.247l-.082.083-.165.165c-.083.082-.165.165-.33.165-.082 0-.082 0-.165.082h-.577a.89.89 0 01-.576-.247l-.083-.083-.247-.248c-.082-.082-.247-.247-.33-.412-.082-.083-.082-.165-.165-.248l-28.433-61.959c-.165-.248-.165-.578-.082-.743 0-.082 0-.082.082-.165 0-.082.082-.082.082-.165l.083-.082c.082-.083.165-.083.165-.083h.165c.082 0 .164.083.247.165l.824.743 11.209 10.23 16.153 14.851c.33.33.742.495 1.071.577H97.992c.082 0 .082-.082.165-.082l1.978-1.073 2.472-1.402 23.736-13.366h.329c.412.083.742.825.495 1.403l-.989 1.732-24.725 44.469z"/>
    </g>
  </g>
  <defs>
    <linearGradient id="dfbrhtert" x1="13.903" x2="6.189" y1="-10.659" y2="220.459" gradientUnits="userSpaceOnUse">
      <stop stop-color="#9ECAFC"/>
      <stop offset="0" stop-color="#74B5FF"/>
      <stop offset="1" stop-color="#4D00AA"/>
    </linearGradient>
    <linearGradient id="fbdertbdf" x1="96.484" x2="-8.68" y1="-12.216" y2="291.03" gradientUnits="userSpaceOnUse">
      <stop stop-color="#9ECAFC"/>
      <stop offset=".164" stop-color="#8791FF"/>
      <stop offset=".329" stop-color="#5C46CB"/>
      <stop offset=".614" stop-color="#37008C"/>
      <stop offset="1" stop-color="#350075"/>
    </linearGradient>
    <linearGradient id="fbdwervfd" x1="79.731" x2="176.138" y1="260.786" y2="101.483" gradientUnits="userSpaceOnUse">
      <stop stop-color="#23004F"/>
      <stop offset="1" stop-color="#4D01AA"/>
    </linearGradient>
    <filter id="dfsxcvqw" width="195.26" height="297.701" x="-.001" y="1.403" color-interpolation-filters="sRGB" filterUnits="userSpaceOnUse">
      <feFlood flood-opacity="0" result="BackgroundImageFix"/>
      <feBlend in="SourceGraphic" in2="BackgroundImageFix" result="shape"/>
      <feColorMatrix in="SourceAlpha" result="hardAlpha" values="0 0 0 0 0 0 0 0 0 0 0 0 0 0 0 0 0 0 127 0"/>
      <feOffset dx="1" dy="1"/>
      <feGaussianBlur stdDeviation=".5"/>
      <feComposite in2="hardAlpha" k2="-1" k3="1" operator="arithmetic"/>
      <feColorMatrix values="0 0 0 0 1 0 0 0 0 1 0 0 0 0 1 0 0 0 0.25 0"/>
      <feBlend in2="shape" result="effect1_innerShadow"/>
    </filter>
    <filter id="bfdweewfvcx" width="106.364" height="218.507" x="44.039" y="42.407" color-interpolation-filters="sRGB" filterUnits="userSpaceOnUse">
      <feFlood flood-opacity="0" result="BackgroundImageFix"/>
      <feColorMatrix in="SourceAlpha" values="0 0 0 0 0 0 0 0 0 0 0 0 0 0 0 0 0 0 127 0"/>
      <feOffset dy="2"/>
      <feGaussianBlur stdDeviation=".5"/>
      <feColorMatrix values="0 0 0 0 1 0 0 0 0 1 0 0 0 0 1 0 0 0 0.15 0"/>
      <feBlend in2="BackgroundImageFix" result="effect1_dropShadow"/>
      <feBlend in="SourceGraphic" in2="effect1_dropShadow" result="shape"/>
      <feColorMatrix in="SourceAlpha" result="hardAlpha" values="0 0 0 0 0 0 0 0 0 0 0 0 0 0 0 0 0 0 127 0"/>
      <feOffset dy="4"/>
      <feGaussianBlur stdDeviation="2"/>
      <feComposite in2="hardAlpha" k2="-1" k3="1" operator="arithmetic"/>
      <feColorMatrix values="0 0 0 0 0 0 0 0 0 0 0 0 0 0 0 0 0 0 0.25 0"/>
      <feBlend in2="shape" result="effect2_innerShadow"/>
    </filter>
    <clipPath id="asdvxc">
      <path fill="#fff" d="M0 0h202v298H0z"/>
    </clipPath>
  </defs>
</svg>
