<svg xmlns="http://www.w3.org/2000/svg" fill="none" viewBox="0 0 186 293">
  <path fill="#272727" d="M95.79 3.912c49.689 18.314 90.001 96.803 90.061 175.291.061 78.489-40.25 127.286-89.939 109.033-49.688-18.314-90.06-96.803-90.06-175.353C5.79 34.395 46.102-14.402 95.79 3.912z"/>
  <g filter="url(#dsazxcvxcdfs)">
    <path fill="url(#vdfbfdwe)" d="M90.056 3.852c49.754 18.328 90.118 96.877 90.179 175.425.061 78.549-40.303 127.383-90.057 109.115C40.425 270.065 0 191.516 0 112.907-.06 34.358 40.303-14.476 90.056 3.852z"/>
  </g>
  <g filter="url(#fbdvbrfvxz)">
    <path fill="url(#brgerdshrtjgh)" d="M88.128 55.056c-1.696-.227-3.393.228-4.863 1.48l-34.832 28.68c-3.506 2.844-5.542 9.104-5.428 16.501l.791 40.743 10.291 1.593-.791-41.198L88.58 73.721l.112.114 36.755 40.515 1.471 76.25-35.624 28.566-31.1-34.142 29.969-29.476.904 46.774 4.298-3.3 5.655-4.439-1.131-58.952-28.16-31.865-10.857 8.99 23.297 25.948-29.743 29.362v-.113l-9.952 9.901c.226 7.056 2.6 13.77 5.993 17.64l36.077 39.491c1.583 1.707 3.28 2.731 4.976 2.959 1.696.227 3.393-.228 4.863-1.48l35.171-28.224c3.506-2.845 5.655-9.104 5.429-16.616l-1.47-75.226c-.114-7.397-2.488-14.339-6.107-18.323l-36.303-40.06c-1.583-1.707-3.393-2.731-4.976-2.959z"/>
  </g>
  <defs>
    <linearGradient id="vdfbfdwe" x1="90.117" x2="90.117" y1="0" y2="292.222" gradientUnits="userSpaceOnUse">
      <stop stop-color="#2E2E2E"/>
      <stop offset="1"/>
    </linearGradient>
    <linearGradient id="brgerdshrtjgh" x1="90" x2="90" y1="55" y2="256.991" gradientUnits="userSpaceOnUse">
      <stop stop-color="#FBE716"/>
      <stop offset="1" stop-color="#FFD500"/>
    </linearGradient>
    <filter id="dsazxcvxcdfs" width="182.235" height="294.222" x="0" y="0" color-interpolation-filters="sRGB" filterUnits="userSpaceOnUse">
      <feFlood flood-opacity="0" result="BackgroundImageFix"/>
      <feBlend in="SourceGraphic" in2="BackgroundImageFix" result="shape"/>
      <feColorMatrix in="SourceAlpha" result="hardAlpha" values="0 0 0 0 0 0 0 0 0 0 0 0 0 0 0 0 0 0 127 0"/>
      <feOffset dx="3" dy="3"/>
      <feGaussianBlur stdDeviation="1"/>
      <feComposite in2="hardAlpha" k2="-1" k3="1" operator="arithmetic"/>
      <feColorMatrix values="0 0 0 0 1 0 0 0 0 1 0 0 0 0 1 0 0 0 0.25 0"/>
      <feBlend in2="shape" result="effect1_innerShadow"/>
    </filter>
    <filter id="fbdvbrfvxz" width="98" height="187" x="41" y="55" color-interpolation-filters="sRGB" filterUnits="userSpaceOnUse">
      <feFlood flood-opacity="0" result="BackgroundImageFix"/>
      <feColorMatrix in="SourceAlpha" values="0 0 0 0 0 0 0 0 0 0 0 0 0 0 0 0 0 0 127 0"/>
      <feOffset dy="2"/>
      <feGaussianBlur stdDeviation="1"/>
      <feColorMatrix values="0 0 0 0 1 0 0 0 0 1 0 0 0 0 1 0 0 0 0.33 0"/>
      <feBlend in2="BackgroundImageFix" result="effect1_dropShadow"/>
      <feBlend in="SourceGraphic" in2="effect1_dropShadow" result="shape"/>
      <feColorMatrix in="SourceAlpha" result="hardAlpha" values="0 0 0 0 0 0 0 0 0 0 0 0 0 0 0 0 0 0 127 0"/>
      <feOffset dy="3"/>
      <feGaussianBlur stdDeviation="2"/>
      <feComposite in2="hardAlpha" k2="-1" k3="1" operator="arithmetic"/>
      <feColorMatrix values="0 0 0 0 0.433333 0 0 0 0 0.286 0 0 0 0 0 0 0 0 0.78 0"/>
      <feBlend in2="shape" result="effect2_innerShadow"/>
    </filter>
  </defs>
</svg>