<svg width="200" height="336" viewBox="0 0 200 336" fill="none" xmlns="http://www.w3.org/2000/svg">
  <g clip-path="url(#clip0)">
    <path d="M200 140.764L198.617 263.716C198.445 279.107 193.086 291.557 184.443 296.053L115.644 332.714C114.261 333.406 112.706 333.925 111.323 334.271L104.581 335.654C104.754 335.654 104.927 335.481 105.1 335.481C101.815 336.346 98.3581 336 94.9009 334.789C90.0608 333.06 85.3936 329.429 81.072 323.895L13.4834 237.777C5.01325 226.882 -0.172576 210.8 0.000284612 195.236L1.38317 72.2841C1.55603 56.8934 6.91472 44.6155 15.5578 39.9465L84.5293 3.28562C86.085 2.42098 87.6407 1.90219 89.1965 1.55633H89.0236L95.5923 0.172907C98.7038 -0.345879 101.988 -2.18675e-05 105.1 1.21048C109.94 2.93976 114.607 6.57126 118.929 12.105L186.517 98.3963C194.987 109.118 200.173 125.373 200 140.764Z" fill="url(#linear_gradient1)"/>
    <path d="M193.086 142.149L191.703 265.101C191.53 280.491 186.171 292.942 177.528 297.438L108.73 334.099C108.038 334.445 107.52 334.791 106.828 334.964C106.655 334.964 106.483 335.137 106.31 335.137H106.137H105.964C105.791 335.137 105.445 335.31 105.273 335.31C101.988 336.174 98.531 335.828 95.0738 334.618C90.2337 332.889 85.5664 329.257 81.2449 323.723L13.4834 237.778C5.01325 226.883 -0.172576 210.801 0.000284612 195.238L1.38317 72.2854C1.55603 56.8948 6.91472 44.6169 15.5578 39.9478L84.5293 3.28698C86.085 2.42234 87.6407 1.90355 89.1965 1.55769C89.8879 1.38477 90.5794 1.38477 91.098 1.38477C91.4437 1.38477 91.7894 1.38477 92.1351 1.38477C94.2095 1.38477 96.2838 1.73062 98.3581 2.59526C103.198 4.32455 107.865 7.95605 112.187 13.4898L179.776 99.7811C188.246 110.503 193.259 126.758 193.086 142.149Z" fill="#FEE713"/>
    <path d="M61.3652 168.26L96.1103 213.913L95.5917 259.739L61.3652 168.26Z" fill="#736B33"/>
    <path d="M96.8017 145.088L96.1103 203.365L61.5381 157.712L96.8017 145.088Z" fill="#323020"/>
    <path d="M97.4932 77.8184L96.8017 145.088L61.5381 157.711L97.4932 77.8184Z" fill="#736B33"/>
    <path d="M131.374 193.68L95.5918 259.738L96.1104 213.912L131.374 193.68Z" fill="#2E2D1E"/>
    <path d="M97.4932 77.8184L131.547 183.132L96.8018 145.088L97.4932 77.8184Z" fill="#2E2D1E"/>
    <path d="M96.8018 145.088L131.547 183.132L96.1104 203.365L96.8018 145.088Z" fill="#171610"/>
  </g>
  <defs>
    <linearGradient id="linear_gradient1" x1="100" y1="-0.0605469" x2="100" y2="335.961" gradientUnits="userSpaceOnUse">
      <stop stop-color="#FEE713"/>
      <stop offset="1" stop-color="#9F9005"/>
    </linearGradient>
    <clipPath id="clip0">
      <rect width="200" height="336" fill="white"/>
    </clipPath>
  </defs>
</svg>
