<svg xmlns="http://www.w3.org/2000/svg" fill="none" viewBox="0 0 186 293">
  <path fill="url(#sfaxvcsafd)" d="M95.94 3.912c49.688 18.314 89.999 96.803 90.06 175.291.061 78.489-40.25 127.286-89.94 109.033C46.373 269.922 6 191.433 6 112.883 5.94 34.395 46.25-14.402 95.94 3.912z"/>
  <path fill="#fff" d="M90.205 3.852c49.753 18.328 90.117 96.877 90.178 175.425.061 78.549-40.303 127.383-90.056 109.115C40.573 270.065.149 191.516.149 112.907.088 34.358 40.45-14.476 90.205 3.852z"/>
  <path fill="#8C8C8C" d="M90.145 68.093v57.846l-30.913 10.412 30.913-68.258z"/>
  <path fill="#333" d="M90.145 68.093h.06l30.975 91.092-30.974-33.246-.061-57.846z"/>
  <path fill="#8C8C8C" d="M59.232 145.486l30.974 39.761v39.275l-30.974-79.036z"/>
  <path fill="#333" d="M121.24 169.161l-30.913 56.262h-.06v-39.274l30.973-16.988z"/>
  <path fill="#383838" d="M90.206 125.938v50.174L59.232 136.35l30.974-10.412z"/>
  <path fill="#141414" d="M90.206 125.938l30.974 33.246-30.974 16.928v.06-50.234z"/>
  <defs>
    <linearGradient id="sfaxvcsafd" x1="23.813" x2="13.765" y1="-6.957" y2="214.62" gradientUnits="userSpaceOnUse">
      <stop offset=".111" stop-color="#fff"/>
      <stop offset=".266" stop-color="#EEE"/>
      <stop offset="1" stop-color="#DDDBDE"/>
    </linearGradient>
  </defs>
</svg>
