<svg width="178" height="178" viewBox="0 0 178 178" fill="none" xmlns="http://www.w3.org/2000/svg">
    <circle cx="89" cy="89" r="86" fill="#006DFF" fill-opacity="0.1" stroke="#006DFF" stroke-width="6"/>
    <path fill-rule="evenodd" clip-rule="evenodd" d="M84.2712 25.0966C86.2238 23.1439 89.3896 23.1439 91.3422 25.0966L131.425 65.1795C132.987 66.7416 132.987 69.2742 131.425 70.8363L128.332 73.9293C126.77 75.4914 124.237 75.4914 122.675 73.9293L91.3422 42.5962C89.3896 40.6436 86.2238 40.6436 84.2712 42.5962L52.9381 73.9293C51.376 75.4914 48.8433 75.4914 47.2812 73.9293L44.1883 70.8363C42.6262 69.2742 42.6262 66.7416 44.1883 65.1795L84.2712 25.0966Z" fill="#006DFF"/>
    <path fill-rule="evenodd" clip-rule="evenodd" d="M85.5525 61.4236C87.1146 59.8615 89.6473 59.8615 91.2093 61.4236L114.676 84.8899C116.238 86.452 116.238 88.9846 114.676 90.5467L111.583 93.6397C110.021 95.2018 107.488 95.2018 105.926 93.6397L91.2093 78.9233C89.6472 77.3612 87.1146 77.3612 85.5525 78.9233L70.8361 93.6397C69.274 95.2018 66.7413 95.2018 65.1792 93.6397L62.0862 90.5467C60.5241 88.9847 60.5241 86.452 62.0862 84.8899L85.5525 61.4236Z" fill="#006DFF"/>
    <path opacity="0.4" d="M88.3813 74.77L88.3814 155.202" stroke="url(#paint0_linear)" stroke-width="12"/>
    <defs>
        <linearGradient id="paint0_linear" x1="88.8813" y1="74.77" x2="88.8814" y2="155.202" gradientUnits="userSpaceOnUse">
            <stop stop-color="#006DFF"/>
            <stop offset="1" stop-color="#006DFF" stop-opacity="0"/>
        </linearGradient>
    </defs>
</svg>
