<svg width="178" height="178" viewBox="0 0 178 178" fill="none" xmlns="http://www.w3.org/2000/svg">
    <circle cx="89" cy="89" r="86" fill="#FFE819" fill-opacity="0.18" stroke="#FFE819" stroke-width="6"/>
    <path fill-rule="evenodd" clip-rule="evenodd" d="M84.2712 25.0971C86.2238 23.1444 89.3896 23.1444 91.3422 25.0971L131.425 65.1799C132.987 66.742 132.987 69.2747 131.425 70.8368L128.332 73.9297C126.77 75.4918 124.237 75.4918 122.675 73.9298L91.3422 42.5967C89.3896 40.6441 86.2238 40.6441 84.2712 42.5967L52.9381 73.9298C51.376 75.4919 48.8433 75.4919 47.2812 73.9298L44.1883 70.8368C42.6262 69.2747 42.6262 66.742 44.1883 65.1799L84.2712 25.0971Z" fill="#FFE819"/>
    <path fill-rule="evenodd" clip-rule="evenodd" d="M85.5525 61.4241C87.1146 59.862 89.6473 59.862 91.2093 61.4241L114.676 84.8904C116.238 86.4525 116.238 88.9851 114.676 90.5472L111.583 93.6402C110.021 95.2023 107.488 95.2023 105.926 93.6402L91.2093 78.9238C89.6472 77.3617 87.1146 77.3617 85.5525 78.9238L70.8361 93.6402C69.274 95.2023 66.7413 95.2023 65.1792 93.6402L62.0862 90.5472C60.5241 88.9851 60.5241 86.4525 62.0862 84.8904L85.5525 61.4241Z" fill="#FFE819"/>
    <path opacity="0.4" d="M88.3813 74.7695L88.3814 155.201" stroke="url(#paint0_linear)" stroke-width="12"/>
    <defs>
        <linearGradient id="paint0_linear" x1="88.8813" y1="74.7695" x2="88.8814" y2="155.201" gradientUnits="userSpaceOnUse">
            <stop stop-color="#FFE819"/>
            <stop offset="1" stop-color="#FFE819" stop-opacity="0"/>
        </linearGradient>
    </defs>
</svg>
