<svg xmlns="http://www.w3.org/2000/svg" fill="none" viewBox="0 0 143 23">
  <path fill="url(#paint0_linear)" d="M31.653.782c1.048 14.18-8.056 20.878-16.23 21.593C7.82 23.042.67 18.37.05 11.197-.474 5.263 3.196 2.76 6.08 2.498c2.955-.262 5.434 1.787 5.649 4.242.214 2.384-1.264 3.456-2.312 3.551-.81.072-1.835-.429-1.93-1.477-.072-.906.261-1.049.19-2.002-.143-1.716-1.668-1.93-2.479-1.86-1 .096-2.812 1.264-2.55 4.148.262 2.931 3.05 5.243 6.745 4.91 3.956-.358 6.72-3.433 6.935-7.77 0-.239.048-.453.143-.668.048-.095.096-.166.143-.262.096-.119.19-.262.334-.429.095-.119.214-.238.357-.381C19.045 2.856 25.29-.982 31.176.234c.286.071.477.286.477.548z"/>
  <path fill="#fff" d="M44.165 6.86h2.693c.048 0 .096.047.096.095v13.49a.102.102 0 01-.096.094h-2.693a.102.102 0 01-.095-.095V6.954c0-.047.047-.095.095-.095zM85.277 2.021v2.122a.103.103 0 01-.096.095H79.7a.103.103 0 00-.096.095v16.111a.102.102 0 01-.095.096h-2.812a.103.103 0 01-.096-.096V4.334a.103.103 0 00-.095-.096h-5.958a.103.103 0 01-.095-.095V2.02c0-.047.047-.095.095-.095h14.633c.024 0 .048 0 .072.024.024.024.024.048.024.071zM71.31 11.817h.023v8.627a.102.102 0 01-.095.096h-2.645a.103.103 0 01-.096-.096V13.82v-.834-.43c0-.405-.023-.81-.071-1.191-.19-1.43-.787-2.479-2.86-2.455a3.942 3.942 0 00-1.716.477c-.62.357-1.31.858-1.692 1.549.071.453.095.93.095 1.382V20.635a.102.102 0 01-.095.095h-2.574a.103.103 0 01-.096-.095v-6.816c0-1.502.072-3.075-.667-4.028-.453-.572-1.096-.858-2.335-.858-.5 0-1.168.19-1.693.429a4.23 4.23 0 00-.977.62c-.429.381-.715.858-.715 1.382v9.08a.103.103 0 01-.095.096h-2.622a.103.103 0 01-.095-.096V7.05c0-.047.048-.095.095-.095h1.097c.453 0 .834.286.977.691l.167.548c0 .048.024.072.047.072.024.024.072 0 .096-.024 1.168-1.096 2.836-1.62 4.456-1.62 1.692 0 2.765.5 3.48 1.286l-.072-.095c.215.238.406.5.572.786.024.048.096.072.12.048l.023-.024c1.073-1.287 3.17-2.002 4.862-2.002 3.909 0 5.1 2.622 5.1 5.196zM114.4 20.54h-2.86c-.023 0-.047-.024-.071-.048-1.073-1.43-1.883-2.812-2.24-3.241l-.072-.072c-.596-.739-1.787-2.264-3.456-2.55-.023 0-.071 0-.071.024l-1.216 1.263c-.023.024-.023.048-.023.072v4.456c0 .048-.048.096-.096.096h-2.669c-.048 0-.095-.048-.095-.096V1.735c0-.047.047-.095.095-.095h2.669c.048 0 .096.048.096.095v10.773c0 .024.023.071.047.071.024.024.072 0 .096-.023l5.862-5.887c.024-.024.048-.024.072-.024h3.146c.048 0 .071.024.071.048.024.024 0 .071-.023.095l-5.982 5.958c-.024.024-.024.048-.024.072 0 .024.024.047.047.071 1.716.787 2.932 2.264 3.48 2.956l.071.071c.477.596 2.074 2.884 3.242 4.457a.072.072 0 010 .095c-.024.072-.048.072-.096.072zM45.5 4.69c.96 0 1.74-.746 1.74-1.668 0-.921-.78-1.668-1.74-1.668-.961 0-1.74.747-1.74 1.668 0 .922.779 1.669 1.74 1.669zM91.807 6.263c-4.17 0-6.888 2.646-6.888 7.174 0 4.528 2.741 7.174 6.888 7.174s6.888-2.646 6.888-7.174c0-4.504-2.74-7.174-6.888-7.174zm0 12.108c-2.812 0-4.17-1.836-4.17-5.053 0-3.194 1.358-4.79 4.17-4.79s4.147 1.715 4.147 4.933c0 3.17-1.335 4.91-4.147 4.91zm30.864.166c-1.502.191-3.003-.429-3.861-1.62-.453-.596-.715-1.287-.882-2.193 0-.024 0-.048.024-.071.024-.024.047-.024.071-.024l7.603-1.025c2.073-.286 2.955-2.097 2.169-3.837a6.351 6.351 0 00-3.48-3.146c-2.073-.81-4.838-.334-6.316.858-1.978 1.573-2.645 3.456-2.764 5.481-.024.215-.024.453-.024.668 0 .476.048.93.119 1.382.524 3.027 2.741 5.792 6.459 5.792 4.194.023 6.196-2.431 6.53-4.267 0-.023 0-.047-.024-.071-.024-.024-.047-.024-.071-.024l-2.622.381c-.024 0-.048.024-.071.048-.739 1.025-1.573 1.478-2.86 1.668zm-3.933-8.532a4.158 4.158 0 012.979-1.525c1.192-.095 2.145.071 2.979.858.31.286.549.62.763.953.31.524-.024 1.287-.715 1.383l-6.935.929c-.024 0-.048 0-.072-.024-.024-.024-.024-.048-.024-.071.12-1.025.453-1.788 1.025-2.503zM143 12.055v8.365c0 .048-.048.095-.095.095h-2.622c-.048 0-.095-.047-.095-.095v-6.935s.024-1.168-.072-2.264c-.071-.763-.333-1.526-.953-2.002-.882-.691-2.097-.548-2.097-.548-1.526.166-2.86 1.072-3.671 2.002l-.047.047.047-.024v9.724c0 .048-.047.095-.095.095h-2.621c-.048 0-.096-.047-.096-.095V6.764c0-.048.048-.095.096-.095h2.144c.048 0 .096.047.096.095v1.335c0 .023.024.071.047.071.024.024.072 0 .096-.024 1.12-1.144 2.788-1.835 4.552-1.835 1.478.024 5.386.072 5.386 5.744z"/>
  <defs>
    <linearGradient id="paint0_linear" x1="29.834" x2="9.293" y1="-.078" y2="28.997" gradientUnits="userSpaceOnUse">
      <stop stop-color="#11C4D1"/>
      <stop offset="1" stop-color="#0062AD"/>
    </linearGradient>
  </defs>
</svg>
