<svg xmlns="http://www.w3.org/2000/svg" fill="none" viewBox="0 0 109 38">
  <path fill="#fff" d="M60.375 29.367c-1.785 0-3.345-.306-4.68-.92-1.316-.63-2.407-1.451-3.273-2.461a10.96 10.96 0 01-1.947-3.327c-.415-1.19-.622-2.335-.622-3.436v-.595c0-1.226.216-2.434.649-3.624.45-1.209 1.118-2.3 2.002-3.273.883-.974 1.983-1.75 3.3-2.327 1.316-.595 2.84-.892 4.571-.892 1.731 0 3.255.297 4.572.892 1.316.577 2.416 1.353 3.3 2.327.883.973 1.55 2.064 2.001 3.273.451 1.19.677 2.398.677 3.624v.595c0 1.1-.217 2.246-.65 3.436a10.96 10.96 0 01-1.947 3.327c-.866 1.01-1.966 1.83-3.3 2.461-1.317.614-2.868.92-4.653.92zm0-4.139c.938 0 1.776-.162 2.516-.486a5.449 5.449 0 001.92-1.353 5.693 5.693 0 001.218-2.002c.27-.757.405-1.569.405-2.434 0-.92-.144-1.758-.433-2.516a5.39 5.39 0 00-1.217-2.001 5.217 5.217 0 00-1.893-1.326c-.74-.306-1.578-.46-2.516-.46s-1.776.154-2.516.46c-.739.307-1.379.749-1.92 1.326a5.578 5.578 0 00-1.19 2.001c-.27.758-.406 1.596-.406 2.516 0 .866.135 1.677.406 2.434.27.758.667 1.425 1.19 2.002a5.796 5.796 0 001.92 1.353c.74.324 1.578.486 2.516.486zM74.042 28.853V14.03h3.436v6.357h-.244c0-1.515.19-2.777.568-3.787.397-1.01.992-1.768 1.785-2.273.794-.505 1.759-.757 2.895-.757h.19c1.73 0 3.047.568 3.949 1.704.92 1.118 1.379 2.822 1.379 5.113v8.466h-4.328v-8.71c0-.793-.234-1.442-.703-1.947-.47-.505-1.1-.758-1.894-.758-.811 0-1.47.262-1.974.785-.487.505-.73 1.172-.73 2.001v8.63h-4.329zM89.957 28.853l6.735-10.522.054.46-6.221-9.684h4.869l3.841 6.167h.622l3.787-6.167h4.734l-6.249 9.738-.081-.433L109 28.853h-4.896l-4.49-6.979h-.65l-4.273 6.98h-4.734z"/>
  <circle cx="18.935" cy="18.935" r="18.935" fill="#4729FF"/>
  <path fill="#fff" d="M32.288 16.893c-.12-.727-.314-1.43-.555-2.108a16.305 16.305 0 00-.87-2.01 15.63 15.63 0 00-1.207-1.89 13.01 13.01 0 00-1.207-1.381l-.097-.097-.241-.243-.097-.096a15.375 15.375 0 00-1.86-1.454 16.353 16.353 0 00-2.028-1.09c-.7-.315-1.425-.533-2.149-.727a11.557 11.557 0 00-2.198-.363c-1.231-.049-4.298-.194-7.63 1.72-.387.218-.773.484-1.16.75-10.6 8.698-4.805 23.282 6.593 24.47 8.162.92 15.02-5.621 14.875-13.567-.024-.63-.072-1.26-.169-1.914zm-6.544 3.9c-.966 4.167-5.168 6.566-9.249 5.33-3.525-1.09-5.94-4.7-5.191-8.407a7.69 7.69 0 01.29-1.066c1.28-3.44 5.095-5.378 8.693-4.554 3.984.896 6.399 4.7 5.457 8.697zm-5.36 7.946c5.022-1.041 7.944-5.305 7.896-9.739.41 1.696.652 4.482-1.329 7.268-5.143 7.244-16.348 4.749-17.893-3.973-.073-.436-.12-.872-.145-1.284a10.16 10.16 0 002.197 4.264c2.536 2.98 6.496 3.876 9.273 3.464zM30.5 22.513c.556-3.585-.555-7.534-3.791-10.635-.266-.267-.555-.533-.845-.8a11.314 11.314 0 00-10.505-2.18c-4.394 1.26-7.34 4.942-8.186 9.085.362-6.42 5.53-11.847 12.388-11.508.676.049 1.352.17 2.029.34.676.17 1.328.387 1.956.654a12.548 12.548 0 013.646 2.398c.217.194.41.412.604.606.29.29.555.605.796.944.411.534.797 1.115 1.111 1.696.314.606.58 1.212.797 1.842.218.63.387 1.26.507 1.913.218 2.084.024 3.974-.507 5.645z"/>
</svg>
