<svg xmlns="http://www.w3.org/2000/svg" fill="none" viewBox="0 0 145 40">
  <path fill="#fff" d="M47.464 24.335c.222.205 1.592 1.387 3.613 1.387 2.004 0 3.699-1.302 3.699-3.083 0-1.986-1.49-2.86-3.802-3.802-1.438-.599-2.312-1.267-2.312-2.414 0-.72.548-1.884 2.364-1.884 1.044 0 2.123.72 2.243.788.274.154.445.085.6-.154.068-.103.136-.223.205-.326.205-.325 0-.53-.103-.582 0 0-1.25-.873-2.928-.873-2.723 0-3.648 1.883-3.648 3.048 0 1.952 1.13 2.723 3.014 3.545 1.97.822 2.997 1.524 2.997 2.706 0 1.01-.908 1.883-2.295 1.883-1.524 0-2.774-1.198-2.894-1.301-.24-.206-.428-.069-.6.154-.085.103-.17.223-.256.325-.206.326-.034.463.103.583zM57.487 25.225c0 .171.154.325.326.325h.6a.325.325 0 00.325-.325V15.91h.017l7.86 9.813h.308c.172 0 .326-.137.326-.309V13.888a.337.337 0 00-.326-.325h-.6a.325.325 0 00-.324.325v9.128h-.035l-7.723-9.624h-.428c-.172 0-.326.137-.326.308v11.525zM70.1 19.574a6.11 6.11 0 006.149 6.148c3.425 0 6.165-2.723 6.165-6.148a6.154 6.154 0 00-6.165-6.182c-3.425 0-6.148 2.757-6.148 6.182zm1.2 0c0-2.723 2.226-4.984 4.949-4.984 2.722 0 4.966 2.26 4.966 4.984 0 2.723-2.244 4.949-4.966 4.949a4.963 4.963 0 01-4.95-4.95zM87.32 25.482a.33.33 0 00.309.24h.273c.12 0 .24-.086.292-.189l2.911-9.264h.085l2.963 9.264a.348.348 0 00.292.189h.274a.329.329 0 00.308-.24l3.237-11.508c.068-.24-.069-.411-.31-.411h-.718c-.137 0-.274.12-.308.24l-2.33 8.87h-.068l-2.911-9.093c-.035-.103-.154-.188-.291-.188h-.309c-.154 0-.256.085-.291.188l-2.86 9.094H87.8l-2.38-8.871c-.035-.12-.172-.24-.309-.24h-.719c-.24 0-.376.171-.308.41l3.236 11.509zM100.206 24.335c.223.205 1.593 1.387 3.614 1.387 2.004 0 3.699-1.302 3.699-3.083 0-1.986-1.49-2.86-3.802-3.802-1.438-.599-2.312-1.267-2.312-2.414 0-.72.548-1.884 2.363-1.884 1.045 0 2.124.72 2.244.788.274.154.445.085.6-.154.068-.103.137-.223.205-.326.205-.325 0-.53-.103-.582 0 0-1.25-.873-2.928-.873-2.723 0-3.648 1.883-3.648 3.048 0 1.952 1.13 2.723 3.014 3.545 1.969.822 2.997 1.524 2.997 2.706 0 1.01-.907 1.883-2.295 1.883-1.524 0-2.774-1.198-2.894-1.301-.239-.206-.428-.069-.599.154-.086.103-.171.223-.257.325-.206.326-.035.463.102.583zM112.354 25.482c.034.137.171.24.308.24h.275a.347.347 0 00.29-.189l2.912-9.264h.086l2.962 9.264a.348.348 0 00.291.189h.274a.328.328 0 00.308-.24l3.237-11.508c.069-.24-.068-.411-.308-.411h-.72c-.136 0-.273.12-.308.24l-2.328 8.87h-.069l-2.912-9.093c-.033-.103-.154-.188-.291-.188h-.308c-.154 0-.257.085-.291.188l-2.86 9.094h-.069l-2.38-8.871c-.034-.12-.171-.24-.308-.24h-.719c-.24 0-.377.171-.309.41l3.237 11.509zM124.12 25.55h.686a.314.314 0 00.29-.188l1.25-2.825h6.08l1.267 2.825a.316.316 0 00.292.189h.684c.257 0 .394-.223.292-.446l-5.172-11.525c-.052-.103-.137-.188-.291-.188h-.171c-.155 0-.241.085-.292.188l-5.206 11.525c-.103.223.034.445.291.445zm2.706-4.075l2.501-5.617h.137c.839 1.866 1.66 3.75 2.5 5.617h-5.138zM137.054 25.226c0 .171.137.325.325.325h.651a.337.337 0 00.325-.325V21.2h2.826c2.089 0 3.819-1.73 3.819-3.853 0-2.072-1.73-3.784-3.836-3.784h-3.785a.325.325 0 00-.325.325v11.337zm1.301-5.292v-5.069h2.723c1.404 0 2.603 1.062 2.603 2.449a2.617 2.617 0 01-2.603 2.62h-2.723z"/>
  <path fill="url(#paint0_linear)" fill-rule="evenodd" d="M19.694 39.388c10.877 0 19.694-8.817 19.694-19.694C39.388 8.817 30.571 0 19.694 0 8.817 0 0 8.817 0 19.694c0 10.877 8.817 19.694 19.694 19.694z" clip-rule="evenodd"/>
  <path fill="#fff" d="M31.523 25.458l-2.322-1.341 1.831-.49a.869.869 0 10-.45-1.68l-2.055.552a3.636 3.636 0 01-2.758-.363 2.672 2.672 0 01-1.336-2.315v-.255c0-.955.51-1.837 1.336-2.314a3.635 3.635 0 012.76-.362c2.297.617 2.14.58 2.28.58a.87.87 0 00.223-1.71l-1.83-.49 2.321-1.34a.869.869 0 00-.869-1.505l-2.322 1.34.491-1.83a.869.869 0 10-1.678-.45l-.551 2.055a3.635 3.635 0 01-1.694 2.207 2.672 2.672 0 01-2.672 0l-.221-.128a2.672 2.672 0 01-1.336-2.314c0-.964.383-1.889 1.064-2.57L23.24 9.23a.869.869 0 10-1.229-1.229l-1.34 1.34v-2.68a.869.869 0 00-1.738 0v2.68l-1.34-1.34a.869.869 0 10-1.23 1.23l1.505 1.504a3.635 3.635 0 011.065 2.57c0 .955-.51 1.837-1.336 2.314l-.221.128a2.672 2.672 0 01-2.672 0 3.635 3.635 0 01-1.694-2.207l-.55-2.056a.869.869 0 10-1.68.45l.492 1.831-2.323-1.34a.869.869 0 10-.868 1.505l2.322 1.34-1.832.49a.869.869 0 00.225 1.71c.138 0-.014.036 2.279-.58a3.635 3.635 0 012.76.362 2.672 2.672 0 011.336 2.314v.256c0 .954-.51 1.836-1.336 2.314a3.636 3.636 0 01-2.759.363l-2.055-.551a.869.869 0 00-.45 1.678l1.832.491-2.322 1.34c-.767.444-.453 1.622.435 1.622.31 0 .197.02 2.755-1.457l-.49 1.831a.869.869 0 001.678.45l.551-2.055a3.635 3.635 0 011.694-2.208 2.672 2.672 0 012.672 0l.221.128a2.672 2.672 0 011.336 2.314c0 .964-.383 1.889-1.065 2.57l-1.504 1.505a.869.869 0 101.229 1.229l1.34-1.34v2.68a.869.869 0 001.738 0v-2.68l1.34 1.34c.17.17.392.254.615.254.767 0 1.163-.934.614-1.483l-1.505-1.504a3.635 3.635 0 01-1.064-2.57c0-.955.509-1.837 1.336-2.315l.221-.128a2.672 2.672 0 012.672 0 3.636 3.636 0 011.694 2.208l.55 2.055a.87.87 0 001.679-.45l-.49-1.831 2.322 1.34a.869.869 0 10.868-1.504zm-8.828-5.764a2.894 2.894 0 11-5.787 0 2.894 2.894 0 015.787 0z"/>
  <path fill="url(#paint1_linear)" fill-rule="evenodd" d="M19.694 39.388c10.877 0 19.694-8.817 19.694-19.694C39.388 8.817 30.571 0 19.694 0 8.817 0 0 8.817 0 19.694c0 10.877 8.817 19.694 19.694 19.694z" clip-rule="evenodd"/>
  <path fill="#fff" d="M31.523 25.458l-2.322-1.341 1.831-.49a.869.869 0 10-.45-1.68l-2.055.552a3.636 3.636 0 01-2.758-.363 2.672 2.672 0 01-1.336-2.315v-.255c0-.955.51-1.837 1.336-2.314a3.635 3.635 0 012.76-.362c2.297.617 2.14.58 2.28.58a.87.87 0 00.223-1.71l-1.83-.49 2.321-1.34a.869.869 0 00-.869-1.505l-2.322 1.34.491-1.83a.869.869 0 10-1.678-.45l-.551 2.055a3.635 3.635 0 01-1.694 2.207 2.672 2.672 0 01-2.672 0l-.221-.128a2.672 2.672 0 01-1.336-2.314c0-.964.383-1.889 1.064-2.57L23.24 9.23a.869.869 0 10-1.229-1.229l-1.34 1.34v-2.68a.869.869 0 00-1.738 0v2.68l-1.34-1.34a.869.869 0 10-1.23 1.23l1.505 1.504a3.635 3.635 0 011.065 2.57c0 .955-.51 1.837-1.336 2.314l-.221.128a2.672 2.672 0 01-2.672 0 3.635 3.635 0 01-1.694-2.207l-.55-2.056a.869.869 0 10-1.68.45l.492 1.831-2.323-1.34a.869.869 0 10-.868 1.505l2.322 1.34-1.832.49a.869.869 0 00.225 1.71c.138 0-.014.036 2.279-.58a3.635 3.635 0 012.76.362 2.672 2.672 0 011.336 2.314v.256c0 .954-.51 1.836-1.336 2.314a3.636 3.636 0 01-2.759.363l-2.055-.551a.869.869 0 00-.45 1.678l1.832.491-2.322 1.34c-.767.444-.453 1.622.435 1.622.31 0 .197.02 2.755-1.457l-.49 1.831a.869.869 0 001.678.45l.551-2.055a3.635 3.635 0 011.694-2.208 2.672 2.672 0 012.672 0l.221.128a2.672 2.672 0 011.336 2.314c0 .964-.383 1.889-1.065 2.57l-1.504 1.505a.869.869 0 101.229 1.229l1.34-1.34v2.68a.869.869 0 001.738 0v-2.68l1.34 1.34c.17.17.392.254.615.254.767 0 1.163-.934.614-1.483l-1.505-1.504a3.635 3.635 0 01-1.064-2.57c0-.955.509-1.837 1.336-2.315l.221-.128a2.672 2.672 0 012.672 0 3.636 3.636 0 011.694 2.208l.55 2.055a.87.87 0 001.679-.45l-.49-1.831 2.322 1.34a.869.869 0 10.868-1.504zm-8.828-5.764a2.894 2.894 0 11-5.787 0 2.894 2.894 0 015.787 0z"/>
  <defs>
    <linearGradient id="paint0_linear" x1="35.227" x2="-7.38" y1="-34.465" y2="-29.928" gradientUnits="userSpaceOnUse">
      <stop stop-color="#1ADBC5"/>
      <stop offset="1" stop-color="#04D3DD"/>
    </linearGradient>
    <linearGradient id="paint1_linear" x1="35.227" x2="-7.38" y1="-34.465" y2="-29.928" gradientUnits="userSpaceOnUse">
      <stop stop-color="#1ADBC5"/>
      <stop offset="1" stop-color="#04D3DD"/>
    </linearGradient>
  </defs>
</svg>
