<svg xmlns="http://www.w3.org/2000/svg" fill="none" viewBox="0 0 154 39">
  <path fill="#fff" d="M51.359 15.506h-4.19v-2.47h11.41v2.47h-4.19V26.13h-3.03V15.506zm10.09 1.889a3.252 3.252 0 011.403-1.104c.598-.25 1.284-.374 2.057-.374v2.694a10.511 10.511 0 00-.655-.038c-.835 0-1.49.237-1.964.71-.473.462-.71 1.16-.71 2.096v4.751h-2.918V16.066h2.787v1.329zm14.284-1.329V26.13h-2.768v-1.197a3.973 3.973 0 01-1.385 1.01 4.46 4.46 0 01-1.739.337c-1.322 0-2.37-.38-3.142-1.142-.773-.76-1.16-1.889-1.16-3.385v-5.687h2.918v5.257c0 1.62.68 2.431 2.039 2.431.698 0 1.26-.224 1.683-.673.424-.462.636-1.14.636-2.039v-4.976h2.918zM80.7 26.28c-.836 0-1.653-.1-2.45-.3-.799-.212-1.435-.474-1.909-.785l.973-2.095c.45.286.991.523 1.627.71.636.175 1.26.262 1.87.262 1.235 0 1.853-.305 1.853-.916 0-.287-.169-.493-.505-.617-.337-.125-.855-.231-1.553-.319-.823-.124-1.502-.268-2.039-.43a3.232 3.232 0 01-1.402-.86c-.387-.412-.58-.997-.58-1.758 0-.636.18-1.197.542-1.684.374-.499.91-.885 1.609-1.16.71-.274 1.546-.411 2.506-.411.711 0 1.415.081 2.114.243.71.15 1.297.362 1.758.636l-.973 2.076a5.808 5.808 0 00-2.899-.748c-.623 0-1.09.088-1.403.262-.311.175-.467.399-.467.674 0 .311.168.53.505.654.336.125.873.243 1.608.356.823.137 1.497.286 2.02.448.524.15.98.43 1.366.842.386.412.58.985.58 1.72 0 .624-.187 1.18-.561 1.666-.375.486-.923.866-1.646 1.14-.711.263-1.56.394-2.544.394zm11.92-.637a3.121 3.121 0 01-1.067.487c-.411.1-.848.15-1.31.15-1.196 0-2.125-.306-2.786-.917-.649-.611-.973-1.51-.973-2.694v-4.133h-1.552V16.29h1.552v-2.45h2.918v2.45h2.507v2.245h-2.507v4.096c0 .424.106.754.318.991.225.225.536.337.935.337.462 0 .854-.125 1.179-.374l.785 2.058zm24.686-12.607l-4.284 13.094h-3.254l-2.881-8.866-2.974 8.866h-3.236l-4.302-13.094h3.142l2.956 9.203 3.086-9.203h2.805l2.993 9.278 3.049-9.278h2.9zm3.673 2.88c1.559 0 2.756.375 3.592 1.123.835.736 1.253 1.852 1.253 3.348v5.743h-2.731v-1.253c-.549.935-1.571 1.403-3.068 1.403-.773 0-1.446-.131-2.02-.393-.561-.262-.991-.624-1.291-1.085a2.825 2.825 0 01-.448-1.572c0-.934.349-1.67 1.047-2.207.711-.536 1.802-.804 3.273-.804h2.32c0-.636-.193-1.122-.58-1.459-.387-.35-.966-.524-1.74-.524-.536 0-1.066.087-1.589.262a4.06 4.06 0 00-1.31.674l-1.047-2.04c.548-.386 1.203-.685 1.963-.897a8.942 8.942 0 012.376-.318zm-.224 8.4c.499 0 .941-.113 1.328-.337a1.94 1.94 0 00.823-1.029v-1.029h-2.002c-1.197 0-1.795.393-1.795 1.179 0 .374.143.673.43.897.299.212.705.318 1.216.318zm6.587-12.065h2.918V26.13h-2.918V12.251zm4.504 0h2.918V26.13h-2.918V12.251zm14.361 8.884c0 .038-.018.3-.056.786h-7.613c.138.624.462 1.116.973 1.478.511.361 1.147.542 1.908.542.524 0 .985-.075 1.384-.224a3.476 3.476 0 001.141-.748l1.553 1.683c-.948 1.085-2.332 1.628-4.153 1.628-1.135 0-2.138-.219-3.011-.655-.873-.45-1.547-1.066-2.021-1.852-.473-.786-.71-1.677-.71-2.675 0-.985.231-1.87.692-2.656a4.914 4.914 0 011.926-1.852c.823-.449 1.74-.673 2.75-.673.985 0 1.877.212 2.675.636a4.567 4.567 0 011.87 1.833c.462.786.692 1.702.692 2.75zm-5.218-3.01c-.661 0-1.216.186-1.665.56-.449.375-.723.886-.823 1.534h4.957c-.1-.636-.374-1.14-.823-1.515-.449-.387-.998-.58-1.646-.58zm12.529 7.518a3.124 3.124 0 01-1.066.487c-.411.1-.848.15-1.309.15-1.197 0-2.126-.306-2.787-.917-.649-.611-.973-1.51-.973-2.694v-4.133h-1.552V16.29h1.552v-2.45h2.918v2.45h2.507v2.245h-2.507v4.096c0 .424.106.754.318.991.224.225.536.337.935.337.462 0 .855-.125 1.179-.374l.785 2.058zM25.839 0H13.16C5.892 0 0 5.892 0 13.161V25.84C0 33.108 5.892 39 13.161 39H25.84C33.108 39 39 33.108 39 25.839V13.16C39 5.892 33.108 0 25.839 0z"/>
  <path fill="#fff" d="M.404 19.611C.404 9.003 9.004.404 19.611.404c10.608 0 19.207 8.6 19.207 19.207 0 10.608-8.6 19.207-19.207 19.207-10.608 0-19.207-8.6-19.207-19.207z"/>
  <path fill="#3375BB" fill-rule="evenodd" d="M18.837 7.191a1.226 1.226 0 011.571 0c3.332 2.783 7.132 2.762 8.602 2.753h.203a1.226 1.226 0 011.225 1.244c-.07 4.612-.254 7.904-.617 10.317-.362 2.411-.918 4.064-1.814 5.309-.902 1.253-2.062 1.965-3.297 2.648-.213.118-.432.236-.655.357-1.084.588-2.288 1.242-3.718 2.267a1.226 1.226 0 01-1.43 0c-1.428-1.024-2.63-1.677-3.713-2.265-.224-.122-.443-.24-.658-.36-1.234-.682-2.392-1.394-3.292-2.648-.894-1.246-1.448-2.898-1.81-5.309-.36-2.412-.545-5.704-.615-10.316a1.226 1.226 0 011.226-1.244h.2c1.46.009 5.259.03 8.592-2.753zm-7.544 5.197c.082 3.93.261 6.718.566 8.753.336 2.244.81 3.453 1.376 4.242.56.78 1.294 1.273 2.488 1.933.194.108.399.219.614.336.918.497 2.022 1.096 3.285 1.946 1.265-.85 2.371-1.45 3.29-1.948.215-.116.419-.227.613-.334 1.194-.66 1.93-1.154 2.492-1.934.567-.79 1.043-1.998 1.38-4.242.306-2.034.486-4.821.568-8.752-1.887-.061-5.21-.45-8.343-2.705-3.128 2.252-6.447 2.643-8.329 2.705z" clip-rule="evenodd"/>
</svg>
