<svg xmlns="http://www.w3.org/2000/svg" fill="none" viewBox="0 0 584 272">
  <g filter="url(#filter0_i)">
    <path fill="url(#paint0_linear)" fill-opacity=".11" d="M0 48C0 21.49 21.49 0 48 0h488c26.51 0 48 21.49 48 48v176c0 26.51-21.49 48-48 48H48c-26.51 0-48-21.49-48-48V48z"/>
  </g>
  <path fill="#fff" d="M52.225 202.294h6.849c0-.94.084-1.88.252-2.82.201-.974.52-1.847.956-2.619.437-.806 1.008-1.444 1.713-1.914.739-.503 1.628-.755 2.669-.755 1.544 0 2.803.487 3.777 1.46 1.007.941 1.511 2.267 1.511 3.979 0 1.074-.252 2.031-.755 2.871a8.994 8.994 0 01-1.814 2.266 16.532 16.532 0 01-2.367 1.863 52.572 52.572 0 00-2.467 1.612 188.267 188.267 0 00-4.331 3.072 20.812 20.812 0 00-3.526 3.324 14.291 14.291 0 00-2.417 4.029c-.57 1.511-.856 3.29-.856 5.338h25.886v-6.144h-16.67a15.96 15.96 0 013.022-3.173 42.269 42.269 0 013.525-2.518c1.209-.806 2.4-1.612 3.576-2.417a19.513 19.513 0 003.223-2.669 12.418 12.418 0 002.266-3.425c.57-1.276.856-2.804.856-4.583 0-1.712-.335-3.257-1.007-4.633-.638-1.377-1.51-2.535-2.619-3.475-1.108-.94-2.4-1.662-3.878-2.166a13.83 13.83 0 00-4.583-.755c-2.115 0-3.995.369-5.64 1.108-1.611.705-2.954 1.712-4.029 3.022-1.074 1.275-1.88 2.786-2.417 4.532-.537 1.712-.772 3.576-.705 5.59zm37.603.705v5.036c.873 0 1.78.034 2.72.101.973.034 1.863.218 2.668.554.806.302 1.461.806 1.965 1.511.537.705.805 1.729.805 3.072 0 1.712-.554 3.072-1.662 4.079-1.108.974-2.467 1.461-4.079 1.461-1.04 0-1.947-.185-2.72-.554a5.725 5.725 0 01-1.863-1.461 6.958 6.958 0 01-1.158-2.216 10.476 10.476 0 01-.453-2.719h-6.8c-.033 2.048.253 3.861.857 5.439.638 1.578 1.528 2.921 2.67 4.029 1.14 1.074 2.517 1.897 4.129 2.468 1.645.57 3.458.856 5.439.856 1.712 0 3.357-.252 4.935-.756 1.578-.503 2.972-1.242 4.18-2.216a10.499 10.499 0 002.871-3.626c.739-1.443 1.108-3.089 1.108-4.935 0-2.015-.554-3.744-1.662-5.187-1.108-1.444-2.636-2.384-4.583-2.821v-.1c1.645-.47 2.871-1.36 3.676-2.669.84-1.31 1.26-2.821 1.26-4.533 0-1.578-.353-2.971-1.058-4.18a10.073 10.073 0 00-2.77-3.072 11.344 11.344 0 00-3.777-1.863 14.223 14.223 0 00-4.23-.655c-1.814 0-3.459.302-4.936.906a10.903 10.903 0 00-3.827 2.468c-1.041 1.074-1.864 2.367-2.468 3.878-.57 1.477-.89 3.122-.957 4.935h6.799c-.034-1.813.403-3.307 1.31-4.482.94-1.208 2.316-1.813 4.129-1.813 1.31 0 2.468.403 3.475 1.209 1.007.806 1.51 1.964 1.51 3.475 0 1.007-.251 1.813-.755 2.417-.47.604-1.09 1.075-1.863 1.41a7.958 7.958 0 01-2.417.554 15.16 15.16 0 01-2.468 0zM85.092 51.638c0 .271.032.465.097.581.077.117.22.175.426.175h.232c.09 0 .194-.013.31-.04v1.531c-.077.026-.18.052-.31.078a3.065 3.065 0 01-.368.096 4.012 4.012 0 01-.716.078c-.452 0-.827-.09-1.124-.271-.297-.181-.49-.497-.581-.95-.44.427-.981.737-1.627.93a6.273 6.273 0 01-1.84.29c-.452 0-.885-.064-1.298-.193a3.485 3.485 0 01-1.104-.523 2.88 2.88 0 01-.755-.91c-.181-.375-.272-.807-.272-1.298 0-.62.11-1.123.33-1.51.232-.388.529-.692.89-.911a3.97 3.97 0 011.24-.465c.465-.103.93-.18 1.395-.233.4-.077.781-.129 1.143-.154.361-.04.678-.097.949-.175.284-.077.504-.194.658-.348.168-.168.252-.414.252-.736 0-.285-.07-.517-.213-.698a1.196 1.196 0 00-.504-.407 1.783 1.783 0 00-.658-.193 4.484 4.484 0 00-.697-.058c-.62 0-1.13.129-1.53.387-.4.258-.627.659-.678 1.201H76.53c.04-.646.194-1.182.465-1.608a3.246 3.246 0 011.027-1.026c.426-.259.904-.44 1.433-.543a8.476 8.476 0 011.627-.155c.491 0 .975.052 1.453.155a4.01 4.01 0 011.278.504c.388.232.698.536.93.91.233.362.349.807.349 1.337v5.152zm-2.208-2.79c-.336.22-.75.356-1.24.408-.49.038-.981.103-1.472.193a4.02 4.02 0 00-.678.175c-.22.064-.413.161-.581.29a1.258 1.258 0 00-.407.484 1.69 1.69 0 00-.135.717c0 .246.07.452.213.62.142.168.31.303.503.407.207.09.426.155.659.194.245.038.465.058.658.058a3.6 3.6 0 00.794-.097c.285-.065.55-.175.795-.33.258-.154.471-.348.639-.58.168-.246.252-.543.252-.892V48.85zm4.894-8.812h9.956v2.092h-7.535v3.622h6.973v1.975H90.2v4.049h7.67v2.092H87.778v-13.83zm10.883 0h11.196v2.092h-4.397v11.738h-2.421V42.128h-4.378v-2.092zm12.741 0h2.421v5.5h6.296v-5.5h2.421v13.83h-2.421v-6.237h-6.296v6.237h-2.421v-13.83zm19.176 0h2.208v5.113h.039c.155-.245.342-.465.562-.658a3.3 3.3 0 01.717-.484c.271-.143.548-.246.833-.31a3.44 3.44 0 01.871-.117c.788 0 1.472.142 2.053.427a3.91 3.91 0 011.472 1.142c.388.478.678 1.04.872 1.685.194.646.291 1.337.291 2.073 0 .672-.091 1.324-.271 1.956a4.946 4.946 0 01-.795 1.686 4.012 4.012 0 01-1.336 1.162c-.543.284-1.182.426-1.918.426-.336 0-.678-.026-1.026-.078a3.57 3.57 0 01-1.821-.755 2.522 2.522 0 01-.62-.814h-.039v1.376h-2.092v-13.83zm7.71 8.832c0-.452-.059-.89-.175-1.317-.116-.426-.29-.8-.523-1.123a2.564 2.564 0 00-.871-.794 2.312 2.312 0 00-1.201-.31c-.93 0-1.634.323-2.112.968-.465.646-.697 1.505-.697 2.576 0 .504.058.975.174 1.414.129.426.317.795.562 1.104.245.31.536.556.872.736.348.181.749.272 1.201.272.503 0 .929-.104 1.278-.31.349-.207.633-.472.852-.795.233-.335.394-.71.485-1.123.103-.426.155-.859.155-1.298zm12.461 2.77c0 .271.032.465.097.581.077.117.219.175.426.175h.232c.09 0 .194-.013.31-.04v1.531a2.684 2.684 0 01-.31.078 3.06 3.06 0 01-.368.096 4.004 4.004 0 01-.717.078c-.452 0-.826-.09-1.123-.271-.297-.181-.491-.497-.581-.95a3.905 3.905 0 01-1.627.93 6.274 6.274 0 01-1.84.29c-.452 0-.885-.064-1.298-.193a3.489 3.489 0 01-1.104-.523 2.885 2.885 0 01-.756-.91c-.18-.375-.271-.807-.271-1.298 0-.62.11-1.123.329-1.51.233-.388.53-.692.891-.911.375-.22.788-.375 1.24-.465.465-.103.93-.18 1.395-.233.4-.077.781-.129 1.143-.154a5.7 5.7 0 00.949-.175c.284-.077.503-.194.658-.348.168-.168.252-.414.252-.736 0-.285-.071-.517-.213-.698a1.194 1.194 0 00-.504-.407 1.778 1.778 0 00-.658-.193 4.491 4.491 0 00-.697-.058c-.62 0-1.13.129-1.531.387-.4.258-.626.659-.678 1.201h-2.208c.039-.646.194-1.182.465-1.608a3.237 3.237 0 011.027-1.026c.426-.259.904-.44 1.433-.543a8.483 8.483 0 011.627-.155c.491 0 .975.052 1.453.155.478.104.904.272 1.278.504.388.232.698.536.93.91.232.362.349.807.349 1.337v5.152zm-2.208-2.79c-.336.22-.749.356-1.24.408-.491.038-.982.103-1.472.193a3.995 3.995 0 00-.678.175 1.75 1.75 0 00-.581.29 1.255 1.255 0 00-.407.484c-.09.194-.136.433-.136.717 0 .246.071.452.213.62.142.168.31.303.504.407.207.09.426.155.659.194.245.038.464.058.658.058.246 0 .51-.033.794-.097.284-.065.549-.175.795-.33.258-.154.471-.348.639-.58.168-.246.252-.543.252-.892V48.85zm4.642-8.812h2.208v13.83h-2.208v-13.83zm13.001 11.602c0 .271.032.465.097.581.077.117.219.175.426.175h.232c.091 0 .194-.013.31-.04v1.531c-.077.026-.18.052-.31.078a3.011 3.011 0 01-.368.096 4.004 4.004 0 01-.716.078c-.452 0-.827-.09-1.124-.271-.297-.181-.49-.497-.581-.95a3.899 3.899 0 01-1.627.93 6.274 6.274 0 01-1.84.29c-.452 0-.885-.064-1.298-.193a3.489 3.489 0 01-1.104-.523 2.869 2.869 0 01-.755-.91c-.181-.375-.271-.807-.271-1.298 0-.62.109-1.123.329-1.51.232-.388.529-.692.891-.911a3.97 3.97 0 011.239-.465c.465-.103.93-.18 1.395-.233.4-.077.781-.129 1.143-.154a5.7 5.7 0 00.949-.175c.284-.077.504-.194.659-.348.167-.168.251-.414.251-.736 0-.285-.071-.517-.213-.698a1.197 1.197 0 00-.503-.407 1.784 1.784 0 00-.659-.193 4.481 4.481 0 00-.697-.058c-.62 0-1.13.129-1.53.387-.401.258-.627.659-.678 1.201h-2.208c.038-.646.193-1.182.464-1.608a3.258 3.258 0 011.027-1.026c.426-.259.904-.44 1.433-.543a8.483 8.483 0 011.627-.155c.491 0 .975.052 1.453.155.478.104.904.272 1.279.504.387.232.697.536.929.91.233.362.349.807.349 1.337v5.152zm-2.208-2.79c-.336.22-.749.356-1.24.408-.491.038-.981.103-1.472.193a4.044 4.044 0 00-.678.175 1.76 1.76 0 00-.581.29 1.263 1.263 0 00-.407.484c-.09.194-.135.433-.135.717 0 .246.071.452.213.62.142.168.31.303.503.407.207.09.426.155.659.194.245.038.465.058.658.058.246 0 .511-.033.795-.097.284-.065.548-.175.794-.33.258-.154.471-.348.639-.58.168-.246.252-.543.252-.892V48.85zm4.584-4.996h2.092v1.472l.039.038a3.612 3.612 0 011.317-1.297 3.455 3.455 0 011.801-.485c1.098 0 1.963.284 2.596.853.633.568.949 1.42.949 2.556v6.877h-2.208V47.57c-.026-.788-.194-1.356-.504-1.705-.31-.362-.794-.542-1.453-.542-.374 0-.71.07-1.007.213-.297.129-.549.316-.755.561-.207.233-.368.51-.485.833a3.013 3.013 0 00-.174 1.027v5.908h-2.208V43.852zm17.883 3.35c-.091-.62-.343-1.084-.756-1.394-.4-.323-.91-.484-1.53-.484-.284 0-.588.051-.91.155a2.03 2.03 0 00-.891.542c-.272.258-.498.626-.678 1.104-.181.465-.272 1.078-.272 1.84 0 .413.046.827.136 1.24.103.413.258.781.465 1.104.219.323.497.588.833.794.336.194.742.29 1.22.29.646 0 1.175-.2 1.588-.6.427-.4.691-.962.795-1.685h2.208c-.207 1.304-.704 2.305-1.492 3.002-.775.685-1.808 1.027-3.099 1.027-.788 0-1.485-.13-2.092-.388a4.625 4.625 0 01-1.511-1.084 4.84 4.84 0 01-.949-1.647 6.597 6.597 0 01-.31-2.053c0-.749.104-1.453.31-2.111a4.748 4.748 0 01.93-1.705c.413-.49.923-.871 1.53-1.142.62-.285 1.343-.427 2.17-.427a5.7 5.7 0 011.646.233c.529.142.994.361 1.395.658.413.297.749.672 1.007 1.124.258.452.413.988.465 1.608h-2.208zm10.879.775a3.344 3.344 0 00-.233-1.007 2.363 2.363 0 00-.503-.833 2.19 2.19 0 00-.775-.58 2.145 2.145 0 00-1.007-.233c-.388 0-.743.07-1.066.213-.309.129-.581.316-.813.561-.22.233-.4.51-.542.833-.13.323-.201.672-.213 1.046h5.152zm-5.152 1.453c0 .387.051.762.154 1.123.117.362.285.678.504.95.22.27.497.49.833.658.336.155.736.233 1.201.233.646 0 1.162-.136 1.55-.407.4-.284.697-.704.891-1.26h2.091a4.16 4.16 0 01-.6 1.454 4.313 4.313 0 01-1.027 1.084c-.4.284-.852.497-1.355.64a5.123 5.123 0 01-1.55.232c-.788 0-1.485-.13-2.092-.388a4.429 4.429 0 01-1.55-1.084 4.81 4.81 0 01-.949-1.666 6.98 6.98 0 01-.31-2.13c0-.71.11-1.382.33-2.015a5.276 5.276 0 01.968-1.685c.426-.491.936-.878 1.53-1.162.594-.285 1.266-.427 2.015-.427.788 0 1.491.168 2.111.504a4.525 4.525 0 011.569 1.298c.413.542.71 1.168.891 1.879.194.697.245 1.42.155 2.169h-7.36z"/>
  <g clip-path="url(#clip0)">
    <path fill="#FFE602" d="M58.965 53.357l-4.62-2.556 4.64-3.006v4.091l.664-.354.876-.473v-5.154l-4.177-2.406-1.68.945 3.471 1.955-4.6 2.985v-.01L52 50.382c.02.612.352 1.17.866 1.46l5.354 2.964a1.512 1.512 0 001.48 0l5.424-2.964c.544-.3.876-.88.876-1.536v-6.582c0-.644-.332-1.224-.866-1.525l-5.414-3.007a1.544 1.544 0 00-.745-.193c-.262 0-.514.065-.745.193L52.866 42.2c-.534.3-.866.88-.866 1.525v3.565h1.55v-3.608l5.435-3.05.02.011 5.455 3.039v6.668l-5.495 3.007z"/>
  </g>
  <path fill="#fff" d="M114.744 216.381c.031-.516.16-.945.387-1.286a2.63 2.63 0 01.868-.821 3.648 3.648 0 011.178-.434c.444-.093.888-.14 1.332-.14.403 0 .811.031 1.224.093.414.052.791.161 1.132.326a2.2 2.2 0 01.836.697c.217.289.326.677.326 1.162v4.169c0 .361.021.707.062 1.038.041.33.113.578.217.744h-2.232a5.21 5.21 0 01-.108-.372 5.526 5.526 0 01-.047-.403 2.864 2.864 0 01-1.239.759 4.964 4.964 0 01-1.457.217c-.382 0-.738-.046-1.069-.139a2.452 2.452 0 01-.868-.434 2.092 2.092 0 01-.589-.744c-.134-.3-.201-.656-.201-1.069 0-.455.077-.827.232-1.116.166-.299.372-.537.62-.713.258-.175.548-.304.868-.387.33-.093.661-.165.992-.217.33-.052.656-.093.976-.124.32-.031.604-.077.852-.139.248-.062.444-.15.589-.264.145-.124.212-.299.201-.527 0-.237-.041-.423-.124-.558a.727.727 0 00-.309-.325 1.012 1.012 0 00-.45-.155 2.945 2.945 0 00-.542-.046c-.434 0-.775.092-1.023.278-.248.186-.392.496-.434.93h-2.2zm5.082 1.627c-.093.083-.211.15-.356.202a4.183 4.183 0 01-.449.108 6.469 6.469 0 01-.496.078c-.176.02-.351.046-.527.077a4.28 4.28 0 00-.496.124 1.468 1.468 0 00-.418.217.951.951 0 00-.279.325 1.067 1.067 0 00-.109.512c0 .196.036.361.109.496.072.134.17.242.294.325.124.072.269.124.434.155.165.031.336.047.511.047.434 0 .77-.073 1.008-.217.237-.145.413-.315.527-.512.113-.206.18-.413.201-.62.031-.206.046-.371.046-.495v-.822zm4.141-7.143v11.064h8.399v-2.046H126.4v-2.712h5.362v-1.89H126.4v-2.371h5.842v-2.045h-8.275zm12.497 2.045v9.019h2.433v-9.019h3.316v-2.045h-9.065v2.045h3.316zm7.024-2.045v11.064h2.433v-4.773h4.479v4.773h2.432v-11.064H150.4v4.246h-4.479v-4.246h-2.433z"/>
  <path fill="#fff" d="M457.205 180.221c-.589 0-1.1.119-1.534.357a2.988 2.988 0 00-1.038.961c-.269.392-.47.841-.604 1.348a6.482 6.482 0 00-.186 1.549c0 .527.062 1.044.186 1.55.134.506.335.961.604 1.363.269.393.615.708 1.038.946.434.237.945.356 1.534.356.589 0 1.095-.119 1.519-.356a3.006 3.006 0 001.054-.946c.268-.402.465-.857.588-1.363a5.989 5.989 0 00.202-1.55c0-.527-.067-1.043-.202-1.549a4.061 4.061 0 00-.588-1.348 2.944 2.944 0 00-1.054-.961c-.424-.238-.93-.357-1.519-.357zm0-1.58c.827 0 1.565.155 2.216.465.661.31 1.219.728 1.674 1.255.454.527.8 1.141 1.038 1.844a6.65 6.65 0 01.372 2.231c0 .796-.124 1.545-.372 2.247a5.486 5.486 0 01-1.038 1.844 4.965 4.965 0 01-1.674 1.255c-.651.3-1.389.45-2.216.45-.826 0-1.57-.15-2.231-.45a4.992 4.992 0 01-1.658-1.255 5.68 5.68 0 01-1.054-1.844 6.979 6.979 0 01-.356-2.247c0-.785.119-1.529.356-2.231a5.68 5.68 0 011.054-1.844 4.992 4.992 0 011.658-1.255c.661-.31 1.405-.465 2.231-.465zm6.815 3.316h1.673v1.178l.031.031c.269-.445.62-.791 1.054-1.039a2.766 2.766 0 011.441-.387c.878 0 1.57.227 2.077.682.506.454.759 1.136.759 2.045v5.501h-1.767v-5.036c-.02-.63-.155-1.085-.402-1.364-.248-.289-.636-.433-1.163-.433-.299 0-.568.056-.805.17a1.631 1.631 0 00-.605.449 2.021 2.021 0 00-.387.667c-.093.258-.14.532-.14.821v4.726h-1.766v-8.011zm12.327 0h1.937l2.092 5.981h.031l2.03-5.981h1.844l-3.114 8.445c-.145.362-.29.708-.434 1.038-.135.331-.305.62-.512.868a2.02 2.02 0 01-.743.604c-.3.155-.682.233-1.147.233-.413 0-.821-.031-1.224-.093v-1.488l.418.062c.134.031.274.047.418.047.207 0 .378-.026.512-.078a.746.746 0 00.325-.232c.093-.093.171-.207.233-.341.062-.134.119-.289.17-.465l.202-.62-3.038-7.98zm12.592 8.228c-.641 0-1.214-.103-1.72-.31a3.84 3.84 0 01-1.271-.883 3.898 3.898 0 01-.79-1.333 5.25 5.25 0 01-.264-1.704c0-.61.088-1.173.264-1.689.186-.517.449-.961.79-1.333a3.662 3.662 0 011.271-.868c.506-.217 1.079-.325 1.72-.325.64 0 1.208.108 1.704.325.506.207.93.496 1.271.868.351.372.615.816.79 1.333.186.516.279 1.079.279 1.689 0 .62-.093 1.188-.279 1.704a3.645 3.645 0 01-2.061 2.216c-.496.207-1.064.31-1.704.31zm0-1.394c.392 0 .733-.083 1.022-.248.29-.166.527-.383.713-.651.186-.269.32-.568.403-.899a3.874 3.874 0 000-2.061 2.56 2.56 0 00-.403-.899 2.15 2.15 0 00-.713-.65c-.289-.166-.63-.248-1.022-.248-.393 0-.734.082-1.023.248a2.16 2.16 0 00-.713.65 2.776 2.776 0 00-.418.899 4.311 4.311 0 000 2.061c.093.331.232.63.418.899.186.268.424.485.713.651.289.165.63.248 1.023.248zm12.548 1.177h-1.736v-1.115h-.031a2.469 2.469 0 01-.976.976 2.636 2.636 0 01-1.302.356c-1.053 0-1.818-.258-2.293-.775-.465-.526-.697-1.317-.697-2.37v-5.083h1.766v4.912c0 .703.134 1.198.403 1.488.269.289.646.434 1.131.434.372 0 .682-.057.93-.171.248-.114.449-.263.604-.449.155-.197.264-.429.326-.698.072-.268.108-.557.108-.867v-4.649h1.767v8.011zm1.863-8.011h1.658v1.549h.031c.051-.216.15-.428.294-.635.155-.206.336-.392.542-.558.217-.175.455-.315.713-.418.259-.103.522-.155.791-.155a3.718 3.718 0 01.666.046v1.705a4.184 4.184 0 00-.387-.046 2.223 2.223 0 00-.372-.031c-.3 0-.584.061-.853.185-.258.114-.485.29-.681.527a2.48 2.48 0 00-.465.853 3.708 3.708 0 00-.171 1.177v3.812h-1.766v-8.011zm9.032 0h1.875l1.565 5.981h.031l1.503-5.981h1.782l1.441 5.981h.031l1.627-5.981h1.798l-2.511 8.011h-1.813l-1.487-5.95h-.031l-1.472 5.95h-1.86l-2.479-8.011zm19.499 6.229c0 .217.026.372.077.465.062.093.176.14.341.14h.186c.072 0 .155-.011.248-.031v1.224c-.062.02-.145.041-.248.062a2.339 2.339 0 01-.294.077 3.367 3.367 0 01-.574.062c-.361 0-.661-.072-.899-.217-.237-.144-.392-.397-.464-.759a3.13 3.13 0 01-1.302.744 5.016 5.016 0 01-1.472.232c-.362 0-.708-.051-1.038-.155a2.796 2.796 0 01-.884-.418 2.302 2.302 0 01-.604-.728 2.36 2.36 0 01-.217-1.039c0-.496.088-.898.264-1.208a2.09 2.09 0 01.712-.729c.3-.175.63-.299.992-.372.372-.082.744-.144 1.116-.186.32-.061.625-.103.914-.123a4.55 4.55 0 00.759-.14c.228-.062.403-.155.527-.279.134-.134.202-.33.202-.589a.876.876 0 00-.171-.558.953.953 0 00-.403-.325 1.422 1.422 0 00-.527-.155 3.572 3.572 0 00-.557-.046c-.496 0-.904.103-1.225.31-.32.206-.501.526-.542.96h-1.766c.031-.516.154-.945.371-1.286.217-.341.491-.615.822-.821a3.478 3.478 0 011.146-.434 6.762 6.762 0 011.302-.124c.393 0 .78.041 1.162.124.382.083.723.217 1.023.403.31.186.558.429.744.728.186.289.279.646.279 1.069v4.122zm-1.767-2.231c-.268.175-.599.284-.992.325-.392.031-.785.083-1.177.155a3.23 3.23 0 00-.543.14c-.175.051-.33.129-.464.232a1.002 1.002 0 00-.326.388 1.353 1.353 0 00-.108.573c0 .196.056.361.17.496.114.134.248.242.403.325.165.072.341.124.527.155.196.031.372.047.527.047.196 0 .408-.026.635-.078.227-.052.439-.139.635-.263.207-.124.377-.279.512-.465.134-.196.201-.434.201-.713v-1.317zm3.714-7.051h1.766v11.064h-1.766v-11.064zm3.738 0h1.766v11.064h-1.766v-11.064zm9.192 6.354a2.711 2.711 0 00-.186-.806 1.88 1.88 0 00-.403-.667 1.742 1.742 0 00-.62-.464 1.712 1.712 0 00-.805-.186c-.31 0-.594.056-.853.17a1.886 1.886 0 00-.651.449c-.175.186-.32.408-.433.667a2.438 2.438 0 00-.171.837h4.122zm-4.122 1.162c0 .31.041.609.124.898.093.29.227.543.403.76.176.217.398.392.666.527.269.124.589.186.961.186.517 0 .93-.109 1.24-.326.32-.227.558-.563.713-1.007h1.673a3.335 3.335 0 01-.48 1.162c-.228.341-.501.63-.822.868-.32.227-.681.398-1.084.511a4.095 4.095 0 01-1.24.186c-.63 0-1.188-.103-1.673-.31a3.536 3.536 0 01-1.24-.867 3.83 3.83 0 01-.759-1.333 5.552 5.552 0 01-.248-1.705c0-.568.087-1.105.263-1.611a4.21 4.21 0 01.775-1.348 3.734 3.734 0 011.224-.93c.475-.227 1.012-.341 1.612-.341.63 0 1.193.134 1.689.403.506.258.924.604 1.255 1.038.33.434.568.935.713 1.503.155.558.196 1.137.124 1.736h-5.889zm6.426-4.463h1.332v-2.402h1.767v2.402h1.596v1.317h-1.596v4.277c0 .186.005.346.015.48.021.135.057.248.109.341.062.093.15.165.263.217.114.041.269.062.465.062h.372c.124-.01.248-.031.372-.062v1.364c-.196.02-.387.041-.573.062a5.36 5.36 0 01-.574.031c-.465 0-.842-.042-1.131-.124a1.66 1.66 0 01-.666-.388 1.486 1.486 0 01-.326-.65 5.557 5.557 0 01-.093-.884v-4.726h-1.332v-1.317zM454.158 216.806v-.749c.012-.303.035-.611.07-.924.035-.314.093-.622.175-.924a3.36 3.36 0 01.331-.837c.151-.244.337-.442.558-.593.232-.151.517-.226.854-.226.337 0 .622.075.854.226.232.151.424.349.575.593.151.244.262.523.332.837.081.302.139.61.174.924.046.313.07.621.07.924.011.29.017.54.017.749 0 .349-.012.773-.035 1.273a6.582 6.582 0 01-.226 1.429 2.856 2.856 0 01-.593 1.168c-.268.326-.657.488-1.168.488-.5 0-.883-.162-1.151-.488a3.152 3.152 0 01-.592-1.168 7.31 7.31 0 01-.21-1.429c-.023-.5-.035-.924-.035-1.273zm-2.475 0c0 1.22.116 2.243.349 3.068.244.814.569 1.465.976 1.953.407.488.877.837 1.412 1.046a4.786 4.786 0 001.726.314 4.7 4.7 0 001.726-.314 3.459 3.459 0 001.429-1.046c.419-.488.744-1.139.976-1.953.244-.825.366-1.848.366-3.068 0-1.185-.122-2.179-.366-2.981-.232-.813-.557-1.464-.976-1.952a3.459 3.459 0 00-1.429-1.046 4.7 4.7 0 00-1.726-.314c-.605 0-1.18.105-1.726.314-.535.209-1.005.558-1.412 1.046-.407.488-.732 1.139-.976 1.952-.233.802-.349 1.796-.349 2.981zm10.367 3.469v2.685h2.737v-2.685h-2.737zm6.647-3.469v-.749c.012-.303.035-.611.07-.924.035-.314.093-.622.174-.924a3.44 3.44 0 01.331-.837 1.96 1.96 0 01.558-.593c.233-.151.517-.226.855-.226.337 0 .621.075.854.226.232.151.424.349.575.593.151.244.261.523.331.837.082.302.14.61.175.924.046.313.069.621.069.924.012.29.018.54.018.749 0 .349-.012.773-.035 1.273a6.523 6.523 0 01-.227 1.429 2.855 2.855 0 01-.592 1.168c-.268.326-.657.488-1.168.488-.5 0-.884-.162-1.151-.488a3.168 3.168 0 01-.593-1.168 7.31 7.31 0 01-.209-1.429c-.023-.5-.035-.924-.035-1.273zm-2.475 0c0 1.22.116 2.243.348 3.068.244.814.57 1.465.977 1.953.406.488.877.837 1.412 1.046a4.786 4.786 0 001.726.314c.615 0 1.191-.105 1.725-.314a3.455 3.455 0 001.43-1.046c.418-.488.744-1.139.976-1.953.244-.825.366-1.848.366-3.068 0-1.185-.122-2.179-.366-2.981-.232-.813-.558-1.464-.976-1.952a3.455 3.455 0 00-1.43-1.046 4.695 4.695 0 00-1.725-.314c-.605 0-1.18.105-1.726.314-.535.209-1.006.558-1.412 1.046-.407.488-.733 1.139-.977 1.952-.232.802-.348 1.796-.348 2.981zm12.162 0v-.749c.012-.303.035-.611.07-.924.035-.314.093-.622.174-.924a3.4 3.4 0 01.331-.837c.151-.244.337-.442.558-.593.233-.151.517-.226.854-.226.337 0 .622.075.855.226.232.151.424.349.575.593.151.244.261.523.331.837.081.302.139.61.174.924.047.313.07.621.07.924.012.29.018.54.018.749 0 .349-.012.773-.035 1.273a6.584 6.584 0 01-.227 1.429 2.844 2.844 0 01-.593 1.168c-.267.326-.656.488-1.168.488-.499 0-.883-.162-1.15-.488a3.153 3.153 0 01-.593-1.168 7.31 7.31 0 01-.209-1.429c-.023-.5-.035-.924-.035-1.273zm-2.476 0c0 1.22.117 2.243.349 3.068.244.814.57 1.465.976 1.953.407.488.878.837 1.412 1.046a4.793 4.793 0 001.726.314c.616 0 1.192-.105 1.726-.314a3.461 3.461 0 001.43-1.046c.418-.488.743-1.139.976-1.953.244-.825.366-1.848.366-3.068 0-1.185-.122-2.179-.366-2.981-.233-.813-.558-1.464-.976-1.952a3.461 3.461 0 00-1.43-1.046 4.696 4.696 0 00-1.726-.314c-.604 0-1.179.105-1.726.314-.534.209-1.005.558-1.412 1.046-.406.488-.732 1.139-.976 1.952-.232.802-.349 1.796-.349 2.981zm15.01-.087c.035-.581.18-1.063.436-1.447.255-.383.581-.691.976-.924a4.117 4.117 0 011.325-.488 7.27 7.27 0 011.499-.157c.453 0 .912.035 1.377.105.465.058.889.18 1.273.366.383.186.697.447.941.784.244.326.366.762.366 1.308v4.689c0 .407.024.796.07 1.168.047.372.128.651.244.837h-2.51a5.625 5.625 0 01-.122-.418 6.444 6.444 0 01-.053-.454c-.395.407-.86.692-1.394.855a5.625 5.625 0 01-1.639.244c-.43 0-.831-.053-1.203-.157a2.774 2.774 0 01-.976-.488c-.279-.221-.5-.5-.662-.837-.151-.337-.227-.738-.227-1.203 0-.511.087-.93.261-1.255.186-.337.419-.605.698-.802.29-.198.616-.343.976-.436a9.482 9.482 0 011.116-.244 18.31 18.31 0 011.098-.139c.36-.035.68-.088.959-.157.279-.07.5-.169.662-.297.163-.139.238-.337.227-.592 0-.268-.047-.477-.14-.628a.813.813 0 00-.348-.366 1.136 1.136 0 00-.506-.174 3.3 3.3 0 00-.61-.053c-.488 0-.872.105-1.151.314-.278.209-.441.558-.488 1.046h-2.475zm5.718 1.83a1.207 1.207 0 01-.401.227 6.874 6.874 0 01-1.063.209c-.198.024-.396.053-.593.087a4.95 4.95 0 00-.558.14 1.645 1.645 0 00-.471.244 1.08 1.08 0 00-.314.366 1.21 1.21 0 00-.122.575c0 .221.041.407.122.558.082.151.192.273.332.366a1.5 1.5 0 00.488.175c.186.034.378.052.575.052.488 0 .866-.081 1.133-.244.268-.163.465-.355.593-.575.128-.233.203-.465.227-.698.034-.232.052-.418.052-.558v-.924zm4.658-8.036v12.447h9.449v-2.301h-6.712v-3.051h6.032v-2.127h-6.032v-2.667h6.572v-2.301h-9.309zm14.059 2.301v10.146h2.737v-10.146h3.73v-2.301h-10.198v2.301h3.731zm7.903-2.301v12.447h2.736v-5.369h5.039v5.369h2.737v-12.447h-2.737v4.777h-5.039v-4.777h-2.736zM249.948 180.221c-.589 0-1.1.119-1.534.357a2.97 2.97 0 00-1.038.961c-.269.392-.47.841-.605 1.348a6.482 6.482 0 00-.186 1.549c0 .527.062 1.044.186 1.55.135.506.336.961.605 1.363.268.393.614.708 1.038.946.434.237.945.356 1.534.356.589 0 1.095-.119 1.519-.356a3.003 3.003 0 001.053-.946c.269-.402.465-.857.589-1.363a6.032 6.032 0 000-3.099 4.063 4.063 0 00-.589-1.348 2.94 2.94 0 00-1.053-.961c-.424-.238-.93-.357-1.519-.357zm0-1.58c.826 0 1.565.155 2.216.465a4.95 4.95 0 011.673 1.255 5.471 5.471 0 011.039 1.844 6.65 6.65 0 01.372 2.231c0 .796-.124 1.545-.372 2.247a5.471 5.471 0 01-1.039 1.844 4.95 4.95 0 01-1.673 1.255c-.651.3-1.39.45-2.216.45-.826 0-1.57-.15-2.231-.45a4.992 4.992 0 01-1.658-1.255 5.68 5.68 0 01-1.054-1.844 6.952 6.952 0 01-.357-2.247c0-.785.119-1.529.357-2.231a5.68 5.68 0 011.054-1.844 4.992 4.992 0 011.658-1.255c.661-.31 1.405-.465 2.231-.465zm6.815 3.316h1.673v1.178l.031.031c.269-.445.62-.791 1.054-1.039a2.766 2.766 0 011.441-.387c.878 0 1.57.227 2.076.682.507.454.76 1.136.76 2.045v5.501h-1.767v-5.036c-.021-.63-.155-1.085-.403-1.364-.248-.289-.635-.433-1.162-.433-.3 0-.568.056-.806.17a1.628 1.628 0 00-.604.449 2.021 2.021 0 00-.387.667c-.093.258-.14.532-.14.821v4.726h-1.766v-8.011zm14.729 4.323c0 .424.072.785.217 1.085.145.3.346.547.604.744.258.186.553.325.883.418.341.083.708.124 1.101.124.423 0 .785-.046 1.084-.139.3-.104.543-.233.729-.388.186-.155.32-.33.403-.527.082-.206.124-.413.124-.619 0-.424-.099-.734-.295-.93a1.54 1.54 0 00-.62-.434 11.819 11.819 0 00-1.379-.403c-.516-.134-1.157-.305-1.921-.511-.476-.124-.873-.284-1.193-.481a2.974 2.974 0 01-.744-.682 2.465 2.465 0 01-.403-.79 3.397 3.397 0 01-.109-.852c0-.558.114-1.038.341-1.441a3.17 3.17 0 01.93-1.023 3.922 3.922 0 011.302-.589 5.505 5.505 0 011.472-.201 5.53 5.53 0 011.627.232c.516.145.966.367 1.348.667.393.299.702.671.93 1.115.227.434.341.94.341 1.519h-1.937c-.052-.713-.295-1.214-.729-1.503-.434-.3-.986-.45-1.658-.45-.227 0-.459.026-.697.078a1.958 1.958 0 00-.651.232 1.44 1.44 0 00-.496.434c-.124.186-.186.419-.186.697 0 .393.119.703.357.93.248.217.568.382.96.496.042.01.202.057.481.14a67.632 67.632 0 011.983.526c.341.083.584.145.729.186.361.114.676.269.945.465.268.197.491.424.666.682.186.248.32.517.403.806.093.289.14.578.14.868 0 .619-.13 1.151-.388 1.596-.248.434-.578.79-.992 1.069a4.22 4.22 0 01-1.41.604 6.466 6.466 0 01-1.611.202c-.63 0-1.224-.078-1.782-.233a4.158 4.158 0 01-1.457-.713 3.506 3.506 0 01-.992-1.224c-.248-.506-.377-1.1-.387-1.782h1.937zm7.724-4.323h1.332v-2.402h1.767v2.402h1.596v1.317h-1.596v4.277c0 .186.005.346.015.48.021.135.057.248.109.341.062.093.15.165.263.217.114.041.269.062.465.062h.372c.124-.01.248-.031.372-.062v1.364c-.196.02-.387.041-.573.062-.186.02-.378.031-.574.031-.465 0-.842-.042-1.131-.124a1.66 1.66 0 01-.666-.388 1.486 1.486 0 01-.326-.65 5.557 5.557 0 01-.093-.884v-4.726h-1.332v-1.317zm6.012-3.053h1.767v6.292l3.192-3.239h2.169l-3.068 2.944 3.363 5.067h-2.154l-2.449-3.889-1.053 1.023v2.866h-1.767v-11.064zm8.277 3.053h1.658v1.549h.031c.051-.216.15-.428.294-.635.155-.206.336-.392.542-.558.217-.175.455-.315.713-.418.259-.103.522-.155.791-.155a3.718 3.718 0 01.666.046v1.705a4.184 4.184 0 00-.387-.046 2.223 2.223 0 00-.372-.031c-.3 0-.584.061-.853.185-.258.114-.485.29-.681.527a2.48 2.48 0 00-.465.853 3.708 3.708 0 00-.171 1.177v3.812h-1.766v-8.011z" opacity=".5"/>
  <path fill="#fff" d="M244.705 215.446h2.37c0-.325.03-.65.088-.976.069-.337.18-.639.331-.906.151-.279.348-.5.593-.663.255-.174.563-.261.923-.261.535 0 .971.168 1.308.505.349.326.523.785.523 1.377 0 .372-.087.704-.262.994a3.089 3.089 0 01-.627.785 5.797 5.797 0 01-.819.645c-.303.186-.587.372-.855.557-.523.361-1.022.715-1.499 1.064a7.204 7.204 0 00-1.22 1.15 4.941 4.941 0 00-.837 1.395c-.198.523-.296 1.139-.296 1.848h8.96v-2.127h-5.77a5.538 5.538 0 011.046-1.098c.395-.314.802-.604 1.22-.872.419-.279.831-.558 1.238-.837.418-.278.79-.586 1.116-.923.325-.349.586-.744.784-1.186.198-.442.296-.97.296-1.586 0-.593-.116-1.128-.348-1.604a3.455 3.455 0 00-.907-1.203 4.109 4.109 0 00-1.342-.75 4.792 4.792 0 00-1.586-.261c-.733 0-1.383.128-1.953.383a3.687 3.687 0 00-1.395 1.046c-.371.442-.65.965-.836 1.569a5.764 5.764 0 00-.244 1.935zm13.016.244v1.744c.302 0 .616.011.941.035.337.011.645.075.924.191.279.105.506.279.68.523.186.244.279.599.279 1.064 0 .592-.192 1.063-.575 1.412-.384.337-.854.505-1.412.505-.36 0-.674-.064-.942-.191a2.002 2.002 0 01-.645-.506 2.414 2.414 0 01-.401-.767 3.64 3.64 0 01-.156-.941h-2.354c-.011.709.087 1.336.297 1.882.22.547.528 1.011.923 1.395.396.372.872.657 1.43.854a5.7 5.7 0 001.883.297c.592 0 1.162-.088 1.708-.262a4.42 4.42 0 001.447-.767 3.64 3.64 0 00.994-1.255c.255-.5.383-1.069.383-1.709 0-.697-.192-1.295-.575-1.795-.384-.5-.912-.825-1.586-.976v-.035c.569-.163.993-.471 1.272-.924.291-.453.436-.976.436-1.569 0-.546-.122-1.029-.366-1.447a3.49 3.49 0 00-.959-1.063 3.908 3.908 0 00-1.307-.645 4.905 4.905 0 00-1.465-.227c-.627 0-1.197.105-1.708.314a3.757 3.757 0 00-1.325.854c-.36.372-.645.819-.854 1.342a5.24 5.24 0 00-.331 1.709h2.353c-.012-.628.139-1.145.453-1.552.326-.418.802-.627 1.43-.627.453 0 .854.139 1.203.418.348.279.523.68.523 1.203 0 .348-.088.627-.262.837a1.627 1.627 0 01-.645.488 2.77 2.77 0 01-.837.191 5.069 5.069 0 01-.854 0zM269.744 217.349c.031-.516.16-.945.387-1.286a2.64 2.64 0 01.868-.821 3.648 3.648 0 011.178-.434 6.48 6.48 0 011.332-.139c.403 0 .811.031 1.224.093.414.051.791.16 1.132.325a2.2 2.2 0 01.836.697c.217.29.326.677.326 1.163v4.168c0 .362.021.708.062 1.038.041.331.113.579.217.744h-2.232a5.21 5.21 0 01-.108-.372 5.526 5.526 0 01-.047-.403 2.854 2.854 0 01-1.239.759 4.964 4.964 0 01-1.457.217c-.382 0-.738-.046-1.069-.139a2.452 2.452 0 01-.868-.434 2.092 2.092 0 01-.589-.744c-.134-.299-.201-.656-.201-1.069 0-.454.077-.826.232-1.116.166-.299.372-.537.62-.712.258-.176.548-.305.868-.388.33-.093.661-.165.992-.217.33-.051.656-.093.976-.124.32-.031.604-.077.852-.139.248-.062.444-.15.589-.264.145-.124.212-.299.201-.527 0-.237-.041-.423-.124-.557a.729.729 0 00-.309-.326 1.024 1.024 0 00-.45-.155 2.945 2.945 0 00-.542-.046c-.434 0-.775.093-1.023.279-.248.186-.392.496-.434.929h-2.2zm5.082 1.628a1.084 1.084 0 01-.356.201 4.183 4.183 0 01-.449.108 6.469 6.469 0 01-.496.078 9.557 9.557 0 00-.527.077 4.494 4.494 0 00-.496.124 1.468 1.468 0 00-.418.217.946.946 0 00-.279.326 1.06 1.06 0 00-.109.511c0 .196.036.362.109.496.072.134.17.243.294.325.124.073.269.124.434.155.165.031.336.047.511.047.434 0 .77-.073 1.008-.217.237-.145.413-.315.527-.511.113-.207.18-.414.201-.62a3.51 3.51 0 00.046-.496v-.821zm4.141-7.144v11.064h8.399v-2.045H281.4v-2.712h5.362v-1.891H281.4v-2.371h5.842v-2.045h-8.275zm12.497 2.045v9.019h2.433v-9.019h3.316v-2.045h-9.065v2.045h3.316zm7.024-2.045v11.064h2.433v-4.773h4.479v4.773h2.432v-11.064H305.4v4.246h-4.479v-4.246h-2.433z"/>
  <rect width="57.141" height="24.212" x="319.484" y="204.507" stroke="#fff" stroke-width=".968" rx="5.327"/>
  <path fill="#fff" d="M335.753 211.875c1.231 0 2.187.324 2.867.973.679.649 1.057 1.386 1.132 2.211h-1.285c-.145-.626-.437-1.123-.874-1.489-.432-.367-1.041-.55-1.827-.55-.958 0-1.732.338-2.324 1.013-.587.671-.88 1.702-.88 3.092 0 1.139.265 2.063.794 2.774.534.706 1.329 1.059 2.384 1.059.971 0 1.71-.373 2.218-1.119.269-.392.47-.909.602-1.549h1.284c-.114 1.024-.494 1.883-1.138 2.576-.773.834-1.814 1.251-3.125 1.251-1.13 0-2.079-.342-2.847-1.026-1.011-.905-1.516-2.302-1.516-4.191 0-1.435.379-2.611 1.139-3.529.82-.997 1.953-1.496 3.396-1.496zm5.574.265h1.192v9.725h-1.192v-9.725zm3.9 7.838c0 .345.126.616.377.815.252.198.55.298.894.298.419 0 .825-.097 1.218-.292.662-.322.993-.849.993-1.582v-.96c-.145.093-.333.17-.562.232a4.71 4.71 0 01-.676.132l-.721.093c-.433.057-.757.148-.974.271-.366.208-.549.539-.549.993zm2.886-2.409c.274-.036.457-.151.55-.345.053-.106.079-.258.079-.457 0-.406-.145-.699-.437-.88-.286-.185-.699-.278-1.238-.278-.622 0-1.063.168-1.324.503-.145.185-.24.461-.284.828h-1.113c.022-.874.305-1.481.848-1.821.547-.344 1.18-.516 1.9-.516.834 0 1.512.158 2.032.476.517.318.775.812.775 1.483v4.085c0 .124.024.223.073.298.053.075.161.113.324.113.053 0 .113-.003.179-.007.066-.009.137-.02.212-.033v.88a3.515 3.515 0 01-.424.1c-.097.013-.229.02-.397.02-.411 0-.709-.146-.894-.437-.097-.155-.165-.373-.205-.656-.243.318-.592.594-1.046.828a3.237 3.237 0 01-1.503.351c-.658 0-1.196-.199-1.615-.596-.415-.402-.623-.903-.623-1.503 0-.658.205-1.167.616-1.529.41-.362.949-.585 1.615-.669l1.9-.238zm3.748-2.761h1.211v7.057h-1.211v-7.057zm0-2.668h1.211v1.35h-1.211v-1.35zm3.019 2.635h1.178v1.006c.283-.349.539-.602.768-.761.393-.27.839-.404 1.337-.404.565 0 1.02.139 1.364.417.194.159.371.393.53.702.265-.38.576-.66.933-.841.358-.186.76-.278 1.205-.278.954 0 1.602.344 1.947 1.033.185.37.278.869.278 1.496v4.72h-1.238v-4.925c0-.473-.119-.797-.358-.974-.234-.176-.521-.264-.86-.264-.468 0-.872.156-1.212.47-.335.313-.503.836-.503 1.569v4.124h-1.212v-4.627c0-.482-.057-.832-.172-1.053-.181-.331-.518-.497-1.013-.497-.45 0-.86.175-1.231.523-.367.349-.55.98-.55 1.894v3.76h-1.191v-7.09z"/>
  <path stroke="#fff" stroke-width=".968" d="M422.746 174.968v61.015" opacity=".2"/>
  <circle cx="426.136" cy="48.425" r="21.307" fill="#006DFF"/>
  <path fill="#fff" d="M425.381 40.138h2.26V56.71h-2.26V40.138z"/>
  <path fill="#fff" d="M417.849 49.93v-2.26h16.572v2.26h-16.572zM461.513 51.02c0 .424.072.785.217 1.085.144.3.346.547.604.744.258.186.553.325.883.418.341.083.708.124 1.101.124.423 0 .785-.047 1.084-.14.3-.103.543-.232.729-.387.186-.155.32-.33.403-.527.082-.206.124-.413.124-.62 0-.423-.099-.733-.295-.93a1.54 1.54 0 00-.62-.433 11.898 11.898 0 00-1.379-.403c-.516-.134-1.157-.305-1.921-.511a4.423 4.423 0 01-1.194-.48 2.999 2.999 0 01-.743-.683 2.478 2.478 0 01-.403-.79 3.353 3.353 0 01-.109-.852c0-.558.114-1.038.341-1.441.238-.413.548-.755.93-1.023a3.932 3.932 0 011.302-.589 5.494 5.494 0 011.472-.201 5.53 5.53 0 011.627.232c.516.145.966.367 1.348.666.393.3.702.672.93 1.116.227.434.341.94.341 1.519h-1.937c-.052-.713-.295-1.214-.729-1.503-.434-.3-.986-.45-1.658-.45-.227 0-.459.026-.697.078a1.95 1.95 0 00-.651.232 1.433 1.433 0 00-.496.434c-.124.186-.186.418-.186.697 0 .393.119.703.357.93.248.217.568.382.96.496.042.01.202.057.481.14a76.15 76.15 0 011.983.526c.341.083.584.145.729.186.361.114.676.269.945.465.268.196.491.424.666.682.186.248.32.517.403.806.093.289.14.578.14.867 0 .62-.13 1.152-.388 1.597-.248.433-.578.79-.992 1.069-.413.279-.883.48-1.41.604a6.498 6.498 0 01-1.611.202c-.63 0-1.224-.078-1.782-.233a4.168 4.168 0 01-1.457-.713 3.51 3.51 0 01-.992-1.224c-.248-.506-.377-1.1-.387-1.782h1.937zm7.724-4.323h1.332v-2.402h1.767v2.402h1.596v1.317h-1.596v4.277c0 .186.005.346.015.48.021.134.057.248.109.341.062.093.15.165.263.217.114.041.269.062.465.062h.372c.124-.01.248-.031.372-.062v1.364c-.196.02-.388.041-.573.062-.186.02-.378.03-.574.03-.465 0-.842-.04-1.131-.123a1.667 1.667 0 01-.666-.388 1.49 1.49 0 01-.326-.65 5.543 5.543 0 01-.093-.884v-4.726h-1.332v-1.317zm12.675 6.23c0 .216.026.371.078.464.062.093.175.14.341.14h.186c.072 0 .155-.01.248-.032v1.225c-.062.02-.145.04-.248.062a2.432 2.432 0 01-.295.077 3.202 3.202 0 01-.573.062c-.362 0-.661-.072-.899-.217-.237-.145-.392-.398-.465-.76a3.12 3.12 0 01-1.301.745 5.022 5.022 0 01-1.472.232c-.362 0-.708-.052-1.039-.155a2.791 2.791 0 01-.883-.418 2.303 2.303 0 01-.604-.729 2.356 2.356 0 01-.217-1.038c0-.496.088-.899.263-1.209.186-.31.424-.552.713-.728.3-.175.63-.3.992-.372.372-.082.744-.144 1.115-.186a7.73 7.73 0 01.915-.124c.289-.03.542-.077.759-.14.227-.061.403-.154.527-.278.134-.134.201-.33.201-.589a.88.88 0 00-.17-.558.957.957 0 00-.403-.325 1.43 1.43 0 00-.527-.155 3.589 3.589 0 00-.558-.047c-.496 0-.904.104-1.224.31-.32.207-.501.527-.542.961h-1.767c.031-.516.155-.945.372-1.286.217-.34.491-.615.821-.821a3.483 3.483 0 011.147-.434 6.793 6.793 0 011.302-.124c.392 0 .78.041 1.162.124.382.082.723.217 1.023.403.31.186.557.428.743.728.186.29.279.646.279 1.07v4.121zm-1.766-2.232c-.269.175-.599.284-.992.325-.392.031-.785.083-1.178.155a3.227 3.227 0 00-.542.14c-.176.051-.331.129-.465.232a1.003 1.003 0 00-.325.387 1.34 1.34 0 00-.109.574.74.74 0 00.171.496c.113.134.248.242.403.325.165.072.341.124.527.155.196.03.371.046.526.046.197 0 .408-.025.636-.077.227-.052.439-.14.635-.264.207-.123.377-.278.511-.464.135-.197.202-.434.202-.713v-1.317zm3.714-7.05h1.766v6.29l3.192-3.238h2.17l-3.068 2.944 3.362 5.067h-2.154l-2.448-3.89-1.054 1.023v2.867h-1.766V43.644zm13.777 6.352a2.682 2.682 0 00-.186-.805 1.883 1.883 0 00-.403-.667 1.748 1.748 0 00-.62-.465 1.712 1.712 0 00-.805-.186 2.1 2.1 0 00-.853.17 1.884 1.884 0 00-.65.45 2.3 2.3 0 00-.434.667c-.104.258-.16.537-.171.836h4.122zm-4.122 1.163c0 .31.042.61.124.898.093.29.227.543.403.76.176.217.398.392.666.526.269.124.589.186.961.186.517 0 .93-.108 1.24-.325.32-.227.558-.563.713-1.007h1.673a3.336 3.336 0 01-.48 1.162 3.46 3.46 0 01-.821.868 3.507 3.507 0 01-1.085.511 4.095 4.095 0 01-1.24.186c-.63 0-1.188-.103-1.673-.31a3.535 3.535 0 01-1.24-.868 3.821 3.821 0 01-.759-1.332 5.548 5.548 0 01-.248-1.705c0-.568.088-1.105.263-1.611.186-.517.444-.966.775-1.348a3.743 3.743 0 011.224-.93c.475-.227 1.013-.341 1.612-.341.63 0 1.193.134 1.689.403a3.63 3.63 0 011.255 1.038c.33.434.568.935.713 1.503.155.558.196 1.136.124 1.736h-5.889zm11.544-4.463h1.674v1.115h.046c.135-.196.279-.377.434-.542.155-.165.326-.305.512-.418.196-.114.418-.202.666-.264.248-.072.532-.108.852-.108.486 0 .935.108 1.348.325.424.217.724.553.899 1.008.3-.414.646-.74 1.038-.977.393-.237.884-.356 1.473-.356.847 0 1.503.206 1.967.62.476.413.713 1.105.713 2.076v5.532h-1.766v-4.68c0-.32-.011-.61-.031-.867a1.663 1.663 0 00-.186-.682.964.964 0 00-.434-.45c-.196-.103-.465-.155-.806-.155-.599 0-1.033.186-1.301.558-.269.372-.403.9-.403 1.58v4.696h-1.767v-5.145c0-.557-.103-.976-.31-1.255-.196-.289-.563-.434-1.1-.434-.227 0-.449.047-.666.14a1.741 1.741 0 00-.558.403 2.234 2.234 0 00-.388.65 2.598 2.598 0 00-.139.884v4.757h-1.767v-8.011zm17.156 8.228c-.64 0-1.214-.103-1.72-.31a3.852 3.852 0 01-1.271-.883 3.916 3.916 0 01-.79-1.333 5.284 5.284 0 01-.263-1.704c0-.61.088-1.173.263-1.69.186-.516.45-.96.79-1.332a3.668 3.668 0 011.271-.868c.506-.217 1.08-.325 1.72-.325.641 0 1.209.108 1.705.325.506.207.929.496 1.27.868.352.372.615.816.791 1.333a4.95 4.95 0 01.279 1.689c0 .62-.093 1.188-.279 1.704a3.643 3.643 0 01-2.061 2.216c-.496.207-1.064.31-1.705.31zm0-1.395c.393 0 .734-.082 1.023-.248.289-.165.527-.382.713-.65.186-.269.32-.569.403-.9a3.87 3.87 0 000-2.06 2.553 2.553 0 00-.403-.899 2.159 2.159 0 00-.713-.65c-.289-.166-.63-.248-1.023-.248-.392 0-.733.082-1.023.247a2.155 2.155 0 00-.712.651 2.77 2.77 0 00-.419.899 4.36 4.36 0 000 2.06c.093.331.233.631.419.9.186.268.423.485.712.65.29.166.631.248 1.023.248zm5.513-6.833h1.658v1.55h.031c.052-.218.15-.43.295-.636.155-.207.335-.392.542-.558.217-.175.455-.315.713-.418.258-.103.521-.155.79-.155.207 0 .346.005.418.015l.248.031v1.705a4.398 4.398 0 00-.387-.047 2.255 2.255 0 00-.372-.03 2.01 2.01 0 00-.852.185c-.258.114-.486.29-.682.527a2.504 2.504 0 00-.465.852c-.114.341-.17.734-.17 1.178v3.812h-1.767v-8.011zm10.677 3.3a2.713 2.713 0 00-.186-.805 1.897 1.897 0 00-.403-.667 1.756 1.756 0 00-.62-.465 1.716 1.716 0 00-.806-.186c-.31 0-.594.057-.852.17a1.887 1.887 0 00-.651.45 2.32 2.32 0 00-.434.667c-.103.258-.16.537-.17.836h4.122zm-4.122 1.163c0 .31.041.61.124.898.093.29.227.543.403.76.175.217.397.392.666.526.268.124.589.186.961.186.516 0 .929-.108 1.239-.325.32-.227.558-.563.713-1.007h1.674a3.318 3.318 0 01-.481 1.162 3.46 3.46 0 01-.821.868c-.32.227-.682.398-1.085.511a4.089 4.089 0 01-1.239.186c-.631 0-1.188-.103-1.674-.31a3.535 3.535 0 01-1.24-.868 3.853 3.853 0 01-.759-1.332 5.578 5.578 0 01-.248-1.705c0-.568.088-1.105.264-1.611.186-.517.444-.966.774-1.348a3.736 3.736 0 011.225-.93c.475-.227 1.012-.341 1.611-.341.63 0 1.193.134 1.689.403a3.62 3.62 0 011.255 1.038c.331.434.568.935.713 1.503.155.558.196 1.136.124 1.736h-5.888z"/>
  <defs>
    <linearGradient id="paint0_linear" x1="583.515" x2="36.938" y1="11.06" y2="393.291" gradientUnits="userSpaceOnUse">
      <stop stop-color="#fff"/>
      <stop offset=".023" stop-color="#F7F5FE" stop-opacity=".505"/>
      <stop offset=".131" stop-color="#D1C8FB" stop-opacity=".15"/>
      <stop offset=".493" stop-color="#7B62F3" stop-opacity=".06"/>
      <stop offset=".865" stop-color="#D1C8FB" stop-opacity=".15"/>
      <stop offset=".966" stop-color="#3657EC" stop-opacity=".63"/>
      <stop offset="1" stop-color="#7991FF"/>
    </linearGradient>
    <clipPath id="clip0">
      <path fill="#fff" d="M0 0h17.433v17.433H0z" transform="translate(50.361 38.74)"/>
    </clipPath>
    <filter id="filter0_i" width="584" height="274" x="0" y="0" color-interpolation-filters="sRGB" filterUnits="userSpaceOnUse">
      <feFlood flood-opacity="0" result="BackgroundImageFix"/>
      <feBlend in="SourceGraphic" in2="BackgroundImageFix" result="shape"/>
      <feColorMatrix in="SourceAlpha" result="hardAlpha" values="0 0 0 0 0 0 0 0 0 0 0 0 0 0 0 0 0 0 127 0"/>
      <feOffset dy="2"/>
      <feGaussianBlur stdDeviation="1"/>
      <feComposite in2="hardAlpha" k2="-1" k3="1" operator="arithmetic"/>
      <feColorMatrix values="0 0 0 0 1 0 0 0 0 1 0 0 0 0 1 0 0 0 0.25 0"/>
      <feBlend in2="shape" result="effect1_innerShadow"/>
    </filter>
  </defs>
</svg>
