<svg width="584" height="272" viewBox="0 0 584 272" fill="none" xmlns="http://www.w3.org/2000/svg">
<g filter="url(#filter0_i)">
<path d="M0 48C0 21.4903 21.4903 0 48 0H536C562.51 0 584 21.4903 584 48V224C584 250.51 562.51 272 536 272H48C21.4903 272 0 250.51 0 224V48Z" fill="url(#paint0_linear)" fill-opacity="0.11"/>
</g>
<path d="M52.2247 202.294H59.0739C59.0739 201.354 59.1578 200.414 59.3257 199.474C59.5271 198.5 59.8461 197.627 60.2825 196.855C60.719 196.049 61.2898 195.411 61.9948 194.941C62.7335 194.438 63.6232 194.186 64.664 194.186C66.2084 194.186 67.4675 194.673 68.4411 195.646C69.4483 196.587 69.952 197.913 69.952 199.625C69.952 200.699 69.7002 201.656 69.1965 202.496C68.7265 203.335 68.1222 204.09 67.3835 204.762C66.6785 205.433 65.8895 206.055 65.0165 206.625C64.1436 207.162 63.321 207.7 62.5488 208.237C61.038 209.278 59.5943 210.302 58.2177 211.309C56.8748 212.316 55.6997 213.424 54.6924 214.633C53.6852 215.808 52.8794 217.151 52.2751 218.662C51.7043 220.173 51.4189 221.952 51.4189 224H77.3047V217.856H60.6351C61.508 216.647 62.5152 215.59 63.6568 214.683C64.7983 213.777 65.9734 212.937 67.1821 212.165C68.3908 211.359 69.5826 210.553 70.7577 209.748C71.9664 208.942 73.0408 208.052 73.9809 207.079C74.921 206.071 75.6764 204.93 76.2472 203.654C76.8179 202.378 77.1033 200.85 77.1033 199.071C77.1033 197.359 76.7676 195.814 76.0961 194.438C75.4582 193.061 74.5852 191.903 73.4773 190.963C72.3693 190.023 71.0767 189.301 69.5994 188.797C68.1557 188.294 66.6281 188.042 65.0165 188.042C62.9013 188.042 61.0212 188.411 59.376 189.15C57.7645 189.855 56.4215 190.862 55.3471 192.172C54.2727 193.447 53.467 194.958 52.9298 196.704C52.3926 198.416 52.1576 200.28 52.2247 202.294ZM89.8278 202.999V208.035C90.7008 208.035 91.6073 208.069 92.5474 208.136C93.521 208.17 94.4107 208.354 95.2165 208.69C96.0223 208.992 96.677 209.496 97.1806 210.201C97.7178 210.906 97.9864 211.93 97.9864 213.273C97.9864 214.985 97.4324 216.345 96.3245 217.352C95.2165 218.326 93.8568 218.813 92.2452 218.813C91.2044 218.813 90.2979 218.628 89.5257 218.259C88.787 217.889 88.1659 217.403 87.6623 216.798C87.1587 216.16 86.7726 215.422 86.504 214.582C86.2354 213.709 86.0843 212.803 86.0507 211.863H79.2519C79.2184 213.911 79.5037 215.724 80.1081 217.302C80.746 218.88 81.6357 220.223 82.7772 221.331C83.9188 222.405 85.2953 223.228 86.9069 223.799C88.552 224.369 90.365 224.655 92.3459 224.655C94.0582 224.655 95.7034 224.403 97.2814 223.899C98.8593 223.396 100.253 222.657 101.461 221.683C102.67 220.71 103.627 219.501 104.332 218.057C105.071 216.614 105.44 214.968 105.44 213.122C105.44 211.107 104.886 209.378 103.778 207.935C102.67 206.491 101.142 205.551 99.1951 205.114V205.014C100.84 204.544 102.066 203.654 102.871 202.345C103.711 201.035 104.131 199.524 104.131 197.812C104.131 196.234 103.778 194.841 103.073 193.632C102.368 192.423 101.445 191.399 100.303 190.56C99.1951 189.721 97.9361 189.099 96.5259 188.697C95.1158 188.26 93.7057 188.042 92.2956 188.042C90.4825 188.042 88.8374 188.344 87.3601 188.948C85.8829 189.519 84.607 190.342 83.5327 191.416C82.4919 192.49 81.6693 193.783 81.0649 195.294C80.4942 196.771 80.1752 198.416 80.1081 200.229H86.9069C86.8733 198.416 87.3098 196.922 88.2163 195.747C89.1564 194.539 90.5329 193.934 92.3459 193.934C93.6553 193.934 94.8136 194.337 95.8209 195.143C96.8281 195.949 97.3317 197.107 97.3317 198.618C97.3317 199.625 97.0799 200.431 96.5763 201.035C96.1063 201.639 95.4851 202.11 94.7129 202.445C93.9743 202.747 93.1685 202.932 92.2956 202.999C91.4226 203.066 90.6001 203.066 89.8278 202.999Z" fill="white"/>
<path d="M85.0918 51.6382C85.0918 51.9094 85.1241 52.1031 85.1887 52.2193C85.2661 52.3355 85.4082 52.3936 85.6148 52.3936C85.6794 52.3936 85.7568 52.3936 85.8472 52.3936C85.9376 52.3936 86.0409 52.3807 86.1571 52.3549V53.8851C86.0797 53.9109 85.9764 53.9367 85.8472 53.9626C85.731 54.0013 85.6083 54.0336 85.4792 54.0594C85.3501 54.0852 85.2209 54.1046 85.0918 54.1175C84.9627 54.1304 84.8529 54.1369 84.7625 54.1369C84.3106 54.1369 83.9361 54.0465 83.6391 53.8657C83.3421 53.6849 83.1484 53.3686 83.058 52.9166C82.6189 53.3427 82.0766 53.6527 81.4309 53.8464C80.7982 54.0401 80.1848 54.1369 79.5908 54.1369C79.1388 54.1369 78.7062 54.0723 78.293 53.9432C77.8798 53.827 77.5117 53.6527 77.1889 53.4202C76.879 53.1749 76.6272 52.8714 76.4335 52.5098C76.2527 52.1354 76.1623 51.7028 76.1623 51.2121C76.1623 50.5922 76.2721 50.0886 76.4916 49.7012C76.724 49.3138 77.021 49.0104 77.3826 48.7908C77.7571 48.5713 78.1703 48.4163 78.6223 48.326C79.0872 48.2226 79.552 48.1452 80.0169 48.0935C80.4172 48.016 80.7982 47.9644 81.1597 47.9386C81.5213 47.8998 81.8377 47.8417 82.1088 47.7642C82.3929 47.6868 82.6125 47.5705 82.7674 47.4156C82.9353 47.2477 83.0192 47.0024 83.0192 46.6795C83.0192 46.3954 82.9482 46.163 82.8062 45.9822C82.677 45.8014 82.5092 45.6658 82.3025 45.5754C82.1088 45.4721 81.8893 45.4076 81.644 45.3817C81.3986 45.343 81.1662 45.3236 80.9467 45.3236C80.3268 45.3236 79.8168 45.4528 79.4164 45.711C79.0161 45.9693 78.7902 46.3696 78.7385 46.912H76.5303C76.5691 46.2663 76.724 45.7304 76.9952 45.3043C77.2664 44.8781 77.6086 44.5359 78.0218 44.2777C78.448 44.0194 78.9257 43.8386 79.4552 43.7353C79.9846 43.632 80.527 43.5803 81.0822 43.5803C81.573 43.5803 82.0572 43.632 82.535 43.7353C83.0128 43.8386 83.4389 44.0065 83.8134 44.2389C84.2008 44.4714 84.5107 44.7748 84.7431 45.1493C84.9756 45.5109 85.0918 45.9564 85.0918 46.4858V51.6382ZM82.8836 48.8489C82.5479 49.0685 82.1347 49.2041 81.644 49.2557C81.1533 49.2944 80.6626 49.359 80.1719 49.4494C79.9394 49.4881 79.7134 49.5463 79.4939 49.6237C79.2744 49.6883 79.0807 49.7851 78.9128 49.9143C78.745 50.0305 78.6094 50.1919 78.5061 50.3985C78.4157 50.5922 78.3705 50.8311 78.3705 51.1152C78.3705 51.3606 78.4415 51.5672 78.5835 51.735C78.7256 51.9029 78.8935 52.0385 79.0872 52.1418C79.2938 52.2322 79.5133 52.2968 79.7457 52.3355C79.9911 52.3742 80.2106 52.3936 80.4043 52.3936C80.6497 52.3936 80.9144 52.3613 81.1985 52.2968C81.4826 52.2322 81.7473 52.1224 81.9926 51.9675C82.2509 51.8125 82.464 51.6188 82.6318 51.3864C82.7997 51.141 82.8836 50.844 82.8836 50.4954V48.8489ZM87.7777 40.0357H97.7338V42.1276H90.1989V45.7498H97.1721V47.7255H90.1989V51.7738H97.8694V53.8657H87.7777V40.0357ZM98.6613 40.0357H109.857V42.1276H105.46V53.8657H103.039V42.1276H98.6613V40.0357ZM111.402 40.0357H113.823V45.5367H120.119V40.0357H122.54V53.8657H120.119V47.6286H113.823V53.8657H111.402V40.0357ZM130.578 40.0357H132.786V45.1493H132.825C132.98 44.904 133.167 44.6844 133.387 44.4907C133.606 44.297 133.845 44.1356 134.104 44.0065C134.375 43.8644 134.652 43.7611 134.937 43.6966C135.234 43.6191 135.524 43.5803 135.808 43.5803C136.596 43.5803 137.28 43.7224 137.861 44.0065C138.455 44.2777 138.946 44.6586 139.333 45.1493C139.721 45.6271 140.011 46.1888 140.205 46.8345C140.399 47.4801 140.496 48.171 140.496 48.907C140.496 49.5785 140.405 50.2307 140.225 50.8634C140.057 51.4961 139.792 52.0579 139.43 52.5486C139.082 53.0264 138.636 53.4138 138.094 53.7108C137.551 53.9949 136.912 54.1369 136.176 54.1369C135.84 54.1369 135.498 54.1111 135.15 54.0594C134.814 54.0207 134.491 53.9367 134.181 53.8076C133.871 53.6785 133.587 53.5106 133.329 53.304C133.084 53.0974 132.877 52.8262 132.709 52.4905H132.67V53.8657H130.578V40.0357ZM138.288 48.8683C138.288 48.4163 138.229 47.9773 138.113 47.5512C137.997 47.125 137.823 46.7505 137.59 46.4277C137.358 46.092 137.067 45.8272 136.719 45.6335C136.37 45.4269 135.97 45.3236 135.518 45.3236C134.588 45.3236 133.884 45.6465 133.406 46.2921C132.941 46.9378 132.709 47.7965 132.709 48.8683C132.709 49.3719 132.767 49.8433 132.883 50.2823C133.012 50.7084 133.2 51.0765 133.445 51.3864C133.69 51.6963 133.981 51.9417 134.317 52.1224C134.665 52.3032 135.066 52.3936 135.518 52.3936C136.021 52.3936 136.447 52.2903 136.796 52.0837C137.145 51.8771 137.429 51.6124 137.648 51.2895C137.881 50.9538 138.042 50.5793 138.133 50.1661C138.236 49.74 138.288 49.3074 138.288 48.8683ZM150.749 51.6382C150.749 51.9094 150.781 52.1031 150.846 52.2193C150.923 52.3355 151.065 52.3936 151.272 52.3936C151.336 52.3936 151.414 52.3936 151.504 52.3936C151.594 52.3936 151.698 52.3807 151.814 52.3549V53.8851C151.737 53.9109 151.633 53.9367 151.504 53.9626C151.388 54.0013 151.265 54.0336 151.136 54.0594C151.007 54.0852 150.878 54.1046 150.749 54.1175C150.62 54.1304 150.51 54.1369 150.419 54.1369C149.967 54.1369 149.593 54.0465 149.296 53.8657C148.999 53.6849 148.805 53.3686 148.715 52.9166C148.276 53.3427 147.733 53.6527 147.088 53.8464C146.455 54.0401 145.842 54.1369 145.248 54.1369C144.796 54.1369 144.363 54.0723 143.95 53.9432C143.537 53.827 143.169 53.6527 142.846 53.4202C142.536 53.1749 142.284 52.8714 142.09 52.5098C141.91 52.1354 141.819 51.7028 141.819 51.2121C141.819 50.5922 141.929 50.0886 142.148 49.7012C142.381 49.3138 142.678 49.0104 143.039 48.7908C143.414 48.5713 143.827 48.4163 144.279 48.326C144.744 48.2226 145.209 48.1452 145.674 48.0935C146.074 48.016 146.455 47.9644 146.817 47.9386C147.178 47.8998 147.495 47.8417 147.766 47.7642C148.05 47.6868 148.269 47.5705 148.424 47.4156C148.592 47.2477 148.676 47.0024 148.676 46.6795C148.676 46.3954 148.605 46.163 148.463 45.9822C148.334 45.8014 148.166 45.6658 147.959 45.5754C147.766 45.4721 147.546 45.4076 147.301 45.3817C147.055 45.343 146.823 45.3236 146.604 45.3236C145.984 45.3236 145.474 45.4528 145.073 45.711C144.673 45.9693 144.447 46.3696 144.395 46.912H142.187C142.226 46.2663 142.381 45.7304 142.652 45.3043C142.923 44.8781 143.265 44.5359 143.679 44.2777C144.105 44.0194 144.583 43.8386 145.112 43.7353C145.642 43.632 146.184 43.5803 146.739 43.5803C147.23 43.5803 147.714 43.632 148.192 43.7353C148.67 43.8386 149.096 44.0065 149.47 44.2389C149.858 44.4714 150.168 44.7748 150.4 45.1493C150.632 45.5109 150.749 45.9564 150.749 46.4858V51.6382ZM148.541 48.8489C148.205 49.0685 147.792 49.2041 147.301 49.2557C146.81 49.2944 146.319 49.359 145.829 49.4494C145.596 49.4881 145.37 49.5463 145.151 49.6237C144.931 49.6883 144.738 49.7851 144.57 49.9143C144.402 50.0305 144.266 50.1919 144.163 50.3985C144.073 50.5922 144.027 50.8311 144.027 51.1152C144.027 51.3606 144.098 51.5672 144.24 51.735C144.382 51.9029 144.55 52.0385 144.744 52.1418C144.951 52.2322 145.17 52.2968 145.403 52.3355C145.648 52.3742 145.867 52.3936 146.061 52.3936C146.307 52.3936 146.571 52.3613 146.855 52.2968C147.139 52.2322 147.404 52.1224 147.65 51.9675C147.908 51.8125 148.121 51.6188 148.289 51.3864C148.457 51.141 148.541 50.844 148.541 50.4954V48.8489ZM153.183 40.0357H155.391V53.8657H153.183V40.0357ZM166.184 51.6382C166.184 51.9094 166.216 52.1031 166.281 52.2193C166.358 52.3355 166.5 52.3936 166.707 52.3936C166.772 52.3936 166.849 52.3936 166.939 52.3936C167.03 52.3936 167.133 52.3807 167.249 52.3549V53.8851C167.172 53.9109 167.069 53.9367 166.939 53.9626C166.823 54.0013 166.701 54.0336 166.571 54.0594C166.442 54.0852 166.313 54.1046 166.184 54.1175C166.055 54.1304 165.945 54.1369 165.855 54.1369C165.403 54.1369 165.028 54.0465 164.731 53.8657C164.434 53.6849 164.241 53.3686 164.15 52.9166C163.711 53.3427 163.169 53.6527 162.523 53.8464C161.89 54.0401 161.277 54.1369 160.683 54.1369C160.231 54.1369 159.798 54.0723 159.385 53.9432C158.972 53.827 158.604 53.6527 158.281 53.4202C157.971 53.1749 157.719 52.8714 157.526 52.5098C157.345 52.1354 157.255 51.7028 157.255 51.2121C157.255 50.5922 157.364 50.0886 157.584 49.7012C157.816 49.3138 158.113 49.0104 158.475 48.7908C158.849 48.5713 159.263 48.4163 159.714 48.326C160.179 48.2226 160.644 48.1452 161.109 48.0935C161.509 48.016 161.89 47.9644 162.252 47.9386C162.613 47.8998 162.93 47.8417 163.201 47.7642C163.485 47.6868 163.705 47.5705 163.86 47.4156C164.027 47.2477 164.111 47.0024 164.111 46.6795C164.111 46.3954 164.04 46.163 163.898 45.9822C163.769 45.8014 163.601 45.6658 163.395 45.5754C163.201 45.4721 162.982 45.4076 162.736 45.3817C162.491 45.343 162.258 45.3236 162.039 45.3236C161.419 45.3236 160.909 45.4528 160.509 45.711C160.108 45.9693 159.882 46.3696 159.831 46.912H157.623C157.661 46.2663 157.816 45.7304 158.087 45.3043C158.359 44.8781 158.701 44.5359 159.114 44.2777C159.54 44.0194 160.018 43.8386 160.547 43.7353C161.077 43.632 161.619 43.5803 162.174 43.5803C162.665 43.5803 163.149 43.632 163.627 43.7353C164.105 43.8386 164.531 44.0065 164.906 44.2389C165.293 44.4714 165.603 44.7748 165.835 45.1493C166.068 45.5109 166.184 45.9564 166.184 46.4858V51.6382ZM163.976 48.8489C163.64 49.0685 163.227 49.2041 162.736 49.2557C162.245 49.2944 161.755 49.359 161.264 49.4494C161.032 49.4881 160.806 49.5463 160.586 49.6237C160.367 49.6883 160.173 49.7851 160.005 49.9143C159.837 50.0305 159.702 50.1919 159.598 50.3985C159.508 50.5922 159.463 50.8311 159.463 51.1152C159.463 51.3606 159.534 51.5672 159.676 51.735C159.818 51.9029 159.986 52.0385 160.179 52.1418C160.386 52.2322 160.605 52.2968 160.838 52.3355C161.083 52.3742 161.303 52.3936 161.496 52.3936C161.742 52.3936 162.007 52.3613 162.291 52.2968C162.575 52.2322 162.839 52.1224 163.085 51.9675C163.343 51.8125 163.556 51.6188 163.724 51.3864C163.892 51.141 163.976 50.844 163.976 50.4954V48.8489ZM168.56 43.8515H170.652V45.3236L170.691 45.3624C171.026 44.8071 171.465 44.3745 172.008 44.0646C172.55 43.7418 173.151 43.5803 173.809 43.5803C174.907 43.5803 175.772 43.8644 176.405 44.4326C177.038 45.0008 177.354 45.8531 177.354 46.9894V53.8657H175.146V47.5705C175.12 46.7828 174.952 46.2146 174.642 45.866C174.332 45.5044 173.848 45.3236 173.189 45.3236C172.815 45.3236 172.479 45.3947 172.182 45.5367C171.885 45.6658 171.633 45.8531 171.427 46.0984C171.22 46.3309 171.059 46.6085 170.942 46.9313C170.826 47.2542 170.768 47.5964 170.768 47.9579V53.8657H168.56V43.8515ZM186.443 47.2025C186.352 46.5827 186.1 46.1178 185.687 45.8079C185.287 45.485 184.777 45.3236 184.157 45.3236C183.873 45.3236 183.569 45.3753 183.247 45.4786C182.924 45.569 182.627 45.7498 182.356 46.0209C182.084 46.2792 181.858 46.6472 181.678 47.125C181.497 47.5899 181.406 48.2033 181.406 48.9652C181.406 49.3784 181.452 49.7916 181.542 50.2048C181.645 50.618 181.8 50.9861 182.007 51.3089C182.226 51.6317 182.504 51.8965 182.84 52.1031C183.176 52.2968 183.582 52.3936 184.06 52.3936C184.706 52.3936 185.235 52.1935 185.648 51.7932C186.075 51.3928 186.339 50.8311 186.443 50.108H188.651C188.444 51.4122 187.947 52.413 187.159 53.1103C186.384 53.7947 185.351 54.1369 184.06 54.1369C183.272 54.1369 182.575 54.0078 181.968 53.7495C181.374 53.4783 180.871 53.1168 180.457 52.6648C180.044 52.1999 179.728 51.6511 179.508 51.0184C179.302 50.3856 179.198 49.7012 179.198 48.9652C179.198 48.2162 179.302 47.5124 179.508 46.8538C179.715 46.1953 180.025 45.6271 180.438 45.1493C180.851 44.6586 181.361 44.2777 181.968 44.0065C182.588 43.7224 183.311 43.5803 184.138 43.5803C184.719 43.5803 185.267 43.6578 185.784 43.8128C186.313 43.9548 186.778 44.1744 187.179 44.4714C187.592 44.7684 187.928 45.1428 188.186 45.5948C188.444 46.0468 188.599 46.5827 188.651 47.2025H186.443ZM197.322 47.9773C197.296 47.6286 197.219 47.2929 197.089 46.9701C196.973 46.6472 196.805 46.3696 196.586 46.1372C196.379 45.8918 196.121 45.6981 195.811 45.5561C195.514 45.4011 195.178 45.3236 194.804 45.3236C194.416 45.3236 194.061 45.3947 193.738 45.5367C193.429 45.6658 193.157 45.8531 192.925 46.0984C192.705 46.3309 192.525 46.6085 192.383 46.9313C192.253 47.2542 192.182 47.6028 192.17 47.9773H197.322ZM192.17 49.43C192.17 49.8174 192.221 50.1919 192.324 50.5535C192.441 50.9151 192.609 51.2314 192.828 51.5026C193.048 51.7738 193.325 51.9933 193.661 52.1612C193.997 52.3161 194.397 52.3936 194.862 52.3936C195.508 52.3936 196.024 52.258 196.412 51.9869C196.812 51.7028 197.109 51.2831 197.303 50.7278H199.394C199.278 51.2702 199.078 51.7544 198.794 52.1805C198.51 52.6067 198.168 52.9683 197.767 53.2653C197.367 53.5493 196.915 53.7624 196.412 53.9045C195.921 54.0594 195.404 54.1369 194.862 54.1369C194.074 54.1369 193.377 54.0078 192.77 53.7495C192.163 53.4912 191.647 53.1297 191.22 52.6648C190.807 52.1999 190.491 51.6447 190.271 50.999C190.065 50.3533 189.961 49.6431 189.961 48.8683C189.961 48.1581 190.071 47.4866 190.291 46.8538C190.523 46.2082 190.846 45.6465 191.259 45.1687C191.685 44.678 192.195 44.2906 192.789 44.0065C193.383 43.7224 194.055 43.5803 194.804 43.5803C195.592 43.5803 196.295 43.7482 196.915 44.084C197.548 44.4068 198.071 44.8394 198.484 45.3817C198.897 45.9241 199.194 46.5504 199.375 47.2606C199.569 47.9579 199.62 48.6811 199.53 49.43H192.17Z" fill="white"/>
<g clip-path="url(#clip0)">
<path d="M59.0777 56.1721C63.8917 56.1721 67.7942 52.2696 67.7942 47.4557C67.7942 42.6417 63.8917 38.7393 59.0777 38.7393C54.2638 38.7393 50.3613 42.6417 50.3613 47.4557C50.3613 52.2696 54.2638 56.1721 59.0777 56.1721Z" fill="url(#paint1_linear)"/>
<path d="M54.8303 47.4557L59.0777 41.5094L63.325 47.4557L59.0777 53.402L54.8303 47.4557Z" stroke="url(#paint2_linear)" stroke-width="0.968491"/>
</g>
<path d="M114.744 216.381C114.775 215.865 114.904 215.436 115.131 215.095C115.358 214.754 115.648 214.48 115.999 214.274C116.35 214.067 116.743 213.923 117.177 213.84C117.621 213.747 118.065 213.7 118.509 213.7C118.912 213.7 119.32 213.731 119.733 213.793C120.147 213.845 120.524 213.954 120.865 214.119C121.206 214.284 121.484 214.517 121.701 214.816C121.918 215.105 122.027 215.493 122.027 215.978V220.147C122.027 220.508 122.048 220.854 122.089 221.185C122.13 221.515 122.202 221.763 122.306 221.929H120.074C120.033 221.805 119.997 221.681 119.966 221.557C119.945 221.423 119.93 221.288 119.919 221.154C119.568 221.515 119.155 221.769 118.68 221.913C118.205 222.058 117.719 222.13 117.223 222.13C116.841 222.13 116.485 222.084 116.154 221.991C115.823 221.898 115.534 221.753 115.286 221.557C115.038 221.361 114.842 221.113 114.697 220.813C114.563 220.513 114.496 220.157 114.496 219.744C114.496 219.289 114.573 218.917 114.728 218.628C114.894 218.329 115.1 218.091 115.348 217.915C115.606 217.74 115.896 217.611 116.216 217.528C116.546 217.435 116.877 217.363 117.208 217.311C117.538 217.259 117.864 217.218 118.184 217.187C118.504 217.156 118.788 217.11 119.036 217.048C119.284 216.986 119.48 216.898 119.625 216.784C119.77 216.66 119.837 216.485 119.826 216.257C119.826 216.02 119.785 215.834 119.702 215.699C119.63 215.555 119.527 215.446 119.393 215.374C119.269 215.291 119.119 215.24 118.943 215.219C118.778 215.188 118.597 215.173 118.401 215.173C117.967 215.173 117.626 215.265 117.378 215.451C117.13 215.637 116.986 215.947 116.944 216.381H114.744ZM119.826 218.008C119.733 218.091 119.615 218.158 119.47 218.21C119.336 218.251 119.186 218.287 119.021 218.318C118.866 218.349 118.7 218.375 118.525 218.396C118.349 218.416 118.174 218.442 117.998 218.473C117.833 218.504 117.667 218.545 117.502 218.597C117.347 218.649 117.208 218.721 117.084 218.814C116.97 218.897 116.877 219.005 116.805 219.139C116.732 219.274 116.696 219.444 116.696 219.651C116.696 219.847 116.732 220.012 116.805 220.147C116.877 220.281 116.975 220.389 117.099 220.472C117.223 220.544 117.368 220.596 117.533 220.627C117.698 220.658 117.869 220.674 118.044 220.674C118.478 220.674 118.814 220.601 119.052 220.457C119.289 220.312 119.465 220.142 119.579 219.945C119.692 219.739 119.759 219.532 119.78 219.325C119.811 219.119 119.826 218.954 119.826 218.83V218.008ZM123.967 210.865V221.929H132.366V219.883H126.4V217.171H131.762V215.281H126.4V212.91H132.242V210.865H123.967ZM136.464 212.91V221.929H138.897V212.91H142.213V210.865H133.148V212.91H136.464ZM143.488 210.865V221.929H145.921V217.156H150.4V221.929H152.832V210.865H150.4V215.111H145.921V210.865H143.488Z" fill="white"/>
<path opacity="0.5" d="M457.205 180.221C456.616 180.221 456.105 180.34 455.671 180.578C455.248 180.815 454.902 181.136 454.633 181.539C454.364 181.931 454.163 182.38 454.029 182.887C453.905 183.393 453.843 183.909 453.843 184.436C453.843 184.963 453.905 185.48 454.029 185.986C454.163 186.492 454.364 186.947 454.633 187.349C454.902 187.742 455.248 188.057 455.671 188.295C456.105 188.532 456.616 188.651 457.205 188.651C457.794 188.651 458.3 188.532 458.724 188.295C459.158 188.057 459.509 187.742 459.778 187.349C460.046 186.947 460.243 186.492 460.366 185.986C460.501 185.48 460.568 184.963 460.568 184.436C460.568 183.909 460.501 183.393 460.366 182.887C460.243 182.38 460.046 181.931 459.778 181.539C459.509 181.136 459.158 180.815 458.724 180.578C458.3 180.34 457.794 180.221 457.205 180.221ZM457.205 178.641C458.032 178.641 458.77 178.796 459.421 179.106C460.082 179.416 460.64 179.834 461.095 180.361C461.549 180.888 461.895 181.502 462.133 182.205C462.381 182.907 462.505 183.651 462.505 184.436C462.505 185.232 462.381 185.981 462.133 186.683C461.895 187.386 461.549 188 461.095 188.527C460.64 189.054 460.082 189.472 459.421 189.782C458.77 190.082 458.032 190.232 457.205 190.232C456.379 190.232 455.635 190.082 454.974 189.782C454.323 189.472 453.77 189.054 453.316 188.527C452.861 188 452.51 187.386 452.262 186.683C452.025 185.981 451.906 185.232 451.906 184.436C451.906 183.651 452.025 182.907 452.262 182.205C452.51 181.502 452.861 180.888 453.316 180.361C453.77 179.834 454.323 179.416 454.974 179.106C455.635 178.796 456.379 178.641 457.205 178.641ZM464.02 181.957H465.693V183.135L465.724 183.166C465.993 182.721 466.344 182.375 466.778 182.127C467.212 181.869 467.692 181.74 468.219 181.74C469.097 181.74 469.789 181.967 470.296 182.422C470.802 182.876 471.055 183.558 471.055 184.467V189.968H469.288V184.932C469.268 184.302 469.133 183.847 468.886 183.568C468.638 183.279 468.25 183.135 467.723 183.135C467.424 183.135 467.155 183.191 466.918 183.305C466.68 183.408 466.479 183.558 466.313 183.754C466.148 183.94 466.019 184.162 465.926 184.421C465.833 184.679 465.786 184.953 465.786 185.242V189.968H464.02V181.957ZM476.347 181.957H478.284L480.376 187.938H480.407L482.437 181.957H484.281L481.167 190.402C481.022 190.764 480.877 191.11 480.733 191.44C480.598 191.771 480.428 192.06 480.221 192.308C480.025 192.566 479.777 192.768 479.478 192.912C479.178 193.067 478.796 193.145 478.331 193.145C477.918 193.145 477.51 193.114 477.107 193.052V191.564C477.251 191.585 477.391 191.606 477.525 191.626C477.659 191.657 477.799 191.673 477.943 191.673C478.15 191.673 478.321 191.647 478.455 191.595C478.589 191.544 478.698 191.466 478.78 191.363C478.873 191.27 478.951 191.156 479.013 191.022C479.075 190.888 479.132 190.733 479.183 190.557L479.385 189.937L476.347 181.957ZM488.939 190.185C488.298 190.185 487.725 190.082 487.219 189.875C486.723 189.658 486.299 189.364 485.948 188.992C485.607 188.62 485.344 188.176 485.158 187.659C484.982 187.143 484.894 186.575 484.894 185.955C484.894 185.345 484.982 184.782 485.158 184.266C485.344 183.749 485.607 183.305 485.948 182.933C486.299 182.561 486.723 182.272 487.219 182.065C487.725 181.848 488.298 181.74 488.939 181.74C489.579 181.74 490.147 181.848 490.643 182.065C491.149 182.272 491.573 182.561 491.914 182.933C492.265 183.305 492.529 183.749 492.704 184.266C492.89 184.782 492.983 185.345 492.983 185.955C492.983 186.575 492.89 187.143 492.704 187.659C492.529 188.176 492.265 188.62 491.914 188.992C491.573 189.364 491.149 189.658 490.643 189.875C490.147 190.082 489.579 190.185 488.939 190.185ZM488.939 188.791C489.331 188.791 489.672 188.708 489.961 188.543C490.251 188.377 490.488 188.16 490.674 187.892C490.86 187.623 490.994 187.324 491.077 186.993C491.17 186.652 491.217 186.306 491.217 185.955C491.217 185.614 491.17 185.273 491.077 184.932C490.994 184.591 490.86 184.292 490.674 184.033C490.488 183.765 490.251 183.548 489.961 183.383C489.672 183.217 489.331 183.135 488.939 183.135C488.546 183.135 488.205 183.217 487.916 183.383C487.627 183.548 487.389 183.765 487.203 184.033C487.017 184.292 486.878 184.591 486.785 184.932C486.702 185.273 486.661 185.614 486.661 185.955C486.661 186.306 486.702 186.652 486.785 186.993C486.878 187.324 487.017 187.623 487.203 187.892C487.389 188.16 487.627 188.377 487.916 188.543C488.205 188.708 488.546 188.791 488.939 188.791ZM501.487 189.968H499.751V188.853H499.72C499.503 189.255 499.178 189.581 498.744 189.829C498.32 190.066 497.887 190.185 497.442 190.185C496.389 190.185 495.624 189.927 495.149 189.41C494.684 188.884 494.452 188.093 494.452 187.04V181.957H496.218V186.869C496.218 187.572 496.352 188.067 496.621 188.357C496.89 188.646 497.267 188.791 497.752 188.791C498.124 188.791 498.434 188.734 498.682 188.62C498.93 188.506 499.131 188.357 499.286 188.171C499.441 187.974 499.55 187.742 499.612 187.473C499.684 187.205 499.72 186.916 499.72 186.606V181.957H501.487V189.968ZM503.35 181.957H505.008V183.506H505.039C505.09 183.29 505.189 183.078 505.333 182.871C505.488 182.665 505.669 182.479 505.875 182.313C506.092 182.138 506.33 181.998 506.588 181.895C506.847 181.792 507.11 181.74 507.379 181.74C507.585 181.74 507.725 181.745 507.797 181.755C507.88 181.766 507.962 181.776 508.045 181.786V183.491C507.921 183.47 507.792 183.455 507.658 183.445C507.534 183.424 507.41 183.414 507.286 183.414C506.986 183.414 506.702 183.475 506.433 183.599C506.175 183.713 505.948 183.889 505.752 184.126C505.555 184.354 505.4 184.638 505.287 184.979C505.173 185.32 505.116 185.712 505.116 186.156V189.968H503.35V181.957ZM512.382 181.957H514.257L515.822 187.938H515.853L517.356 181.957H519.138L520.579 187.938H520.61L522.237 181.957H524.035L521.524 189.968H519.711L518.224 184.018H518.193L516.721 189.968H514.861L512.382 181.957ZM531.881 188.186C531.881 188.403 531.907 188.558 531.958 188.651C532.02 188.744 532.134 188.791 532.299 188.791C532.351 188.791 532.413 188.791 532.485 188.791C532.557 188.791 532.64 188.78 532.733 188.76V189.984C532.671 190.004 532.588 190.025 532.485 190.046C532.392 190.077 532.294 190.103 532.191 190.123C532.087 190.144 531.984 190.159 531.881 190.17C531.777 190.18 531.69 190.185 531.617 190.185C531.256 190.185 530.956 190.113 530.718 189.968C530.481 189.824 530.326 189.571 530.254 189.209C529.902 189.55 529.468 189.798 528.952 189.953C528.446 190.108 527.955 190.185 527.48 190.185C527.118 190.185 526.772 190.134 526.442 190.03C526.111 189.937 525.817 189.798 525.558 189.612C525.31 189.416 525.109 189.173 524.954 188.884C524.809 188.584 524.737 188.238 524.737 187.845C524.737 187.349 524.825 186.947 525.001 186.637C525.186 186.327 525.424 186.084 525.713 185.908C526.013 185.733 526.343 185.609 526.705 185.536C527.077 185.454 527.449 185.392 527.821 185.35C528.141 185.289 528.446 185.247 528.735 185.227C529.024 185.196 529.277 185.149 529.494 185.087C529.722 185.025 529.897 184.932 530.021 184.808C530.155 184.674 530.223 184.478 530.223 184.219C530.223 183.992 530.166 183.806 530.052 183.661C529.949 183.517 529.815 183.408 529.649 183.336C529.494 183.253 529.319 183.202 529.122 183.181C528.926 183.15 528.74 183.135 528.565 183.135C528.069 183.135 527.661 183.238 527.34 183.445C527.02 183.651 526.839 183.971 526.798 184.405H525.032C525.063 183.889 525.186 183.46 525.403 183.119C525.62 182.778 525.894 182.504 526.225 182.298C526.566 182.091 526.948 181.947 527.371 181.864C527.795 181.781 528.229 181.74 528.673 181.74C529.066 181.74 529.453 181.781 529.835 181.864C530.217 181.947 530.558 182.081 530.858 182.267C531.168 182.453 531.416 182.696 531.602 182.995C531.788 183.284 531.881 183.641 531.881 184.064V188.186ZM530.114 185.955C529.846 186.13 529.515 186.239 529.122 186.28C528.73 186.311 528.337 186.363 527.945 186.435C527.759 186.466 527.578 186.513 527.402 186.575C527.227 186.626 527.072 186.704 526.938 186.807C526.803 186.9 526.695 187.029 526.612 187.195C526.54 187.349 526.504 187.541 526.504 187.768C526.504 187.964 526.56 188.129 526.674 188.264C526.788 188.398 526.922 188.506 527.077 188.589C527.242 188.661 527.418 188.713 527.604 188.744C527.8 188.775 527.976 188.791 528.131 188.791C528.327 188.791 528.539 188.765 528.766 188.713C528.993 188.661 529.205 188.574 529.401 188.45C529.608 188.326 529.778 188.171 529.913 187.985C530.047 187.789 530.114 187.551 530.114 187.272V185.955ZM533.828 178.904H535.594V189.968H533.828V178.904ZM537.566 178.904H539.332V189.968H537.566V178.904ZM546.758 185.258C546.737 184.979 546.675 184.71 546.572 184.452C546.479 184.193 546.345 183.971 546.169 183.785C546.004 183.589 545.797 183.434 545.549 183.321C545.312 183.197 545.043 183.135 544.744 183.135C544.434 183.135 544.15 183.191 543.891 183.305C543.643 183.408 543.426 183.558 543.24 183.754C543.065 183.94 542.92 184.162 542.807 184.421C542.703 184.679 542.646 184.958 542.636 185.258H546.758ZM542.636 186.42C542.636 186.73 542.677 187.029 542.76 187.318C542.853 187.608 542.987 187.861 543.163 188.078C543.339 188.295 543.561 188.47 543.829 188.605C544.098 188.729 544.418 188.791 544.79 188.791C545.307 188.791 545.72 188.682 546.03 188.465C546.35 188.238 546.588 187.902 546.743 187.458H548.416C548.323 187.892 548.163 188.279 547.936 188.62C547.708 188.961 547.435 189.25 547.114 189.488C546.794 189.715 546.433 189.886 546.03 189.999C545.637 190.123 545.224 190.185 544.79 190.185C544.16 190.185 543.602 190.082 543.117 189.875C542.631 189.669 542.218 189.379 541.877 189.008C541.546 188.636 541.293 188.191 541.118 187.675C540.952 187.158 540.87 186.59 540.87 185.97C540.87 185.402 540.957 184.865 541.133 184.359C541.319 183.842 541.577 183.393 541.908 183.011C542.249 182.618 542.657 182.308 543.132 182.081C543.607 181.854 544.144 181.74 544.744 181.74C545.374 181.74 545.937 181.874 546.433 182.143C546.939 182.401 547.357 182.747 547.688 183.181C548.018 183.615 548.256 184.116 548.401 184.684C548.556 185.242 548.597 185.821 548.525 186.42H542.636ZM549.062 181.957H550.394V179.555H552.161V181.957H553.757V183.274H552.161V187.551C552.161 187.737 552.166 187.897 552.176 188.031C552.197 188.166 552.233 188.279 552.285 188.372C552.347 188.465 552.435 188.537 552.548 188.589C552.662 188.63 552.817 188.651 553.013 188.651C553.137 188.651 553.261 188.651 553.385 188.651C553.509 188.641 553.633 188.62 553.757 188.589V189.953C553.561 189.973 553.37 189.994 553.184 190.015C552.998 190.035 552.807 190.046 552.61 190.046C552.145 190.046 551.768 190.004 551.479 189.922C551.2 189.829 550.978 189.7 550.813 189.534C550.658 189.359 550.549 189.142 550.487 188.884C550.436 188.625 550.405 188.331 550.394 188V183.274H549.062V181.957Z" fill="white"/>
<path opacity="0.5" d="M454.158 216.806C454.158 216.597 454.158 216.347 454.158 216.057C454.17 215.754 454.193 215.446 454.228 215.133C454.263 214.819 454.321 214.511 454.403 214.209C454.484 213.895 454.594 213.616 454.734 213.372C454.885 213.128 455.071 212.93 455.292 212.779C455.524 212.628 455.809 212.553 456.146 212.553C456.483 212.553 456.768 212.628 457 212.779C457.232 212.93 457.424 213.128 457.575 213.372C457.726 213.616 457.837 213.895 457.907 214.209C457.988 214.511 458.046 214.819 458.081 215.133C458.127 215.446 458.151 215.754 458.151 216.057C458.162 216.347 458.168 216.597 458.168 216.806C458.168 217.155 458.156 217.579 458.133 218.079C458.11 218.567 458.034 219.043 457.907 219.508C457.79 219.962 457.593 220.351 457.314 220.676C457.046 221.002 456.657 221.164 456.146 221.164C455.646 221.164 455.263 221.002 454.995 220.676C454.728 220.351 454.53 219.962 454.403 219.508C454.286 219.043 454.217 218.567 454.193 218.079C454.17 217.579 454.158 217.155 454.158 216.806ZM451.683 216.806C451.683 218.026 451.799 219.049 452.032 219.874C452.276 220.688 452.601 221.339 453.008 221.827C453.415 222.315 453.885 222.664 454.42 222.873C454.966 223.082 455.541 223.187 456.146 223.187C456.762 223.187 457.337 223.082 457.872 222.873C458.418 222.664 458.894 222.315 459.301 221.827C459.72 221.339 460.045 220.688 460.277 219.874C460.521 219.049 460.643 218.026 460.643 216.806C460.643 215.621 460.521 214.627 460.277 213.825C460.045 213.012 459.72 212.361 459.301 211.873C458.894 211.385 458.418 211.036 457.872 210.827C457.337 210.618 456.762 210.513 456.146 210.513C455.541 210.513 454.966 210.618 454.42 210.827C453.885 211.036 453.415 211.385 453.008 211.873C452.601 212.361 452.276 213.012 452.032 213.825C451.799 214.627 451.683 215.621 451.683 216.806ZM462.05 220.275V222.96H464.787V220.275H462.05ZM468.697 216.806C468.697 216.597 468.697 216.347 468.697 216.057C468.709 215.754 468.732 215.446 468.767 215.133C468.802 214.819 468.86 214.511 468.941 214.209C469.023 213.895 469.133 213.616 469.272 213.372C469.424 213.128 469.609 212.93 469.83 212.779C470.063 212.628 470.347 212.553 470.685 212.553C471.022 212.553 471.306 212.628 471.539 212.779C471.771 212.93 471.963 213.128 472.114 213.372C472.265 213.616 472.375 213.895 472.445 214.209C472.527 214.511 472.585 214.819 472.62 215.133C472.666 215.446 472.689 215.754 472.689 216.057C472.701 216.347 472.707 216.597 472.707 216.806C472.707 217.155 472.695 217.579 472.672 218.079C472.649 218.567 472.573 219.043 472.445 219.508C472.329 219.962 472.131 220.351 471.853 220.676C471.585 221.002 471.196 221.164 470.685 221.164C470.185 221.164 469.801 221.002 469.534 220.676C469.267 220.351 469.069 219.962 468.941 219.508C468.825 219.043 468.755 218.567 468.732 218.079C468.709 217.579 468.697 217.155 468.697 216.806ZM466.222 216.806C466.222 218.026 466.338 219.049 466.57 219.874C466.814 220.688 467.14 221.339 467.547 221.827C467.953 222.315 468.424 222.664 468.959 222.873C469.505 223.082 470.08 223.187 470.685 223.187C471.3 223.187 471.876 223.082 472.41 222.873C472.957 222.664 473.433 222.315 473.84 221.827C474.258 221.339 474.584 220.688 474.816 219.874C475.06 219.049 475.182 218.026 475.182 216.806C475.182 215.621 475.06 214.627 474.816 213.825C474.584 213.012 474.258 212.361 473.84 211.873C473.433 211.385 472.957 211.036 472.41 210.827C471.876 210.618 471.3 210.513 470.685 210.513C470.08 210.513 469.505 210.618 468.959 210.827C468.424 211.036 467.953 211.385 467.547 211.873C467.14 212.361 466.814 213.012 466.57 213.825C466.338 214.627 466.222 215.621 466.222 216.806ZM478.384 216.806C478.384 216.597 478.384 216.347 478.384 216.057C478.396 215.754 478.419 215.446 478.454 215.133C478.489 214.819 478.547 214.511 478.628 214.209C478.709 213.895 478.82 213.616 478.959 213.372C479.11 213.128 479.296 212.93 479.517 212.779C479.75 212.628 480.034 212.553 480.371 212.553C480.708 212.553 480.993 212.628 481.226 212.779C481.458 212.93 481.65 213.128 481.801 213.372C481.952 213.616 482.062 213.895 482.132 214.209C482.213 214.511 482.271 214.819 482.306 215.133C482.353 215.446 482.376 215.754 482.376 216.057C482.388 216.347 482.394 216.597 482.394 216.806C482.394 217.155 482.382 217.579 482.359 218.079C482.335 218.567 482.26 219.043 482.132 219.508C482.016 219.962 481.818 220.351 481.539 220.676C481.272 221.002 480.883 221.164 480.371 221.164C479.872 221.164 479.488 221.002 479.221 220.676C478.953 220.351 478.756 219.962 478.628 219.508C478.512 219.043 478.442 218.567 478.419 218.079C478.396 217.579 478.384 217.155 478.384 216.806ZM475.908 216.806C475.908 218.026 476.025 219.049 476.257 219.874C476.501 220.688 476.827 221.339 477.233 221.827C477.64 222.315 478.111 222.664 478.645 222.873C479.192 223.082 479.767 223.187 480.371 223.187C480.987 223.187 481.563 223.082 482.097 222.873C482.643 222.664 483.12 222.315 483.527 221.827C483.945 221.339 484.27 220.688 484.503 219.874C484.747 219.049 484.869 218.026 484.869 216.806C484.869 215.621 484.747 214.627 484.503 213.825C484.27 213.012 483.945 212.361 483.527 211.873C483.12 211.385 482.643 211.036 482.097 210.827C481.563 210.618 480.987 210.513 480.371 210.513C479.767 210.513 479.192 210.618 478.645 210.827C478.111 211.036 477.64 211.385 477.233 211.873C476.827 212.361 476.501 213.012 476.257 213.825C476.025 214.627 475.908 215.621 475.908 216.806ZM490.918 216.719C490.953 216.138 491.098 215.656 491.354 215.272C491.609 214.889 491.935 214.581 492.33 214.348C492.725 214.116 493.167 213.953 493.655 213.86C494.155 213.755 494.654 213.703 495.154 213.703C495.607 213.703 496.066 213.738 496.531 213.808C496.996 213.866 497.42 213.988 497.804 214.174C498.187 214.36 498.501 214.621 498.745 214.958C498.989 215.284 499.111 215.72 499.111 216.266V220.955C499.111 221.362 499.135 221.751 499.181 222.123C499.228 222.495 499.309 222.774 499.425 222.96H496.915C496.868 222.82 496.828 222.681 496.793 222.542C496.77 222.39 496.752 222.239 496.74 222.088C496.345 222.495 495.88 222.78 495.346 222.943C494.811 223.105 494.265 223.187 493.707 223.187C493.277 223.187 492.876 223.134 492.504 223.03C492.132 222.925 491.807 222.762 491.528 222.542C491.249 222.321 491.028 222.042 490.866 221.705C490.715 221.368 490.639 220.967 490.639 220.502C490.639 219.991 490.726 219.572 490.9 219.247C491.086 218.91 491.319 218.642 491.598 218.445C491.888 218.247 492.214 218.102 492.574 218.009C492.946 217.904 493.318 217.823 493.69 217.765C494.062 217.707 494.428 217.66 494.788 217.626C495.148 217.591 495.468 217.538 495.747 217.469C496.026 217.399 496.247 217.3 496.409 217.172C496.572 217.033 496.647 216.835 496.636 216.58C496.636 216.312 496.589 216.103 496.496 215.952C496.415 215.789 496.299 215.667 496.148 215.586C496.008 215.493 495.84 215.435 495.642 215.412C495.456 215.377 495.253 215.359 495.032 215.359C494.544 215.359 494.16 215.464 493.881 215.673C493.603 215.882 493.44 216.231 493.393 216.719H490.918ZM496.636 218.549C496.531 218.642 496.398 218.718 496.235 218.776C496.084 218.823 495.915 218.863 495.729 218.898C495.555 218.933 495.369 218.962 495.172 218.985C494.974 219.009 494.776 219.038 494.579 219.072C494.393 219.107 494.207 219.154 494.021 219.212C493.847 219.27 493.69 219.351 493.55 219.456C493.422 219.549 493.318 219.671 493.236 219.822C493.155 219.973 493.114 220.165 493.114 220.397C493.114 220.618 493.155 220.804 493.236 220.955C493.318 221.106 493.428 221.228 493.568 221.321C493.707 221.403 493.87 221.461 494.056 221.496C494.242 221.53 494.434 221.548 494.631 221.548C495.119 221.548 495.497 221.467 495.764 221.304C496.032 221.141 496.229 220.949 496.357 220.729C496.485 220.496 496.56 220.264 496.584 220.031C496.618 219.799 496.636 219.613 496.636 219.473V218.549ZM501.294 210.513V222.96H510.743V220.659H504.031V217.608H510.063V215.481H504.031V212.814H510.603V210.513H501.294ZM515.353 212.814V222.96H518.09V212.814H521.82V210.513H511.622V212.814H515.353ZM523.256 210.513V222.96H525.992V217.591H531.031V222.96H533.768V210.513H531.031V215.29H525.992V210.513H523.256Z" fill="white"/>
<path opacity="0.5" d="M249.948 180.221C249.359 180.221 248.848 180.34 248.414 180.578C247.99 180.815 247.644 181.136 247.376 181.539C247.107 181.931 246.906 182.38 246.771 182.887C246.647 183.393 246.585 183.909 246.585 184.436C246.585 184.963 246.647 185.48 246.771 185.986C246.906 186.492 247.107 186.947 247.376 187.349C247.644 187.742 247.99 188.057 248.414 188.295C248.848 188.532 249.359 188.651 249.948 188.651C250.537 188.651 251.043 188.532 251.467 188.295C251.9 188.057 252.252 187.742 252.52 187.349C252.789 186.947 252.985 186.492 253.109 185.986C253.243 185.48 253.311 184.963 253.311 184.436C253.311 183.909 253.243 183.393 253.109 182.887C252.985 182.38 252.789 181.931 252.52 181.539C252.252 181.136 251.9 180.815 251.467 180.578C251.043 180.34 250.537 180.221 249.948 180.221ZM249.948 178.641C250.774 178.641 251.513 178.796 252.164 179.106C252.825 179.416 253.383 179.834 253.837 180.361C254.292 180.888 254.638 181.502 254.876 182.205C255.124 182.907 255.248 183.651 255.248 184.436C255.248 185.232 255.124 185.981 254.876 186.683C254.638 187.386 254.292 188 253.837 188.527C253.383 189.054 252.825 189.472 252.164 189.782C251.513 190.082 250.774 190.232 249.948 190.232C249.122 190.232 248.378 190.082 247.717 189.782C247.066 189.472 246.513 189.054 246.059 188.527C245.604 188 245.253 187.386 245.005 186.683C244.767 185.981 244.648 185.232 244.648 184.436C244.648 183.651 244.767 182.907 245.005 182.205C245.253 181.502 245.604 180.888 246.059 180.361C246.513 179.834 247.066 179.416 247.717 179.106C248.378 178.796 249.122 178.641 249.948 178.641ZM256.763 181.957H258.436V183.135L258.467 183.166C258.736 182.721 259.087 182.375 259.521 182.127C259.955 181.869 260.435 181.74 260.962 181.74C261.84 181.74 262.532 181.967 263.038 182.422C263.545 182.876 263.798 183.558 263.798 184.467V189.968H262.031V184.932C262.01 184.302 261.876 183.847 261.628 183.568C261.38 183.279 260.993 183.135 260.466 183.135C260.166 183.135 259.898 183.191 259.66 183.305C259.423 183.408 259.221 183.558 259.056 183.754C258.891 183.94 258.762 184.162 258.669 184.421C258.576 184.679 258.529 184.953 258.529 185.242V189.968H256.763V181.957ZM271.492 186.28C271.492 186.704 271.564 187.065 271.709 187.365C271.854 187.665 272.055 187.912 272.313 188.109C272.571 188.295 272.866 188.434 273.196 188.527C273.537 188.61 273.904 188.651 274.297 188.651C274.72 188.651 275.082 188.605 275.381 188.512C275.681 188.408 275.924 188.279 276.11 188.124C276.296 187.969 276.43 187.794 276.513 187.597C276.595 187.391 276.637 187.184 276.637 186.978C276.637 186.554 276.538 186.244 276.342 186.048C276.156 185.841 275.95 185.697 275.722 185.614C275.33 185.469 274.87 185.335 274.343 185.211C273.827 185.077 273.186 184.906 272.422 184.7C271.946 184.576 271.549 184.416 271.229 184.219C270.919 184.013 270.671 183.785 270.485 183.537C270.299 183.29 270.164 183.026 270.082 182.747C270.01 182.468 269.973 182.184 269.973 181.895C269.973 181.337 270.087 180.857 270.314 180.454C270.552 180.041 270.862 179.7 271.244 179.431C271.626 179.162 272.06 178.966 272.546 178.842C273.031 178.708 273.522 178.641 274.018 178.641C274.596 178.641 275.139 178.718 275.645 178.873C276.161 179.018 276.611 179.24 276.993 179.54C277.386 179.839 277.695 180.211 277.923 180.655C278.15 181.089 278.264 181.595 278.264 182.174H276.327C276.275 181.461 276.032 180.96 275.598 180.671C275.164 180.371 274.612 180.221 273.94 180.221C273.713 180.221 273.481 180.247 273.243 180.299C273.005 180.34 272.788 180.418 272.592 180.531C272.396 180.635 272.231 180.779 272.096 180.965C271.972 181.151 271.91 181.384 271.91 181.662C271.91 182.055 272.029 182.365 272.267 182.592C272.515 182.809 272.835 182.974 273.227 183.088C273.269 183.098 273.429 183.145 273.708 183.228C273.997 183.3 274.317 183.383 274.669 183.475C275.02 183.568 275.361 183.661 275.691 183.754C276.032 183.837 276.275 183.899 276.42 183.94C276.781 184.054 277.096 184.209 277.365 184.405C277.633 184.602 277.856 184.829 278.031 185.087C278.217 185.335 278.351 185.604 278.434 185.893C278.527 186.182 278.574 186.471 278.574 186.761C278.574 187.38 278.444 187.912 278.186 188.357C277.938 188.791 277.608 189.147 277.194 189.426C276.781 189.705 276.311 189.906 275.784 190.03C275.257 190.165 274.72 190.232 274.173 190.232C273.543 190.232 272.949 190.154 272.391 189.999C271.833 189.844 271.347 189.607 270.934 189.286C270.521 188.966 270.19 188.558 269.942 188.062C269.694 187.556 269.565 186.962 269.555 186.28H271.492ZM279.216 181.957H280.548V179.555H282.315V181.957H283.911V183.274H282.315V187.551C282.315 187.737 282.32 187.897 282.33 188.031C282.351 188.166 282.387 188.279 282.439 188.372C282.501 188.465 282.589 188.537 282.702 188.589C282.816 188.63 282.971 188.651 283.167 188.651C283.291 188.651 283.415 188.651 283.539 188.651C283.663 188.641 283.787 188.62 283.911 188.589V189.953C283.715 189.973 283.524 189.994 283.338 190.015C283.152 190.035 282.96 190.046 282.764 190.046C282.299 190.046 281.922 190.004 281.633 189.922C281.354 189.829 281.132 189.7 280.967 189.534C280.812 189.359 280.703 189.142 280.641 188.884C280.59 188.625 280.559 188.331 280.548 188V183.274H279.216V181.957ZM285.228 178.904H286.995V185.196L290.187 181.957H292.356L289.288 184.901L292.651 189.968H290.497L288.048 186.079L286.995 187.102V189.968H285.228V178.904ZM293.505 181.957H295.163V183.506H295.194C295.245 183.29 295.344 183.078 295.488 182.871C295.643 182.665 295.824 182.479 296.03 182.313C296.247 182.138 296.485 181.998 296.743 181.895C297.002 181.792 297.265 181.74 297.534 181.74C297.74 181.74 297.88 181.745 297.952 181.755C298.035 181.766 298.117 181.776 298.2 181.786V183.491C298.076 183.47 297.947 183.455 297.813 183.445C297.689 183.424 297.565 183.414 297.441 183.414C297.141 183.414 296.857 183.475 296.588 183.599C296.33 183.713 296.103 183.889 295.907 184.126C295.71 184.354 295.555 184.638 295.442 184.979C295.328 185.32 295.271 185.712 295.271 186.156V189.968H293.505V181.957Z" fill="white"/>
<path d="M244.705 215.446H247.075C247.075 215.121 247.105 214.796 247.163 214.47C247.232 214.133 247.343 213.831 247.494 213.564C247.645 213.285 247.842 213.064 248.087 212.901C248.342 212.727 248.65 212.64 249.01 212.64C249.545 212.64 249.981 212.808 250.318 213.145C250.667 213.471 250.841 213.93 250.841 214.522C250.841 214.894 250.754 215.226 250.579 215.516C250.417 215.807 250.208 216.068 249.952 216.301C249.708 216.533 249.435 216.748 249.133 216.946C248.83 217.132 248.546 217.318 248.278 217.503C247.755 217.864 247.256 218.218 246.779 218.567C246.314 218.916 245.907 219.299 245.559 219.717C245.21 220.124 244.931 220.589 244.722 221.112C244.524 221.635 244.426 222.251 244.426 222.96H253.386V220.833H247.616C247.918 220.415 248.267 220.049 248.662 219.735C249.057 219.421 249.464 219.131 249.882 218.863C250.301 218.584 250.713 218.305 251.12 218.026C251.538 217.748 251.91 217.44 252.236 217.103C252.561 216.754 252.822 216.359 253.02 215.917C253.218 215.475 253.316 214.947 253.316 214.331C253.316 213.738 253.2 213.203 252.968 212.727C252.747 212.25 252.445 211.849 252.061 211.524C251.678 211.199 251.23 210.949 250.719 210.774C250.219 210.6 249.69 210.513 249.133 210.513C248.4 210.513 247.75 210.641 247.18 210.896C246.622 211.14 246.157 211.489 245.785 211.942C245.414 212.384 245.135 212.907 244.949 213.511C244.763 214.104 244.681 214.749 244.705 215.446ZM257.721 215.69V217.434C258.023 217.434 258.337 217.445 258.662 217.469C258.999 217.48 259.307 217.544 259.586 217.66C259.865 217.765 260.092 217.939 260.266 218.183C260.452 218.427 260.545 218.782 260.545 219.247C260.545 219.839 260.353 220.31 259.97 220.659C259.586 220.996 259.116 221.164 258.558 221.164C258.198 221.164 257.884 221.1 257.616 220.973C257.361 220.845 257.146 220.676 256.971 220.467C256.797 220.246 256.663 219.991 256.57 219.7C256.478 219.398 256.425 219.084 256.414 218.759H254.06C254.049 219.468 254.147 220.095 254.357 220.641C254.577 221.188 254.885 221.652 255.28 222.036C255.676 222.408 256.152 222.693 256.71 222.89C257.279 223.088 257.907 223.187 258.593 223.187C259.185 223.187 259.755 223.099 260.301 222.925C260.847 222.751 261.33 222.495 261.748 222.158C262.166 221.821 262.498 221.403 262.742 220.903C262.997 220.403 263.125 219.834 263.125 219.194C263.125 218.497 262.933 217.899 262.55 217.399C262.166 216.899 261.638 216.574 260.964 216.423V216.388C261.533 216.225 261.957 215.917 262.236 215.464C262.527 215.011 262.672 214.488 262.672 213.895C262.672 213.349 262.55 212.866 262.306 212.448C262.062 212.03 261.742 211.675 261.347 211.385C260.964 211.094 260.528 210.879 260.04 210.74C259.552 210.588 259.063 210.513 258.575 210.513C257.948 210.513 257.378 210.618 256.867 210.827C256.355 211.024 255.914 211.309 255.542 211.681C255.182 212.053 254.897 212.5 254.688 213.023C254.49 213.535 254.38 214.104 254.357 214.732H256.71C256.698 214.104 256.849 213.587 257.163 213.18C257.489 212.762 257.965 212.553 258.593 212.553C259.046 212.553 259.447 212.692 259.796 212.971C260.144 213.25 260.319 213.651 260.319 214.174C260.319 214.522 260.231 214.801 260.057 215.011C259.894 215.22 259.679 215.382 259.412 215.499C259.156 215.603 258.877 215.667 258.575 215.69C258.273 215.714 257.988 215.714 257.721 215.69Z" fill="white"/>
<path d="M269.744 217.349C269.775 216.833 269.904 216.404 270.131 216.063C270.358 215.722 270.648 215.449 270.999 215.242C271.35 215.035 271.743 214.891 272.177 214.808C272.621 214.715 273.065 214.669 273.509 214.669C273.912 214.669 274.32 214.7 274.733 214.762C275.147 214.813 275.524 214.922 275.865 215.087C276.206 215.252 276.484 215.485 276.701 215.784C276.918 216.074 277.027 216.461 277.027 216.947V221.115C277.027 221.477 277.048 221.823 277.089 222.153C277.13 222.484 277.202 222.732 277.306 222.897H275.074C275.033 222.773 274.997 222.649 274.966 222.525C274.945 222.391 274.93 222.256 274.919 222.122C274.568 222.484 274.155 222.737 273.68 222.881C273.205 223.026 272.719 223.098 272.223 223.098C271.841 223.098 271.485 223.052 271.154 222.959C270.823 222.866 270.534 222.721 270.286 222.525C270.038 222.329 269.842 222.081 269.697 221.781C269.563 221.482 269.496 221.125 269.496 220.712C269.496 220.258 269.573 219.886 269.728 219.596C269.894 219.297 270.1 219.059 270.348 218.884C270.606 218.708 270.896 218.579 271.216 218.496C271.546 218.403 271.877 218.331 272.208 218.279C272.538 218.228 272.864 218.186 273.184 218.155C273.504 218.124 273.788 218.078 274.036 218.016C274.284 217.954 274.48 217.866 274.625 217.752C274.77 217.628 274.837 217.453 274.826 217.225C274.826 216.988 274.785 216.802 274.702 216.668C274.63 216.523 274.527 216.415 274.393 216.342C274.269 216.26 274.119 216.208 273.943 216.187C273.778 216.156 273.597 216.141 273.401 216.141C272.967 216.141 272.626 216.234 272.378 216.42C272.13 216.606 271.986 216.916 271.944 217.349H269.744ZM274.826 218.977C274.733 219.059 274.615 219.126 274.47 219.178C274.336 219.219 274.186 219.255 274.021 219.286C273.866 219.317 273.7 219.343 273.525 219.364C273.349 219.385 273.174 219.41 272.998 219.441C272.833 219.472 272.667 219.514 272.502 219.565C272.347 219.617 272.208 219.689 272.084 219.782C271.97 219.865 271.877 219.973 271.805 220.108C271.732 220.242 271.696 220.412 271.696 220.619C271.696 220.815 271.732 220.981 271.805 221.115C271.877 221.249 271.975 221.358 272.099 221.44C272.223 221.513 272.368 221.564 272.533 221.595C272.698 221.626 272.869 221.642 273.044 221.642C273.478 221.642 273.814 221.569 274.052 221.425C274.289 221.28 274.465 221.11 274.579 220.914C274.692 220.707 274.759 220.5 274.78 220.294C274.811 220.087 274.826 219.922 274.826 219.798V218.977ZM278.967 211.833V222.897H287.366V220.852H281.4V218.14H286.762V216.249H281.4V213.878H287.242V211.833H278.967ZM291.464 213.878V222.897H293.897V213.878H297.213V211.833H288.148V213.878H291.464ZM298.488 211.833V222.897H300.921V218.124H305.4V222.897H307.832V211.833H305.4V216.079H300.921V211.833H298.488Z" fill="white"/>
<rect x="319.484" y="204.507" width="57.141" height="24.2123" rx="5.3267" stroke="white" stroke-width="0.968491"/>
<path d="M335.753 211.875C336.984 211.875 337.94 212.199 338.62 212.848C339.299 213.497 339.677 214.234 339.752 215.059H338.467C338.322 214.433 338.03 213.936 337.593 213.57C337.161 213.203 336.552 213.02 335.766 213.02C334.808 213.02 334.034 213.358 333.442 214.033C332.855 214.704 332.562 215.735 332.562 217.125C332.562 218.264 332.827 219.188 333.356 219.899C333.89 220.605 334.685 220.958 335.74 220.958C336.711 220.958 337.45 220.585 337.958 219.839C338.227 219.447 338.428 218.93 338.56 218.29H339.844C339.73 219.314 339.35 220.173 338.706 220.866C337.933 221.7 336.892 222.117 335.581 222.117C334.451 222.117 333.502 221.775 332.734 221.091C331.723 220.186 331.218 218.789 331.218 216.9C331.218 215.465 331.597 214.289 332.357 213.371C333.177 212.374 334.31 211.875 335.753 211.875ZM341.327 212.14H342.519V221.865H341.327V212.14ZM345.227 219.978C345.227 220.323 345.353 220.594 345.604 220.793C345.856 220.991 346.154 221.091 346.498 221.091C346.917 221.091 347.323 220.994 347.716 220.799C348.378 220.477 348.709 219.95 348.709 219.217V218.257C348.564 218.35 348.376 218.427 348.147 218.489C347.917 218.551 347.692 218.595 347.471 218.621L346.75 218.714C346.317 218.771 345.993 218.862 345.776 218.985C345.41 219.193 345.227 219.524 345.227 219.978ZM348.113 217.569C348.387 217.533 348.57 217.418 348.663 217.224C348.716 217.118 348.742 216.966 348.742 216.767C348.742 216.361 348.597 216.068 348.305 215.887C348.019 215.702 347.606 215.609 347.067 215.609C346.445 215.609 346.004 215.777 345.743 216.112C345.598 216.297 345.503 216.573 345.459 216.94H344.346C344.368 216.066 344.651 215.459 345.194 215.119C345.741 214.775 346.374 214.603 347.094 214.603C347.928 214.603 348.606 214.761 349.126 215.079C349.643 215.397 349.901 215.891 349.901 216.562V220.647C349.901 220.771 349.925 220.87 349.974 220.945C350.027 221.02 350.135 221.058 350.298 221.058C350.351 221.058 350.411 221.055 350.477 221.051C350.543 221.042 350.614 221.031 350.689 221.018V221.898C350.503 221.951 350.362 221.984 350.265 221.998C350.168 222.011 350.036 222.018 349.868 222.018C349.457 222.018 349.159 221.872 348.974 221.581C348.877 221.426 348.809 221.208 348.769 220.925C348.526 221.243 348.177 221.519 347.723 221.753C347.268 221.987 346.767 222.104 346.22 222.104C345.562 222.104 345.024 221.905 344.605 221.508C344.19 221.106 343.982 220.605 343.982 220.005C343.982 219.347 344.187 218.838 344.598 218.476C345.008 218.114 345.547 217.891 346.213 217.807L348.113 217.569ZM351.861 214.808H353.072V221.865H351.861V214.808ZM351.861 212.14H353.072V213.49H351.861V212.14ZM354.88 214.775H356.058V215.781C356.341 215.432 356.597 215.179 356.826 215.02C357.219 214.75 357.665 214.616 358.163 214.616C358.728 214.616 359.183 214.755 359.527 215.033C359.721 215.192 359.898 215.426 360.057 215.735C360.322 215.355 360.633 215.075 360.99 214.894C361.348 214.708 361.75 214.616 362.195 214.616C363.149 214.616 363.797 214.96 364.142 215.649C364.327 216.019 364.42 216.518 364.42 217.145V221.865H363.182V216.94C363.182 216.467 363.063 216.143 362.824 215.966C362.59 215.79 362.303 215.702 361.964 215.702C361.496 215.702 361.092 215.858 360.752 216.172C360.417 216.485 360.249 217.008 360.249 217.741V221.865H359.037V217.238C359.037 216.756 358.98 216.406 358.865 216.185C358.684 215.854 358.347 215.688 357.852 215.688C357.402 215.688 356.992 215.863 356.621 216.211C356.254 216.56 356.071 217.191 356.071 218.105V221.865H354.88V214.775Z" fill="white"/>
<line opacity="0.2" x1="422.746" y1="174.968" x2="422.746" y2="235.983" stroke="white" stroke-width="0.968491"/>
<circle cx="426.136" cy="48.4245" r="21.3068" fill="#006DFF"/>
<path d="M425.381 40.1379H427.641V56.7099H425.381V40.1379Z" fill="white"/>
<path d="M417.849 49.9304L417.849 47.6706L434.421 47.6706L434.421 49.9304L417.849 49.9304Z" fill="white"/>
<path d="M461.513 51.0201C461.513 51.4437 461.585 51.8052 461.73 52.1048C461.874 52.4044 462.076 52.6523 462.334 52.8486C462.592 53.0346 462.887 53.174 463.217 53.267C463.558 53.3497 463.925 53.391 464.318 53.391C464.741 53.391 465.103 53.3445 465.402 53.2515C465.702 53.1482 465.945 53.0191 466.131 52.8641C466.317 52.7092 466.451 52.5335 466.534 52.3373C466.616 52.1307 466.658 51.924 466.658 51.7174C466.658 51.2939 466.559 50.984 466.363 50.7877C466.177 50.5811 465.971 50.4364 465.743 50.3538C465.351 50.2092 464.891 50.0749 464.364 49.9509C463.848 49.8166 463.207 49.6462 462.443 49.4395C461.967 49.3156 461.57 49.1554 461.249 48.9592C460.94 48.7526 460.692 48.5253 460.506 48.2774C460.32 48.0294 460.185 47.766 460.103 47.4871C460.03 47.2081 459.994 46.924 459.994 46.6348C459.994 46.0769 460.108 45.5966 460.335 45.1937C460.573 44.7805 460.883 44.4395 461.265 44.1709C461.647 43.9024 462.081 43.7061 462.567 43.5821C463.052 43.4478 463.543 43.3807 464.039 43.3807C464.617 43.3807 465.16 43.4581 465.666 43.6131C466.182 43.7577 466.632 43.9798 467.014 44.2794C467.407 44.579 467.716 44.9509 467.944 45.3951C468.171 45.829 468.285 46.3352 468.285 46.9137H466.348C466.296 46.2009 466.053 45.6999 465.619 45.4106C465.185 45.111 464.633 44.9612 463.961 44.9612C463.734 44.9612 463.502 44.9871 463.264 45.0387C463.026 45.08 462.809 45.1575 462.613 45.2712C462.417 45.3745 462.252 45.5191 462.117 45.705C461.993 45.891 461.931 46.1234 461.931 46.4024C461.931 46.7949 462.05 47.1048 462.288 47.3321C462.536 47.549 462.856 47.7143 463.248 47.828C463.29 47.8383 463.45 47.8848 463.729 47.9674C464.018 48.0397 464.338 48.1224 464.69 48.2154C465.041 48.3083 465.382 48.4013 465.712 48.4943C466.053 48.5769 466.296 48.6389 466.441 48.6802C466.802 48.7939 467.117 48.9488 467.386 49.1451C467.654 49.3414 467.877 49.5687 468.052 49.8269C468.238 50.0749 468.372 50.3435 468.455 50.6327C468.548 50.922 468.595 51.2112 468.595 51.5005C468.595 52.1203 468.465 52.6523 468.207 53.0966C467.959 53.5304 467.629 53.8868 467.215 54.1658C466.802 54.4447 466.332 54.6461 465.805 54.7701C465.278 54.9044 464.741 54.9716 464.194 54.9716C463.564 54.9716 462.97 54.8941 462.412 54.7391C461.854 54.5842 461.368 54.3466 460.955 54.0263C460.542 53.7061 460.211 53.298 459.963 52.8021C459.715 52.2959 459.586 51.7019 459.576 51.0201H461.513ZM469.237 46.6968H470.569V44.2949H472.336V46.6968H473.932V48.0139H472.336V52.2908C472.336 52.4767 472.341 52.6369 472.351 52.7711C472.372 52.9054 472.408 53.0191 472.46 53.1121C472.522 53.205 472.61 53.2773 472.723 53.329C472.837 53.3703 472.992 53.391 473.188 53.391C473.312 53.391 473.436 53.391 473.56 53.391C473.684 53.3807 473.808 53.36 473.932 53.329V54.6926C473.736 54.7133 473.544 54.734 473.359 54.7546C473.173 54.7753 472.981 54.7856 472.785 54.7856C472.32 54.7856 471.943 54.7443 471.654 54.6616C471.375 54.5687 471.153 54.4395 470.988 54.2742C470.833 54.0986 470.724 53.8817 470.662 53.6234C470.611 53.3652 470.58 53.0707 470.569 52.7402V48.0139H469.237V46.6968ZM481.912 52.9261C481.912 53.143 481.938 53.298 481.99 53.391C482.052 53.484 482.165 53.5304 482.331 53.5304C482.382 53.5304 482.444 53.5304 482.517 53.5304C482.589 53.5304 482.672 53.5201 482.765 53.4995V54.7236C482.703 54.7443 482.62 54.7649 482.517 54.7856C482.424 54.8166 482.326 54.8424 482.222 54.8631C482.119 54.8837 482.016 54.8992 481.912 54.9096C481.809 54.9199 481.721 54.9251 481.649 54.9251C481.287 54.9251 480.988 54.8528 480.75 54.7081C480.513 54.5635 480.358 54.3104 480.285 53.9488C479.934 54.2897 479.5 54.5377 478.984 54.6926C478.477 54.8476 477.987 54.9251 477.512 54.9251C477.15 54.9251 476.804 54.8734 476.473 54.7701C476.143 54.6771 475.848 54.5377 475.59 54.3517C475.342 54.1554 475.141 53.9127 474.986 53.6234C474.841 53.3238 474.769 52.9778 474.769 52.5852C474.769 52.0893 474.857 51.6864 475.032 51.3765C475.218 51.0666 475.456 50.8238 475.745 50.6482C476.045 50.4726 476.375 50.3486 476.737 50.2763C477.109 50.1937 477.481 50.1317 477.852 50.0904C478.173 50.0284 478.477 49.9871 478.767 49.9664C479.056 49.9354 479.309 49.8889 479.526 49.8269C479.753 49.765 479.929 49.672 480.053 49.548C480.187 49.4137 480.254 49.2174 480.254 48.9592C480.254 48.7319 480.197 48.5459 480.084 48.4013C479.981 48.2567 479.846 48.1482 479.681 48.0759C479.526 47.9933 479.35 47.9416 479.154 47.9209C478.958 47.89 478.772 47.8745 478.596 47.8745C478.1 47.8745 477.692 47.9778 477.372 48.1844C477.052 48.391 476.871 48.7112 476.83 49.1451H475.063C475.094 48.6286 475.218 48.1999 475.435 47.859C475.652 47.5181 475.926 47.2443 476.256 47.0377C476.597 46.8311 476.98 46.6864 477.403 46.6038C477.827 46.5212 478.261 46.4798 478.705 46.4798C479.097 46.4798 479.485 46.5212 479.867 46.6038C480.249 46.6864 480.59 46.8207 480.89 47.0067C481.2 47.1926 481.447 47.4354 481.633 47.735C481.819 48.0243 481.912 48.3807 481.912 48.8042V52.9261ZM480.146 50.6947C479.877 50.8703 479.547 50.9788 479.154 51.0201C478.762 51.0511 478.369 51.1028 477.976 51.1751C477.79 51.2061 477.61 51.2526 477.434 51.3145C477.258 51.3662 477.103 51.4437 476.969 51.547C476.835 51.64 476.726 51.7691 476.644 51.9344C476.571 52.0893 476.535 52.2804 476.535 52.5077C476.535 52.704 476.592 52.8693 476.706 53.0036C476.819 53.1379 476.954 53.2464 477.109 53.329C477.274 53.4013 477.45 53.453 477.636 53.484C477.832 53.5149 478.007 53.5304 478.162 53.5304C478.359 53.5304 478.57 53.5046 478.798 53.453C479.025 53.4013 479.237 53.3135 479.433 53.1895C479.64 53.0656 479.81 52.9106 479.944 52.7247C480.079 52.5284 480.146 52.2908 480.146 52.0119V50.6947ZM483.86 43.6441H485.626V49.9354L488.818 46.6968H490.988L487.92 49.641L491.282 54.7081H489.128L486.68 50.8187L485.626 51.8414V54.7081H483.86V43.6441ZM497.637 49.9974C497.616 49.7185 497.555 49.4499 497.451 49.1916C497.358 48.9333 497.224 48.7112 497.048 48.5253C496.883 48.329 496.676 48.174 496.428 48.0604C496.191 47.9364 495.922 47.8745 495.623 47.8745C495.313 47.8745 495.029 47.9313 494.77 48.0449C494.522 48.1482 494.306 48.298 494.12 48.4943C493.944 48.6802 493.799 48.9023 493.686 49.1606C493.582 49.4189 493.526 49.6978 493.515 49.9974H497.637ZM493.515 51.1596C493.515 51.4695 493.557 51.7691 493.639 52.0583C493.732 52.3476 493.866 52.6007 494.042 52.8176C494.218 53.0346 494.44 53.2102 494.708 53.3445C494.977 53.4685 495.297 53.5304 495.669 53.5304C496.186 53.5304 496.599 53.422 496.909 53.205C497.229 52.9778 497.467 52.642 497.622 52.1978H499.295C499.202 52.6317 499.042 53.0191 498.815 53.36C498.588 53.7009 498.314 53.9902 497.994 54.2278C497.673 54.455 497.312 54.6255 496.909 54.7391C496.516 54.8631 496.103 54.9251 495.669 54.9251C495.039 54.9251 494.481 54.8218 493.996 54.6152C493.51 54.4085 493.097 54.1193 492.756 53.7474C492.425 53.3755 492.172 52.9313 491.997 52.4147C491.831 51.8982 491.749 51.33 491.749 50.7102C491.749 50.142 491.837 49.6048 492.012 49.0986C492.198 48.5821 492.456 48.1327 492.787 47.7505C493.128 47.3579 493.536 47.048 494.011 46.8207C494.486 46.5935 495.024 46.4798 495.623 46.4798C496.253 46.4798 496.816 46.6141 497.312 46.8827C497.818 47.141 498.236 47.4871 498.567 47.9209C498.897 48.3548 499.135 48.8559 499.28 49.424C499.435 49.9819 499.476 50.5604 499.404 51.1596H493.515ZM505.059 46.6968H506.733V47.8125H506.779C506.914 47.6162 507.058 47.4354 507.213 47.2701C507.368 47.1048 507.539 46.9654 507.725 46.8517C507.921 46.7381 508.143 46.6503 508.391 46.5883C508.639 46.516 508.923 46.4798 509.243 46.4798C509.729 46.4798 510.178 46.5883 510.591 46.8052C511.015 47.0222 511.315 47.3579 511.49 47.8125C511.79 47.3993 512.136 47.0738 512.528 46.8362C512.921 46.5986 513.412 46.4798 514.001 46.4798C514.848 46.4798 515.504 46.6864 515.968 47.0997C516.444 47.5129 516.681 48.205 516.681 49.1761V54.7081H514.915V50.0284C514.915 49.7081 514.904 49.4189 514.884 49.1606C514.863 48.892 514.801 48.6647 514.698 48.4788C514.605 48.2825 514.46 48.1327 514.264 48.0294C514.068 47.9261 513.799 47.8745 513.458 47.8745C512.859 47.8745 512.425 48.0604 512.157 48.4323C511.888 48.8042 511.754 49.3311 511.754 50.0129V54.7081H509.987V49.5635C509.987 49.0057 509.884 48.5873 509.677 48.3083C509.481 48.0191 509.114 47.8745 508.577 47.8745C508.35 47.8745 508.128 47.9209 507.911 48.0139C507.704 48.1069 507.518 48.2412 507.353 48.4168C507.198 48.5924 507.069 48.8094 506.965 49.0676C506.872 49.3259 506.826 49.6203 506.826 49.9509V54.7081H505.059V46.6968ZM522.215 54.9251C521.575 54.9251 521.001 54.8218 520.495 54.6152C519.999 54.3982 519.576 54.1038 519.224 53.7319C518.884 53.36 518.62 52.9158 518.434 52.3992C518.259 51.8827 518.171 51.3145 518.171 50.6947C518.171 50.0852 518.259 49.5222 518.434 49.0057C518.62 48.4891 518.884 48.0449 519.224 47.673C519.576 47.3011 519.999 47.0119 520.495 46.8052C521.001 46.5883 521.575 46.4798 522.215 46.4798C522.856 46.4798 523.424 46.5883 523.92 46.8052C524.426 47.0119 524.849 47.3011 525.19 47.673C525.542 48.0449 525.805 48.4891 525.981 49.0057C526.167 49.5222 526.26 50.0852 526.26 50.6947C526.26 51.3145 526.167 51.8827 525.981 52.3992C525.805 52.9158 525.542 53.36 525.19 53.7319C524.849 54.1038 524.426 54.3982 523.92 54.6152C523.424 54.8218 522.856 54.9251 522.215 54.9251ZM522.215 53.5304C522.608 53.5304 522.949 53.4478 523.238 53.2825C523.527 53.1172 523.765 52.9003 523.951 52.6317C524.137 52.3631 524.271 52.0635 524.354 51.7329C524.447 51.392 524.493 51.0459 524.493 50.6947C524.493 50.3538 524.447 50.0129 524.354 49.672C524.271 49.3311 524.137 49.0315 523.951 48.7732C523.765 48.5046 523.527 48.2877 523.238 48.1224C522.949 47.9571 522.608 47.8745 522.215 47.8745C521.823 47.8745 521.482 47.9571 521.192 48.1224C520.903 48.2877 520.666 48.5046 520.48 48.7732C520.294 49.0315 520.154 49.3311 520.061 49.672C519.979 50.0129 519.937 50.3538 519.937 50.6947C519.937 51.0459 519.979 51.392 520.061 51.7329C520.154 52.0635 520.294 52.3631 520.48 52.6317C520.666 52.9003 520.903 53.1172 521.192 53.2825C521.482 53.4478 521.823 53.5304 522.215 53.5304ZM527.728 46.6968H529.386V48.2464H529.417C529.469 48.0294 529.567 47.8176 529.712 47.611C529.867 47.4044 530.047 47.2185 530.254 47.0532C530.471 46.8776 530.709 46.7381 530.967 46.6348C531.225 46.5315 531.488 46.4798 531.757 46.4798C531.964 46.4798 532.103 46.485 532.175 46.4953C532.258 46.5057 532.341 46.516 532.423 46.5263V48.2309C532.299 48.2102 532.17 48.1947 532.036 48.1844C531.912 48.1637 531.788 48.1534 531.664 48.1534C531.365 48.1534 531.08 48.2154 530.812 48.3393C530.554 48.453 530.326 48.6286 530.13 48.8662C529.934 49.0935 529.779 49.3776 529.665 49.7185C529.551 50.0594 529.495 50.4519 529.495 50.8961V54.7081H527.728V46.6968ZM538.405 49.9974C538.384 49.7185 538.322 49.4499 538.219 49.1916C538.126 48.9333 537.991 48.7112 537.816 48.5253C537.65 48.329 537.444 48.174 537.196 48.0604C536.958 47.9364 536.69 47.8745 536.39 47.8745C536.08 47.8745 535.796 47.9313 535.538 48.0449C535.29 48.1482 535.073 48.298 534.887 48.4943C534.711 48.6802 534.567 48.9023 534.453 49.1606C534.35 49.4189 534.293 49.6978 534.283 49.9974H538.405ZM534.283 51.1596C534.283 51.4695 534.324 51.7691 534.407 52.0583C534.5 52.3476 534.634 52.6007 534.81 52.8176C534.985 53.0346 535.207 53.2102 535.476 53.3445C535.744 53.4685 536.065 53.5304 536.437 53.5304C536.953 53.5304 537.366 53.422 537.676 53.205C537.996 52.9778 538.234 52.642 538.389 52.1978H540.063C539.97 52.6317 539.81 53.0191 539.582 53.36C539.355 53.7009 539.081 53.9902 538.761 54.2278C538.441 54.455 538.079 54.6255 537.676 54.7391C537.284 54.8631 536.87 54.9251 536.437 54.9251C535.806 54.9251 535.249 54.8218 534.763 54.6152C534.277 54.4085 533.864 54.1193 533.523 53.7474C533.193 53.3755 532.94 52.9313 532.764 52.4147C532.599 51.8982 532.516 51.33 532.516 50.7102C532.516 50.142 532.604 49.6048 532.78 49.0986C532.966 48.5821 533.224 48.1327 533.554 47.7505C533.895 47.3579 534.303 47.048 534.779 46.8207C535.254 46.5935 535.791 46.4798 536.39 46.4798C537.02 46.4798 537.583 46.6141 538.079 46.8827C538.585 47.141 539.004 47.4871 539.334 47.9209C539.665 48.3548 539.902 48.8559 540.047 49.424C540.202 49.9819 540.243 50.5604 540.171 51.1596H534.283Z" fill="white"/>
<defs>
<filter id="filter0_i" x="0" y="0" width="584" height="274" filterUnits="userSpaceOnUse" color-interpolation-filters="sRGB">
<feFlood flood-opacity="0" result="BackgroundImageFix"/>
<feBlend mode="normal" in="SourceGraphic" in2="BackgroundImageFix" result="shape"/>
<feColorMatrix in="SourceAlpha" type="matrix" values="0 0 0 0 0 0 0 0 0 0 0 0 0 0 0 0 0 0 127 0" result="hardAlpha"/>
<feOffset dy="2"/>
<feGaussianBlur stdDeviation="1"/>
<feComposite in2="hardAlpha" operator="arithmetic" k2="-1" k3="1"/>
<feColorMatrix type="matrix" values="0 0 0 0 1 0 0 0 0 1 0 0 0 0 1 0 0 0 0.25 0"/>
<feBlend mode="normal" in2="shape" result="effect1_innerShadow"/>
</filter>
<linearGradient id="paint0_linear" x1="583.515" y1="11.0602" x2="36.9377" y2="393.291" gradientUnits="userSpaceOnUse">
<stop stop-color="white"/>
<stop offset="0.0227423" stop-color="#F7F5FE" stop-opacity="0.505379"/>
<stop offset="0.131051" stop-color="#D1C8FB" stop-opacity="0.15"/>
<stop offset="0.493144" stop-color="#7B62F3" stop-opacity="0.06"/>
<stop offset="0.864642" stop-color="#D1C8FB" stop-opacity="0.15"/>
<stop offset="0.965923" stop-color="#3657EC" stop-opacity="0.63"/>
<stop offset="1" stop-color="#7991FF"/>
</linearGradient>
<linearGradient id="paint1_linear" x1="62.7096" y1="38.7393" x2="55.8091" y2="56.1721" gradientUnits="userSpaceOnUse">
<stop stop-color="#66A6ED"/>
<stop offset="1" stop-color="#A364ED"/>
</linearGradient>
<linearGradient id="paint2_linear" x1="57.4547" y1="54.4799" x2="62.302" y2="42.7208" gradientUnits="userSpaceOnUse">
<stop stop-color="#23004F"/>
<stop offset="1" stop-color="#4D01AA"/>
</linearGradient>
<clipPath id="clip0">
<rect width="17.4328" height="17.4328" fill="white" transform="translate(50.3613 38.7393)"/>
</clipPath>
</defs>
</svg>
