<svg width="584" height="272" viewBox="0 0 584 272" fill="none" xmlns="http://www.w3.org/2000/svg">
  <g filter="url(#filter0_i)">
    <path d="M0 48C0 21.4903 21.4903 0 48 0H536C562.51 0 584 21.4903 584 48V224C584 250.51 562.51 272 536 272H48C21.4903 272 0 250.51 0 224V48Z" fill="url(#paint0_linear)" fill-opacity="0.11"/>
  </g>
  <path d="M52.2247 202.294H59.0739C59.0739 201.354 59.1578 200.414 59.3257 199.474C59.5271 198.5 59.8461 197.627 60.2825 196.855C60.719 196.049 61.2898 195.411 61.9948 194.941C62.7335 194.438 63.6232 194.186 64.664 194.186C66.2084 194.186 67.4675 194.673 68.4411 195.646C69.4483 196.587 69.952 197.913 69.952 199.625C69.952 200.699 69.7002 201.656 69.1965 202.496C68.7265 203.335 68.1222 204.09 67.3835 204.762C66.6785 205.433 65.8895 206.055 65.0165 206.625C64.1436 207.162 63.321 207.7 62.5488 208.237C61.038 209.278 59.5943 210.302 58.2177 211.309C56.8748 212.316 55.6997 213.424 54.6924 214.633C53.6852 215.808 52.8794 217.151 52.2751 218.662C51.7043 220.173 51.4189 221.952 51.4189 224H77.3047V217.856H60.6351C61.508 216.647 62.5152 215.59 63.6568 214.683C64.7983 213.777 65.9734 212.937 67.1821 212.165C68.3908 211.359 69.5826 210.553 70.7577 209.748C71.9664 208.942 73.0408 208.052 73.9809 207.079C74.921 206.071 75.6764 204.93 76.2472 203.654C76.8179 202.378 77.1033 200.85 77.1033 199.071C77.1033 197.359 76.7676 195.814 76.0961 194.438C75.4582 193.061 74.5852 191.903 73.4773 190.963C72.3693 190.023 71.0767 189.301 69.5994 188.797C68.1557 188.294 66.6281 188.042 65.0165 188.042C62.9013 188.042 61.0212 188.411 59.376 189.15C57.7645 189.855 56.4215 190.862 55.3471 192.172C54.2727 193.447 53.467 194.958 52.9298 196.704C52.3926 198.416 52.1576 200.28 52.2247 202.294ZM89.8278 202.999V208.035C90.7008 208.035 91.6073 208.069 92.5474 208.136C93.521 208.17 94.4107 208.354 95.2165 208.69C96.0223 208.992 96.677 209.496 97.1806 210.201C97.7178 210.906 97.9864 211.93 97.9864 213.273C97.9864 214.985 97.4324 216.345 96.3245 217.352C95.2165 218.326 93.8568 218.813 92.2452 218.813C91.2044 218.813 90.2979 218.628 89.5257 218.259C88.787 217.889 88.1659 217.403 87.6623 216.798C87.1587 216.16 86.7726 215.422 86.504 214.582C86.2354 213.709 86.0843 212.803 86.0507 211.863H79.2519C79.2184 213.911 79.5037 215.724 80.1081 217.302C80.746 218.88 81.6357 220.223 82.7772 221.331C83.9188 222.405 85.2953 223.228 86.9069 223.799C88.552 224.369 90.365 224.655 92.3459 224.655C94.0582 224.655 95.7034 224.403 97.2814 223.899C98.8593 223.396 100.253 222.657 101.461 221.683C102.67 220.71 103.627 219.501 104.332 218.057C105.071 216.614 105.44 214.968 105.44 213.122C105.44 211.107 104.886 209.378 103.778 207.935C102.67 206.491 101.142 205.551 99.1951 205.114V205.014C100.84 204.544 102.066 203.654 102.871 202.345C103.711 201.035 104.131 199.524 104.131 197.812C104.131 196.234 103.778 194.841 103.073 193.632C102.368 192.423 101.445 191.399 100.303 190.56C99.1951 189.721 97.9361 189.099 96.5259 188.697C95.1158 188.26 93.7057 188.042 92.2956 188.042C90.4825 188.042 88.8374 188.344 87.3601 188.948C85.8829 189.519 84.607 190.342 83.5327 191.416C82.4919 192.49 81.6693 193.783 81.0649 195.294C80.4942 196.771 80.1752 198.416 80.1081 200.229H86.9069C86.8733 198.416 87.3098 196.922 88.2163 195.747C89.1564 194.539 90.5329 193.934 92.3459 193.934C93.6553 193.934 94.8136 194.337 95.8209 195.143C96.8281 195.949 97.3317 197.107 97.3317 198.618C97.3317 199.625 97.0799 200.431 96.5763 201.035C96.1063 201.639 95.4851 202.11 94.7129 202.445C93.9743 202.747 93.1685 202.932 92.2956 202.999C91.4226 203.066 90.6001 203.066 89.8278 202.999Z" fill="white"/>
  <path d="M87.0923 51.6377C87.0923 51.9089 87.1246 52.1026 87.1891 52.2188C87.2666 52.335 87.4087 52.3931 87.6153 52.3931C87.6798 52.3931 87.7573 52.3931 87.8477 52.3931C87.9381 52.3931 88.0414 52.3802 88.1576 52.3544V53.8846C88.0802 53.9104 87.9768 53.9363 87.8477 53.9621C87.7315 54.0008 87.6088 54.0331 87.4797 54.0589C87.3506 54.0848 87.2214 54.1041 87.0923 54.117C86.9632 54.13 86.8534 54.1364 86.763 54.1364C86.311 54.1364 85.9366 54.046 85.6396 53.8652C85.3425 53.6844 85.1489 53.3681 85.0585 52.9161C84.6194 53.3422 84.0771 53.6522 83.4314 53.8459C82.7986 54.0396 82.1853 54.1364 81.5913 54.1364C81.1393 54.1364 80.7067 54.0718 80.2935 53.9427C79.8803 53.8265 79.5122 53.6522 79.1894 53.4197C78.8795 53.1744 78.6277 52.8709 78.434 52.5093C78.2532 52.1349 78.1628 51.7023 78.1628 51.2116C78.1628 50.5917 78.2726 50.0881 78.4921 49.7007C78.7245 49.3133 79.0215 49.0099 79.3831 48.7903C79.7576 48.5708 80.1708 48.4159 80.6228 48.3255C81.0876 48.2222 81.5525 48.1447 82.0174 48.093C82.4177 48.0155 82.7986 47.9639 83.1602 47.9381C83.5218 47.8993 83.8382 47.8412 84.1093 47.7637C84.3934 47.6863 84.613 47.57 84.7679 47.4151C84.9358 47.2472 85.0197 47.0019 85.0197 46.679C85.0197 46.3949 84.9487 46.1625 84.8067 45.9817C84.6775 45.8009 84.5096 45.6653 84.303 45.575C84.1093 45.4716 83.8898 45.4071 83.6445 45.3813C83.3991 45.3425 83.1667 45.3231 82.9471 45.3231C82.3273 45.3231 81.8172 45.4523 81.4169 45.7105C81.0166 45.9688 80.7906 46.3691 80.739 46.9115H78.5308C78.5696 46.2658 78.7245 45.7299 78.9957 45.3038C79.2669 44.8776 79.6091 44.5354 80.0223 44.2772C80.4484 44.0189 80.9262 43.8381 81.4557 43.7348C81.9851 43.6315 82.5275 43.5799 83.0827 43.5799C83.5734 43.5799 84.0577 43.6315 84.5355 43.7348C85.0133 43.8381 85.4394 44.006 85.8139 44.2384C86.2013 44.4709 86.5112 44.7743 86.7436 45.1488C86.9761 45.5104 87.0923 45.9559 87.0923 46.4853V51.6377ZM84.8841 48.8485C84.5484 49.068 84.1352 49.2036 83.6445 49.2552C83.1538 49.294 82.6631 49.3585 82.1724 49.4489C81.9399 49.4877 81.7139 49.5458 81.4944 49.6232C81.2749 49.6878 81.0812 49.7847 80.9133 49.9138C80.7454 50.03 80.6099 50.1914 80.5066 50.398C80.4162 50.5917 80.371 50.8306 80.371 51.1147C80.371 51.3601 80.442 51.5667 80.584 51.7346C80.7261 51.9024 80.8939 52.038 81.0876 52.1413C81.2943 52.2317 81.5138 52.2963 81.7462 52.335C81.9916 52.3738 82.2111 52.3931 82.4048 52.3931C82.6501 52.3931 82.9149 52.3608 83.199 52.2963C83.483 52.2317 83.7478 52.122 83.9931 51.967C84.2514 51.812 84.4645 51.6183 84.6323 51.3859C84.8002 51.1405 84.8841 50.8435 84.8841 50.4949V48.8485ZM89.7782 40.0352H99.7343V42.1271H92.1994V45.7493H99.1725V47.725H92.1994V51.7733H99.8699V53.8652H89.7782V40.0352ZM100.662 40.0352H111.858V42.1271H107.461V53.8652H105.039V42.1271H100.662V40.0352ZM113.403 40.0352H115.824V45.5362H122.119V40.0352H124.54V53.8652H122.119V47.6282H115.824V53.8652H113.403V40.0352ZM133.89 47.202C133.799 46.5822 133.548 46.1173 133.134 45.8074C132.734 45.4846 132.224 45.3231 131.604 45.3231C131.32 45.3231 131.017 45.3748 130.694 45.4781C130.371 45.5685 130.074 45.7493 129.803 46.0205C129.532 46.2787 129.306 46.6467 129.125 47.1245C128.944 47.5894 128.854 48.2028 128.854 48.9647C128.854 49.3779 128.899 49.7911 128.989 50.2043C129.093 50.6176 129.247 50.9856 129.454 51.3084C129.674 51.6312 129.951 51.896 130.287 52.1026C130.623 52.2963 131.029 52.3931 131.507 52.3931C132.153 52.3931 132.682 52.193 133.096 51.7927C133.522 51.3924 133.786 50.8306 133.89 50.1075H136.098C135.891 51.4117 135.394 52.4125 134.606 53.1098C133.832 53.7942 132.799 54.1364 131.507 54.1364C130.72 54.1364 130.022 54.0073 129.415 53.749C128.821 53.4778 128.318 53.1163 127.904 52.6643C127.491 52.1994 127.175 51.6506 126.955 51.0179C126.749 50.3851 126.645 49.7007 126.645 48.9647C126.645 48.2157 126.749 47.5119 126.955 46.8534C127.162 46.1948 127.472 45.6266 127.885 45.1488C128.298 44.6581 128.808 44.2772 129.415 44.006C130.035 43.7219 130.758 43.5799 131.585 43.5799C132.166 43.5799 132.715 43.6573 133.231 43.8123C133.761 43.9543 134.226 44.1739 134.626 44.4709C135.039 44.7679 135.375 45.1424 135.633 45.5943C135.891 46.0463 136.046 46.5822 136.098 47.202H133.89ZM143.342 40.0352H145.55V45.1488H145.589C145.744 44.9035 145.931 44.6839 146.151 44.4902C146.37 44.2965 146.609 44.1351 146.867 44.006C147.138 43.864 147.416 43.7606 147.7 43.6961C147.997 43.6186 148.288 43.5799 148.572 43.5799C149.359 43.5799 150.044 43.7219 150.625 44.006C151.219 44.2772 151.71 44.6581 152.097 45.1488C152.484 45.6266 152.775 46.1883 152.969 46.834C153.162 47.4797 153.259 48.1705 153.259 48.9066C153.259 49.578 153.169 50.2302 152.988 50.8629C152.82 51.4957 152.556 52.0574 152.194 52.5481C151.845 53.0259 151.4 53.4133 150.857 53.7103C150.315 53.9944 149.676 54.1364 148.94 54.1364C148.604 54.1364 148.262 54.1106 147.913 54.0589C147.577 54.0202 147.255 53.9363 146.945 53.8071C146.635 53.678 146.351 53.5101 146.092 53.3035C145.847 53.0969 145.64 52.8257 145.473 52.49H145.434V53.8652H143.342V40.0352ZM151.051 48.8678C151.051 48.4159 150.993 47.9768 150.877 47.5507C150.761 47.1245 150.586 46.7501 150.354 46.4272C150.121 46.0915 149.831 45.8268 149.482 45.6331C149.134 45.4265 148.733 45.3231 148.281 45.3231C147.351 45.3231 146.648 45.646 146.17 46.2916C145.705 46.9373 145.473 47.796 145.473 48.8678C145.473 49.3714 145.531 49.8428 145.647 50.2818C145.776 50.708 145.963 51.076 146.209 51.3859C146.454 51.6958 146.745 51.9412 147.08 52.122C147.429 52.3027 147.829 52.3931 148.281 52.3931C148.785 52.3931 149.211 52.2898 149.56 52.0832C149.908 51.8766 150.192 51.6119 150.412 51.289C150.644 50.9533 150.806 50.5788 150.896 50.1656C150.999 49.7395 151.051 49.3069 151.051 48.8678ZM163.512 51.6377C163.512 51.9089 163.545 52.1026 163.609 52.2188C163.687 52.335 163.829 52.3931 164.035 52.3931C164.1 52.3931 164.177 52.3931 164.268 52.3931C164.358 52.3931 164.461 52.3802 164.578 52.3544V53.8846C164.5 53.9104 164.397 53.9363 164.268 53.9621C164.151 54.0008 164.029 54.0331 163.9 54.0589C163.771 54.0848 163.641 54.1041 163.512 54.117C163.383 54.13 163.273 54.1364 163.183 54.1364C162.731 54.1364 162.357 54.046 162.06 53.8652C161.763 53.6844 161.569 53.3681 161.478 52.9161C161.039 53.3422 160.497 53.6522 159.851 53.8459C159.219 54.0396 158.605 54.1364 158.011 54.1364C157.559 54.1364 157.127 54.0718 156.713 53.9427C156.3 53.8265 155.932 53.6522 155.609 53.4197C155.299 53.1744 155.048 52.8709 154.854 52.5093C154.673 52.1349 154.583 51.7023 154.583 51.2116C154.583 50.5917 154.693 50.0881 154.912 49.7007C155.145 49.3133 155.442 49.0099 155.803 48.7903C156.178 48.5708 156.591 48.4159 157.043 48.3255C157.508 48.2222 157.973 48.1447 158.437 48.093C158.838 48.0155 159.219 47.9639 159.58 47.9381C159.942 47.8993 160.258 47.8412 160.529 47.7637C160.813 47.6863 161.033 47.57 161.188 47.4151C161.356 47.2472 161.44 47.0019 161.44 46.679C161.44 46.3949 161.369 46.1625 161.227 45.9817C161.098 45.8009 160.93 45.6653 160.723 45.575C160.529 45.4716 160.31 45.4071 160.064 45.3813C159.819 45.3425 159.587 45.3231 159.367 45.3231C158.747 45.3231 158.237 45.4523 157.837 45.7105C157.437 45.9688 157.211 46.3691 157.159 46.9115H154.951C154.99 46.2658 155.145 45.7299 155.416 45.3038C155.687 44.8776 156.029 44.5354 156.442 44.2772C156.868 44.0189 157.346 43.8381 157.876 43.7348C158.405 43.6315 158.947 43.5799 159.503 43.5799C159.993 43.5799 160.478 43.6315 160.955 43.7348C161.433 43.8381 161.859 44.006 162.234 44.2384C162.621 44.4709 162.931 44.7743 163.164 45.1488C163.396 45.5104 163.512 45.9559 163.512 46.4853V51.6377ZM161.304 48.8485C160.968 49.068 160.555 49.2036 160.064 49.2552C159.574 49.294 159.083 49.3585 158.592 49.4489C158.36 49.4877 158.134 49.5458 157.914 49.6232C157.695 49.6878 157.501 49.7847 157.333 49.9138C157.165 50.03 157.03 50.1914 156.927 50.398C156.836 50.5917 156.791 50.8306 156.791 51.1147C156.791 51.3601 156.862 51.5667 157.004 51.7346C157.146 51.9024 157.314 52.038 157.508 52.1413C157.714 52.2317 157.934 52.2963 158.166 52.335C158.412 52.3738 158.631 52.3931 158.825 52.3931C159.07 52.3931 159.335 52.3608 159.619 52.2963C159.903 52.2317 160.168 52.122 160.413 51.967C160.671 51.812 160.884 51.6183 161.052 51.3859C161.22 51.1405 161.304 50.8435 161.304 50.4949V48.8485ZM165.946 40.0352H168.155V53.8652H165.946V40.0352ZM178.948 51.6377C178.948 51.9089 178.98 52.1026 179.044 52.2188C179.122 52.335 179.264 52.3931 179.471 52.3931C179.535 52.3931 179.613 52.3931 179.703 52.3931C179.793 52.3931 179.897 52.3802 180.013 52.3544V53.8846C179.935 53.9104 179.832 53.9363 179.703 53.9621C179.587 54.0008 179.464 54.0331 179.335 54.0589C179.206 54.0848 179.077 54.1041 178.948 54.117C178.818 54.13 178.709 54.1364 178.618 54.1364C178.166 54.1364 177.792 54.046 177.495 53.8652C177.198 53.6844 177.004 53.3681 176.914 52.9161C176.475 53.3422 175.932 53.6522 175.287 53.8459C174.654 54.0396 174.041 54.1364 173.447 54.1364C172.995 54.1364 172.562 54.0718 172.149 53.9427C171.736 53.8265 171.368 53.6522 171.045 53.4197C170.735 53.1744 170.483 52.8709 170.289 52.5093C170.109 52.1349 170.018 51.7023 170.018 51.2116C170.018 50.5917 170.128 50.0881 170.347 49.7007C170.58 49.3133 170.877 49.0099 171.238 48.7903C171.613 48.5708 172.026 48.4159 172.478 48.3255C172.943 48.2222 173.408 48.1447 173.873 48.093C174.273 48.0155 174.654 47.9639 175.016 47.9381C175.377 47.8993 175.693 47.8412 175.965 47.7637C176.249 47.6863 176.468 47.57 176.623 47.4151C176.791 47.2472 176.875 47.0019 176.875 46.679C176.875 46.3949 176.804 46.1625 176.662 45.9817C176.533 45.8009 176.365 45.6653 176.158 45.575C175.965 45.4716 175.745 45.4071 175.5 45.3813C175.254 45.3425 175.022 45.3231 174.802 45.3231C174.183 45.3231 173.673 45.4523 173.272 45.7105C172.872 45.9688 172.646 46.3691 172.594 46.9115H170.386C170.425 46.2658 170.58 45.7299 170.851 45.3038C171.122 44.8776 171.464 44.5354 171.878 44.2772C172.304 44.0189 172.782 43.8381 173.311 43.7348C173.84 43.6315 174.383 43.5799 174.938 43.5799C175.429 43.5799 175.913 43.6315 176.391 43.7348C176.869 43.8381 177.295 44.006 177.669 44.2384C178.057 44.4709 178.367 44.7743 178.599 45.1488C178.831 45.5104 178.948 45.9559 178.948 46.4853V51.6377ZM176.739 48.8485C176.404 49.068 175.99 49.2036 175.5 49.2552C175.009 49.294 174.518 49.3585 174.028 49.4489C173.795 49.4877 173.569 49.5458 173.35 49.6232C173.13 49.6878 172.936 49.7847 172.769 49.9138C172.601 50.03 172.465 50.1914 172.362 50.398C172.271 50.5917 172.226 50.8306 172.226 51.1147C172.226 51.3601 172.297 51.5667 172.439 51.7346C172.581 51.9024 172.749 52.038 172.943 52.1413C173.15 52.2317 173.369 52.2963 173.602 52.335C173.847 52.3738 174.066 52.3931 174.26 52.3931C174.505 52.3931 174.77 52.3608 175.054 52.2963C175.338 52.2317 175.603 52.122 175.848 51.967C176.107 51.812 176.32 51.6183 176.488 51.3859C176.656 51.1405 176.739 50.8435 176.739 50.4949V48.8485ZM181.324 43.851H183.416V45.3231L183.454 45.3619C183.79 44.8066 184.229 44.374 184.771 44.0641C185.314 43.7413 185.914 43.5799 186.573 43.5799C187.67 43.5799 188.536 43.864 189.168 44.4321C189.801 45.0003 190.117 45.8526 190.117 46.9889V53.8652H187.909V47.57C187.883 46.7823 187.716 46.2142 187.406 45.8655C187.096 45.5039 186.612 45.3231 185.953 45.3231C185.578 45.3231 185.243 45.3942 184.946 45.5362C184.649 45.6653 184.397 45.8526 184.19 46.0979C183.984 46.3304 183.822 46.608 183.706 46.9308C183.59 47.2537 183.532 47.5959 183.532 47.9574V53.8652H181.324V43.851ZM199.206 47.202C199.116 46.5822 198.864 46.1173 198.451 45.8074C198.05 45.4846 197.54 45.3231 196.921 45.3231C196.636 45.3231 196.333 45.3748 196.01 45.4781C195.687 45.5685 195.39 45.7493 195.119 46.0205C194.848 46.2787 194.622 46.6467 194.441 47.1245C194.26 47.5894 194.17 48.2028 194.17 48.9647C194.17 49.3779 194.215 49.7911 194.306 50.2043C194.409 50.6176 194.564 50.9856 194.77 51.3084C194.99 51.6312 195.268 51.896 195.603 52.1026C195.939 52.2963 196.346 52.3931 196.824 52.3931C197.469 52.3931 197.999 52.193 198.412 51.7927C198.838 51.3924 199.103 50.8306 199.206 50.1075H201.414C201.208 51.4117 200.711 52.4125 199.923 53.1098C199.148 53.7942 198.115 54.1364 196.824 54.1364C196.036 54.1364 195.339 54.0073 194.732 53.749C194.138 53.4778 193.634 53.1163 193.221 52.6643C192.808 52.1994 192.491 51.6506 192.272 51.0179C192.065 50.3851 191.962 49.7007 191.962 48.9647C191.962 48.2157 192.065 47.5119 192.272 46.8534C192.478 46.1948 192.788 45.6266 193.202 45.1488C193.615 44.6581 194.125 44.2772 194.732 44.006C195.352 43.7219 196.075 43.5799 196.901 43.5799C197.482 43.5799 198.031 43.6573 198.548 43.8123C199.077 43.9543 199.542 44.1739 199.942 44.4709C200.355 44.7679 200.691 45.1424 200.949 45.5943C201.208 46.0463 201.363 46.5822 201.414 47.202H199.206ZM210.085 47.9768C210.06 47.6282 209.982 47.2924 209.853 46.9696C209.737 46.6467 209.569 46.3691 209.349 46.1367C209.143 45.8913 208.885 45.6976 208.575 45.5556C208.278 45.4006 207.942 45.3231 207.567 45.3231C207.18 45.3231 206.825 45.3942 206.502 45.5362C206.192 45.6653 205.921 45.8526 205.689 46.0979C205.469 46.3304 205.288 46.608 205.146 46.9308C205.017 47.2537 204.946 47.6023 204.933 47.9768H210.085ZM204.933 49.4295C204.933 49.8169 204.985 50.1914 205.088 50.553C205.204 50.9146 205.372 51.2309 205.592 51.5021C205.811 51.7733 206.089 51.9928 206.425 52.1607C206.76 52.3156 207.161 52.3931 207.626 52.3931C208.271 52.3931 208.788 52.2575 209.175 51.9864C209.575 51.7023 209.872 51.2826 210.066 50.7273H212.158C212.042 51.2697 211.842 51.7539 211.558 52.1801C211.274 52.6062 210.931 52.9678 210.531 53.2648C210.131 53.5489 209.679 53.7619 209.175 53.904C208.684 54.0589 208.168 54.1364 207.626 54.1364C206.838 54.1364 206.141 54.0073 205.534 53.749C204.927 53.4908 204.41 53.1292 203.984 52.6643C203.571 52.1994 203.254 51.6442 203.035 50.9985C202.828 50.3528 202.725 49.6426 202.725 48.8678C202.725 48.1576 202.835 47.4861 203.054 46.8534C203.287 46.2077 203.61 45.646 204.023 45.1682C204.449 44.6775 204.959 44.2901 205.553 44.006C206.147 43.7219 206.818 43.5799 207.567 43.5799C208.355 43.5799 209.059 43.7477 209.679 44.0835C210.311 44.4063 210.834 44.8389 211.248 45.3813C211.661 45.9236 211.958 46.5499 212.139 47.2601C212.332 47.9574 212.384 48.6806 212.294 49.4295H204.933Z" fill="white"/>
  <path d="M114.744 216.452C114.775 215.936 114.904 215.507 115.131 215.166C115.358 214.825 115.648 214.552 115.999 214.345C116.35 214.138 116.743 213.994 117.177 213.911C117.621 213.818 118.065 213.772 118.509 213.772C118.912 213.772 119.32 213.803 119.733 213.865C120.147 213.916 120.524 214.025 120.865 214.19C121.206 214.355 121.484 214.588 121.701 214.887C121.918 215.177 122.027 215.564 122.027 216.05V220.218C122.027 220.58 122.048 220.926 122.089 221.256C122.13 221.587 122.202 221.835 122.306 222H120.074C120.033 221.876 119.997 221.752 119.966 221.628C119.945 221.494 119.93 221.36 119.919 221.225C119.568 221.587 119.155 221.84 118.68 221.985C118.205 222.129 117.719 222.201 117.223 222.201C116.841 222.201 116.485 222.155 116.154 222.062C115.823 221.969 115.534 221.824 115.286 221.628C115.038 221.432 114.842 221.184 114.697 220.884C114.563 220.585 114.496 220.228 114.496 219.815C114.496 219.361 114.573 218.989 114.728 218.699C114.894 218.4 115.1 218.162 115.348 217.987C115.606 217.811 115.896 217.682 116.216 217.599C116.546 217.506 116.877 217.434 117.208 217.382C117.538 217.331 117.864 217.289 118.184 217.258C118.504 217.227 118.788 217.181 119.036 217.119C119.284 217.057 119.48 216.969 119.625 216.855C119.77 216.731 119.837 216.556 119.826 216.329C119.826 216.091 119.785 215.905 119.702 215.771C119.63 215.626 119.527 215.518 119.393 215.445C119.269 215.363 119.119 215.311 118.943 215.29C118.778 215.259 118.597 215.244 118.401 215.244C117.967 215.244 117.626 215.337 117.378 215.523C117.13 215.709 116.986 216.019 116.944 216.452H114.744ZM119.826 218.08C119.733 218.162 119.615 218.229 119.47 218.281C119.336 218.322 119.186 218.358 119.021 218.389C118.866 218.42 118.7 218.446 118.525 218.467C118.349 218.488 118.174 218.513 117.998 218.544C117.833 218.575 117.667 218.617 117.502 218.668C117.347 218.72 117.208 218.792 117.084 218.885C116.97 218.968 116.877 219.076 116.805 219.211C116.732 219.345 116.696 219.515 116.696 219.722C116.696 219.918 116.732 220.084 116.805 220.218C116.877 220.352 116.975 220.461 117.099 220.543C117.223 220.616 117.368 220.667 117.533 220.698C117.698 220.729 117.869 220.745 118.044 220.745C118.478 220.745 118.814 220.673 119.052 220.528C119.289 220.383 119.465 220.213 119.579 220.017C119.692 219.81 119.759 219.603 119.78 219.397C119.811 219.19 119.826 219.025 119.826 218.901V218.08ZM123.967 210.936V222H132.366V219.955H126.4V217.243H131.762V215.352H126.4V212.981H132.242V210.936H123.967ZM136.464 212.981V222H138.897V212.981H142.213V210.936H133.148V212.981H136.464ZM143.488 210.936V222H145.921V217.227H150.4V222H152.832V210.936H150.4V215.182H145.921V210.936H143.488ZM158.538 222.201C157.929 222.201 157.376 222.103 156.88 221.907C156.384 221.7 155.961 221.416 155.609 221.055C155.258 220.693 154.984 220.264 154.788 219.769C154.592 219.262 154.494 218.71 154.494 218.111C154.494 217.491 154.582 216.917 154.757 216.391C154.943 215.853 155.212 215.394 155.563 215.011C155.914 214.619 156.343 214.314 156.849 214.097C157.355 213.88 157.934 213.772 158.585 213.772C159.06 213.772 159.514 213.834 159.948 213.958C160.392 214.082 160.785 214.273 161.126 214.531C161.477 214.779 161.761 215.094 161.978 215.476C162.195 215.858 162.319 216.303 162.35 216.809H160.196C160.052 215.889 159.509 215.43 158.569 215.43C158.218 215.43 157.923 215.512 157.686 215.678C157.448 215.833 157.252 216.039 157.097 216.298C156.952 216.545 156.849 216.824 156.787 217.134C156.725 217.444 156.694 217.744 156.694 218.033C156.694 218.322 156.725 218.617 156.787 218.916C156.849 219.216 156.947 219.49 157.082 219.738C157.226 219.975 157.417 220.171 157.655 220.326C157.892 220.481 158.182 220.559 158.523 220.559C159.049 220.559 159.452 220.414 159.731 220.125C160.021 219.825 160.201 219.428 160.274 218.932H162.397C162.252 219.996 161.839 220.807 161.157 221.365C160.475 221.923 159.602 222.201 158.538 222.201Z" fill="white"/>
  <path opacity="0.5" d="M457.205 180.222C456.616 180.222 456.105 180.341 455.671 180.578C455.248 180.816 454.902 181.136 454.633 181.539C454.364 181.932 454.163 182.381 454.029 182.887C453.905 183.393 453.843 183.91 453.843 184.437C453.843 184.964 453.905 185.48 454.029 185.986C454.163 186.493 454.364 186.947 454.633 187.35C454.902 187.743 455.248 188.058 455.671 188.295C456.105 188.533 456.616 188.652 457.205 188.652C457.794 188.652 458.3 188.533 458.724 188.295C459.158 188.058 459.509 187.743 459.778 187.35C460.046 186.947 460.243 186.493 460.366 185.986C460.501 185.48 460.568 184.964 460.568 184.437C460.568 183.91 460.501 183.393 460.366 182.887C460.243 182.381 460.046 181.932 459.778 181.539C459.509 181.136 459.158 180.816 458.724 180.578C458.3 180.341 457.794 180.222 457.205 180.222ZM457.205 178.641C458.032 178.641 458.77 178.796 459.421 179.106C460.082 179.416 460.64 179.834 461.095 180.361C461.549 180.888 461.895 181.503 462.133 182.205C462.381 182.908 462.505 183.652 462.505 184.437C462.505 185.232 462.381 185.981 462.133 186.684C461.895 187.386 461.549 188.001 461.095 188.528C460.64 189.054 460.082 189.473 459.421 189.783C458.77 190.082 458.032 190.232 457.205 190.232C456.379 190.232 455.635 190.082 454.974 189.783C454.323 189.473 453.77 189.054 453.316 188.528C452.861 188.001 452.51 187.386 452.262 186.684C452.025 185.981 451.906 185.232 451.906 184.437C451.906 183.652 452.025 182.908 452.262 182.205C452.51 181.503 452.861 180.888 453.316 180.361C453.77 179.834 454.323 179.416 454.974 179.106C455.635 178.796 456.379 178.641 457.205 178.641ZM464.02 181.957H465.693V183.135L465.724 183.166C465.993 182.722 466.344 182.376 466.778 182.128C467.212 181.87 467.692 181.74 468.219 181.74C469.097 181.74 469.789 181.968 470.296 182.422C470.802 182.877 471.055 183.559 471.055 184.468V189.969H469.288V184.933C469.268 184.302 469.133 183.848 468.886 183.569C468.638 183.28 468.25 183.135 467.723 183.135C467.424 183.135 467.155 183.192 466.918 183.306C466.68 183.409 466.479 183.559 466.313 183.755C466.148 183.941 466.019 184.163 465.926 184.421C465.833 184.679 465.786 184.953 465.786 185.243V189.969H464.02V181.957ZM476.347 181.957H478.284L480.376 187.939H480.407L482.437 181.957H484.281L481.167 190.403C481.022 190.764 480.877 191.11 480.733 191.441C480.598 191.771 480.428 192.061 480.221 192.309C480.025 192.567 479.777 192.768 479.478 192.913C479.178 193.068 478.796 193.145 478.331 193.145C477.918 193.145 477.51 193.114 477.107 193.052V191.565C477.251 191.585 477.391 191.606 477.525 191.627C477.659 191.658 477.799 191.673 477.943 191.673C478.15 191.673 478.321 191.647 478.455 191.596C478.589 191.544 478.698 191.467 478.78 191.363C478.873 191.27 478.951 191.157 479.013 191.022C479.075 190.888 479.132 190.733 479.183 190.558L479.385 189.938L476.347 181.957ZM488.939 190.186C488.298 190.186 487.725 190.082 487.219 189.876C486.723 189.659 486.299 189.364 485.948 188.993C485.607 188.621 485.344 188.176 485.158 187.66C484.982 187.143 484.894 186.575 484.894 185.955C484.894 185.346 484.982 184.783 485.158 184.266C485.344 183.75 485.607 183.306 485.948 182.934C486.299 182.562 486.723 182.272 487.219 182.066C487.725 181.849 488.298 181.74 488.939 181.74C489.579 181.74 490.147 181.849 490.643 182.066C491.149 182.272 491.573 182.562 491.914 182.934C492.265 183.306 492.529 183.75 492.704 184.266C492.89 184.783 492.983 185.346 492.983 185.955C492.983 186.575 492.89 187.143 492.704 187.66C492.529 188.176 492.265 188.621 491.914 188.993C491.573 189.364 491.149 189.659 490.643 189.876C490.147 190.082 489.579 190.186 488.939 190.186ZM488.939 188.791C489.331 188.791 489.672 188.708 489.961 188.543C490.251 188.378 490.488 188.161 490.674 187.892C490.86 187.624 490.994 187.324 491.077 186.994C491.17 186.653 491.217 186.307 491.217 185.955C491.217 185.614 491.17 185.274 491.077 184.933C490.994 184.592 490.86 184.292 490.674 184.034C490.488 183.765 490.251 183.548 489.961 183.383C489.672 183.218 489.331 183.135 488.939 183.135C488.546 183.135 488.205 183.218 487.916 183.383C487.627 183.548 487.389 183.765 487.203 184.034C487.017 184.292 486.878 184.592 486.785 184.933C486.702 185.274 486.661 185.614 486.661 185.955C486.661 186.307 486.702 186.653 486.785 186.994C486.878 187.324 487.017 187.624 487.203 187.892C487.389 188.161 487.627 188.378 487.916 188.543C488.205 188.708 488.546 188.791 488.939 188.791ZM501.487 189.969H499.751V188.853H499.72C499.503 189.256 499.178 189.581 498.744 189.829C498.32 190.067 497.887 190.186 497.442 190.186C496.389 190.186 495.624 189.927 495.149 189.411C494.684 188.884 494.452 188.094 494.452 187.04V181.957H496.218V186.87C496.218 187.572 496.352 188.068 496.621 188.357C496.89 188.646 497.267 188.791 497.752 188.791C498.124 188.791 498.434 188.734 498.682 188.621C498.93 188.507 499.131 188.357 499.286 188.171C499.441 187.975 499.55 187.743 499.612 187.474C499.684 187.205 499.72 186.916 499.72 186.606V181.957H501.487V189.969ZM503.35 181.957H505.008V183.507H505.039C505.09 183.29 505.189 183.078 505.333 182.872C505.488 182.665 505.669 182.479 505.875 182.314C506.092 182.138 506.33 181.999 506.588 181.895C506.847 181.792 507.11 181.74 507.379 181.74C507.585 181.74 507.725 181.746 507.797 181.756C507.88 181.766 507.962 181.777 508.045 181.787V183.491C507.921 183.471 507.792 183.455 507.658 183.445C507.534 183.424 507.41 183.414 507.286 183.414C506.986 183.414 506.702 183.476 506.433 183.6C506.175 183.714 505.948 183.889 505.752 184.127C505.555 184.354 505.4 184.638 505.287 184.979C505.173 185.32 505.116 185.713 505.116 186.157V189.969H503.35V181.957ZM512.382 181.957H514.257L515.822 187.939H515.853L517.356 181.957H519.138L520.579 187.939H520.61L522.237 181.957H524.035L521.524 189.969H519.711L518.224 184.018H518.193L516.721 189.969H514.861L512.382 181.957ZM531.881 188.187C531.881 188.404 531.907 188.559 531.958 188.652C532.02 188.745 532.134 188.791 532.299 188.791C532.351 188.791 532.413 188.791 532.485 188.791C532.557 188.791 532.64 188.781 532.733 188.76V189.984C532.671 190.005 532.588 190.026 532.485 190.046C532.392 190.077 532.294 190.103 532.191 190.124C532.087 190.144 531.984 190.16 531.881 190.17C531.777 190.181 531.69 190.186 531.617 190.186C531.256 190.186 530.956 190.113 530.718 189.969C530.481 189.824 530.326 189.571 530.254 189.209C529.902 189.55 529.468 189.798 528.952 189.953C528.446 190.108 527.955 190.186 527.48 190.186C527.118 190.186 526.772 190.134 526.442 190.031C526.111 189.938 525.817 189.798 525.558 189.612C525.31 189.416 525.109 189.173 524.954 188.884C524.809 188.584 524.737 188.238 524.737 187.846C524.737 187.35 524.825 186.947 525.001 186.637C525.186 186.327 525.424 186.084 525.713 185.909C526.013 185.733 526.343 185.609 526.705 185.537C527.077 185.454 527.449 185.392 527.821 185.351C528.141 185.289 528.446 185.248 528.735 185.227C529.024 185.196 529.277 185.15 529.494 185.088C529.722 185.026 529.897 184.933 530.021 184.809C530.155 184.674 530.223 184.478 530.223 184.22C530.223 183.993 530.166 183.807 530.052 183.662C529.949 183.517 529.815 183.409 529.649 183.337C529.494 183.254 529.319 183.202 529.122 183.182C528.926 183.151 528.74 183.135 528.565 183.135C528.069 183.135 527.661 183.238 527.34 183.445C527.02 183.652 526.839 183.972 526.798 184.406H525.032C525.063 183.889 525.186 183.46 525.403 183.12C525.62 182.779 525.894 182.505 526.225 182.298C526.566 182.092 526.948 181.947 527.371 181.864C527.795 181.782 528.229 181.74 528.673 181.74C529.066 181.74 529.453 181.782 529.835 181.864C530.217 181.947 530.558 182.081 530.858 182.267C531.168 182.453 531.416 182.696 531.602 182.996C531.788 183.285 531.881 183.641 531.881 184.065V188.187ZM530.114 185.955C529.846 186.131 529.515 186.239 529.122 186.281C528.73 186.312 528.337 186.363 527.945 186.436C527.759 186.467 527.578 186.513 527.402 186.575C527.227 186.627 527.072 186.704 526.938 186.808C526.803 186.901 526.695 187.03 526.612 187.195C526.54 187.35 526.504 187.541 526.504 187.768C526.504 187.965 526.56 188.13 526.674 188.264C526.788 188.399 526.922 188.507 527.077 188.59C527.242 188.662 527.418 188.714 527.604 188.745C527.8 188.776 527.976 188.791 528.131 188.791C528.327 188.791 528.539 188.765 528.766 188.714C528.993 188.662 529.205 188.574 529.401 188.45C529.608 188.326 529.778 188.171 529.913 187.985C530.047 187.789 530.114 187.551 530.114 187.272V185.955ZM533.828 178.905H535.594V189.969H533.828V178.905ZM537.566 178.905H539.332V189.969H537.566V178.905ZM546.758 185.258C546.737 184.979 546.675 184.71 546.572 184.452C546.479 184.194 546.345 183.972 546.169 183.786C546.004 183.59 545.797 183.435 545.549 183.321C545.312 183.197 545.043 183.135 544.744 183.135C544.434 183.135 544.15 183.192 543.891 183.306C543.643 183.409 543.426 183.559 543.24 183.755C543.065 183.941 542.92 184.163 542.807 184.421C542.703 184.679 542.646 184.958 542.636 185.258H546.758ZM542.636 186.42C542.636 186.73 542.677 187.03 542.76 187.319C542.853 187.608 542.987 187.861 543.163 188.078C543.339 188.295 543.561 188.471 543.829 188.605C544.098 188.729 544.418 188.791 544.79 188.791C545.307 188.791 545.72 188.683 546.03 188.466C546.35 188.238 546.588 187.903 546.743 187.458H548.416C548.323 187.892 548.163 188.28 547.936 188.621C547.708 188.962 547.435 189.251 547.114 189.488C546.794 189.716 546.433 189.886 546.03 190C545.637 190.124 545.224 190.186 544.79 190.186C544.16 190.186 543.602 190.082 543.117 189.876C542.631 189.669 542.218 189.38 541.877 189.008C541.546 188.636 541.293 188.192 541.118 187.675C540.952 187.159 540.87 186.591 540.87 185.971C540.87 185.403 540.957 184.865 541.133 184.359C541.319 183.843 541.577 183.393 541.908 183.011C542.249 182.619 542.657 182.309 543.132 182.081C543.607 181.854 544.144 181.74 544.744 181.74C545.374 181.74 545.937 181.875 546.433 182.143C546.939 182.402 547.357 182.748 547.688 183.182C548.018 183.615 548.256 184.116 548.401 184.685C548.556 185.243 548.597 185.821 548.525 186.42H542.636ZM549.062 181.957H550.394V179.556H552.161V181.957H553.757V183.275H552.161V187.551C552.161 187.737 552.166 187.897 552.176 188.032C552.197 188.166 552.233 188.28 552.285 188.373C552.347 188.466 552.435 188.538 552.548 188.59C552.662 188.631 552.817 188.652 553.013 188.652C553.137 188.652 553.261 188.652 553.385 188.652C553.509 188.641 553.633 188.621 553.757 188.59V189.953C553.561 189.974 553.37 189.995 553.184 190.015C552.998 190.036 552.807 190.046 552.61 190.046C552.145 190.046 551.768 190.005 551.479 189.922C551.2 189.829 550.978 189.7 550.813 189.535C550.658 189.359 550.549 189.142 550.487 188.884C550.436 188.626 550.405 188.331 550.394 188.001V183.275H549.062V181.957Z" fill="white"/>
  <path opacity="0.5" d="M453.842 216.846C453.842 216.637 453.842 216.387 453.842 216.097C453.853 215.794 453.876 215.486 453.911 215.173C453.946 214.859 454.004 214.551 454.086 214.249C454.167 213.935 454.277 213.656 454.417 213.412C454.568 213.168 454.754 212.97 454.975 212.819C455.207 212.668 455.492 212.593 455.829 212.593C456.166 212.593 456.451 212.668 456.683 212.819C456.916 212.97 457.107 213.168 457.258 213.412C457.409 213.656 457.52 213.935 457.59 214.249C457.671 214.551 457.729 214.859 457.764 215.173C457.81 215.486 457.834 215.794 457.834 216.097C457.845 216.387 457.851 216.637 457.851 216.846C457.851 217.195 457.839 217.619 457.816 218.119C457.793 218.607 457.717 219.083 457.59 219.548C457.473 220.002 457.276 220.391 456.997 220.716C456.73 221.042 456.34 221.204 455.829 221.204C455.329 221.204 454.946 221.042 454.678 220.716C454.411 220.391 454.213 220.002 454.086 219.548C453.969 219.083 453.9 218.607 453.876 218.119C453.853 217.619 453.842 217.195 453.842 216.846ZM451.366 216.846C451.366 218.067 451.482 219.089 451.715 219.914C451.959 220.728 452.284 221.379 452.691 221.867C453.098 222.355 453.568 222.704 454.103 222.913C454.649 223.122 455.225 223.227 455.829 223.227C456.445 223.227 457.02 223.122 457.555 222.913C458.101 222.704 458.577 222.355 458.984 221.867C459.403 221.379 459.728 220.728 459.96 219.914C460.205 219.089 460.327 218.067 460.327 216.846C460.327 215.661 460.205 214.667 459.96 213.865C459.728 213.052 459.403 212.401 458.984 211.913C458.577 211.425 458.101 211.076 457.555 210.867C457.02 210.658 456.445 210.553 455.829 210.553C455.225 210.553 454.649 210.658 454.103 210.867C453.568 211.076 453.098 211.425 452.691 211.913C452.284 212.401 451.959 213.052 451.715 213.865C451.482 214.667 451.366 215.661 451.366 216.846ZM461.733 220.315V223H464.47V220.315H461.733ZM468.38 216.846C468.38 216.637 468.38 216.387 468.38 216.097C468.392 215.794 468.415 215.486 468.45 215.173C468.485 214.859 468.543 214.551 468.624 214.249C468.706 213.935 468.816 213.656 468.956 213.412C469.107 213.168 469.293 212.97 469.513 212.819C469.746 212.668 470.031 212.593 470.368 212.593C470.705 212.593 470.989 212.668 471.222 212.819C471.454 212.97 471.646 213.168 471.797 213.412C471.948 213.656 472.059 213.935 472.128 214.249C472.21 214.551 472.268 214.859 472.303 215.173C472.349 215.486 472.372 215.794 472.372 216.097C472.384 216.387 472.39 216.637 472.39 216.846C472.39 217.195 472.378 217.619 472.355 218.119C472.332 218.607 472.256 219.083 472.128 219.548C472.012 220.002 471.815 220.391 471.536 220.716C471.268 221.042 470.879 221.204 470.368 221.204C469.868 221.204 469.484 221.042 469.217 220.716C468.95 220.391 468.752 220.002 468.624 219.548C468.508 219.083 468.438 218.607 468.415 218.119C468.392 217.619 468.38 217.195 468.38 216.846ZM465.905 216.846C465.905 218.067 466.021 219.089 466.253 219.914C466.498 220.728 466.823 221.379 467.23 221.867C467.636 222.355 468.107 222.704 468.642 222.913C469.188 223.122 469.763 223.227 470.368 223.227C470.984 223.227 471.559 223.122 472.093 222.913C472.64 222.704 473.116 222.355 473.523 221.867C473.941 221.379 474.267 220.728 474.499 219.914C474.743 219.089 474.865 218.067 474.865 216.846C474.865 215.661 474.743 214.667 474.499 213.865C474.267 213.052 473.941 212.401 473.523 211.913C473.116 211.425 472.64 211.076 472.093 210.867C471.559 210.658 470.984 210.553 470.368 210.553C469.763 210.553 469.188 210.658 468.642 210.867C468.107 211.076 467.636 211.425 467.23 211.913C466.823 212.401 466.498 213.052 466.253 213.865C466.021 214.667 465.905 215.661 465.905 216.846ZM478.067 216.846C478.067 216.637 478.067 216.387 478.067 216.097C478.079 215.794 478.102 215.486 478.137 215.173C478.172 214.859 478.23 214.551 478.311 214.249C478.392 213.935 478.503 213.656 478.642 213.412C478.793 213.168 478.979 212.97 479.2 212.819C479.433 212.668 479.717 212.593 480.054 212.593C480.391 212.593 480.676 212.668 480.909 212.819C481.141 212.97 481.333 213.168 481.484 213.412C481.635 213.656 481.745 213.935 481.815 214.249C481.896 214.551 481.955 214.859 481.989 215.173C482.036 215.486 482.059 215.794 482.059 216.097C482.071 216.387 482.077 216.637 482.077 216.846C482.077 217.195 482.065 217.619 482.042 218.119C482.019 218.607 481.943 219.083 481.815 219.548C481.699 220.002 481.501 220.391 481.222 220.716C480.955 221.042 480.566 221.204 480.054 221.204C479.555 221.204 479.171 221.042 478.904 220.716C478.637 220.391 478.439 220.002 478.311 219.548C478.195 219.083 478.125 218.607 478.102 218.119C478.079 217.619 478.067 217.195 478.067 216.846ZM475.592 216.846C475.592 218.067 475.708 219.089 475.94 219.914C476.184 220.728 476.51 221.379 476.916 221.867C477.323 222.355 477.794 222.704 478.329 222.913C478.875 223.122 479.45 223.227 480.054 223.227C480.67 223.227 481.246 223.122 481.78 222.913C482.326 222.704 482.803 222.355 483.21 221.867C483.628 221.379 483.954 220.728 484.186 219.914C484.43 219.089 484.552 218.067 484.552 216.846C484.552 215.661 484.43 214.667 484.186 213.865C483.954 213.052 483.628 212.401 483.21 211.913C482.803 211.425 482.326 211.076 481.78 210.867C481.246 210.658 480.67 210.553 480.054 210.553C479.45 210.553 478.875 210.658 478.329 210.867C477.794 211.076 477.323 211.425 476.916 211.913C476.51 212.401 476.184 213.052 475.94 213.865C475.708 214.667 475.592 215.661 475.592 216.846ZM490.601 216.759C490.636 216.178 490.781 215.696 491.037 215.312C491.293 214.929 491.618 214.621 492.013 214.388C492.408 214.156 492.85 213.993 493.338 213.9C493.838 213.795 494.337 213.743 494.837 213.743C495.29 213.743 495.75 213.778 496.214 213.848C496.679 213.906 497.103 214.028 497.487 214.214C497.87 214.4 498.184 214.661 498.428 214.998C498.672 215.324 498.794 215.76 498.794 216.306V220.995C498.794 221.402 498.818 221.791 498.864 222.163C498.911 222.535 498.992 222.814 499.108 223H496.598C496.551 222.861 496.511 222.721 496.476 222.582C496.453 222.431 496.435 222.279 496.424 222.128C496.028 222.535 495.564 222.82 495.029 222.983C494.494 223.145 493.948 223.227 493.39 223.227C492.96 223.227 492.559 223.174 492.187 223.07C491.815 222.965 491.49 222.802 491.211 222.582C490.932 222.361 490.711 222.082 490.549 221.745C490.398 221.408 490.322 221.007 490.322 220.542C490.322 220.031 490.409 219.612 490.584 219.287C490.77 218.95 491.002 218.682 491.281 218.485C491.571 218.287 491.897 218.142 492.257 218.049C492.629 217.944 493.001 217.863 493.373 217.805C493.745 217.747 494.111 217.7 494.471 217.666C494.831 217.631 495.151 217.578 495.43 217.509C495.709 217.439 495.93 217.34 496.092 217.212C496.255 217.073 496.331 216.875 496.319 216.62C496.319 216.352 496.272 216.143 496.18 215.992C496.098 215.829 495.982 215.707 495.831 215.626C495.691 215.533 495.523 215.475 495.325 215.452C495.139 215.417 494.936 215.399 494.715 215.399C494.227 215.399 493.844 215.504 493.565 215.713C493.286 215.922 493.123 216.271 493.076 216.759H490.601ZM496.319 218.589C496.214 218.682 496.081 218.758 495.918 218.816C495.767 218.863 495.598 218.903 495.412 218.938C495.238 218.973 495.052 219.002 494.855 219.025C494.657 219.049 494.459 219.078 494.262 219.112C494.076 219.147 493.89 219.194 493.704 219.252C493.53 219.31 493.373 219.391 493.233 219.496C493.106 219.589 493.001 219.711 492.92 219.862C492.838 220.013 492.798 220.205 492.798 220.437C492.798 220.658 492.838 220.844 492.92 220.995C493.001 221.146 493.111 221.268 493.251 221.361C493.39 221.443 493.553 221.501 493.739 221.536C493.925 221.571 494.117 221.588 494.314 221.588C494.802 221.588 495.18 221.507 495.447 221.344C495.715 221.181 495.912 220.989 496.04 220.769C496.168 220.536 496.243 220.304 496.267 220.071C496.302 219.839 496.319 219.653 496.319 219.513V218.589ZM500.977 210.553V223H510.426V220.699H503.714V217.648H509.746V215.521H503.714V212.854H510.286V210.553H500.977ZM515.036 212.854V223H517.773V212.854H521.503V210.553H511.305V212.854H515.036ZM522.939 210.553V223H525.676V217.631H530.714V223H533.451V210.553H530.714V215.33H525.676V210.553H522.939ZM539.87 223.227C539.184 223.227 538.562 223.116 538.004 222.895C537.446 222.663 536.97 222.343 536.575 221.937C536.18 221.53 535.872 221.048 535.651 220.49C535.43 219.92 535.32 219.298 535.32 218.624C535.32 217.927 535.418 217.282 535.616 216.689C535.825 216.085 536.127 215.568 536.523 215.138C536.918 214.696 537.4 214.353 537.969 214.109C538.539 213.865 539.19 213.743 539.922 213.743C540.457 213.743 540.968 213.813 541.456 213.952C541.956 214.092 542.397 214.307 542.781 214.597C543.176 214.876 543.496 215.231 543.74 215.661C543.984 216.091 544.123 216.591 544.158 217.16H541.735C541.572 216.126 540.962 215.608 539.904 215.608C539.509 215.608 539.178 215.701 538.911 215.887C538.643 216.062 538.423 216.294 538.248 216.585C538.086 216.864 537.969 217.177 537.9 217.526C537.83 217.875 537.795 218.212 537.795 218.537C537.795 218.863 537.83 219.194 537.9 219.531C537.969 219.868 538.08 220.176 538.231 220.455C538.394 220.722 538.609 220.943 538.876 221.117C539.143 221.292 539.469 221.379 539.852 221.379C540.445 221.379 540.898 221.216 541.212 220.891C541.537 220.554 541.741 220.106 541.822 219.548H544.21C544.048 220.745 543.583 221.658 542.816 222.285C542.049 222.913 541.067 223.227 539.87 223.227Z" fill="white"/>
  <path opacity="0.5" d="M238.888 180.222C238.3 180.222 237.788 180.341 237.354 180.578C236.931 180.816 236.585 181.136 236.316 181.539C236.048 181.932 235.846 182.381 235.712 182.887C235.588 183.393 235.526 183.91 235.526 184.437C235.526 184.964 235.588 185.48 235.712 185.986C235.846 186.493 236.048 186.947 236.316 187.35C236.585 187.743 236.931 188.058 237.354 188.295C237.788 188.533 238.3 188.652 238.888 188.652C239.477 188.652 239.983 188.533 240.407 188.295C240.841 188.058 241.192 187.743 241.461 187.35C241.729 186.947 241.926 186.493 242.05 185.986C242.184 185.48 242.251 184.964 242.251 184.437C242.251 183.91 242.184 183.393 242.05 182.887C241.926 182.381 241.729 181.932 241.461 181.539C241.192 181.136 240.841 180.816 240.407 180.578C239.983 180.341 239.477 180.222 238.888 180.222ZM238.888 178.641C239.715 178.641 240.454 178.796 241.104 179.106C241.765 179.416 242.323 179.834 242.778 180.361C243.232 180.888 243.579 181.503 243.816 182.205C244.064 182.908 244.188 183.652 244.188 184.437C244.188 185.232 244.064 185.981 243.816 186.684C243.579 187.386 243.232 188.001 242.778 188.528C242.323 189.054 241.765 189.473 241.104 189.783C240.454 190.082 239.715 190.232 238.888 190.232C238.062 190.232 237.318 190.082 236.657 189.783C236.006 189.473 235.454 189.054 234.999 188.528C234.544 188.001 234.193 187.386 233.945 186.684C233.708 185.981 233.589 185.232 233.589 184.437C233.589 183.652 233.708 182.908 233.945 182.205C234.193 181.503 234.544 180.888 234.999 180.361C235.454 179.834 236.006 179.416 236.657 179.106C237.318 178.796 238.062 178.641 238.888 178.641ZM245.703 181.957H247.377V183.135L247.408 183.166C247.676 182.722 248.027 182.376 248.461 182.128C248.895 181.87 249.375 181.74 249.902 181.74C250.78 181.74 251.473 181.968 251.979 182.422C252.485 182.877 252.738 183.559 252.738 184.468V189.969H250.972V184.933C250.951 184.302 250.817 183.848 250.569 183.569C250.321 183.28 249.933 183.135 249.406 183.135C249.107 183.135 248.838 183.192 248.601 183.306C248.363 183.409 248.162 183.559 247.996 183.755C247.831 183.941 247.702 184.163 247.609 184.421C247.516 184.679 247.469 184.953 247.469 185.243V189.969H245.703V181.957ZM260.432 186.281C260.432 186.704 260.505 187.066 260.649 187.365C260.794 187.665 260.995 187.913 261.254 188.109C261.512 188.295 261.806 188.435 262.137 188.528C262.478 188.61 262.845 188.652 263.237 188.652C263.661 188.652 264.022 188.605 264.322 188.512C264.621 188.409 264.864 188.28 265.05 188.125C265.236 187.97 265.37 187.794 265.453 187.598C265.536 187.391 265.577 187.185 265.577 186.978C265.577 186.554 265.479 186.245 265.283 186.048C265.097 185.842 264.89 185.697 264.663 185.614C264.27 185.47 263.81 185.335 263.284 185.212C262.767 185.077 262.127 184.907 261.362 184.7C260.887 184.576 260.489 184.416 260.169 184.22C259.859 184.013 259.611 183.786 259.425 183.538C259.239 183.29 259.105 183.027 259.022 182.748C258.95 182.469 258.914 182.185 258.914 181.895C258.914 181.338 259.027 180.857 259.255 180.454C259.492 180.041 259.802 179.7 260.184 179.432C260.567 179.163 261.001 178.967 261.486 178.843C261.972 178.708 262.462 178.641 262.958 178.641C263.537 178.641 264.079 178.719 264.585 178.874C265.102 179.018 265.551 179.24 265.933 179.54C266.326 179.84 266.636 180.212 266.863 180.656C267.09 181.09 267.204 181.596 267.204 182.174H265.267C265.215 181.462 264.973 180.96 264.539 180.671C264.105 180.372 263.552 180.222 262.881 180.222C262.653 180.222 262.421 180.248 262.183 180.299C261.946 180.341 261.729 180.418 261.533 180.532C261.336 180.635 261.171 180.78 261.037 180.966C260.913 181.152 260.851 181.384 260.851 181.663C260.851 182.056 260.97 182.365 261.207 182.593C261.455 182.81 261.775 182.975 262.168 183.089C262.209 183.099 262.369 183.145 262.648 183.228C262.938 183.3 263.258 183.383 263.609 183.476C263.96 183.569 264.301 183.662 264.632 183.755C264.973 183.838 265.215 183.9 265.36 183.941C265.722 184.054 266.037 184.209 266.305 184.406C266.574 184.602 266.796 184.829 266.972 185.088C267.158 185.335 267.292 185.604 267.375 185.893C267.467 186.183 267.514 186.472 267.514 186.761C267.514 187.381 267.385 187.913 267.127 188.357C266.879 188.791 266.548 189.147 266.135 189.426C265.722 189.705 265.252 189.907 264.725 190.031C264.198 190.165 263.661 190.232 263.113 190.232C262.483 190.232 261.889 190.155 261.331 190C260.773 189.845 260.288 189.607 259.875 189.287C259.461 188.967 259.131 188.559 258.883 188.063C258.635 187.557 258.506 186.963 258.495 186.281H260.432ZM268.156 181.957H269.489V179.556H271.255V181.957H272.851V183.275H271.255V187.551C271.255 187.737 271.26 187.897 271.271 188.032C271.291 188.166 271.328 188.28 271.379 188.373C271.441 188.466 271.529 188.538 271.643 188.59C271.756 188.631 271.911 188.652 272.108 188.652C272.232 188.652 272.355 188.652 272.479 188.652C272.603 188.641 272.727 188.621 272.851 188.59V189.953C272.655 189.974 272.464 189.995 272.278 190.015C272.092 190.036 271.901 190.046 271.705 190.046C271.24 190.046 270.863 190.005 270.573 189.922C270.295 189.829 270.072 189.7 269.907 189.535C269.752 189.359 269.644 189.142 269.582 188.884C269.53 188.626 269.499 188.331 269.489 188.001V183.275H268.156V181.957ZM274.169 178.905H275.935V185.196L279.127 181.957H281.297L278.229 184.902L281.591 189.969H279.437L276.989 186.079L275.935 187.102V189.969H274.169V178.905ZM282.445 181.957H284.103V183.507H284.134C284.186 183.29 284.284 183.078 284.429 182.872C284.584 182.665 284.764 182.479 284.971 182.314C285.188 182.138 285.425 181.999 285.684 181.895C285.942 181.792 286.205 181.74 286.474 181.74C286.681 181.74 286.82 181.746 286.892 181.756C286.975 181.766 287.058 181.777 287.14 181.787V183.491C287.016 183.471 286.887 183.455 286.753 183.445C286.629 183.424 286.505 183.414 286.381 183.414C286.081 183.414 285.797 183.476 285.529 183.6C285.271 183.714 285.043 183.889 284.847 184.127C284.651 184.354 284.496 184.638 284.382 184.979C284.268 185.32 284.212 185.713 284.212 186.157V189.969H282.445V181.957Z" fill="white"/>
  <path d="M233.645 215.447H236.016C236.016 215.122 236.045 214.797 236.103 214.471C236.173 214.134 236.283 213.832 236.434 213.565C236.585 213.286 236.783 213.065 237.027 212.902C237.283 212.728 237.591 212.641 237.951 212.641C238.486 212.641 238.921 212.809 239.258 213.146C239.607 213.472 239.781 213.931 239.781 214.523C239.781 214.895 239.694 215.227 239.52 215.517C239.357 215.808 239.148 216.069 238.892 216.302C238.648 216.534 238.375 216.749 238.073 216.947C237.771 217.133 237.486 217.319 237.219 217.504C236.696 217.865 236.196 218.219 235.72 218.568C235.255 218.917 234.848 219.3 234.499 219.718C234.151 220.125 233.872 220.59 233.662 221.113C233.465 221.636 233.366 222.252 233.366 222.961H242.327V220.834H236.556C236.858 220.416 237.207 220.05 237.602 219.736C237.997 219.422 238.404 219.132 238.823 218.864C239.241 218.585 239.654 218.306 240.06 218.027C240.479 217.749 240.851 217.441 241.176 217.104C241.501 216.755 241.763 216.36 241.96 215.918C242.158 215.476 242.257 214.948 242.257 214.332C242.257 213.739 242.141 213.204 241.908 212.728C241.687 212.251 241.385 211.85 241.002 211.525C240.618 211.2 240.171 210.95 239.659 210.775C239.16 210.601 238.631 210.514 238.073 210.514C237.341 210.514 236.69 210.642 236.12 210.897C235.563 211.141 235.098 211.49 234.726 211.943C234.354 212.385 234.075 212.908 233.889 213.512C233.703 214.105 233.622 214.75 233.645 215.447ZM246.661 215.691V217.435C246.964 217.435 247.277 217.446 247.603 217.47C247.94 217.481 248.248 217.545 248.527 217.661C248.806 217.766 249.032 217.94 249.207 218.184C249.393 218.428 249.486 218.783 249.486 219.248C249.486 219.84 249.294 220.311 248.91 220.66C248.527 220.997 248.056 221.165 247.498 221.165C247.138 221.165 246.824 221.101 246.557 220.974C246.301 220.846 246.086 220.677 245.912 220.468C245.738 220.247 245.604 219.992 245.511 219.701C245.418 219.399 245.366 219.085 245.354 218.76H243.001C242.989 219.469 243.088 220.096 243.297 220.642C243.518 221.189 243.826 221.653 244.221 222.037C244.616 222.409 245.093 222.694 245.65 222.891C246.22 223.089 246.847 223.188 247.533 223.188C248.126 223.188 248.695 223.1 249.242 222.926C249.788 222.752 250.27 222.496 250.688 222.159C251.107 221.822 251.438 221.404 251.682 220.904C251.938 220.404 252.066 219.835 252.066 219.195C252.066 218.498 251.874 217.9 251.49 217.4C251.107 216.9 250.578 216.575 249.904 216.424V216.389C250.473 216.226 250.898 215.918 251.177 215.465C251.467 215.012 251.612 214.489 251.612 213.896C251.612 213.35 251.49 212.867 251.246 212.449C251.002 212.031 250.683 211.676 250.288 211.386C249.904 211.095 249.468 210.88 248.98 210.741C248.492 210.589 248.004 210.514 247.516 210.514C246.888 210.514 246.319 210.618 245.807 210.828C245.296 211.025 244.854 211.31 244.482 211.682C244.122 212.054 243.837 212.501 243.628 213.024C243.431 213.536 243.32 214.105 243.297 214.733H245.65C245.639 214.105 245.79 213.588 246.104 213.181C246.429 212.763 246.906 212.554 247.533 212.554C247.986 212.554 248.387 212.693 248.736 212.972C249.085 213.251 249.259 213.652 249.259 214.175C249.259 214.523 249.172 214.802 248.997 215.012C248.835 215.221 248.62 215.383 248.352 215.5C248.097 215.604 247.818 215.668 247.516 215.691C247.214 215.715 246.929 215.715 246.661 215.691Z" fill="white"/>
  <path d="M258.684 217.452C258.715 216.936 258.844 216.507 259.072 216.166C259.299 215.825 259.588 215.552 259.939 215.345C260.291 215.138 260.683 214.994 261.117 214.911C261.561 214.818 262.006 214.772 262.45 214.772C262.853 214.772 263.261 214.803 263.674 214.865C264.087 214.916 264.464 215.025 264.805 215.19C265.146 215.355 265.425 215.588 265.642 215.887C265.859 216.177 265.967 216.564 265.967 217.05V221.218C265.967 221.58 265.988 221.926 266.029 222.256C266.071 222.587 266.143 222.835 266.246 223H264.015C263.973 222.876 263.937 222.752 263.906 222.628C263.886 222.494 263.87 222.36 263.86 222.225C263.509 222.587 263.095 222.84 262.62 222.985C262.145 223.129 261.659 223.201 261.164 223.201C260.781 223.201 260.425 223.155 260.094 223.062C259.764 222.969 259.475 222.824 259.227 222.628C258.979 222.432 258.782 222.184 258.638 221.884C258.503 221.585 258.436 221.228 258.436 220.815C258.436 220.361 258.514 219.989 258.669 219.699C258.834 219.4 259.041 219.162 259.289 218.987C259.547 218.811 259.836 218.682 260.156 218.599C260.487 218.506 260.817 218.434 261.148 218.382C261.479 218.331 261.804 218.289 262.124 218.258C262.445 218.227 262.729 218.181 262.977 218.119C263.225 218.057 263.421 217.969 263.565 217.855C263.71 217.731 263.777 217.556 263.767 217.329C263.767 217.091 263.726 216.905 263.643 216.771C263.571 216.626 263.467 216.518 263.333 216.445C263.209 216.363 263.059 216.311 262.884 216.29C262.718 216.259 262.538 216.244 262.341 216.244C261.907 216.244 261.566 216.337 261.319 216.523C261.071 216.709 260.926 217.019 260.885 217.452H258.684ZM263.767 219.08C263.674 219.162 263.555 219.229 263.41 219.281C263.276 219.322 263.126 219.358 262.961 219.389C262.806 219.42 262.641 219.446 262.465 219.467C262.29 219.488 262.114 219.513 261.938 219.544C261.773 219.575 261.608 219.617 261.442 219.668C261.288 219.72 261.148 219.792 261.024 219.885C260.91 219.968 260.817 220.076 260.745 220.211C260.673 220.345 260.637 220.515 260.637 220.722C260.637 220.918 260.673 221.084 260.745 221.218C260.817 221.352 260.916 221.461 261.04 221.543C261.164 221.616 261.308 221.667 261.473 221.698C261.639 221.729 261.809 221.745 261.985 221.745C262.419 221.745 262.754 221.673 262.992 221.528C263.23 221.383 263.405 221.213 263.519 221.017C263.633 220.81 263.7 220.603 263.72 220.397C263.751 220.19 263.767 220.025 263.767 219.901V219.08ZM267.908 211.936V223H276.306V220.955H270.341V218.243H275.702V216.352H270.341V213.981H276.182V211.936H267.908ZM280.404 213.981V223H282.837V213.981H286.153V211.936H277.088V213.981H280.404ZM287.429 211.936V223H289.862V218.227H294.34V223H296.773V211.936H294.34V216.182H289.862V211.936H287.429ZM302.479 223.201C301.869 223.201 301.316 223.103 300.82 222.907C300.325 222.7 299.901 222.416 299.55 222.055C299.199 221.693 298.925 221.264 298.729 220.769C298.532 220.262 298.434 219.71 298.434 219.111C298.434 218.491 298.522 217.917 298.698 217.391C298.884 216.853 299.152 216.394 299.503 216.011C299.855 215.619 300.283 215.314 300.789 215.097C301.296 214.88 301.874 214.772 302.525 214.772C303 214.772 303.455 214.834 303.889 214.958C304.333 215.082 304.725 215.273 305.066 215.531C305.418 215.779 305.702 216.094 305.919 216.476C306.136 216.858 306.26 217.303 306.291 217.809H304.137C303.992 216.889 303.45 216.43 302.51 216.43C302.158 216.43 301.864 216.512 301.626 216.678C301.389 216.833 301.192 217.039 301.037 217.298C300.893 217.545 300.789 217.824 300.728 218.134C300.666 218.444 300.635 218.744 300.635 219.033C300.635 219.322 300.666 219.617 300.728 219.916C300.789 220.216 300.888 220.49 301.022 220.738C301.167 220.975 301.358 221.171 301.595 221.326C301.833 221.481 302.122 221.559 302.463 221.559C302.99 221.559 303.393 221.414 303.672 221.125C303.961 220.825 304.142 220.428 304.214 219.932H306.337C306.192 220.996 305.779 221.807 305.097 222.365C304.416 222.923 303.543 223.201 302.479 223.201Z" fill="white"/>
  <rect x="319.484" y="204.508" width="57.141" height="24.2123" rx="5.3267" stroke="white" stroke-width="0.968491"/>
  <path d="M335.753 211.875C336.984 211.875 337.94 212.199 338.62 212.848C339.299 213.497 339.677 214.234 339.752 215.059H338.467C338.322 214.433 338.03 213.936 337.594 213.57C337.161 213.203 336.552 213.02 335.766 213.02C334.808 213.02 334.034 213.358 333.442 214.033C332.855 214.704 332.562 215.735 332.562 217.125C332.562 218.264 332.827 219.188 333.356 219.899C333.89 220.605 334.685 220.958 335.74 220.958C336.711 220.958 337.45 220.585 337.958 219.839C338.227 219.447 338.428 218.93 338.56 218.29H339.844C339.73 219.314 339.35 220.173 338.706 220.866C337.933 221.7 336.892 222.117 335.581 222.117C334.451 222.117 333.502 221.775 332.734 221.091C331.723 220.186 331.218 218.789 331.218 216.9C331.218 215.465 331.597 214.289 332.357 213.371C333.178 212.374 334.31 211.875 335.753 211.875ZM341.327 212.14H342.519V221.865H341.327V212.14ZM345.227 219.978C345.227 220.323 345.353 220.594 345.604 220.793C345.856 220.991 346.154 221.091 346.498 221.091C346.917 221.091 347.323 220.994 347.716 220.799C348.378 220.477 348.709 219.95 348.709 219.217V218.257C348.564 218.35 348.376 218.427 348.147 218.489C347.917 218.551 347.692 218.595 347.471 218.621L346.75 218.714C346.317 218.771 345.993 218.862 345.776 218.985C345.41 219.193 345.227 219.524 345.227 219.978ZM348.114 217.569C348.387 217.533 348.57 217.418 348.663 217.224C348.716 217.118 348.742 216.966 348.742 216.767C348.742 216.361 348.597 216.068 348.306 215.887C348.019 215.702 347.606 215.609 347.067 215.609C346.445 215.609 346.004 215.777 345.743 216.112C345.598 216.297 345.503 216.573 345.459 216.94H344.346C344.369 216.066 344.651 215.459 345.194 215.119C345.741 214.775 346.375 214.602 347.094 214.602C347.928 214.602 348.606 214.761 349.126 215.079C349.643 215.397 349.901 215.891 349.901 216.562V220.647C349.901 220.771 349.925 220.87 349.974 220.945C350.027 221.02 350.135 221.058 350.298 221.058C350.351 221.058 350.411 221.055 350.477 221.051C350.543 221.042 350.614 221.031 350.689 221.018V221.898C350.504 221.951 350.362 221.984 350.265 221.998C350.168 222.011 350.036 222.018 349.868 222.018C349.458 222.018 349.16 221.872 348.974 221.581C348.877 221.426 348.809 221.208 348.769 220.925C348.526 221.243 348.178 221.519 347.723 221.753C347.268 221.987 346.767 222.104 346.22 222.104C345.562 222.104 345.024 221.905 344.605 221.508C344.19 221.106 343.982 220.605 343.982 220.005C343.982 219.347 344.188 218.837 344.598 218.476C345.009 218.114 345.547 217.891 346.213 217.807L348.114 217.569ZM351.861 214.808H353.072V221.865H351.861V214.808ZM351.861 212.14H353.072V213.49H351.861V212.14ZM354.88 214.775H356.058V215.781C356.341 215.432 356.597 215.178 356.826 215.02C357.219 214.75 357.665 214.616 358.164 214.616C358.728 214.616 359.183 214.755 359.527 215.033C359.722 215.192 359.898 215.426 360.057 215.735C360.322 215.355 360.633 215.075 360.991 214.894C361.348 214.708 361.75 214.616 362.195 214.616C363.149 214.616 363.798 214.96 364.142 215.649C364.327 216.019 364.42 216.518 364.42 217.145V221.865H363.182V216.94C363.182 216.467 363.063 216.143 362.824 215.966C362.59 215.79 362.304 215.702 361.964 215.702C361.496 215.702 361.092 215.858 360.752 216.172C360.417 216.485 360.249 217.008 360.249 217.741V221.865H359.037V217.237C359.037 216.756 358.98 216.405 358.865 216.185C358.684 215.854 358.347 215.688 357.852 215.688C357.402 215.688 356.992 215.863 356.621 216.211C356.255 216.56 356.071 217.191 356.071 218.105V221.865H354.88V214.775Z" fill="white"/>
  <line opacity="0.2" x1="422.746" y1="174.969" x2="422.746" y2="235.984" stroke="white" stroke-width="0.968491"/>
  <circle cx="426.136" cy="48.424" r="21.3068" fill="#006DFF"/>
  <path d="M425.381 40.1367H427.641V56.7087H425.381V40.1367Z" fill="white"/>
  <path d="M417.849 49.9297L417.849 47.6699L434.421 47.6699L434.421 49.9297L417.849 49.9297Z" fill="white"/>
  <path d="M461.513 51.019C461.513 51.4426 461.585 51.8041 461.73 52.1037C461.874 52.4033 462.076 52.6512 462.334 52.8475C462.592 53.0335 462.887 53.1729 463.217 53.2659C463.558 53.3486 463.925 53.3899 464.318 53.3899C464.741 53.3899 465.103 53.3434 465.402 53.2504C465.702 53.1471 465.945 53.018 466.131 52.863C466.317 52.7081 466.451 52.5324 466.533 52.3362C466.616 52.1296 466.657 51.9229 466.657 51.7163C466.657 51.2928 466.559 50.9829 466.363 50.7866C466.177 50.58 465.97 50.4353 465.743 50.3527C465.351 50.2081 464.891 50.0738 464.364 49.9498C463.848 49.8155 463.207 49.6451 462.443 49.4384C461.967 49.3145 461.57 49.1544 461.249 48.9581C460.939 48.7515 460.692 48.5242 460.506 48.2763C460.32 48.0283 460.185 47.7649 460.103 47.486C460.03 47.207 459.994 46.9229 459.994 46.6337C459.994 46.0758 460.108 45.5955 460.335 45.1926C460.573 44.7794 460.883 44.4384 461.265 44.1699C461.647 43.9013 462.081 43.705 462.567 43.581C463.052 43.4467 463.543 43.3796 464.039 43.3796C464.617 43.3796 465.159 43.457 465.666 43.612C466.182 43.7566 466.632 43.9787 467.014 44.2783C467.406 44.5779 467.716 44.9498 467.944 45.394C468.171 45.8279 468.284 46.3341 468.284 46.9126H466.348C466.296 46.1998 466.053 45.6988 465.619 45.4095C465.185 45.1099 464.633 44.9601 463.961 44.9601C463.734 44.9601 463.501 44.986 463.264 45.0376C463.026 45.0789 462.809 45.1564 462.613 45.2701C462.417 45.3734 462.251 45.518 462.117 45.7039C461.993 45.8899 461.931 46.1223 461.931 46.4013C461.931 46.7938 462.05 47.1037 462.288 47.331C462.536 47.5479 462.856 47.7132 463.248 47.8269C463.29 47.8372 463.45 47.8837 463.729 47.9663C464.018 48.0386 464.338 48.1213 464.689 48.2143C465.041 48.3072 465.382 48.4002 465.712 48.4932C466.053 48.5758 466.296 48.6378 466.44 48.6791C466.802 48.7928 467.117 48.9477 467.386 49.144C467.654 49.3403 467.876 49.5676 468.052 49.8258C468.238 50.0738 468.372 50.3424 468.455 50.6316C468.548 50.9209 468.594 51.2101 468.594 51.4994C468.594 52.1192 468.465 52.6512 468.207 53.0955C467.959 53.5293 467.628 53.8858 467.215 54.1647C466.802 54.4436 466.332 54.645 465.805 54.769C465.278 54.9033 464.741 54.9705 464.194 54.9705C463.563 54.9705 462.969 54.893 462.412 54.738C461.854 54.5831 461.368 54.3455 460.955 54.0252C460.542 53.705 460.211 53.2969 459.963 52.801C459.715 52.2948 459.586 51.7008 459.576 51.019H461.513ZM469.237 46.6957H470.569V44.2938H472.336V46.6957H473.932V48.0128H472.336V52.2897C472.336 52.4756 472.341 52.6358 472.351 52.77C472.372 52.9043 472.408 53.018 472.46 53.111C472.522 53.2039 472.609 53.2762 472.723 53.3279C472.837 53.3692 472.992 53.3899 473.188 53.3899C473.312 53.3899 473.436 53.3899 473.56 53.3899C473.684 53.3796 473.808 53.3589 473.932 53.3279V54.6915C473.735 54.7122 473.544 54.7329 473.358 54.7535C473.172 54.7742 472.981 54.7845 472.785 54.7845C472.32 54.7845 471.943 54.7432 471.654 54.6605C471.375 54.5676 471.153 54.4384 470.988 54.2731C470.833 54.0975 470.724 53.8806 470.662 53.6223C470.61 53.3641 470.579 53.0696 470.569 52.7391V48.0128H469.237V46.6957ZM481.912 52.925C481.912 53.1419 481.938 53.2969 481.99 53.3899C482.052 53.4829 482.165 53.5293 482.331 53.5293C482.382 53.5293 482.444 53.5293 482.517 53.5293C482.589 53.5293 482.672 53.519 482.765 53.4984V54.7225C482.703 54.7432 482.62 54.7638 482.517 54.7845C482.424 54.8155 482.325 54.8413 482.222 54.862C482.119 54.8827 482.016 54.8981 481.912 54.9085C481.809 54.9188 481.721 54.924 481.649 54.924C481.287 54.924 480.988 54.8517 480.75 54.707C480.512 54.5624 480.357 54.3093 480.285 53.9477C479.934 54.2886 479.5 54.5366 478.984 54.6915C478.477 54.8465 477.987 54.924 477.511 54.924C477.15 54.924 476.804 54.8723 476.473 54.769C476.143 54.676 475.848 54.5366 475.59 54.3506C475.342 54.1543 475.141 53.9116 474.986 53.6223C474.841 53.3227 474.769 52.9767 474.769 52.5841C474.769 52.0882 474.856 51.6853 475.032 51.3754C475.218 51.0655 475.456 50.8227 475.745 50.6471C476.044 50.4715 476.375 50.3475 476.737 50.2752C477.109 50.1926 477.48 50.1306 477.852 50.0893C478.173 50.0273 478.477 49.986 478.767 49.9653C479.056 49.9343 479.309 49.8878 479.526 49.8258C479.753 49.7639 479.929 49.6709 480.053 49.5469C480.187 49.4126 480.254 49.2163 480.254 48.9581C480.254 48.7308 480.197 48.5448 480.084 48.4002C479.98 48.2556 479.846 48.1471 479.681 48.0748C479.526 47.9922 479.35 47.9405 479.154 47.9198C478.958 47.8889 478.772 47.8734 478.596 47.8734C478.1 47.8734 477.692 47.9767 477.372 48.1833C477.052 48.3899 476.871 48.7101 476.83 49.144H475.063C475.094 48.6275 475.218 48.1988 475.435 47.8579C475.652 47.517 475.926 47.2432 476.256 47.0366C476.597 46.83 476.979 46.6853 477.403 46.6027C477.827 46.5201 478.26 46.4787 478.705 46.4787C479.097 46.4787 479.485 46.5201 479.867 46.6027C480.249 46.6853 480.59 46.8196 480.89 47.0056C481.199 47.1915 481.447 47.4343 481.633 47.7339C481.819 48.0232 481.912 48.3796 481.912 48.8031V52.925ZM480.146 50.6936C479.877 50.8692 479.547 50.9777 479.154 51.019C478.761 51.05 478.369 51.1017 477.976 51.174C477.79 51.205 477.61 51.2515 477.434 51.3134C477.258 51.3651 477.103 51.4426 476.969 51.5459C476.835 51.6389 476.726 51.768 476.644 51.9333C476.571 52.0882 476.535 52.2793 476.535 52.5066C476.535 52.7029 476.592 52.8682 476.706 53.0025C476.819 53.1368 476.954 53.2453 477.109 53.3279C477.274 53.4002 477.449 53.4519 477.635 53.4829C477.832 53.5139 478.007 53.5293 478.162 53.5293C478.359 53.5293 478.57 53.5035 478.798 53.4519C479.025 53.4002 479.237 53.3124 479.433 53.1884C479.64 53.0645 479.81 52.9095 479.944 52.7236C480.079 52.5273 480.146 52.2897 480.146 52.0108V50.6936ZM483.86 43.643H485.626V49.9343L488.818 46.6957H490.988L487.919 49.6399L491.282 54.707H489.128L486.68 50.8176L485.626 51.8403V54.707H483.86V43.643ZM497.637 49.9963C497.616 49.7174 497.554 49.4488 497.451 49.1905C497.358 48.9322 497.224 48.7101 497.048 48.5242C496.883 48.3279 496.676 48.1729 496.428 48.0593C496.191 47.9353 495.922 47.8734 495.623 47.8734C495.313 47.8734 495.029 47.9302 494.77 48.0438C494.522 48.1471 494.305 48.2969 494.119 48.4932C493.944 48.6791 493.799 48.9013 493.686 49.1595C493.582 49.4178 493.525 49.6967 493.515 49.9963H497.637ZM493.515 51.1585C493.515 51.4684 493.556 51.768 493.639 52.0572C493.732 52.3465 493.866 52.5996 494.042 52.8165C494.218 53.0335 494.44 53.2091 494.708 53.3434C494.977 53.4674 495.297 53.5293 495.669 53.5293C496.186 53.5293 496.599 53.4209 496.909 53.2039C497.229 52.9767 497.467 52.6409 497.622 52.1967H499.295C499.202 52.6306 499.042 53.018 498.815 53.3589C498.587 53.6998 498.314 53.9891 497.993 54.2267C497.673 54.4539 497.312 54.6244 496.909 54.738C496.516 54.862 496.103 54.924 495.669 54.924C495.039 54.924 494.481 54.8207 493.995 54.6141C493.51 54.4074 493.097 54.1182 492.756 53.7463C492.425 53.3744 492.172 52.9302 491.997 52.4136C491.831 51.8971 491.749 51.3289 491.749 50.7091C491.749 50.1409 491.836 49.6037 492.012 49.0975C492.198 48.581 492.456 48.1316 492.787 47.7494C493.128 47.3568 493.536 47.0469 494.011 46.8196C494.486 46.5924 495.023 46.4787 495.623 46.4787C496.253 46.4787 496.816 46.613 497.312 46.8816C497.818 47.1399 498.236 47.486 498.567 47.9198C498.897 48.3537 499.135 48.8548 499.28 49.4229C499.435 49.9808 499.476 50.5593 499.404 51.1585H493.515ZM505.059 46.6957H506.733V47.8114H506.779C506.914 47.6151 507.058 47.4343 507.213 47.269C507.368 47.1037 507.539 46.9643 507.725 46.8506C507.921 46.737 508.143 46.6492 508.391 46.5872C508.639 46.5149 508.923 46.4787 509.243 46.4787C509.729 46.4787 510.178 46.5872 510.591 46.8041C511.015 47.0211 511.314 47.3568 511.49 47.8114C511.79 47.3982 512.136 47.0727 512.528 46.8351C512.921 46.5975 513.412 46.4787 514 46.4787C514.848 46.4787 515.504 46.6853 515.968 47.0986C516.444 47.5118 516.681 48.2039 516.681 49.175V54.707H514.915V50.0273C514.915 49.707 514.904 49.4178 514.884 49.1595C514.863 48.8909 514.801 48.6636 514.698 48.4777C514.605 48.2814 514.46 48.1316 514.264 48.0283C514.068 47.925 513.799 47.8734 513.458 47.8734C512.859 47.8734 512.425 48.0593 512.156 48.4312C511.888 48.8031 511.754 49.33 511.754 50.0118V54.707H509.987V49.5624C509.987 49.0046 509.884 48.5862 509.677 48.3072C509.481 48.018 509.114 47.8734 508.577 47.8734C508.35 47.8734 508.127 47.9198 507.911 48.0128C507.704 48.1058 507.518 48.2401 507.353 48.4157C507.198 48.5913 507.069 48.8083 506.965 49.0665C506.872 49.3248 506.826 49.6192 506.826 49.9498V54.707H505.059V46.6957ZM522.215 54.924C521.575 54.924 521.001 54.8207 520.495 54.6141C519.999 54.3971 519.576 54.1027 519.224 53.7308C518.883 53.3589 518.62 52.9147 518.434 52.3981C518.258 51.8816 518.171 51.3134 518.171 50.6936C518.171 50.0841 518.258 49.5211 518.434 49.0046C518.62 48.488 518.883 48.0438 519.224 47.6719C519.576 47.3 519.999 47.0108 520.495 46.8041C521.001 46.5872 521.575 46.4787 522.215 46.4787C522.856 46.4787 523.424 46.5872 523.92 46.8041C524.426 47.0108 524.849 47.3 525.19 47.6719C525.541 48.0438 525.805 48.488 525.981 49.0046C526.166 49.5211 526.259 50.0841 526.259 50.6936C526.259 51.3134 526.166 51.8816 525.981 52.3981C525.805 52.9147 525.541 53.3589 525.19 53.7308C524.849 54.1027 524.426 54.3971 523.92 54.6141C523.424 54.8207 522.856 54.924 522.215 54.924ZM522.215 53.5293C522.608 53.5293 522.948 53.4467 523.238 53.2814C523.527 53.1161 523.765 52.8992 523.951 52.6306C524.137 52.362 524.271 52.0624 524.353 51.7318C524.446 51.3909 524.493 51.0448 524.493 50.6936C524.493 50.3527 524.446 50.0118 524.353 49.6709C524.271 49.33 524.137 49.0304 523.951 48.7721C523.765 48.5035 523.527 48.2866 523.238 48.1213C522.948 47.956 522.608 47.8734 522.215 47.8734C521.822 47.8734 521.482 47.956 521.192 48.1213C520.903 48.2866 520.665 48.5035 520.479 48.7721C520.294 49.0304 520.154 49.33 520.061 49.6709C519.978 50.0118 519.937 50.3527 519.937 50.6936C519.937 51.0448 519.978 51.3909 520.061 51.7318C520.154 52.0624 520.294 52.362 520.479 52.6306C520.665 52.8992 520.903 53.1161 521.192 53.2814C521.482 53.4467 521.822 53.5293 522.215 53.5293ZM527.728 46.6957H529.386V48.2453H529.417C529.469 48.0283 529.567 47.8165 529.711 47.6099C529.866 47.4033 530.047 47.2174 530.254 47.0521C530.471 46.8765 530.708 46.737 530.967 46.6337C531.225 46.5304 531.488 46.4787 531.757 46.4787C531.964 46.4787 532.103 46.4839 532.175 46.4942C532.258 46.5046 532.341 46.5149 532.423 46.5252V48.2298C532.299 48.2091 532.17 48.1936 532.036 48.1833C531.912 48.1626 531.788 48.1523 531.664 48.1523C531.364 48.1523 531.08 48.2143 530.812 48.3382C530.553 48.4519 530.326 48.6275 530.13 48.8651C529.934 49.0924 529.779 49.3765 529.665 49.7174C529.551 50.0583 529.495 50.4508 529.495 50.8951V54.707H527.728V46.6957ZM538.404 49.9963C538.384 49.7174 538.322 49.4488 538.218 49.1905C538.126 48.9322 537.991 48.7101 537.816 48.5242C537.65 48.3279 537.444 48.1729 537.196 48.0593C536.958 47.9353 536.69 47.8734 536.39 47.8734C536.08 47.8734 535.796 47.9302 535.538 48.0438C535.29 48.1471 535.073 48.2969 534.887 48.4932C534.711 48.6791 534.567 48.9013 534.453 49.1595C534.35 49.4178 534.293 49.6967 534.283 49.9963H538.404ZM534.283 51.1585C534.283 51.4684 534.324 51.768 534.407 52.0572C534.499 52.3465 534.634 52.5996 534.809 52.8165C534.985 53.0335 535.207 53.2091 535.476 53.3434C535.744 53.4674 536.065 53.5293 536.436 53.5293C536.953 53.5293 537.366 53.4209 537.676 53.2039C537.996 52.9767 538.234 52.6409 538.389 52.1967H540.062C539.97 52.6306 539.809 53.018 539.582 53.3589C539.355 53.6998 539.081 53.9891 538.761 54.2267C538.441 54.4539 538.079 54.6244 537.676 54.738C537.284 54.862 536.87 54.924 536.436 54.924C535.806 54.924 535.248 54.8207 534.763 54.6141C534.277 54.4074 533.864 54.1182 533.523 53.7463C533.193 53.3744 532.94 52.9302 532.764 52.4136C532.599 51.8971 532.516 51.3289 532.516 50.7091C532.516 50.1409 532.604 49.6037 532.779 49.0975C532.965 48.581 533.224 48.1316 533.554 47.7494C533.895 47.3568 534.303 47.0469 534.778 46.8196C535.254 46.5924 535.791 46.4787 536.39 46.4787C537.02 46.4787 537.583 46.613 538.079 46.8816C538.585 47.1399 539.004 47.486 539.334 47.9198C539.665 48.3537 539.902 48.8548 540.047 49.4229C540.202 49.9808 540.243 50.5593 540.171 51.1585H534.283Z" fill="white"/>
  <path d="M57.6048 36.3833C58.4891 35.8722 59.5785 35.8722 60.4627 36.3833L67.5048 40.4529C68.3891 40.9639 68.9338 41.9083 68.9338 42.9303V51.0697C68.9338 52.0917 68.3891 53.0361 67.5048 53.5471L60.4627 57.6167C59.5785 58.1278 58.4891 58.1278 57.6048 57.6167L50.5627 53.5471C49.6785 53.0361 49.1338 52.0917 49.1338 51.0697V42.9303C49.1338 41.9083 49.6785 40.9639 50.5627 40.4529L57.6048 36.3833Z" fill="#FDE71B"/>
  <path opacity="0.6" d="M58.998 49.2972L62.6137 47.1117L58.998 45.4336L55.3867 47.1117L58.998 49.2972Z" fill="black"/>
  <path opacity="0.45" d="M58.998 45.4322V40.9766L55.3867 47.1103L58.998 49.2959V45.4322Z" fill="black"/>
  <path opacity="0.8" d="M58.998 49.2959L62.6137 47.1103L58.998 40.9766V45.4322V49.2959Z" fill="black"/>
  <path opacity="0.45" d="M58.998 49.9955L55.3867 47.8145L58.998 53.0224V49.9955Z" fill="black"/>
  <path opacity="0.8" d="M62.6137 47.8145L58.998 49.9955V53.0224L62.6137 47.8145Z" fill="black"/>
  <defs>
    <filter id="filter0_i" x="0" y="0" width="584" height="274" filterUnits="userSpaceOnUse" color-interpolation-filters="sRGB">
      <feFlood flood-opacity="0" result="BackgroundImageFix"/>
      <feBlend mode="normal" in="SourceGraphic" in2="BackgroundImageFix" result="shape"/>
      <feColorMatrix in="SourceAlpha" type="matrix" values="0 0 0 0 0 0 0 0 0 0 0 0 0 0 0 0 0 0 127 0" result="hardAlpha"/>
      <feOffset dy="2"/>
      <feGaussianBlur stdDeviation="1"/>
      <feComposite in2="hardAlpha" operator="arithmetic" k2="-1" k3="1"/>
      <feColorMatrix type="matrix" values="0 0 0 0 1 0 0 0 0 1 0 0 0 0 1 0 0 0 0.25 0"/>
      <feBlend mode="normal" in2="shape" result="effect1_innerShadow"/>
    </filter>
    <linearGradient id="paint0_linear" x1="583.515" y1="11.0602" x2="36.9377" y2="393.291" gradientUnits="userSpaceOnUse">
      <stop stop-color="white"/>
      <stop offset="0.0227423" stop-color="#F7F5FE" stop-opacity="0.505379"/>
      <stop offset="0.131051" stop-color="#D1C8FB" stop-opacity="0.15"/>
      <stop offset="0.493144" stop-color="#7B62F3" stop-opacity="0.06"/>
      <stop offset="0.864642" stop-color="#D1C8FB" stop-opacity="0.15"/>
      <stop offset="0.965923" stop-color="#3657EC" stop-opacity="0.63"/>
      <stop offset="1" stop-color="#7991FF"/>
    </linearGradient>
  </defs>
</svg>
