<svg xmlns="http://www.w3.org/2000/svg" fill="none" viewBox="0 0 489 228">
  <path fill="#fff" d="M54.408 223v-16.8h-2.712c-.096.64-.296 1.176-.6 1.608-.304.432-.68.784-1.128 1.056-.432.256-.928.44-1.488.552a8.47 8.47 0 01-1.704.12v2.568H51V223h3.408zm11.76-8.592c.048-.8.248-1.464.6-1.992s.8-.952 1.344-1.272a5.652 5.652 0 011.824-.672 10.05 10.05 0 012.064-.216c.624 0 1.256.048 1.896.144a5.57 5.57 0 011.752.504c.528.256.96.616 1.296 1.08.336.448.504 1.048.504 1.8v6.456c0 .56.032 1.096.096 1.608s.176.896.336 1.152h-3.456a7.815 7.815 0 01-.168-.576 8.277 8.277 0 01-.072-.624 4.441 4.441 0 01-1.92 1.176 7.706 7.706 0 01-2.256.336 6.095 6.095 0 01-1.656-.216 3.792 3.792 0 01-1.344-.672 3.243 3.243 0 01-.912-1.152c-.208-.464-.312-1.016-.312-1.656 0-.704.12-1.28.36-1.728.256-.464.576-.832.96-1.104.4-.272.848-.472 1.344-.6a13.192 13.192 0 011.536-.336 26.05 26.05 0 011.512-.192c.496-.048.936-.12 1.32-.216s.688-.232.912-.408c.224-.192.328-.464.312-.816 0-.368-.064-.656-.192-.864a1.128 1.128 0 00-.48-.504 1.565 1.565 0 00-.696-.24 4.566 4.566 0 00-.84-.072c-.672 0-1.2.144-1.584.432-.384.288-.608.768-.672 1.44h-3.408zm7.872 2.52a1.662 1.662 0 01-.552.312c-.208.064-.44.12-.696.168-.24.048-.496.088-.768.12s-.544.072-.816.12a6.734 6.734 0 00-.768.192c-.24.08-.456.192-.648.336-.176.128-.32.296-.432.504-.112.208-.168.472-.168.792 0 .304.056.56.168.768.112.208.264.376.456.504.192.112.416.192.672.24.256.048.52.072.792.072.672 0 1.192-.112 1.56-.336.368-.224.64-.488.816-.792.176-.32.28-.64.312-.96a5.45 5.45 0 00.072-.768v-1.272zm6.413-11.064V223H93.46v-3.168h-9.24v-4.2h8.304v-2.928H84.22v-3.672h9.048v-3.168H80.453zm19.354 3.168V223h3.768v-13.968h5.136v-3.168h-14.04v3.168h5.136zm10.88-3.168V223h3.768v-7.392h6.936V223h3.768v-17.136h-3.768v6.576h-6.936v-6.576h-3.768zM309.408 223v-16.8h-2.712c-.096.64-.296 1.176-.6 1.608-.304.432-.68.784-1.128 1.056-.432.256-.928.44-1.488.552a8.47 8.47 0 01-1.704.12v2.568H306V223h3.408zm12.264-17.136V223h13.008v-3.168h-9.24v-4.2h8.304v-2.928h-8.304v-3.672h9.048v-3.168h-12.816zm19.354 3.168V223h3.768v-13.968h5.136v-3.168h-14.04v3.168h5.136zm10.88-3.168V223h3.768v-7.392h6.936V223h3.768v-17.136h-3.768v6.576h-6.936v-6.576h-3.768zm31.309 9.792v-4.776h-2.568v4.776h-4.776v2.568h4.776V223h2.568v-4.776h4.776v-2.568h-4.776zm13.87-5.064V223h3.408v-5.592c0-.56.056-1.08.168-1.56.112-.48.296-.896.552-1.248a2.798 2.798 0 011.056-.864c.432-.208.96-.312 1.584-.312.208 0 .424.016.648.048.224.016.416.04.576.072v-3.168c-.272-.08-.52-.12-.744-.12a4.07 4.07 0 00-1.248.192c-.4.128-.776.312-1.128.552a3.88 3.88 0 00-.936.84c-.272.32-.488.672-.648 1.056h-.048v-2.304h-3.24zm17.258 4.872h-5.544a4.4 4.4 0 01.144-.816c.096-.304.248-.592.456-.864.224-.272.512-.496.864-.672.368-.192.824-.288 1.368-.288.832 0 1.448.224 1.848.672.416.448.704 1.104.864 1.968zm-5.544 2.16h8.952a8.76 8.76 0 00-.24-2.76 6.637 6.637 0 00-1.104-2.352 5.29 5.29 0 00-1.92-1.632c-.784-.416-1.704-.624-2.76-.624-.944 0-1.808.168-2.592.504-.768.336-1.432.8-1.992 1.392a5.955 5.955 0 00-1.296 2.064 7.237 7.237 0 00-.456 2.592c0 .96.144 1.84.432 2.64.304.8.728 1.488 1.272 2.064a5.62 5.62 0 001.992 1.344c.784.304 1.664.456 2.64.456 1.408 0 2.608-.32 3.6-.96.992-.64 1.728-1.704 2.208-3.192h-3c-.112.384-.416.752-.912 1.104-.496.336-1.088.504-1.776.504-.96 0-1.696-.248-2.208-.744-.512-.496-.792-1.296-.84-2.4zM433.957 223l3.912-12.408h-3.504l-2.28 8.4h-.048l-2.112-8.4h-3.312l-2.064 8.424h-.048l-2.28-8.424h-3.6L422.557 223h3.528l2.112-8.328h.048l2.208 8.328h3.504zm5.218-8.592c.048-.8.248-1.464.6-1.992s.8-.952 1.344-1.272a5.652 5.652 0 011.824-.672 10.05 10.05 0 012.064-.216c.624 0 1.256.048 1.896.144a5.57 5.57 0 011.752.504c.528.256.96.616 1.296 1.08.336.448.504 1.048.504 1.8v6.456c0 .56.032 1.096.096 1.608s.176.896.336 1.152h-3.456a7.815 7.815 0 01-.168-.576 8.277 8.277 0 01-.072-.624 4.441 4.441 0 01-1.92 1.176 7.706 7.706 0 01-2.256.336 6.095 6.095 0 01-1.656-.216 3.792 3.792 0 01-1.344-.672 3.243 3.243 0 01-.912-1.152c-.208-.464-.312-1.016-.312-1.656 0-.704.12-1.28.36-1.728.256-.464.576-.832.96-1.104.4-.272.848-.472 1.344-.6a13.192 13.192 0 011.536-.336 26.05 26.05 0 011.512-.192c.496-.048.936-.12 1.32-.216s.688-.232.912-.408c.224-.192.328-.464.312-.816 0-.368-.064-.656-.192-.864a1.128 1.128 0 00-.48-.504 1.565 1.565 0 00-.696-.24 4.566 4.566 0 00-.84-.072c-.672 0-1.2.144-1.584.432-.384.288-.608.768-.672 1.44h-3.408zm7.872 2.52a1.662 1.662 0 01-.552.312c-.208.064-.44.12-.696.168-.24.048-.496.088-.768.12s-.544.072-.816.12a6.734 6.734 0 00-.768.192c-.24.08-.456.192-.648.336-.176.128-.32.296-.432.504-.112.208-.168.472-.168.792 0 .304.056.56.168.768.112.208.264.376.456.504.192.112.416.192.672.24.256.048.52.072.792.072.672 0 1.192-.112 1.56-.336.368-.224.64-.488.816-.792.176-.32.28-.64.312-.96a5.45 5.45 0 00.072-.768v-1.272zm6.054-6.336V223h3.408v-5.592c0-.56.056-1.08.168-1.56.112-.48.296-.896.552-1.248a2.798 2.798 0 011.056-.864c.432-.208.96-.312 1.584-.312.208 0 .424.016.648.048.224.016.416.04.576.072v-3.168c-.272-.08-.52-.12-.744-.12a4.07 4.07 0 00-1.248.192c-.4.128-.776.312-1.128.552a3.88 3.88 0 00-.936.84c-.272.32-.488.672-.648 1.056h-.048v-2.304h-3.24zm17.714 6.168a7.57 7.57 0 01-.144 1.488c-.096.48-.256.912-.48 1.296a2.555 2.555 0 01-.912.888c-.368.224-.832.336-1.392.336-.528 0-.984-.112-1.368-.336a3.384 3.384 0 01-.936-.912 4.245 4.245 0 01-.528-1.296 6.318 6.318 0 01-.168-1.44c0-.512.048-1 .144-1.464.112-.48.28-.904.504-1.272.24-.368.552-.664.936-.888.384-.224.856-.336 1.416-.336.56 0 1.024.112 1.392.336.368.224.664.52.888.888.24.352.408.768.504 1.248.096.464.144.952.144 1.464zm.048 4.656V223h3.24v-17.136h-3.408v6.24h-.048a3.569 3.569 0 00-1.584-1.368 4.701 4.701 0 00-2.088-.48c-.912 0-1.712.184-2.4.552a5.14 5.14 0 00-1.728 1.416 6.575 6.575 0 00-1.032 2.064 8.528 8.528 0 00-.336 2.4c0 .864.112 1.696.336 2.496.24.8.584 1.512 1.032 2.136a5.203 5.203 0 001.752 1.464c.704.352 1.52.528 2.448.528.816 0 1.544-.144 2.184-.432.656-.304 1.184-.792 1.584-1.464h.048zm8.456-2.448h-3.24c.032.832.216 1.528.552 2.088.352.544.792.984 1.32 1.32.544.336 1.16.576 1.848.72.688.144 1.392.216 2.112.216.704 0 1.392-.072 2.064-.216a5.097 5.097 0 001.824-.696 3.864 3.864 0 001.272-1.32c.336-.56.504-1.248.504-2.064 0-.576-.112-1.056-.336-1.44-.224-.4-.52-.728-.888-.984a4.535 4.535 0 00-1.272-.648c-.464-.16-.944-.296-1.44-.408-.48-.112-.952-.216-1.416-.312-.464-.096-.88-.2-1.248-.312a2.769 2.769 0 01-.864-.48.935.935 0 01-.336-.744c0-.256.064-.456.192-.6.128-.16.28-.28.456-.36.192-.08.4-.128.624-.144.224-.032.432-.048.624-.048.608 0 1.136.12 1.584.36.448.224.696.664.744 1.32h3.24c-.064-.768-.264-1.4-.6-1.896a3.729 3.729 0 00-1.224-1.224 5.172 5.172 0 00-1.704-.648 9.652 9.652 0 00-1.944-.192c-.672 0-1.328.064-1.968.192-.64.112-1.216.32-1.728.624a3.447 3.447 0 00-1.248 1.2c-.304.512-.456 1.168-.456 1.968 0 .544.112 1.008.336 1.392.224.368.52.68.888.936.368.24.784.44 1.248.6.48.144.968.272 1.464.384 1.216.256 2.16.512 2.832.768.688.256 1.032.64 1.032 1.152 0 .304-.072.56-.216.768a1.788 1.788 0 01-.552.48c-.208.112-.448.2-.72.264a4.035 4.035 0 01-1.728-.048c-.304-.08-.576-.2-.816-.36a2.32 2.32 0 01-.6-.648 2.024 2.024 0 01-.216-.96z"/>
  <path fill="#fff" d="M259.28 97.28H224v-7.14h35.28v7.14zm0-16.14H224V74h35.28v7.14z" opacity=".2"/>
  <path fill="#fff" d="M392.5 171c47.22 0 85.5-38.28 85.5-85.5S439.72 0 392.5 0 307 38.28 307 85.5s38.28 85.5 85.5 85.5z"/>
  <path fill="#000" fill-opacity=".602" d="M395.163 35v37.326l31.548 14.097L395.163 35z"/>
  <path fill="#000" d="M395.163 35l-31.552 51.423 31.552-14.097V35z"/>
  <path fill="#000" fill-opacity=".602" d="M395.163 110.611v25.362l31.569-43.676-31.569 18.314z"/>
  <path fill="#000" d="M395.163 135.973v-25.366l-31.552-18.31 31.552 43.676z"/>
  <path fill="#000" fill-opacity=".2" d="M395.163 104.742l31.548-18.318-31.548-14.088v32.406z"/>
  <path fill="#000" fill-opacity=".602" d="M363.611 86.424l31.552 18.318V72.336l-31.552 14.088z"/>
  <g filter="url(#filter0_i)">
    <circle cx="85.5" cy="85.5" r="85.5" fill="url(#paint0_linear)"/>
  </g>
  <g filter="url(#filter1_di)">
    <path fill="url(#paint1_linear)" d="M85.314 123.767L55.54 108.436l29.904-18.038v24.544l4.281-2.126 5.644-2.834V79.06l-26.92-14.43-10.833 5.67 22.38 11.724L50.35 99.932v-.064l-9.925 6.055c.13 3.672 2.27 7.022 5.579 8.761l34.51 17.78a10.382 10.382 0 009.534 0l34.964-17.78c3.502-1.804 5.643-5.282 5.643-9.212V65.983c0-3.865-2.141-7.344-5.579-9.147L90.179 38.798a10.541 10.541 0 00-4.8-1.16c-1.687 0-3.308.387-4.8 1.16L46.005 56.836c-3.438 1.803-5.579 5.282-5.579 9.147V87.37h9.99V65.725L85.444 47.43l.13.065 35.157 18.23v40.005l-35.417 18.037z"/>
  </g>
  <defs>
    <linearGradient id="paint0_linear" x1="85.5" x2="85.5" y1="0" y2="171" gradientUnits="userSpaceOnUse">
      <stop stop-color="#2E2E2E"/>
      <stop offset="1"/>
    </linearGradient>
    <linearGradient id="paint1_linear" x1="85.541" x2="85.541" y1="37.639" y2="143.584" gradientUnits="userSpaceOnUse">
      <stop stop-color="#FBE716"/>
      <stop offset="1" stop-color="#FFD500"/>
    </linearGradient>
    <filter id="filter0_i" width="172" height="172" x="0" y="0" color-interpolation-filters="sRGB" filterUnits="userSpaceOnUse">
      <feFlood flood-opacity="0" result="BackgroundImageFix"/>
      <feBlend in="SourceGraphic" in2="BackgroundImageFix" result="shape"/>
      <feColorMatrix in="SourceAlpha" result="hardAlpha" values="0 0 0 0 0 0 0 0 0 0 0 0 0 0 0 0 0 0 127 0"/>
      <feOffset dx="1" dy="1"/>
      <feGaussianBlur stdDeviation=".5"/>
      <feComposite in2="hardAlpha" k2="-1" k3="1" operator="arithmetic"/>
      <feColorMatrix values="0 0 0 0 1 0 0 0 0 1 0 0 0 0 1 0 0 0 0.25 0"/>
      <feBlend in2="shape" result="effect1_innerShadow"/>
    </filter>
    <filter id="filter1_di" width="94.23" height="99.985" x="38.426" y="37.639" color-interpolation-filters="sRGB" filterUnits="userSpaceOnUse">
      <feFlood flood-opacity="0" result="BackgroundImageFix"/>
      <feColorMatrix in="SourceAlpha" values="0 0 0 0 0 0 0 0 0 0 0 0 0 0 0 0 0 0 127 0"/>
      <feOffset dy="2"/>
      <feGaussianBlur stdDeviation="1"/>
      <feColorMatrix values="0 0 0 0 1 0 0 0 0 1 0 0 0 0 1 0 0 0 0.33 0"/>
      <feBlend in2="BackgroundImageFix" result="effect1_dropShadow"/>
      <feBlend in="SourceGraphic" in2="effect1_dropShadow" result="shape"/>
      <feColorMatrix in="SourceAlpha" result="hardAlpha" values="0 0 0 0 0 0 0 0 0 0 0 0 0 0 0 0 0 0 127 0"/>
      <feOffset dy="3"/>
      <feGaussianBlur stdDeviation="2"/>
      <feComposite in2="hardAlpha" k2="-1" k3="1" operator="arithmetic"/>
      <feColorMatrix values="0 0 0 0 0.433333 0 0 0 0 0.286 0 0 0 0 0 0 0 0 0.78 0"/>
      <feBlend in2="shape" result="effect2_innerShadow"/>
    </filter>
  </defs>
</svg>