<svg width="490" height="229" viewBox="0 0 490 229" fill="none" xmlns="http://www.w3.org/2000/svg">
  <g filter="url(#filter0_i)">
    <path d="M75.0886 2.99634C82.0017 -0.998779 90.519 -0.99878 97.4321 2.99634L152.489 34.8139C159.402 38.809 163.66 46.1922 163.66 54.1825V117.818C163.66 125.808 159.402 133.191 152.489 137.186L97.4321 169.004C90.519 172.999 82.0017 172.999 75.0886 169.004L20.0321 137.186C13.119 133.191 8.86035 125.808 8.86035 117.818V54.1825C8.86035 46.1922 13.119 38.809 20.0321 34.8139L75.0886 2.99634Z" fill="url(#paint0_linear)"/>
  </g>
  <path opacity="0.6" d="M85.983 103.957L114.251 86.8698L85.983 73.75L57.749 86.8698L85.983 103.957Z" fill="black"/>
  <path opacity="0.45" d="M85.983 73.7492V38.9141L57.749 86.869L85.983 103.956V73.7492Z" fill="black"/>
  <path opacity="0.8" d="M85.9824 103.956L114.25 86.869L85.9824 38.9141V73.7493V103.956Z" fill="black"/>
  <path opacity="0.45" d="M85.983 109.421L57.749 92.3691L85.983 133.086V109.421Z" fill="black"/>
  <path opacity="0.8" d="M114.25 92.3691L85.9824 109.421V133.086L114.25 92.3691Z" fill="black"/>
  <path d="M47.408 224V207.2H44.696C44.6 207.84 44.4 208.376 44.096 208.808C43.792 209.24 43.416 209.592 42.968 209.864C42.536 210.12 42.04 210.304 41.48 210.416C40.936 210.512 40.368 210.552 39.776 210.536V213.104H44V224H47.408ZM59.1676 215.408C59.2156 214.608 59.4156 213.944 59.7676 213.416C60.1196 212.888 60.5676 212.464 61.1116 212.144C61.6556 211.824 62.2636 211.6 62.9356 211.472C63.6236 211.328 64.3116 211.256 64.9996 211.256C65.6236 211.256 66.2556 211.304 66.8956 211.4C67.5356 211.48 68.1196 211.648 68.6476 211.904C69.1756 212.16 69.6076 212.52 69.9436 212.984C70.2796 213.432 70.4476 214.032 70.4476 214.784V221.24C70.4476 221.8 70.4796 222.336 70.5436 222.848C70.6076 223.36 70.7196 223.744 70.8796 224H67.4236C67.3596 223.808 67.3036 223.616 67.2556 223.424C67.2236 223.216 67.1996 223.008 67.1836 222.8C66.6396 223.36 65.9996 223.752 65.2636 223.976C64.5276 224.2 63.7756 224.312 63.0076 224.312C62.4156 224.312 61.8636 224.24 61.3516 224.096C60.8396 223.952 60.3916 223.728 60.0076 223.424C59.6236 223.12 59.3196 222.736 59.0956 222.272C58.8876 221.808 58.7836 221.256 58.7836 220.616C58.7836 219.912 58.9036 219.336 59.1436 218.888C59.3996 218.424 59.7196 218.056 60.1036 217.784C60.5036 217.512 60.9516 217.312 61.4476 217.184C61.9596 217.04 62.4716 216.928 62.9836 216.848C63.4956 216.768 63.9996 216.704 64.4956 216.656C64.9916 216.608 65.4316 216.536 65.8156 216.44C66.1996 216.344 66.5036 216.208 66.7276 216.032C66.9516 215.84 67.0556 215.568 67.0396 215.216C67.0396 214.848 66.9756 214.56 66.8476 214.352C66.7356 214.128 66.5756 213.96 66.3676 213.848C66.1756 213.72 65.9436 213.64 65.6716 213.608C65.4156 213.56 65.1356 213.536 64.8316 213.536C64.1596 213.536 63.6316 213.68 63.2476 213.968C62.8636 214.256 62.6396 214.736 62.5756 215.408H59.1676ZM67.0396 217.928C66.8956 218.056 66.7116 218.16 66.4876 218.24C66.2796 218.304 66.0476 218.36 65.7916 218.408C65.5516 218.456 65.2956 218.496 65.0236 218.528C64.7516 218.56 64.4796 218.6 64.2076 218.648C63.9516 218.696 63.6956 218.76 63.4396 218.84C63.1996 218.92 62.9836 219.032 62.7916 219.176C62.6156 219.304 62.4716 219.472 62.3596 219.68C62.2476 219.888 62.1916 220.152 62.1916 220.472C62.1916 220.776 62.2476 221.032 62.3596 221.24C62.4716 221.448 62.6236 221.616 62.8156 221.744C63.0076 221.856 63.2316 221.936 63.4876 221.984C63.7436 222.032 64.0076 222.056 64.2796 222.056C64.9516 222.056 65.4716 221.944 65.8396 221.72C66.2076 221.496 66.4796 221.232 66.6556 220.928C66.8316 220.608 66.9356 220.288 66.9676 219.968C67.0156 219.648 67.0396 219.392 67.0396 219.2V217.928ZM73.4529 206.864V224H86.4609V220.832H77.2209V216.632H85.5249V213.704H77.2209V210.032H86.2689V206.864H73.4529ZM92.8074 210.032V224H96.5754V210.032H101.711V206.864H87.6714V210.032H92.8074ZM103.687 206.864V224H107.455V216.608H114.391V224H118.159V206.864H114.391V213.44H107.455V206.864H103.687ZM126.996 224.312C126.052 224.312 125.196 224.16 124.428 223.856C123.66 223.536 123.004 223.096 122.46 222.536C121.916 221.976 121.492 221.312 121.188 220.544C120.884 219.76 120.732 218.904 120.732 217.976C120.732 217.016 120.868 216.128 121.14 215.312C121.428 214.48 121.844 213.768 122.388 213.176C122.932 212.568 123.596 212.096 124.38 211.76C125.164 211.424 126.06 211.256 127.068 211.256C127.804 211.256 128.508 211.352 129.18 211.544C129.868 211.736 130.476 212.032 131.004 212.432C131.548 212.816 131.988 213.304 132.324 213.896C132.66 214.488 132.852 215.176 132.9 215.96H129.564C129.34 214.536 128.5 213.824 127.044 213.824C126.5 213.824 126.044 213.952 125.676 214.208C125.308 214.448 125.004 214.768 124.764 215.168C124.54 215.552 124.38 215.984 124.284 216.464C124.188 216.944 124.14 217.408 124.14 217.856C124.14 218.304 124.188 218.76 124.284 219.224C124.38 219.688 124.532 220.112 124.74 220.496C124.964 220.864 125.26 221.168 125.628 221.408C125.996 221.648 126.444 221.768 126.972 221.768C127.788 221.768 128.412 221.544 128.844 221.096C129.292 220.632 129.572 220.016 129.684 219.248H132.972C132.748 220.896 132.108 222.152 131.052 223.016C129.996 223.88 128.644 224.312 126.996 224.312Z" fill="white"/>
  <path d="M310.408 224V207.2H307.696C307.6 207.84 307.4 208.376 307.096 208.808C306.792 209.24 306.416 209.592 305.968 209.864C305.536 210.12 305.04 210.304 304.48 210.416C303.936 210.512 303.368 210.552 302.776 210.536V213.104H307V224H310.408ZM322.672 206.864V224H335.68V220.832H326.44V216.632H334.744V213.704H326.44V210.032H335.488V206.864H322.672ZM342.026 210.032V224H345.794V210.032H350.93V206.864H336.89V210.032H342.026ZM352.906 206.864V224H356.674V216.608H363.61V224H367.378V206.864H363.61V213.44H356.674V206.864H352.906ZM384.215 216.656V211.88H381.647V216.656H376.871V219.224H381.647V224H384.215V219.224H388.991V216.656H384.215ZM398.085 211.592V224H401.493V218.408C401.493 217.848 401.549 217.328 401.661 216.848C401.773 216.368 401.957 215.952 402.213 215.6C402.485 215.232 402.837 214.944 403.269 214.736C403.701 214.528 404.229 214.424 404.853 214.424C405.061 214.424 405.277 214.44 405.501 214.472C405.725 214.488 405.917 214.512 406.077 214.544V211.376C405.805 211.296 405.557 211.256 405.333 211.256C404.901 211.256 404.485 211.32 404.085 211.448C403.685 211.576 403.309 211.76 402.957 212C402.605 212.224 402.293 212.504 402.021 212.84C401.749 213.16 401.533 213.512 401.373 213.896H401.325V211.592H398.085ZM415.343 216.464H409.799C409.815 216.224 409.863 215.952 409.943 215.648C410.039 215.344 410.191 215.056 410.399 214.784C410.623 214.512 410.911 214.288 411.263 214.112C411.631 213.92 412.087 213.824 412.631 213.824C413.463 213.824 414.079 214.048 414.479 214.496C414.895 214.944 415.183 215.6 415.343 216.464ZM409.799 218.624H418.751C418.815 217.664 418.735 216.744 418.511 215.864C418.287 214.984 417.919 214.2 417.407 213.512C416.911 212.824 416.271 212.28 415.487 211.88C414.703 211.464 413.783 211.256 412.727 211.256C411.783 211.256 410.919 211.424 410.135 211.76C409.367 212.096 408.703 212.56 408.143 213.152C407.583 213.728 407.151 214.416 406.847 215.216C406.543 216.016 406.391 216.88 406.391 217.808C406.391 218.768 406.535 219.648 406.823 220.448C407.127 221.248 407.551 221.936 408.095 222.512C408.639 223.088 409.303 223.536 410.087 223.856C410.871 224.16 411.751 224.312 412.727 224.312C414.135 224.312 415.335 223.992 416.327 223.352C417.319 222.712 418.055 221.648 418.535 220.16H415.535C415.423 220.544 415.119 220.912 414.623 221.264C414.127 221.6 413.535 221.768 412.847 221.768C411.887 221.768 411.151 221.52 410.639 221.024C410.127 220.528 409.847 219.728 409.799 218.624ZM434.957 224L438.869 211.592H435.365L433.085 219.992H433.037L430.925 211.592H427.613L425.549 220.016H425.501L423.221 211.592H419.621L423.557 224H427.085L429.197 215.672H429.245L431.453 224H434.957ZM440.175 215.408C440.223 214.608 440.423 213.944 440.775 213.416C441.127 212.888 441.575 212.464 442.119 212.144C442.663 211.824 443.271 211.6 443.943 211.472C444.631 211.328 445.319 211.256 446.007 211.256C446.631 211.256 447.263 211.304 447.903 211.4C448.543 211.48 449.127 211.648 449.655 211.904C450.183 212.16 450.615 212.52 450.951 212.984C451.287 213.432 451.455 214.032 451.455 214.784V221.24C451.455 221.8 451.487 222.336 451.551 222.848C451.615 223.36 451.727 223.744 451.887 224H448.431C448.367 223.808 448.311 223.616 448.263 223.424C448.231 223.216 448.207 223.008 448.191 222.8C447.647 223.36 447.007 223.752 446.271 223.976C445.535 224.2 444.783 224.312 444.015 224.312C443.423 224.312 442.871 224.24 442.359 224.096C441.847 223.952 441.399 223.728 441.015 223.424C440.631 223.12 440.327 222.736 440.103 222.272C439.895 221.808 439.791 221.256 439.791 220.616C439.791 219.912 439.911 219.336 440.151 218.888C440.407 218.424 440.727 218.056 441.111 217.784C441.511 217.512 441.959 217.312 442.455 217.184C442.967 217.04 443.479 216.928 443.991 216.848C444.503 216.768 445.007 216.704 445.503 216.656C445.999 216.608 446.439 216.536 446.823 216.44C447.207 216.344 447.511 216.208 447.735 216.032C447.959 215.84 448.063 215.568 448.047 215.216C448.047 214.848 447.983 214.56 447.855 214.352C447.743 214.128 447.583 213.96 447.375 213.848C447.183 213.72 446.951 213.64 446.679 213.608C446.423 213.56 446.143 213.536 445.839 213.536C445.167 213.536 444.639 213.68 444.255 213.968C443.871 214.256 443.647 214.736 443.583 215.408H440.175ZM448.047 217.928C447.903 218.056 447.719 218.16 447.495 218.24C447.287 218.304 447.055 218.36 446.799 218.408C446.559 218.456 446.303 218.496 446.031 218.528C445.759 218.56 445.487 218.6 445.215 218.648C444.959 218.696 444.703 218.76 444.447 218.84C444.207 218.92 443.991 219.032 443.799 219.176C443.623 219.304 443.479 219.472 443.367 219.68C443.255 219.888 443.199 220.152 443.199 220.472C443.199 220.776 443.255 221.032 443.367 221.24C443.479 221.448 443.631 221.616 443.823 221.744C444.015 221.856 444.239 221.936 444.495 221.984C444.751 222.032 445.015 222.056 445.287 222.056C445.959 222.056 446.479 221.944 446.847 221.72C447.215 221.496 447.487 221.232 447.663 220.928C447.839 220.608 447.943 220.288 447.975 219.968C448.023 219.648 448.047 219.392 448.047 219.2V217.928ZM454.101 211.592V224H457.509V218.408C457.509 217.848 457.565 217.328 457.677 216.848C457.789 216.368 457.973 215.952 458.229 215.6C458.501 215.232 458.853 214.944 459.285 214.736C459.717 214.528 460.245 214.424 460.869 214.424C461.077 214.424 461.293 214.44 461.517 214.472C461.741 214.488 461.933 214.512 462.093 214.544V211.376C461.821 211.296 461.573 211.256 461.349 211.256C460.917 211.256 460.501 211.32 460.101 211.448C459.701 211.576 459.325 211.76 458.973 212C458.621 212.224 458.309 212.504 458.037 212.84C457.765 213.16 457.549 213.512 457.389 213.896H457.341V211.592H454.101ZM471.815 217.76C471.815 218.272 471.767 218.768 471.671 219.248C471.575 219.728 471.415 220.16 471.191 220.544C470.967 220.912 470.663 221.208 470.279 221.432C469.911 221.656 469.447 221.768 468.887 221.768C468.359 221.768 467.903 221.656 467.519 221.432C467.151 221.192 466.839 220.888 466.583 220.52C466.343 220.136 466.167 219.704 466.055 219.224C465.943 218.744 465.887 218.264 465.887 217.784C465.887 217.272 465.935 216.784 466.031 216.32C466.143 215.84 466.311 215.416 466.535 215.048C466.775 214.68 467.087 214.384 467.471 214.16C467.855 213.936 468.327 213.824 468.887 213.824C469.447 213.824 469.911 213.936 470.279 214.16C470.647 214.384 470.943 214.68 471.167 215.048C471.407 215.4 471.575 215.816 471.671 216.296C471.767 216.76 471.815 217.248 471.815 217.76ZM471.863 222.416V224H475.103V206.864H471.695V213.104H471.647C471.263 212.496 470.735 212.04 470.063 211.736C469.407 211.416 468.711 211.256 467.975 211.256C467.063 211.256 466.263 211.44 465.575 211.808C464.887 212.16 464.311 212.632 463.847 213.224C463.399 213.816 463.055 214.504 462.815 215.288C462.591 216.056 462.479 216.856 462.479 217.688C462.479 218.552 462.591 219.384 462.815 220.184C463.055 220.984 463.399 221.696 463.847 222.32C464.311 222.928 464.895 223.416 465.599 223.784C466.303 224.136 467.119 224.312 468.047 224.312C468.863 224.312 469.591 224.168 470.231 223.88C470.887 223.576 471.415 223.088 471.815 222.416H471.863ZM480.319 219.968H477.079C477.111 220.8 477.295 221.496 477.631 222.056C477.983 222.6 478.423 223.04 478.951 223.376C479.495 223.712 480.111 223.952 480.799 224.096C481.487 224.24 482.191 224.312 482.911 224.312C483.615 224.312 484.303 224.24 484.975 224.096C485.663 223.968 486.271 223.736 486.799 223.4C487.327 223.064 487.751 222.624 488.071 222.08C488.407 221.52 488.575 220.832 488.575 220.016C488.575 219.44 488.463 218.96 488.239 218.576C488.015 218.176 487.719 217.848 487.351 217.592C486.983 217.32 486.559 217.104 486.079 216.944C485.615 216.784 485.135 216.648 484.639 216.536C484.159 216.424 483.687 216.32 483.223 216.224C482.759 216.128 482.343 216.024 481.975 215.912C481.623 215.784 481.335 215.624 481.111 215.432C480.887 215.24 480.775 214.992 480.775 214.688C480.775 214.432 480.839 214.232 480.967 214.088C481.095 213.928 481.247 213.808 481.423 213.728C481.615 213.648 481.823 213.6 482.047 213.584C482.271 213.552 482.479 213.536 482.671 213.536C483.279 213.536 483.807 213.656 484.255 213.896C484.703 214.12 484.951 214.56 484.999 215.216H488.239C488.175 214.448 487.975 213.816 487.639 213.32C487.319 212.808 486.911 212.4 486.415 212.096C485.919 211.792 485.351 211.576 484.711 211.448C484.087 211.32 483.439 211.256 482.767 211.256C482.095 211.256 481.439 211.32 480.799 211.448C480.159 211.56 479.583 211.768 479.071 212.072C478.559 212.36 478.143 212.76 477.823 213.272C477.519 213.784 477.367 214.44 477.367 215.24C477.367 215.784 477.479 216.248 477.703 216.632C477.927 217 478.223 217.312 478.591 217.568C478.959 217.808 479.375 218.008 479.839 218.168C480.319 218.312 480.807 218.44 481.303 218.552C482.519 218.808 483.463 219.064 484.135 219.32C484.823 219.576 485.167 219.96 485.167 220.472C485.167 220.776 485.095 221.032 484.951 221.24C484.807 221.432 484.623 221.592 484.399 221.72C484.191 221.832 483.951 221.92 483.679 221.984C483.423 222.032 483.175 222.056 482.935 222.056C482.599 222.056 482.271 222.016 481.951 221.936C481.647 221.856 481.375 221.736 481.135 221.576C480.895 221.4 480.695 221.184 480.535 220.928C480.391 220.656 480.319 220.336 480.319 219.968Z" fill="white"/>
  <path opacity="0.2" d="M260.28 98.28H225V91.14H260.28V98.28ZM260.28 82.14H225V75H260.28V82.14Z" fill="white"/>
  <path d="M393.5 172C440.72 172 479 133.72 479 86.5C479 39.2797 440.72 1 393.5 1C346.28 1 308 39.2797 308 86.5C308 133.72 346.28 172 393.5 172Z" fill="white"/>
  <path d="M396.163 36V73.3258L427.711 87.4229L396.163 36Z" fill="black" fill-opacity="0.602"/>
  <path d="M396.163 36L364.611 87.4229L396.163 73.3258V36Z" fill="black"/>
  <path d="M396.163 111.611V136.973L427.732 93.2969L396.163 111.611Z" fill="black" fill-opacity="0.602"/>
  <path d="M396.163 136.973V111.606L364.611 93.2969L396.163 136.973Z" fill="black"/>
  <path d="M396.163 105.743L427.711 87.4246L396.163 73.3359V105.743Z" fill="black" fill-opacity="0.2"/>
  <path d="M364.611 87.4246L396.163 105.743V73.3359L364.611 87.4246Z" fill="black" fill-opacity="0.602"/>
  <defs>
    <filter id="filter0_i" x="8.86035" y="0" width="154.8" height="174" filterUnits="userSpaceOnUse" color-interpolation-filters="sRGB">
      <feFlood flood-opacity="0" result="BackgroundImageFix"/>
      <feBlend mode="normal" in="SourceGraphic" in2="BackgroundImageFix" result="shape"/>
      <feColorMatrix in="SourceAlpha" type="matrix" values="0 0 0 0 0 0 0 0 0 0 0 0 0 0 0 0 0 0 127 0" result="hardAlpha"/>
      <feOffset dy="5"/>
      <feGaussianBlur stdDeviation="1"/>
      <feComposite in2="hardAlpha" operator="arithmetic" k2="-1" k3="1"/>
      <feColorMatrix type="matrix" values="0 0 0 0 1 0 0 0 0 0.952294 0 0 0 0 0.529167 0 0 0 1 0"/>
      <feBlend mode="normal" in2="shape" result="effect1_innerShadow"/>
    </filter>
    <linearGradient id="paint0_linear" x1="86.2603" y1="0" x2="86.2603" y2="172" gradientUnits="userSpaceOnUse">
      <stop stop-color="#FBE736"/>
      <stop offset="1" stop-color="#FFE600"/>
    </linearGradient>
  </defs>
</svg>
