<svg width="488" height="235" viewBox="0 0 488 235" fill="none" xmlns="http://www.w3.org/2000/svg">
<path d="M53.408 230V213.2H50.696C50.6 213.84 50.4 214.376 50.096 214.808C49.792 215.24 49.416 215.592 48.968 215.864C48.536 216.12 48.04 216.304 47.48 216.416C46.936 216.512 46.368 216.552 45.776 216.536V219.104H50V230H53.408ZM65.1676 221.408C65.2156 220.608 65.4156 219.944 65.7676 219.416C66.1196 218.888 66.5676 218.464 67.1116 218.144C67.6556 217.824 68.2636 217.6 68.9356 217.472C69.6236 217.328 70.3116 217.256 70.9996 217.256C71.6236 217.256 72.2556 217.304 72.8956 217.4C73.5356 217.48 74.1196 217.648 74.6476 217.904C75.1756 218.16 75.6076 218.52 75.9436 218.984C76.2796 219.432 76.4476 220.032 76.4476 220.784V227.24C76.4476 227.8 76.4796 228.336 76.5436 228.848C76.6076 229.36 76.7196 229.744 76.8796 230H73.4236C73.3596 229.808 73.3036 229.616 73.2556 229.424C73.2236 229.216 73.1996 229.008 73.1836 228.8C72.6396 229.36 71.9996 229.752 71.2636 229.976C70.5276 230.2 69.7756 230.312 69.0076 230.312C68.4156 230.312 67.8636 230.24 67.3516 230.096C66.8396 229.952 66.3916 229.728 66.0076 229.424C65.6236 229.12 65.3196 228.736 65.0956 228.272C64.8876 227.808 64.7836 227.256 64.7836 226.616C64.7836 225.912 64.9036 225.336 65.1436 224.888C65.3996 224.424 65.7196 224.056 66.1036 223.784C66.5036 223.512 66.9516 223.312 67.4476 223.184C67.9596 223.04 68.4716 222.928 68.9836 222.848C69.4956 222.768 69.9996 222.704 70.4956 222.656C70.9916 222.608 71.4316 222.536 71.8156 222.44C72.1996 222.344 72.5036 222.208 72.7276 222.032C72.9516 221.84 73.0556 221.568 73.0396 221.216C73.0396 220.848 72.9756 220.56 72.8476 220.352C72.7356 220.128 72.5756 219.96 72.3676 219.848C72.1756 219.72 71.9436 219.64 71.6716 219.608C71.4156 219.56 71.1356 219.536 70.8316 219.536C70.1596 219.536 69.6316 219.68 69.2476 219.968C68.8636 220.256 68.6396 220.736 68.5756 221.408H65.1676ZM73.0396 223.928C72.8956 224.056 72.7116 224.16 72.4876 224.24C72.2796 224.304 72.0476 224.36 71.7916 224.408C71.5516 224.456 71.2956 224.496 71.0236 224.528C70.7516 224.56 70.4796 224.6 70.2076 224.648C69.9516 224.696 69.6956 224.76 69.4396 224.84C69.1996 224.92 68.9836 225.032 68.7916 225.176C68.6156 225.304 68.4716 225.472 68.3596 225.68C68.2476 225.888 68.1916 226.152 68.1916 226.472C68.1916 226.776 68.2476 227.032 68.3596 227.24C68.4716 227.448 68.6236 227.616 68.8156 227.744C69.0076 227.856 69.2316 227.936 69.4876 227.984C69.7436 228.032 70.0076 228.056 70.2796 228.056C70.9516 228.056 71.4716 227.944 71.8396 227.72C72.2076 227.496 72.4796 227.232 72.6556 226.928C72.8316 226.608 72.9356 226.288 72.9676 225.968C73.0156 225.648 73.0396 225.392 73.0396 225.2V223.928ZM79.4529 212.864V230H92.4609V226.832H83.2209V222.632H91.5249V219.704H83.2209V216.032H92.2689V212.864H79.4529ZM98.8074 216.032V230H102.575V216.032H107.711V212.864H93.6714V216.032H98.8074ZM109.687 212.864V230H113.455V222.608H120.391V230H124.159V212.864H120.391V219.44H113.455V212.864H109.687Z" fill="white"/>
<path d="M308.408 230V213.2H305.696C305.6 213.84 305.4 214.376 305.096 214.808C304.792 215.24 304.416 215.592 303.968 215.864C303.536 216.12 303.04 216.304 302.48 216.416C301.936 216.512 301.368 216.552 300.776 216.536V219.104H305V230H308.408ZM320.672 212.864V230H333.68V226.832H324.44V222.632H332.744V219.704H324.44V216.032H333.488V212.864H320.672ZM340.026 216.032V230H343.794V216.032H348.93V212.864H334.89V216.032H340.026ZM350.906 212.864V230H354.674V222.608H361.61V230H365.378V212.864H361.61V219.44H354.674V212.864H350.906ZM382.215 222.656V217.88H379.647V222.656H374.871V225.224H379.647V230H382.215V225.224H386.991V222.656H382.215ZM396.085 217.592V230H399.493V224.408C399.493 223.848 399.549 223.328 399.661 222.848C399.773 222.368 399.957 221.952 400.213 221.6C400.485 221.232 400.837 220.944 401.269 220.736C401.701 220.528 402.229 220.424 402.853 220.424C403.061 220.424 403.277 220.44 403.501 220.472C403.725 220.488 403.917 220.512 404.077 220.544V217.376C403.805 217.296 403.557 217.256 403.333 217.256C402.901 217.256 402.485 217.32 402.085 217.448C401.685 217.576 401.309 217.76 400.957 218C400.605 218.224 400.293 218.504 400.021 218.84C399.749 219.16 399.533 219.512 399.373 219.896H399.325V217.592H396.085ZM413.343 222.464H407.799C407.815 222.224 407.863 221.952 407.943 221.648C408.039 221.344 408.191 221.056 408.399 220.784C408.623 220.512 408.911 220.288 409.263 220.112C409.631 219.92 410.087 219.824 410.631 219.824C411.463 219.824 412.079 220.048 412.479 220.496C412.895 220.944 413.183 221.6 413.343 222.464ZM407.799 224.624H416.751C416.815 223.664 416.735 222.744 416.511 221.864C416.287 220.984 415.919 220.2 415.407 219.512C414.911 218.824 414.271 218.28 413.487 217.88C412.703 217.464 411.783 217.256 410.727 217.256C409.783 217.256 408.919 217.424 408.135 217.76C407.367 218.096 406.703 218.56 406.143 219.152C405.583 219.728 405.151 220.416 404.847 221.216C404.543 222.016 404.391 222.88 404.391 223.808C404.391 224.768 404.535 225.648 404.823 226.448C405.127 227.248 405.551 227.936 406.095 228.512C406.639 229.088 407.303 229.536 408.087 229.856C408.871 230.16 409.751 230.312 410.727 230.312C412.135 230.312 413.335 229.992 414.327 229.352C415.319 228.712 416.055 227.648 416.535 226.16H413.535C413.423 226.544 413.119 226.912 412.623 227.264C412.127 227.6 411.535 227.768 410.847 227.768C409.887 227.768 409.151 227.52 408.639 227.024C408.127 226.528 407.847 225.728 407.799 224.624ZM432.957 230L436.869 217.592H433.365L431.085 225.992H431.037L428.925 217.592H425.613L423.549 226.016H423.501L421.221 217.592H417.621L421.557 230H425.085L427.197 221.672H427.245L429.453 230H432.957ZM438.175 221.408C438.223 220.608 438.423 219.944 438.775 219.416C439.127 218.888 439.575 218.464 440.119 218.144C440.663 217.824 441.271 217.6 441.943 217.472C442.631 217.328 443.319 217.256 444.007 217.256C444.631 217.256 445.263 217.304 445.903 217.4C446.543 217.48 447.127 217.648 447.655 217.904C448.183 218.16 448.615 218.52 448.951 218.984C449.287 219.432 449.455 220.032 449.455 220.784V227.24C449.455 227.8 449.487 228.336 449.551 228.848C449.615 229.36 449.727 229.744 449.887 230H446.431C446.367 229.808 446.311 229.616 446.263 229.424C446.231 229.216 446.207 229.008 446.191 228.8C445.647 229.36 445.007 229.752 444.271 229.976C443.535 230.2 442.783 230.312 442.015 230.312C441.423 230.312 440.871 230.24 440.359 230.096C439.847 229.952 439.399 229.728 439.015 229.424C438.631 229.12 438.327 228.736 438.103 228.272C437.895 227.808 437.791 227.256 437.791 226.616C437.791 225.912 437.911 225.336 438.151 224.888C438.407 224.424 438.727 224.056 439.111 223.784C439.511 223.512 439.959 223.312 440.455 223.184C440.967 223.04 441.479 222.928 441.991 222.848C442.503 222.768 443.007 222.704 443.503 222.656C443.999 222.608 444.439 222.536 444.823 222.44C445.207 222.344 445.511 222.208 445.735 222.032C445.959 221.84 446.063 221.568 446.047 221.216C446.047 220.848 445.983 220.56 445.855 220.352C445.743 220.128 445.583 219.96 445.375 219.848C445.183 219.72 444.951 219.64 444.679 219.608C444.423 219.56 444.143 219.536 443.839 219.536C443.167 219.536 442.639 219.68 442.255 219.968C441.871 220.256 441.647 220.736 441.583 221.408H438.175ZM446.047 223.928C445.903 224.056 445.719 224.16 445.495 224.24C445.287 224.304 445.055 224.36 444.799 224.408C444.559 224.456 444.303 224.496 444.031 224.528C443.759 224.56 443.487 224.6 443.215 224.648C442.959 224.696 442.703 224.76 442.447 224.84C442.207 224.92 441.991 225.032 441.799 225.176C441.623 225.304 441.479 225.472 441.367 225.68C441.255 225.888 441.199 226.152 441.199 226.472C441.199 226.776 441.255 227.032 441.367 227.24C441.479 227.448 441.631 227.616 441.823 227.744C442.015 227.856 442.239 227.936 442.495 227.984C442.751 228.032 443.015 228.056 443.287 228.056C443.959 228.056 444.479 227.944 444.847 227.72C445.215 227.496 445.487 227.232 445.663 226.928C445.839 226.608 445.943 226.288 445.975 225.968C446.023 225.648 446.047 225.392 446.047 225.2V223.928ZM452.101 217.592V230H455.509V224.408C455.509 223.848 455.565 223.328 455.677 222.848C455.789 222.368 455.973 221.952 456.229 221.6C456.501 221.232 456.853 220.944 457.285 220.736C457.717 220.528 458.245 220.424 458.869 220.424C459.077 220.424 459.293 220.44 459.517 220.472C459.741 220.488 459.933 220.512 460.093 220.544V217.376C459.821 217.296 459.573 217.256 459.349 217.256C458.917 217.256 458.501 217.32 458.101 217.448C457.701 217.576 457.325 217.76 456.973 218C456.621 218.224 456.309 218.504 456.037 218.84C455.765 219.16 455.549 219.512 455.389 219.896H455.341V217.592H452.101ZM469.815 223.76C469.815 224.272 469.767 224.768 469.671 225.248C469.575 225.728 469.415 226.16 469.191 226.544C468.967 226.912 468.663 227.208 468.279 227.432C467.911 227.656 467.447 227.768 466.887 227.768C466.359 227.768 465.903 227.656 465.519 227.432C465.151 227.192 464.839 226.888 464.583 226.52C464.343 226.136 464.167 225.704 464.055 225.224C463.943 224.744 463.887 224.264 463.887 223.784C463.887 223.272 463.935 222.784 464.031 222.32C464.143 221.84 464.311 221.416 464.535 221.048C464.775 220.68 465.087 220.384 465.471 220.16C465.855 219.936 466.327 219.824 466.887 219.824C467.447 219.824 467.911 219.936 468.279 220.16C468.647 220.384 468.943 220.68 469.167 221.048C469.407 221.4 469.575 221.816 469.671 222.296C469.767 222.76 469.815 223.248 469.815 223.76ZM469.863 228.416V230H473.103V212.864H469.695V219.104H469.647C469.263 218.496 468.735 218.04 468.063 217.736C467.407 217.416 466.711 217.256 465.975 217.256C465.063 217.256 464.263 217.44 463.575 217.808C462.887 218.16 462.311 218.632 461.847 219.224C461.399 219.816 461.055 220.504 460.815 221.288C460.591 222.056 460.479 222.856 460.479 223.688C460.479 224.552 460.591 225.384 460.815 226.184C461.055 226.984 461.399 227.696 461.847 228.32C462.311 228.928 462.895 229.416 463.599 229.784C464.303 230.136 465.119 230.312 466.047 230.312C466.863 230.312 467.591 230.168 468.231 229.88C468.887 229.576 469.415 229.088 469.815 228.416H469.863ZM478.319 225.968H475.079C475.111 226.8 475.295 227.496 475.631 228.056C475.983 228.6 476.423 229.04 476.951 229.376C477.495 229.712 478.111 229.952 478.799 230.096C479.487 230.24 480.191 230.312 480.911 230.312C481.615 230.312 482.303 230.24 482.975 230.096C483.663 229.968 484.271 229.736 484.799 229.4C485.327 229.064 485.751 228.624 486.071 228.08C486.407 227.52 486.575 226.832 486.575 226.016C486.575 225.44 486.463 224.96 486.239 224.576C486.015 224.176 485.719 223.848 485.351 223.592C484.983 223.32 484.559 223.104 484.079 222.944C483.615 222.784 483.135 222.648 482.639 222.536C482.159 222.424 481.687 222.32 481.223 222.224C480.759 222.128 480.343 222.024 479.975 221.912C479.623 221.784 479.335 221.624 479.111 221.432C478.887 221.24 478.775 220.992 478.775 220.688C478.775 220.432 478.839 220.232 478.967 220.088C479.095 219.928 479.247 219.808 479.423 219.728C479.615 219.648 479.823 219.6 480.047 219.584C480.271 219.552 480.479 219.536 480.671 219.536C481.279 219.536 481.807 219.656 482.255 219.896C482.703 220.12 482.951 220.56 482.999 221.216H486.239C486.175 220.448 485.975 219.816 485.639 219.32C485.319 218.808 484.911 218.4 484.415 218.096C483.919 217.792 483.351 217.576 482.711 217.448C482.087 217.32 481.439 217.256 480.767 217.256C480.095 217.256 479.439 217.32 478.799 217.448C478.159 217.56 477.583 217.768 477.071 218.072C476.559 218.36 476.143 218.76 475.823 219.272C475.519 219.784 475.367 220.44 475.367 221.24C475.367 221.784 475.479 222.248 475.703 222.632C475.927 223 476.223 223.312 476.591 223.568C476.959 223.808 477.375 224.008 477.839 224.168C478.319 224.312 478.807 224.44 479.303 224.552C480.519 224.808 481.463 225.064 482.135 225.32C482.823 225.576 483.167 225.96 483.167 226.472C483.167 226.776 483.095 227.032 482.951 227.24C482.807 227.432 482.623 227.592 482.399 227.72C482.191 227.832 481.951 227.92 481.679 227.984C481.423 228.032 481.175 228.056 480.935 228.056C480.599 228.056 480.271 228.016 479.951 227.936C479.647 227.856 479.375 227.736 479.135 227.576C478.895 227.4 478.695 227.184 478.535 226.928C478.391 226.656 478.319 226.336 478.319 225.968Z" fill="white"/>
<g filter="url(#filter0_i)">
<path d="M68.3705 4.36586C78.453 -1.45529 90.8752 -1.45529 100.958 4.36586L153.035 34.4325C163.117 40.2536 169.328 51.0115 169.328 62.6538V122.787C169.328 134.429 163.117 145.187 153.035 151.008L100.958 181.075C90.8752 186.896 78.453 186.896 68.3705 181.075L16.2936 151.008C6.21109 145.187 0 134.429 0 122.787V62.6538C0 51.0115 6.21109 40.2536 16.2936 34.4325L68.3705 4.36586Z" fill="url(#paint0_linear)"/>
</g>
<g filter="url(#filter1_di)">
<path fill-rule="evenodd" clip-rule="evenodd" d="M86.5433 123.182C85.3685 123.808 83.9597 123.808 82.7849 123.182L60.9425 111.558C60.0147 111.064 59.0509 112.153 59.6533 113.014L82.2057 145.258C83.3999 146.965 85.9282 146.965 87.1224 145.258L109.675 113.014C110.277 112.153 109.313 111.064 108.386 111.558L86.5433 123.182ZM91.2197 153.614C88.0351 158.167 81.293 158.167 78.1085 153.614L41.3495 101.059C39.5168 98.4385 39.4204 94.9787 41.1043 92.2605L77.8633 32.9232C80.9913 27.8739 88.3368 27.8739 91.4648 32.9232L128.224 92.2605C129.908 94.9787 129.811 98.4385 127.979 101.059L91.2197 153.614ZM117.018 97.7352C119.06 96.6489 119.757 94.0632 118.54 92.0976L87.2144 41.5317C86.0414 39.6382 83.2868 39.6382 82.1138 41.5317L50.7886 92.0976C49.5709 94.0632 50.2686 96.6489 52.3098 97.7352L82.3151 113.704C83.7836 114.485 85.5446 114.485 87.0131 113.704L117.018 97.7352Z" fill="url(#paint1_linear)"/>
</g>
<path opacity="0.2" d="M258.28 104.28H223V97.14H258.28V104.28ZM258.28 88.14H223V81H258.28V88.14Z" fill="white"/>
<path d="M391.5 178C438.72 178 477 139.72 477 92.5C477 45.2797 438.72 7 391.5 7C344.28 7 306 45.2797 306 92.5C306 139.72 344.28 178 391.5 178Z" fill="white"/>
<path d="M394.163 42V79.3258L425.711 93.4229L394.163 42Z" fill="black" fill-opacity="0.602"/>
<path d="M394.163 42L362.611 93.4229L394.163 79.3258V42Z" fill="black"/>
<path d="M394.163 117.611V142.973L425.732 99.2974L394.163 117.611Z" fill="black" fill-opacity="0.602"/>
<path d="M394.163 142.973V117.607L362.611 99.2974L394.163 142.973Z" fill="black"/>
<path d="M394.163 111.742L425.711 93.4245L394.163 79.3358V111.742Z" fill="black" fill-opacity="0.2"/>
<path d="M362.611 93.4245L394.163 111.742V79.3358L362.611 93.4245Z" fill="black" fill-opacity="0.602"/>
<defs>
<filter id="filter0_i" x="0" y="0" width="171.328" height="187.441" filterUnits="userSpaceOnUse" color-interpolation-filters="sRGB">
<feFlood flood-opacity="0" result="BackgroundImageFix"/>
<feBlend mode="normal" in="SourceGraphic" in2="BackgroundImageFix" result="shape"/>
<feColorMatrix in="SourceAlpha" type="matrix" values="0 0 0 0 0 0 0 0 0 0 0 0 0 0 0 0 0 0 127 0" result="hardAlpha"/>
<feOffset dx="3" dy="3"/>
<feGaussianBlur stdDeviation="1"/>
<feComposite in2="hardAlpha" operator="arithmetic" k2="-1" k3="1"/>
<feColorMatrix type="matrix" values="0 0 0 0 1 0 0 0 0 1 0 0 0 0 1 0 0 0 0.25 0"/>
<feBlend mode="normal" in2="shape" result="effect1_innerShadow"/>
</filter>
<filter id="filter1_di" x="38.9052" y="29.1362" width="91.5179" height="131.893" filterUnits="userSpaceOnUse" color-interpolation-filters="sRGB">
<feFlood flood-opacity="0" result="BackgroundImageFix"/>
<feColorMatrix in="SourceAlpha" type="matrix" values="0 0 0 0 0 0 0 0 0 0 0 0 0 0 0 0 0 0 127 0"/>
<feOffset dy="2"/>
<feGaussianBlur stdDeviation="0.5"/>
<feColorMatrix type="matrix" values="0 0 0 0 1 0 0 0 0 1 0 0 0 0 1 0 0 0 0.15 0"/>
<feBlend mode="normal" in2="BackgroundImageFix" result="effect1_dropShadow"/>
<feBlend mode="normal" in="SourceGraphic" in2="effect1_dropShadow" result="shape"/>
<feColorMatrix in="SourceAlpha" type="matrix" values="0 0 0 0 0 0 0 0 0 0 0 0 0 0 0 0 0 0 127 0" result="hardAlpha"/>
<feOffset dy="4"/>
<feGaussianBlur stdDeviation="2"/>
<feComposite in2="hardAlpha" operator="arithmetic" k2="-1" k3="1"/>
<feColorMatrix type="matrix" values="0 0 0 0 0 0 0 0 0 0 0 0 0 0 0 0 0 0 0.25 0"/>
<feBlend mode="normal" in2="shape" result="effect2_innerShadow"/>
</filter>
<linearGradient id="paint0_linear" x1="145.148" y1="-12.1678" x2="14.495" y2="118.486" gradientUnits="userSpaceOnUse">
<stop stop-color="#9ECAFC"/>
<stop offset="0.0001" stop-color="#74B5FF"/>
<stop offset="1" stop-color="#4D00AA"/>
</linearGradient>
<linearGradient id="paint1_linear" x1="69.1342" y1="165.533" x2="122.539" y2="46.3595" gradientUnits="userSpaceOnUse">
<stop stop-color="#23004F"/>
<stop offset="1" stop-color="#4D01AA"/>
</linearGradient>
</defs>
</svg>
