<svg width="44" height="44" viewBox="0 0 44 44" fill="none" xmlns="http://www.w3.org/2000/svg">
    <rect width="44" height="44" rx="4" fill="none"/>
    <g>
        <path d="M12.7022 15.9194C18.0379 10.7423 26.6889 10.7423 32.0247 15.9194L32.6669 16.5425C32.9337 16.8014 32.9337 17.2211 32.6669 17.4799L30.4701 19.6113C30.3368 19.7407 30.1205 19.7407 29.9871 19.6113L29.1034 18.7539C25.381 15.1422 19.3459 15.1422 15.6235 18.7539L14.6771 19.6721C14.5437 19.8016 14.3275 19.8016 14.1941 19.6721L11.9973 17.5407C11.7305 17.2819 11.7305 16.8622 11.9973 16.6033L12.7022 15.9194ZM36.5678 20.3274L38.5229 22.2244C38.7896 22.4832 38.7896 22.9029 38.5229 23.1618L29.7072 31.7154C29.4404 31.9743 29.0079 31.9743 28.7411 31.7154C28.7411 31.7154 28.7411 31.7154 28.7411 31.7154L22.4842 25.6447C22.4176 25.5799 22.3094 25.5799 22.2427 25.6447C22.2427 25.6447 22.2427 25.6447 22.2427 25.6447L15.986 31.7154C15.7192 31.9743 15.2867 31.9743 15.0199 31.7154C15.0199 31.7154 15.0199 31.7154 15.0199 31.7154L6.204 23.1617C5.93721 22.9028 5.93721 22.4831 6.204 22.2243L8.1591 20.3273C8.42588 20.0685 8.85843 20.0685 9.12522 20.3273L15.3821 26.3982C15.4488 26.4629 15.557 26.4629 15.6237 26.3982C15.6237 26.3982 15.6237 26.3982 15.6237 26.3982L21.8803 20.3273C22.147 20.0684 22.5796 20.0684 22.8464 20.3273C22.8464 20.3273 22.8464 20.3273 22.8464 20.3273L29.1033 26.3982C29.17 26.4629 29.2781 26.4629 29.3448 26.3982L35.6016 20.3274C35.8684 20.0686 36.301 20.0686 36.5678 20.3274Z" fill="#3B99FC"/>
    </g>
</svg>

