<svg width="206" height="206" viewBox="0 0 206 206" fill="none" xmlns="http://www.w3.org/2000/svg">
    <g clip-path="url(#clip0)">
        <path d="M183.265 90.604L183.248 124.247L139.366 149.5V115.857L183.265 90.604Z" fill="#0F0F0F" stroke="#FFE819" stroke-miterlimit="10" stroke-linecap="round" stroke-linejoin="round"/>
        <path d="M139.45 65.3848L95.5518 90.6377L139.366 115.857L183.265 90.6041L139.45 65.3848Z" fill="#FFE819" stroke="#FFE819" stroke-miterlimit="10" stroke-linecap="round" stroke-linejoin="round"/>
        <path d="M95.5518 124.264L139.366 149.5V115.857L95.5518 90.6377V124.264Z" fill="#0F0F0F" stroke="#FFE819" stroke-miterlimit="10" stroke-linecap="round" stroke-linejoin="round"/>
        <path d="M183.264 90.6044L197.656 65.4187L153.926 40.1489L146.646 52.7754" stroke="#FFE819" stroke-miterlimit="10" stroke-linecap="round" stroke-linejoin="round"/>
        <path d="M139.4 99.0107L139.366 115.857" stroke="#FFE819" stroke-miterlimit="10" stroke-linecap="round" stroke-linejoin="round"/>
        <path d="M95.5514 90.6381L81.126 65.3851L124.806 40.1489L132.086 52.7754" stroke="#FFE819" stroke-miterlimit="10" stroke-linecap="round" stroke-linejoin="round"/>
        <path d="M153.96 124.247L168.57 115.773" stroke="#FFE819" stroke-miterlimit="10"/>
        <path d="M153.96 141.076L168.52 132.67" stroke="#FFE819" stroke-miterlimit="10"/>
        <path d="M139.4 48.5723L95.5012 73.8252L139.332 99.0446L183.231 73.7916L139.4 48.5723Z" fill="#0F0F0F" stroke="#FFE819" stroke-miterlimit="10" stroke-linecap="round" stroke-linejoin="round"/>
        <path d="M139.4 31.7593L95.5012 57.0123L139.332 82.2316L183.231 56.9786L139.4 31.7593Z" fill="#0F0F0F" stroke="#FFE819" stroke-miterlimit="10" stroke-linecap="round" stroke-linejoin="round"/>
        <path d="M49.1147 130.971L110.23 166.279L110.263 119.219L49.1147 83.9121V130.971Z" fill="#FFE819" stroke="#FFE819" stroke-miterlimit="10" stroke-linecap="round" stroke-linejoin="round"/>
        <path d="M49.0977 130.988L8.34326 154.526L69.475 189.833L110.263 166.279L49.0977 130.988Z" fill="#0F0F0F" stroke="#FFE819" stroke-miterlimit="10" stroke-linecap="round" stroke-linejoin="round"/>
        <path d="M62.9517 126.752L66.2974 128.685V117.118L62.9517 115.201V126.752Z" fill="#0F0F0F"/>
        <path d="M69.6265 130.669L72.9722 132.603V117.807L69.6265 115.891V130.669Z" fill="#0F0F0F"/>
        <path d="M76.4858 134.62L79.8316 136.554V120.077L76.4858 118.144V134.62Z" fill="#0F0F0F"/>
        <path d="M83.7324 138.823L87.0614 140.757V124.011L83.7324 122.094V138.823Z" fill="#0F0F0F"/>
        <path d="M91.2141 143.195L94.5431 145.128V121.556L91.2141 119.64V143.195Z" fill="#0F0F0F"/>
        <path d="M139.4 14.9463L95.5012 40.1993L139.332 65.4186L183.231 40.1656L139.4 14.9463Z" fill="#0F0F0F" stroke="#FFE819" stroke-miterlimit="10" stroke-linecap="round" stroke-linejoin="round"/>
        <path d="M132.204 27.6904L154.144 40.2497" stroke="#FFE819" stroke-miterlimit="10" stroke-linecap="round" stroke-linejoin="round"/>
        <path d="M124.924 31.6587L146.865 44.2179" stroke="#FFE819" stroke-miterlimit="10" stroke-linecap="round" stroke-linejoin="round"/>
        <path d="M117.862 35.8281L139.82 48.4042" stroke="#FFE819" stroke-miterlimit="10" stroke-linecap="round" stroke-linejoin="round"/>
    </g>
    <defs>
        <clipPath id="clip0">
            <rect width="190.154" height="175.728" fill="white" transform="translate(7.92285 14.5259)"/>
        </clipPath>
    </defs>
</svg>
