<svg width="156" height="156" viewBox="0 0 156 156" fill="none" xmlns="http://www.w3.org/2000/svg">
    <g clip-path="url(#clip01)">
        <path d="M138.783 68.6128L138.77 94.0897L105.54 113.213V87.7364L138.783 68.6128Z" fill="#0F0F0F" stroke="#FFE819" stroke-miterlimit="10" stroke-linecap="round" stroke-linejoin="round"/>
        <path d="M105.603 49.5146L72.3596 68.6383L105.539 87.7364L138.783 68.6128L105.603 49.5146Z" fill="#FFE819" stroke="#FFE819" stroke-miterlimit="10" stroke-linecap="round" stroke-linejoin="round"/>
        <path d="M72.3596 94.1024L105.539 113.213V87.7363L72.3596 68.6382V94.1024Z" fill="#0F0F0F" stroke="#FFE819" stroke-miterlimit="10" stroke-linecap="round" stroke-linejoin="round"/>
        <path d="M138.783 68.6128L149.682 49.5402L116.565 30.4038L111.052 39.9656" stroke="#FFE819" stroke-miterlimit="10" stroke-linecap="round" stroke-linejoin="round"/>
        <path d="M105.565 74.979L105.54 87.7366" stroke="#FFE819" stroke-miterlimit="10" stroke-linecap="round" stroke-linejoin="round"/>
        <path d="M72.3597 68.6383L61.4355 49.5147L94.5135 30.4038L100.027 39.9656" stroke="#FFE819" stroke-miterlimit="10" stroke-linecap="round" stroke-linejoin="round"/>
        <path d="M116.591 94.0893L127.655 87.6724" stroke="#FFE819" stroke-miterlimit="10"/>
        <path d="M116.591 106.834L127.617 100.468" stroke="#FFE819" stroke-miterlimit="10"/>
        <path d="M105.565 36.7827L72.3215 55.9063L105.514 75.0045L138.758 55.8809L105.565 36.7827Z" fill="#0F0F0F" stroke="#FFE819" stroke-miterlimit="10" stroke-linecap="round" stroke-linejoin="round"/>
        <path d="M105.565 24.0503L72.3215 43.1739L105.514 62.272L138.758 43.1484L105.565 24.0503Z" fill="#0F0F0F" stroke="#FFE819" stroke-miterlimit="10" stroke-linecap="round" stroke-linejoin="round"/>
        <path d="M37.1936 99.1821L83.4748 125.919L83.5002 90.2823L37.1936 63.5449V99.1821Z" fill="#FFE819" stroke="#FFE819" stroke-miterlimit="10" stroke-linecap="round" stroke-linejoin="round"/>
        <path d="M37.181 99.1948L6.31836 117.02L52.6123 143.757L83.5003 125.92L37.181 99.1948Z" fill="#0F0F0F" stroke="#FFE819" stroke-miterlimit="10" stroke-linecap="round" stroke-linejoin="round"/>
        <path d="M47.6721 95.9867L50.2058 97.4509V88.6912L47.6721 87.2397V95.9867Z" fill="#0F0F0F"/>
        <path d="M52.7268 98.9532L55.2605 100.417V89.2132L52.7268 87.7617V98.9532Z" fill="#0F0F0F"/>
        <path d="M57.9214 101.945L60.4551 103.409V90.932L57.9214 89.4678V101.945Z" fill="#0F0F0F"/>
        <path d="M63.4089 105.128L65.9299 106.592V93.9109L63.4089 92.4595V105.128Z" fill="#0F0F0F"/>
        <path d="M69.0747 108.439L71.5957 109.903V92.0525L69.0747 90.6011V108.439Z" fill="#0F0F0F"/>
        <path d="M105.565 11.3184L72.3215 30.442L105.514 49.5401L138.758 30.4165L105.565 11.3184Z" fill="#0F0F0F" stroke="#FFE819" stroke-miterlimit="10" stroke-linecap="round" stroke-linejoin="round"/>
        <path d="M100.116 20.9692L116.731 30.4801" stroke="#FFE819" stroke-miterlimit="10" stroke-linecap="round" stroke-linejoin="round"/>
        <path d="M94.6028 23.9741L111.218 33.485" stroke="#FFE819" stroke-miterlimit="10" stroke-linecap="round" stroke-linejoin="round"/>
        <path d="M89.2551 27.1318L105.883 36.6554" stroke="#FFE819" stroke-miterlimit="10" stroke-linecap="round" stroke-linejoin="round"/>
    </g>
    <defs>
        <clipPath id="clip01">
            <rect width="144" height="133.076" fill="white" transform="translate(6 11)"/>
        </clipPath>
    </defs>
</svg>
