<svg width="105" height="105" viewBox="0 0 105 105" fill="none" xmlns="http://www.w3.org/2000/svg">
    <path opacity="0.4" d="M0 4C0 1.79086 1.79086 0 4 0H105V24H4C1.79086 24 0 22.2091 0 20V4Z" fill="url(#paint0_linear)"/>
    <rect width="24" height="24" rx="4" fill="#006DFF"/>
    <path opacity="0.4" d="M0 81H101C103.209 81 105 82.7909 105 85V101C105 103.209 103.209 105 101 105H0V81Z" fill="url(#paint1_linear)"/>
    <path opacity="0.4" d="M0 40H54C60.6274 40 66 45.3726 66 52C66 58.6274 60.6274 64 54 64H0V40Z" fill="url(#paint2_linear)"/>
    <path opacity="0.4" d="M81 59L81 12C81 5.37258 86.3726 -2.34843e-07 93 -5.24537e-07C99.6274 -8.1423e-07 105 5.37258 105 12L105 59L81 59Z" fill="url(#paint3_linear)"/>
    <rect x="42" y="40" width="24" height="24" rx="12" fill="#006DFF"/>
    <rect x="81" width="24" height="24" rx="12" fill="#006DFF"/>
    <rect x="81" y="81" width="24" height="24" rx="4" fill="#006DFF"/>
    <defs>
        <linearGradient id="paint0_linear" x1="13.5" y1="10" x2="94" y2="10" gradientUnits="userSpaceOnUse">
            <stop stop-color="#006DFF"/>
            <stop offset="1" stop-color="#006DFF" stop-opacity="0"/>
        </linearGradient>
        <linearGradient id="paint1_linear" x1="105" y1="99.5" x2="1.18827e-07" y2="99.5" gradientUnits="userSpaceOnUse">
            <stop stop-color="#006DFF"/>
            <stop offset="1" stop-color="#006DFF" stop-opacity="0"/>
        </linearGradient>
        <linearGradient id="paint2_linear" x1="66" y1="58.5" x2="7.46912e-08" y2="58.5" gradientUnits="userSpaceOnUse">
            <stop stop-color="#006DFF"/>
            <stop offset="1" stop-color="#006DFF" stop-opacity="0"/>
        </linearGradient>
        <linearGradient id="paint3_linear" x1="99.5" y1="-8.75429e-07" x2="99.5" y2="59" gradientUnits="userSpaceOnUse">
            <stop stop-color="#006DFF"/>
            <stop offset="1" stop-color="#006DFF" stop-opacity="0"/>
        </linearGradient>
    </defs>
</svg>
