<svg width="126" height="126" viewBox="0 0 126 126" fill="none" xmlns="http://www.w3.org/2000/svg">
<mask id="mask0" mask-type="alpha" maskUnits="userSpaceOnUse" x="0" y="0" width="126" height="126">
<rect width="126" height="126" fill="#C4C4C4"/>
</mask>
<g mask="url(#mask0)">
<path opacity="0.4" d="M11 14C11 11.7909 12.7909 10 15 10H116V34H15C12.7909 34 11 32.2091 11 30V14Z" fill="url(#paint0_linear)"/>
<rect x="11" y="10" width="24" height="24" rx="4" fill="#006DFF"/>
<path opacity="0.4" d="M11 91H112C114.209 91 116 92.7909 116 95V111C116 113.209 114.209 115 112 115H11V91Z" fill="url(#paint1_linear)"/>
<path opacity="0.4" d="M11 50H65C71.6274 50 77 55.3726 77 62V62C77 68.6274 71.6274 74 65 74H11V50Z" fill="url(#paint2_linear)"/>
<path opacity="0.4" d="M92 69L92 22C92 15.3726 97.3726 10 104 10V10C110.627 10 116 15.3726 116 22L116 69L92 69Z" fill="url(#paint3_linear)"/>
<rect x="53" y="50" width="24" height="24" rx="12" fill="#006DFF"/>
<rect x="92" y="10" width="24" height="24" rx="12" fill="#006DFF"/>
<rect x="92" y="91" width="24" height="24" rx="4" fill="#006DFF"/>
</g>
<defs>
<linearGradient id="paint0_linear" x1="24.5" y1="20" x2="105" y2="20" gradientUnits="userSpaceOnUse">
<stop stop-color="#006DFF"/>
<stop offset="1" stop-color="#006DFF" stop-opacity="0"/>
</linearGradient>
<linearGradient id="paint1_linear" x1="116" y1="109.5" x2="11" y2="109.5" gradientUnits="userSpaceOnUse">
<stop stop-color="#006DFF"/>
<stop offset="1" stop-color="#006DFF" stop-opacity="0"/>
</linearGradient>
<linearGradient id="paint2_linear" x1="77" y1="68.5" x2="11" y2="68.5" gradientUnits="userSpaceOnUse">
<stop stop-color="#006DFF"/>
<stop offset="1" stop-color="#006DFF" stop-opacity="0"/>
</linearGradient>
<linearGradient id="paint3_linear" x1="110.5" y1="10" x2="110.5" y2="69" gradientUnits="userSpaceOnUse">
<stop stop-color="#006DFF"/>
<stop offset="1" stop-color="#006DFF" stop-opacity="0"/>
</linearGradient>
</defs>
</svg>
