<svg width="145" height="145" viewBox="0 0 145 145" fill="none" xmlns="http://www.w3.org/2000/svg">
<mask id="mask0" mask-type="alpha" maskUnits="userSpaceOnUse" x="0" y="0" width="145" height="145">
<rect width="145" height="145" fill="#C4C4C4"/>
</mask>
<g mask="url(#mask0)">
<path opacity="0.4" d="M14.2269 83.6671C13.6041 80.2822 13.3273 76.7619 13.3273 73.2416C13.3273 47.2453 29.9352 25.0401 53.3246 16.1716" stroke="url(#paint0_linear)" stroke-width="5"/>
<path opacity="0.4" d="M90.8221 16.1714C94.0745 17.2972 97.2742 18.7908 100.338 20.5252C122.96 33.3335 134.1 58.7261 130.293 83.4491" stroke="url(#paint1_linear)" stroke-width="5"/>
<path opacity="0.4" d="M106.277 121.188C103.42 123.107 100.301 124.762 97.0716 126.164C73.2244 136.514 46.2429 130.119 28.7956 112.194" stroke="url(#paint2_linear)" stroke-width="5"/>
<path d="M70.8234 11.172L48.8766 5.94238L55.3228 27.5193L70.8234 11.172Z" fill="#006DFF"/>
<path d="M141.517 82.5428L119.57 77.3132L126.016 98.8902L141.517 82.5428Z" fill="#006DFF"/>
<path d="M39.0239 105.041L17.077 99.8118L23.5233 121.389L39.0239 105.041Z" fill="#006DFF"/>
<path d="M73.5083 43.2119V51.511" stroke="#161616" stroke-miterlimit="10"/>
<path d="M73.5083 94.5222V102.901" stroke="#161616" stroke-miterlimit="10"/>
<path d="M65.7679 44.2483L67.9225 52.308" stroke="#161616" stroke-miterlimit="10"/>
<path d="M79.0945 93.804L81.2491 101.864" stroke="#161616" stroke-miterlimit="10"/>
<path d="M58.5859 47.2024L62.7355 54.4641" stroke="#161616" stroke-miterlimit="10"/>
<path d="M84.2812 91.6504L88.4308 98.9121" stroke="#161616" stroke-miterlimit="10"/>
<path d="M52.4415 51.9905L58.2669 57.8158" stroke="#161616" stroke-miterlimit="10"/>
<path d="M88.6702 88.2188L94.5753 94.1239" stroke="#161616" stroke-miterlimit="10"/>
<path d="M47.6537 58.1345L54.9154 62.2841" stroke="#161616" stroke-miterlimit="10"/>
<path d="M92.1016 83.8289L99.3633 87.9784" stroke="#161616" stroke-miterlimit="10"/>
<path d="M44.7008 65.3169L52.7605 67.4715" stroke="#161616" stroke-miterlimit="10"/>
<path d="M94.2562 78.6426L102.316 80.7971" stroke="#161616" stroke-miterlimit="10"/>
<path d="M43.6636 73.0569H51.9627" stroke="#161616" stroke-miterlimit="10"/>
<path d="M94.9742 73.0569H103.353" stroke="#161616" stroke-miterlimit="10"/>
<path d="M44.7008 80.7971L52.7605 78.6426" stroke="#161616" stroke-miterlimit="10"/>
<path d="M94.2562 67.4715L102.316 65.3169" stroke="#161616" stroke-miterlimit="10"/>
<path d="M47.6537 87.9784L54.9154 83.8289" stroke="#161616" stroke-miterlimit="10"/>
<path d="M92.1016 62.2841L99.3633 58.1345" stroke="#161616" stroke-miterlimit="10"/>
<path d="M52.4415 94.1239L58.2669 88.2188" stroke="#161616" stroke-miterlimit="10"/>
<path d="M88.6702 57.8158L94.5753 51.9905" stroke="#161616" stroke-miterlimit="10"/>
<path d="M58.5859 98.9121L62.7355 91.6504" stroke="#161616" stroke-miterlimit="10"/>
<path d="M84.2812 54.4641L88.4308 47.2024" stroke="#161616" stroke-miterlimit="10"/>
<path d="M65.7679 101.864L67.9225 93.804" stroke="#161616" stroke-miterlimit="10"/>
<path d="M79.0945 52.308L81.2491 44.2483" stroke="#161616" stroke-miterlimit="10"/>
<path d="M102.353 73.0567C102.353 88.9873 89.4389 101.902 73.5084 101.902C57.5778 101.902 44.6636 88.9873 44.6636 73.0567C44.6636 57.1262 57.5778 44.2119 73.5084 44.2119C89.4389 44.2119 102.353 57.1262 102.353 73.0567Z" fill="#006DFF" fill-opacity="0.1" stroke="#006DFF" stroke-width="2"/>
<path d="M73.6696 59V69.2559L82.338 73.1294L73.6696 59Z" fill="#006DFF" fill-opacity="0.6"/>
<path d="M73.6696 59L65 73.1294L73.6696 69.2559V59Z" fill="#006DFF"/>
<path d="M73.6696 79.7759V86.7446L82.3437 74.7439L73.6696 79.7759Z" fill="#006DFF" fill-opacity="0.6"/>
<path d="M73.6696 86.7446V79.7747L65 74.7439L73.6696 86.7446Z" fill="#006DFF"/>
<path d="M73.6696 78.1626L82.338 73.1294L73.6696 69.2583V78.1626Z" fill="#006DFF" fill-opacity="0.2"/>
<path d="M65 73.1294L73.6696 78.1626V69.2583L65 73.1294Z" fill="#006DFF" fill-opacity="0.6"/>
</g>
<defs>
<linearGradient id="paint0_linear" x1="33.3259" y1="16.1716" x2="33.3259" y2="83.6671" gradientUnits="userSpaceOnUse">
<stop stop-color="#006DFF"/>
<stop offset="1" stop-color="#006DFF" stop-opacity="0"/>
</linearGradient>
<linearGradient id="paint1_linear" x1="140.147" y1="66.0462" x2="81.412" y2="32.7915" gradientUnits="userSpaceOnUse">
<stop stop-color="#006DFF"/>
<stop offset="1" stop-color="#006DFF" stop-opacity="0"/>
</linearGradient>
<linearGradient id="paint2_linear" x1="36.7576" y1="130.54" x2="98.6732" y2="103.668" gradientUnits="userSpaceOnUse">
<stop stop-color="#006DFF"/>
<stop offset="1" stop-color="#006DFF" stop-opacity="0"/>
</linearGradient>
</defs>
</svg>
