<svg width="44" height="44" viewBox="0 0 44 44" fill="none" xmlns="http://www.w3.org/2000/svg">
    <rect width="44" height="44" rx="4" fill="none"/>
    <path d="M34.6815 9L23.752 16.9902L25.782 12.2761L34.6815 9Z" fill="#E2761B" stroke="#E2761B" stroke-linecap="round" stroke-linejoin="round"/>
    <path d="M9.47656 9L20.3074 17.0659L18.376 12.2761L9.47656 9Z" fill="#E4761B" stroke="#E4761B" stroke-linecap="round" stroke-linejoin="round"/>
    <path d="M30.7537 27.5215L27.8457 31.9112L34.0676 33.5979L35.8454 27.6188L30.7537 27.5215Z" fill="#E4761B" stroke="#E4761B" stroke-linecap="round" stroke-linejoin="round"/>
    <path d="M8.32422 27.6188L10.0909 33.5979L16.3129 31.9112L13.4159 27.5215L8.32422 27.6188Z" fill="#E4761B" stroke="#E4761B" stroke-linecap="round" stroke-linejoin="round"/>
    <path d="M15.974 20.1039L14.2402 22.6881L20.4073 22.9584L20.1988 16.417L15.974 20.1039Z" fill="#E4761B" stroke="#E4761B" stroke-linecap="round" stroke-linejoin="round"/>
    <path d="M28.1852 20.1039L23.8946 16.3413L23.752 22.9584L29.919 22.6881L28.1852 20.1039Z" fill="#E4761B" stroke="#E4761B" stroke-linecap="round" stroke-linejoin="round"/>
    <path d="M16.3125 31.9113L20.0325 30.1273L16.8283 27.6621L16.3125 31.9113Z" fill="#E4761B" stroke="#E4761B" stroke-linecap="round" stroke-linejoin="round"/>
    <path d="M24.127 30.1273L27.8469 31.9113L27.3312 27.6621L24.127 30.1273Z" fill="#E4761B" stroke="#E4761B" stroke-linecap="round" stroke-linejoin="round"/>
    <path d="M27.845 31.911L24.125 30.127L24.4213 32.5164L24.3884 33.522L27.845 31.911Z" fill="#D7C1B3" stroke="#D7C1B3" stroke-linecap="round" stroke-linejoin="round"/>
    <path d="M16.3125 31.911L19.7691 33.522L19.7472 32.5164L20.0325 30.127L16.3125 31.911Z" fill="#D7C1B3" stroke="#D7C1B3" stroke-linecap="round" stroke-linejoin="round"/>
    <path d="M19.8347 26.0835L16.7402 25.1861L18.924 24.2021L19.8347 26.0835Z" fill="#233447" stroke="#233447" stroke-linecap="round" stroke-linejoin="round"/>
    <path d="M24.3242 26.0835L25.235 24.2021L27.4297 25.1861L24.3242 26.0835Z" fill="#233447" stroke="#233447" stroke-linecap="round" stroke-linejoin="round"/>
    <path d="M16.313 31.9112L16.8507 27.5215L13.416 27.6188L16.313 31.9112Z" fill="#CD6116" stroke="#CD6116" stroke-linecap="round" stroke-linejoin="round"/>
    <path d="M27.3086 27.5215L27.8463 31.9112L30.7543 27.6188L27.3086 27.5215Z" fill="#CD6116" stroke="#CD6116" stroke-linecap="round" stroke-linejoin="round"/>
    <path d="M29.921 22.6885L23.7539 22.9588L24.3245 26.0835L25.2353 24.2022L27.43 25.1861L29.921 22.6885Z" fill="#CD6116" stroke="#CD6116" stroke-linecap="round" stroke-linejoin="round"/>
    <path d="M16.7402 25.1861L18.9239 24.2022L19.8347 26.0835L20.4054 22.9588L14.2383 22.6885L16.7402 25.1861Z" fill="#CD6116" stroke="#CD6116" stroke-linecap="round" stroke-linejoin="round"/>
    <path d="M14.2383 22.6885L16.828 27.6621L16.7402 25.1861L14.2383 22.6885Z" fill="#E4751F" stroke="#E4751F" stroke-linecap="round" stroke-linejoin="round"/>
    <path d="M27.4269 25.1861L27.3281 27.6621L29.9179 22.6885L27.4269 25.1861Z" fill="#E4751F" stroke="#E4751F" stroke-linecap="round" stroke-linejoin="round"/>
    <path d="M20.4046 22.959L19.834 26.0837L20.5582 29.7707L20.7119 24.916L20.4046 22.959Z" fill="#E4751F" stroke="#E4751F" stroke-linecap="round" stroke-linejoin="round"/>
    <path d="M23.7514 22.959L23.4551 24.9052L23.5977 29.7707L24.322 26.0837L23.7514 22.959Z" fill="#E4751F" stroke="#E4751F" stroke-linecap="round" stroke-linejoin="round"/>
    <path d="M24.3239 26.0834L23.5996 29.7704L24.1263 30.1272L27.3306 27.662L27.4293 25.186L24.3239 26.0834Z" fill="#F6851B" stroke="#F6851B" stroke-linecap="round" stroke-linejoin="round"/>
    <path d="M16.7402 25.186L16.828 27.662L20.0323 30.1272L20.559 29.7704L19.8347 26.0834L16.7402 25.186Z" fill="#F6851B" stroke="#F6851B" stroke-linecap="round" stroke-linejoin="round"/>
    <path d="M24.389 33.5221L24.4219 32.5166L24.1475 32.2787H20.0106L19.7472 32.5166L19.7691 33.5221L16.3125 31.9111L17.5196 32.8842L19.9776 34.5601H24.1805L26.6385 32.8842L27.8456 31.9111L24.389 33.5221Z" fill="#C0AD9E" stroke="#C0AD9E" stroke-linecap="round" stroke-linejoin="round"/>
    <path d="M24.1265 30.1268L23.5997 29.77H20.5601L20.0334 30.1268L19.748 32.5163L20.0114 32.2784H24.1484L24.4227 32.5163L24.1265 30.1268Z" fill="#161616" stroke="#161616" stroke-linecap="round" stroke-linejoin="round"/>
    <path d="M35.1423 17.5092L36.0641 13.0978L34.6815 9L24.125 16.7199L28.1852 20.1041L33.9243 21.7584L35.1862 20.2987L34.6376 19.9095L35.5154 19.1202L34.8461 18.6012L35.7239 17.9417L35.1423 17.5092Z" fill="#763D16" stroke="#763D16" stroke-linecap="round" stroke-linejoin="round"/>
    <path d="M8.09375 13.0978L9.02649 17.5092L8.43393 17.9417L9.3118 18.6012L8.64242 19.1202L9.5203 19.9095L8.97163 20.2987L10.2336 21.7584L15.9727 20.1041L20.0329 16.7199L9.4764 9L8.09375 13.0978Z" fill="#763D16" stroke="#763D16" stroke-linecap="round" stroke-linejoin="round"/>
    <path d="M33.9251 21.7583L28.186 20.104L29.9198 22.6881L27.3301 27.6617L30.7538 27.6185H35.8455L33.9251 21.7583Z" fill="#F6851B" stroke="#F6851B" stroke-linecap="round" stroke-linejoin="round"/>
    <path d="M15.9727 20.104L10.2336 21.7583L8.32422 27.6185H13.4159L16.8286 27.6617L14.2389 22.6881L15.9727 20.104Z" fill="#F6851B" stroke="#F6851B" stroke-linecap="round" stroke-linejoin="round"/>
    <path d="M23.7539 22.9588L24.127 16.7202L25.784 12.2764H18.377L20.0339 16.7202L20.407 22.9588L20.5497 24.9266L20.5607 29.7705H23.6003L23.6113 24.9266L23.7539 22.9588Z" fill="#F6851B" stroke="#F6851B" stroke-linecap="round" stroke-linejoin="round"/>
</svg>
