<svg width="716" height="407" fill="none" xmlns="http://www.w3.org/2000/svg"><g filter="url(#a)"><path d="M8.466 215.22 214.611 8.521A29 29 0 0 1 235.144 0h390.321a29 29 0 0 1 20.534 8.521l60.842 61.006a29.003 29.003 0 0 1 8.466 20.479v142.301c0 16.016-12.984 29-29 29H489.044c-7.71 0-15.103 3.07-20.544 8.533L340.352 398.468A28.998 28.998 0 0 1 319.808 407H76.718a29.001 29.001 0 0 1-20.534-8.521L8.466 350.632A28.998 28.998 0 0 1 0 330.154v-94.456a29 29 0 0 1 8.466-20.478z" fill="url(#b)"/></g><circle cx="178" cy="144" r="41" fill="url(#c)"/><circle cx="178" cy="144" r="41" fill="url(#d)"/><path d="M191.841 146.446c-1.001-1.779-2.602-1.779-3.603 0l-6.32 11.17c-1.001 1.75-.172 3.208 1.802 3.208h12.525c2.002 0 2.831-1.458 1.83-3.208l-6.234-11.17zM184.52 133.292l-3.289-5.92-1.401-2.538c-1.001-1.779-2.602-1.779-3.603 0l-18.302 32.753c-1.001 1.779-.172 3.208 1.83 3.208h9.18c1.659 0 3.717-1.196 4.547-2.683l11.038-19.483c.801-1.429.801-3.849 0-5.337z" fill="#E3453D"/><g filter="url(#e)"><circle cx="252" cy="70" r="41" fill="#0F0F0F"/></g><path d="M275.041 54.92c-.785-.615-1.721-1.455-3.427-1.666-1.601-.21-3.232.856-4.334 1.562-1.102.705-3.186 2.776-4.046 3.407-.861.63-3.065 1.215-6.614 3.332-3.548 2.116-17.469 11.002-17.469 11.002l3.624.045-16.156 8.27h1.615l-2.325 1.756s2.054.54 3.775-.54v.495s19.236-7.535 22.95-5.584l-2.265.66c.197 0 3.851.241 3.851.241s.12 2.266 2.325 3.722c2.204 1.441 2.25 2.237 2.25 2.237s-1.148.465-1.148 1.05c0 0 1.691-.51 3.261-.465 1.571.045 2.945.465 2.945.465s-.121-.63-1.646-1.05c-1.54-.436-3.035-2.072-3.775-2.972-.74-.9-1.253-2.507-.619-4.113.529-1.366 2.371-2.116 6.176-4.067 4.484-2.312 5.511-4.023 6.145-5.359.634-1.335 1.57-3.992 2.099-5.238.664-1.606 1.479-2.462 2.159-2.972.664-.51 3.699-1.636 3.699-1.636s-2.31-1.996-3.05-2.582z" fill="#fff"/><g filter="url(#f)"><circle cx="365" cy="70" r="41" fill="#0F0F0F"/></g><path d="M340 57.71c.047-.19.061-.387.118-.574a2.797 2.797 0 0 1 1.359-1.697c1.02-.581 2.028-1.184 3.04-1.777 2.482-1.454 4.962-2.91 7.444-4.36.335-.194.62-.302 1.094-.302l1.18.002a1.32 1.32 0 0 1 .636.146c.425.211.826.467 1.234.708 2.831 1.663 5.663 3.329 8.494 4.997.356.21.727.396 1.049.657.767.617 1.199 1.417 1.214 2.406.02 1.442.005 2.884.008 4.328 0 .069-.027.1-.081.133-1.554.898-3.107 1.8-4.663 2.699-.034.02-.071.037-.12.061v-.145c0-1.324.005-2.647 0-3.971-.005-1.223-.514-2.17-1.566-2.807-1.808-1.097-3.615-2.195-5.429-3.285-.356-.214-.759-.324-1.169-.381-.62-.084-1.219-.012-1.78.27-.356.18-.698.394-1.044.596-1.517.883-3.04 1.754-4.547 2.652-1.037.618-1.597 1.54-1.602 2.763-.008 2.106-.01 4.212 0 6.318.005 1.206.533 2.13 1.565 2.758 1.797 1.09 3.593 2.187 5.397 3.263.597.356 1.263.477 1.961.413.494-.044.942-.222 1.364-.478 2.264-1.365 4.525-2.733 6.798-4.079.937-.553 1.898-1.067 2.854-1.584 2.352-1.275 4.635-2.672 6.943-4.023.749-.438 1.477-.91 2.243-1.313 1.04-.547 2.114-.603 3.154 0 3.283 1.896 6.557 3.808 9.838 5.71.393.229.788.45 1.108.782.568.593.875 1.297.902 2.116.007.217.002.436.002.652 0 3.848.005 7.696-.002 11.541-.003 1.108-.462 2-1.379 2.626-.435.295-.907.54-1.361.804l-6.366 3.698c-.904.526-1.811 1.05-2.715 1.577-.86.502-2.316.527-3.163.03-3.426-1.993-6.857-3.976-10.278-5.98-1.042-.61-1.59-1.544-1.598-2.764-.01-1.349 0-2.697-.005-4.045 0-.106.037-.158.126-.207a2366.2 2366.2 0 0 0 4.74-2.746v4.121c0 .14.01.28.032.416.167 1.004.681 1.774 1.568 2.288 1.593.925 3.183 1.85 4.773 2.778.516.303 1.027.608 1.63.711.757.133 1.477.044 2.143-.352 1.757-1.04 3.509-2.086 5.261-3.132a3.308 3.308 0 0 0 1.143-1.11 3.14 3.14 0 0 0 .467-1.692v-6.17c0-.124-.002-.246-.014-.37-.096-1.102-.61-1.946-1.566-2.507a821.86 821.86 0 0 0-4.498-2.617c-.405-.237-.793-.51-1.233-.682-.961-.376-1.915-.388-2.824.138-2.554 1.476-5.1 2.965-7.648 4.448-3.714 2.16-7.423 4.325-11.141 6.473-.946.546-1.951.628-2.969.185-.344-.15-.658-.364-.983-.554l-9.455-5.491c-.781-.453-1.327-1.093-1.57-1.973-.049-.175-.074-.36-.108-.537C340 66.084 340 61.897 340 57.71z" fill="#794EDD"/><circle cx="107" cy="313" r="63" fill="url(#g)"/><circle cx="107" cy="313" r="63" fill="url(#h)"/><path d="M107.479 276v27l23.472 10.198L107.479 276z" fill="#fff" fill-opacity=".602"/><path d="M107.476 276 84 313.198 107.476 303v-27z" fill="#fff"/><path d="M107.479 330.695v18.346l23.488-31.594-23.488 13.248z" fill="#fff" fill-opacity=".602"/><path d="M107.476 349.042v-18.349L84 317.448l23.476 31.594z" fill="#fff"/><path d="m107.479 326.45 23.472-13.251-23.472-10.191v23.442z" fill="#fff" fill-opacity=".2"/><path d="m84 313.199 23.476 13.251v-23.442L84 313.199z" fill="#fff" fill-opacity=".602"/><g filter="url(#i)"><circle cx="278" cy="335" r="41" fill="#0F0F0F"/></g><path d="M278.14 314.375a15.65 15.65 0 0 0-11.02 4.6 15.725 15.725 0 0 0-4.589 11.046c0 1.728.278 3.445.823 5.084a2.232 2.232 0 0 0 2.742 1.374 2.227 2.227 0 0 0 1.331-2.748 10.277 10.277 0 0 1-.607-3.985c.065-2.188.763-4.31 2.01-6.108a11.254 11.254 0 0 1 11.398-4.637 11.247 11.247 0 0 1 5.687 2.976 11.303 11.303 0 0 1-1.129 17.169 11.238 11.238 0 0 1-6.029 2.202s-2.184.137-3.28.275c-.403.057-.801.135-1.195.235a.14.14 0 0 1-.099.029.143.143 0 0 1-.093-.042.152.152 0 0 1-.043-.094.154.154 0 0 1 .029-.099l.343-1.855 2.056-9.334a2.142 2.142 0 0 0-1.645-2.543 2.138 2.138 0 0 0-2.536 1.649s-4.896 22.792-4.896 22.998a2.093 2.093 0 0 0 .859 2.224c.234.158.499.266.776.318a2.081 2.081 0 0 0 2.536-1.649c.069-.275.686-3.298.686-3.298a5.54 5.54 0 0 1 4.592-4.377c.471-.069 2.458-.207 2.458-.207a15.584 15.584 0 0 0 10.286-5.252 15.661 15.661 0 0 0-.802-21.484 15.582 15.582 0 0 0-10.649-4.467z" fill="#fff"/><path d="M282.045 350.408a2.596 2.596 0 0 0-1.97.388 2.622 2.622 0 0 0-1.115 1.673 2.584 2.584 0 0 0 .377 1.982 2.59 2.59 0 0 0 1.68 1.111 2.543 2.543 0 0 0 3.075-2.062 2.716 2.716 0 0 0-.412-1.952 2.701 2.701 0 0 0-1.635-1.14z" fill="#E6007A"/><defs><filter id="a" x="0" y="0" width="715.307" height="409" filterUnits="userSpaceOnUse" color-interpolation-filters="sRGB"><feFlood flood-opacity="0" result="BackgroundImageFix"/><feBlend in="SourceGraphic" in2="BackgroundImageFix" result="shape"/><feColorMatrix in="SourceAlpha" values="0 0 0 0 0 0 0 0 0 0 0 0 0 0 0 0 0 0 127 0" result="hardAlpha"/><feOffset dy="2"/><feGaussianBlur stdDeviation="1"/><feComposite in2="hardAlpha" operator="arithmetic" k2="-1" k3="1"/><feColorMatrix values="0 0 0 0 1 0 0 0 0 1 0 0 0 0 1 0 0 0 0.25 0"/><feBlend in2="shape" result="effect1_innerShadow"/></filter><filter id="e" x="211" y="28" width="82" height="83" filterUnits="userSpaceOnUse" color-interpolation-filters="sRGB"><feFlood flood-opacity="0" result="BackgroundImageFix"/><feBlend in="SourceGraphic" in2="BackgroundImageFix" result="shape"/><feColorMatrix in="SourceAlpha" values="0 0 0 0 0 0 0 0 0 0 0 0 0 0 0 0 0 0 127 0" result="hardAlpha"/><feOffset dy="-2"/><feGaussianBlur stdDeviation=".5"/><feComposite in2="hardAlpha" operator="arithmetic" k2="-1" k3="1"/><feColorMatrix values="0 0 0 0 1 0 0 0 0 1 0 0 0 0 1 0 0 0 0.15 0"/><feBlend in2="shape" result="effect1_innerShadow"/></filter><filter id="f" x="324" y="28" width="82" height="83" filterUnits="userSpaceOnUse" color-interpolation-filters="sRGB"><feFlood flood-opacity="0" result="BackgroundImageFix"/><feBlend in="SourceGraphic" in2="BackgroundImageFix" result="shape"/><feColorMatrix in="SourceAlpha" values="0 0 0 0 0 0 0 0 0 0 0 0 0 0 0 0 0 0 127 0" result="hardAlpha"/><feOffset dy="-2"/><feGaussianBlur stdDeviation=".5"/><feComposite in2="hardAlpha" operator="arithmetic" k2="-1" k3="1"/><feColorMatrix values="0 0 0 0 1 0 0 0 0 1 0 0 0 0 1 0 0 0 0.15 0"/><feBlend in2="shape" result="effect1_innerShadow"/></filter><filter id="i" x="237" y="293" width="82" height="83" filterUnits="userSpaceOnUse" color-interpolation-filters="sRGB"><feFlood flood-opacity="0" result="BackgroundImageFix"/><feBlend in="SourceGraphic" in2="BackgroundImageFix" result="shape"/><feColorMatrix in="SourceAlpha" values="0 0 0 0 0 0 0 0 0 0 0 0 0 0 0 0 0 0 127 0" result="hardAlpha"/><feOffset dy="-2"/><feGaussianBlur stdDeviation=".5"/><feComposite in2="hardAlpha" operator="arithmetic" k2="-1" k3="1"/><feColorMatrix values="0 0 0 0 1 0 0 0 0 1 0 0 0 0 1 0 0 0 0.15 0"/><feBlend in2="shape" result="effect1_innerShadow"/></filter><linearGradient id="b" x1="751.112" y1="119.033" x2="-16.5" y2="128.5" gradientUnits="userSpaceOnUse"><stop stop-color="#1A1725"/><stop offset=".024" stop-color="#534F66" stop-opacity=".505"/><stop offset=".07" stop-color="#201C30" stop-opacity=".6"/><stop offset=".49" stop-color="#17151F"/><stop offset=".875" stop-color="#1C1A29" stop-opacity=".73"/><stop offset="1" stop-color="#222D61" stop-opacity=".41"/></linearGradient><linearGradient id="d" x1="218.83" y1="126.429" x2="137" y2="126.429" gradientUnits="userSpaceOnUse"><stop stop-color="#fff"/><stop offset=".023" stop-color="#F7F5FE" stop-opacity=".505"/><stop offset=".131" stop-color="#D1C8FB" stop-opacity=".15"/><stop offset=".493" stop-color="#7B62F3" stop-opacity=".06"/><stop offset=".74" stop-color="#E3453D" stop-opacity=".23"/><stop offset=".949" stop-color="#EC36B9" stop-opacity=".34"/><stop offset="1" stop-color="#7991FF"/></linearGradient><linearGradient id="h" x1="169.739" y1="286" x2="44" y2="286" gradientUnits="userSpaceOnUse"><stop stop-color="#fff"/><stop offset=".023" stop-color="#F7F5FE" stop-opacity=".505"/><stop offset=".131" stop-color="#D1C8FB" stop-opacity=".15"/><stop offset=".493" stop-color="#7B62F3" stop-opacity=".06"/><stop offset=".74" stop-color="#006DFF" stop-opacity=".26"/><stop offset=".949" stop-color="#3657EC" stop-opacity=".63"/><stop offset="1" stop-color="#7991FF"/></linearGradient><radialGradient id="c" cx="0" cy="0" r="1" gradientUnits="userSpaceOnUse" gradientTransform="matrix(0 41 -41 0 178 144)"><stop stop-color="#2A2834"/><stop offset=".942" stop-color="#282632"/><stop offset=".979" stop-color="#585372"/><stop offset="1" stop-color="#282632"/></radialGradient><radialGradient id="g" cx="0" cy="0" r="1" gradientUnits="userSpaceOnUse" gradientTransform="matrix(0 63 -63 0 107 313)"><stop stop-color="#2A2834"/><stop offset=".942" stop-color="#282632"/><stop offset=".979" stop-color="#585372"/><stop offset="1" stop-color="#282632"/></radialGradient></defs></svg>