<svg width="21" height="22" viewBox="0 0 21 22" fill="none" xmlns="http://www.w3.org/2000/svg">
    <path d="M19.8428 21.0079C20.4866 21.0079 21 20.4861 21 19.8503V1.15759C21 0.51358 20.4785 0 19.8428 0H1.15716C0.521537 0 0 0.521732 0 1.15759V19.8503C0 20.4943 0.521537 21.0079 1.15716 21.0079H19.8428Z" fill="#6F6F6F"/>
    <path d="M14.489 21.0076V12.8719H17.2189L17.6263 9.7007H14.489V7.67899C14.489 6.75781 14.7416 6.13825 16.0617 6.13825H17.7404V3.29318C17.4471 3.25242 16.4529 3.1709 15.2957 3.1709C12.8755 3.1709 11.2212 4.64642 11.2212 7.36106V9.7007H8.48315V12.8719H11.2212V21.0076H14.489Z" fill="#151515"/>
</svg>
