<svg xmlns="http://www.w3.org/2000/svg" fill="none" viewBox="0 0 18 18">
  <path fill="#0F0F0F" d="M9 18A9 9 0 109 0a9 9 0 000 18z"/>
  <path fill="#FFE602" d="M8.965 15.357l-4.62-2.556 4.64-3.006v4.091l.664-.354.876-.473V7.905L6.348 5.499l-1.68.945L8.138 8.4l-4.6 2.985v-.01L2 12.382c.02.612.352 1.17.866 1.46l5.354 2.964a1.512 1.512 0 001.48 0l5.424-2.964c.544-.3.876-.88.876-1.536V5.725c0-.644-.332-1.224-.866-1.525L9.72 1.193A1.545 1.545 0 008.975 1c-.262 0-.513.065-.745.193L2.866 4.2C2.332 4.5 2 5.08 2 5.725V9.29h1.55V5.682l5.435-3.05.02.011 5.455 3.039v6.668l-5.495 3.007z"/>
</svg>
