<svg width="18" height="18" viewBox="0 0 18 18" fill="none" xmlns="http://www.w3.org/2000/svg">
    <circle cx="9" cy="9" r="9" fill="#E3453D"/>
    <path d="M12.0383 9.53704C11.8186 9.14651 11.4671 9.14651 11.2474 9.53704L9.86007 11.989C9.64035 12.3732 9.82239 12.6933 10.2555 12.6933H13.005C13.4444 12.6933 13.6265 12.3732 13.4068 11.989L12.0383 9.53704Z" fill="white"/>
    <path d="M10.4313 6.6495L9.70935 5.34988L9.40176 4.7929C9.18207 4.40237 8.83053 4.40237 8.61081 4.7929L4.59331 11.9824C4.3736 12.373 4.55564 12.6866 4.99506 12.6866H6.11243H6.87827H7.01009C7.37419 12.6866 7.82614 12.4242 8.00819 12.0977L10.4313 7.82108C10.607 7.50738 10.607 6.97601 10.4313 6.6495Z" fill="white"/>
</svg>
