<svg width="65" height="22" viewBox="0 0 65 22" fill="none" xmlns="http://www.w3.org/2000/svg">
    <path fill-rule="evenodd" clip-rule="evenodd" d="M12.8909 13.7953L12.6919 13.855C11.182 14.311 9.51663 14.3064 8.01587 13.8423L7.81766 13.7808L10.1821 6.05875C10.2398 5.87071 10.5066 5.87142 10.5633 6.05946L12.8909 13.7953ZM7.47955 2.64853L0.936035 21.8347H5.35159L6.78049 17.1701L6.98012 17.2313C9.15162 17.8968 11.5419 17.9021 13.7109 17.2472L13.9109 17.1871L15.3104 21.8347H19.7189L13.2086 2.65277C12.798 1.44217 11.6604 0.627441 10.3805 0.627441H10.3062C9.02809 0.627441 7.89155 1.44005 7.47955 2.64853Z" fill="#006DFF"/>
    <path fill-rule="evenodd" clip-rule="evenodd" d="M52.905 5.92511H48.2204L43.6467 12.0718V0.627441H39.6934V21.8351H43.6467V14.2028L48.9952 21.8351H53.4026L47.555 13.5931C47.3504 13.305 47.3607 12.9166 47.5801 12.6395L52.905 5.92511Z" fill="#006DFF"/>
    <path fill-rule="evenodd" clip-rule="evenodd" d="M32.1764 5.9248H26.2336H25.8262C23.8677 5.9248 22.2803 7.51008 22.2803 9.46578V21.8348H26.2336V10.3749C26.2336 9.87261 26.641 9.46578 27.1439 9.46578H31.2661C31.769 9.46578 32.1764 9.87261 32.1764 10.3749V21.8348H36.1294V9.46578C36.1294 7.51008 34.5422 5.9248 32.5838 5.9248H32.1764Z" fill="#006DFF"/>
    <path fill-rule="evenodd" clip-rule="evenodd" d="M64.6465 5.9248H59.6759H59.2685C57.3101 5.9248 55.7227 7.51008 55.7227 9.46578V21.8348H59.6759V10.3749C59.6759 9.87261 60.0833 9.46578 60.5863 9.46578H64.6465V5.9248Z" fill="#006DFF"/>
</svg>
