<svg width="20" height="20" viewBox="0 0 20 20" fill="none" xmlns="http://www.w3.org/2000/svg">
    <path d="M8.70096 0.348412C9.50481 -0.116137 10.4952 -0.116137 11.299 0.348411L17.701 4.04812C18.5048 4.51267 19 5.37119 19 6.30029V13.6997C19 14.6288 18.5048 15.4873 17.701 15.9519L11.299 19.6516C10.4952 20.1161 9.50481 20.1161 8.70096 19.6516L2.29904 15.9519C1.49519 15.4873 1 14.6288 1 13.6997V6.30029C1 5.37119 1.49519 4.51267 2.29904 4.04812L8.70096 0.348412Z" fill="#006DFF"/>
    <path d="M10.031 5.53906C9.11628 5.54249 8.24002 5.90824 7.59323 6.55657C6.94643 7.2049 6.58155 8.08325 6.57813 9.00012C6.57808 9.38239 6.63952 9.76218 6.76008 10.1249C6.80337 10.2435 6.8903 10.3412 7.00307 10.3977C7.11584 10.4542 7.2459 10.4653 7.36661 10.4288C7.48376 10.3842 7.57949 10.2964 7.63424 10.1834C7.68899 10.0704 7.69864 9.94075 7.66121 9.82087C7.55865 9.53883 7.513 9.23919 7.5269 8.93932C7.54123 8.45525 7.69568 7.98581 7.97143 7.58816C8.24719 7.19052 8.63235 6.88183 9.08002 6.69969C9.52768 6.51756 10.0185 6.46984 10.4928 6.56235C10.967 6.65486 11.4042 6.88361 11.751 7.22073C12.0979 7.55785 12.3394 7.98879 12.4463 8.46108C12.5531 8.93336 12.5207 9.42661 12.3529 9.88073C12.185 10.3349 11.8891 10.7303 11.5011 11.0188C11.1131 11.3073 10.6497 11.4765 10.1675 11.5058C10.1675 11.5058 9.6844 11.5362 9.44179 11.5666C9.35283 11.5792 9.26461 11.5966 9.17752 11.6187C9.17126 11.6234 9.16352 11.6257 9.15572 11.6251C9.14792 11.6246 9.14058 11.6212 9.13505 11.6157C9.12952 11.6101 9.12617 11.6028 9.12561 11.595C9.12506 11.5871 9.12734 11.5794 9.13203 11.5731L9.20784 11.1627L9.66274 9.09783C9.68888 8.97488 9.66522 8.84656 9.59697 8.74109C9.52873 8.63563 9.42148 8.56166 9.29882 8.53546C9.17617 8.50926 9.04815 8.53297 8.94293 8.60138C8.83772 8.66979 8.76393 8.77729 8.73779 8.90024C8.73779 8.90024 7.65471 13.942 7.65471 13.9876C7.63979 14.0484 7.63742 14.1117 7.64774 14.1735C7.65806 14.2352 7.68085 14.2943 7.71471 14.3469C7.74858 14.3995 7.79281 14.4447 7.84469 14.4796C7.89657 14.5145 7.95502 14.5385 8.01646 14.55C8.07728 14.5646 8.14043 14.5666 8.20208 14.556C8.26372 14.5454 8.32257 14.5223 8.37504 14.4882C8.42751 14.4541 8.47252 14.4096 8.50732 14.3575C8.54212 14.3055 8.566 14.2468 8.57749 14.1852C8.59265 14.1244 8.72912 13.4556 8.72912 13.4556C8.77939 13.2095 8.90373 12.9847 9.08538 12.8115C9.26702 12.6384 9.49726 12.5252 9.74505 12.4872C9.84903 12.472 10.2888 12.4416 10.2888 12.4416C11.1675 12.3602 11.9817 11.9444 12.564 11.2797C13.1464 10.6151 13.4525 9.75201 13.4195 8.86804C13.3864 7.98407 13.0168 7.14638 12.3866 6.52719C11.7563 5.908 10.9133 5.55439 10.031 5.53906Z" fill="white"/>
    <path d="M10.8954 13.5096C10.8207 13.4944 10.7437 13.4942 10.669 13.5089C10.5942 13.5237 10.523 13.5531 10.4596 13.5954C10.3962 13.6378 10.3417 13.6923 10.2994 13.7559C10.2571 13.8194 10.2277 13.8907 10.2129 13.9657C10.1969 14.0406 10.196 14.118 10.2103 14.1933C10.2246 14.2686 10.2538 14.3403 10.2963 14.4041C10.3387 14.4678 10.3934 14.5224 10.4573 14.5646C10.5211 14.6068 10.5927 14.6358 10.6679 14.6498C10.7426 14.6668 10.82 14.6684 10.8953 14.6544C10.9706 14.6404 11.0423 14.6112 11.106 14.5685C11.1697 14.5258 11.224 14.4706 11.2657 14.4061C11.3073 14.3417 11.3354 14.2694 11.3482 14.1937C11.3738 14.0433 11.3411 13.8889 11.257 13.7617C11.1729 13.6346 11.0436 13.5445 10.8954 13.5096Z" fill="white"/>
</svg>
