<svg width="100" height="100" viewBox="0 0 100 100" fill="none" xmlns="http://www.w3.org/2000/svg">
    <rect width="100" height="100" rx="4" fill="none"/>
    <path fill-rule="evenodd" clip-rule="evenodd" d="M48.8342 27.5721C49.7476 26.8093 51.0759 26.8093 51.9892 27.5721C58.1881 32.7492 65.2567 32.7097 68.0094 32.6944C68.1462 32.6936 68.2724 32.6929 68.3873 32.6929C69.0464 32.6929 69.678 32.9573 70.1405 33.4269C70.6031 33.8965 70.8579 34.5319 70.848 35.191C70.7175 43.8374 70.371 50.0166 69.6893 54.5502C69.0081 59.0807 67.9608 62.2076 66.2598 64.5715C64.5461 66.9532 62.3446 68.3021 60.0278 69.5825C59.6254 69.8049 59.2155 70.0272 58.7964 70.2546C56.7655 71.3562 54.5172 72.5758 51.8461 74.4918C50.9888 75.1069 49.8347 75.1069 48.9773 74.4918C46.3088 72.5776 44.0635 71.3587 42.0358 70.2578C41.6146 70.0291 41.2029 69.8056 40.7986 69.582C38.4835 68.3012 36.2849 66.9519 34.5745 64.5694C32.8773 62.2053 31.8336 59.0785 31.1549 54.5489C30.4757 50.0159 30.1307 43.8371 30.0003 35.191C29.9903 34.5319 30.2452 33.8965 30.7077 33.4269C31.1703 32.9573 31.8018 32.6929 32.4609 32.6929C32.5745 32.6929 32.6995 32.6936 32.8352 32.6944C35.5655 32.7098 42.6349 32.7496 48.8342 27.5721ZM34.9665 37.5949C35.1222 44.8759 35.4567 50.0436 36.0224 53.8196C36.6509 58.014 37.5333 60.2512 38.5727 61.6991C39.599 63.1285 40.9474 64.0394 43.1812 65.2752C43.5442 65.476 43.9274 65.6838 44.3303 65.9023C46.0286 66.8232 48.075 67.9329 50.4118 69.4981C52.7518 67.9308 54.8014 66.8204 56.5026 65.8987C56.9037 65.6814 57.2854 65.4745 57.647 65.2747C59.8838 64.0385 61.2355 63.1272 62.2646 61.6969C63.3065 60.2489 64.1916 58.0119 64.8221 53.8184C65.3898 50.0429 65.7257 44.8758 65.8817 37.5954C62.3237 37.4645 56.2029 36.697 50.4117 32.5682C44.6278 36.6919 38.516 37.4625 34.9665 37.5949Z" fill="white"/>
</svg>

