<svg width="64" height="64" viewBox="0 0 64 64" fill="none" xmlns="http://www.w3.org/2000/svg">
    <rect width="64" height="64" fill="#0F0F0F"/>
    <path d="M21 26.3244L32 19.9077L43 26.3244V39.1756L32 45.5923L21 39.1756V26.3244Z" fill="#0D1B2D" stroke="#006DFF" stroke-width="2"/>
    <path d="M49 32.25H60.5M60.5 32.25L56 27.75M60.5 32.25L56 36.75" stroke="url(#paint0_linear)" stroke-width="2"/>
    <path d="M32.25 15.5L32.25 4M32.25 4L27.75 8.5M32.25 4L36.75 8.5" stroke="url(#paint1_linear)" stroke-width="2"/>
    <path d="M44.0941 20.4061L52.2258 12.2744M52.2258 12.2744H45.8619M52.2258 12.2744V18.6383" stroke="url(#paint2_linear)" stroke-width="2"/>
    <path d="M20.4059 20.4061L12.2742 12.2744M12.2742 12.2744H18.6381M12.2742 12.2744V18.6383" stroke="url(#paint3_linear)" stroke-width="2"/>
    <path d="M15.5 32.25L4 32.25M4 32.25L8.5 36.75M4 32.25L8.5 27.75" stroke="url(#paint4_linear)" stroke-width="2"/>
    <path d="M32.25 49L32.25 60.5M32.25 60.5L36.75 56M32.25 60.5L27.75 56" stroke="url(#paint5_linear)" stroke-width="2"/>
    <path d="M20.4059 44.0939L12.2742 52.2256M12.2742 52.2256L18.6381 52.2256M12.2742 52.2256L12.2742 45.8617" stroke="url(#paint6_linear)" stroke-width="2"/>
    <path d="M44.0941 44.0939L52.2258 52.2256M52.2258 52.2256L45.8619 52.2256M52.2258 52.2256L52.2258 45.8617" stroke="url(#paint7_linear)" stroke-width="2"/>
    <defs>
        <linearGradient id="paint0_linear" x1="49.0438" y1="32.7802" x2="62.4789" y2="32.7802" gradientUnits="userSpaceOnUse">
            <stop stop-color="#006DFF" stop-opacity="0"/>
            <stop offset="1" stop-color="#006DFF"/>
        </linearGradient>
        <linearGradient id="paint1_linear" x1="32.7802" y1="15.4562" x2="32.7802" y2="2.02112" gradientUnits="userSpaceOnUse">
            <stop stop-color="#006DFF" stop-opacity="0"/>
            <stop offset="1" stop-color="#006DFF"/>
        </linearGradient>
        <linearGradient id="paint2_linear" x1="44.5" y1="20.75" x2="54" y2="11.25" gradientUnits="userSpaceOnUse">
            <stop stop-color="#006DFF" stop-opacity="0"/>
            <stop offset="1" stop-color="#006DFF"/>
        </linearGradient>
        <linearGradient id="paint3_linear" x1="20" y1="20.75" x2="10.5" y2="11.25" gradientUnits="userSpaceOnUse">
            <stop stop-color="#006DFF" stop-opacity="0"/>
            <stop offset="1" stop-color="#006DFF"/>
        </linearGradient>
        <linearGradient id="paint4_linear" x1="15.4562" y1="31.7198" x2="2.02112" y2="31.7198" gradientUnits="userSpaceOnUse">
            <stop stop-color="#006DFF" stop-opacity="0"/>
            <stop offset="1" stop-color="#006DFF"/>
        </linearGradient>
        <linearGradient id="paint5_linear" x1="31.7198" y1="49.0438" x2="31.7198" y2="62.4789" gradientUnits="userSpaceOnUse">
            <stop stop-color="#006DFF" stop-opacity="0"/>
            <stop offset="1" stop-color="#006DFF"/>
        </linearGradient>
        <linearGradient id="paint6_linear" x1="20" y1="43.75" x2="10.5" y2="53.25" gradientUnits="userSpaceOnUse">
            <stop stop-color="#006DFF" stop-opacity="0"/>
            <stop offset="1" stop-color="#006DFF"/>
        </linearGradient>
        <linearGradient id="paint7_linear" x1="44.5" y1="43.75" x2="54" y2="53.25" gradientUnits="userSpaceOnUse">
            <stop stop-color="#006DFF" stop-opacity="0"/>
            <stop offset="1" stop-color="#006DFF"/>
        </linearGradient>
    </defs>
</svg>
